<svg width="18" height="18" viewBox="0 0 18 18" fill="none" xmlns="http://www.w3.org/2000/svg">
<path d="M16.7095 11.1476L17.4829 10.7486L16.6279 9.3045L15.8545 9.7035C15.2614 10.0098 14.736 10.4182 14.306 10.9072L10.7679 9L14.3064 7.09275C14.7364 7.58176 15.2618 7.99023 15.8549 8.2965L16.6283 8.6955L17.4833 7.25138L16.7099 6.85238C16.3993 6.69229 16.1159 6.49009 15.8689 6.25238L18 5.10188L17.1161 3.675L14.9866 4.82175C14.8889 4.50305 14.8426 4.17255 14.8492 3.84113L14.8657 3.01613L13.0978 2.98538L13.0813 3.81037C13.0689 4.4423 13.1846 5.07073 13.4225 5.6625L9.88393 7.57088V3.75675C10.5525 3.65353 11.1941 3.43302 11.7747 3.10687L12.5317 2.68125L11.6192 1.26788L10.8623 1.6935C10.558 1.86426 10.2283 1.99202 9.88393 2.07262V0H8.11607V2.07262C7.77169 1.99202 7.442 1.86426 7.13772 1.6935L6.38076 1.26788L5.4683 2.68125L6.22527 3.10687C6.8059 3.43302 7.44748 3.65353 8.11607 3.75675V7.57088L4.57754 5.6625C4.81613 5.07036 4.93242 4.4414 4.92027 3.80887L4.90379 2.98388L3.13594 3.01463L3.15241 3.83962C3.159 4.17105 3.11269 4.50155 3.015 4.82025L0.883929 3.675L0 5.10375L2.13147 6.25275C1.8845 6.49047 1.6011 6.69267 1.29054 6.85275L0.517098 7.25138L1.3721 8.6955L2.14554 8.2965C2.73859 7.99023 3.26403 7.58176 3.69402 7.09275L7.23214 9L3.69362 10.9072C3.26363 10.4182 2.73819 10.0098 2.14513 9.7035L1.3721 9.3045L0.517098 10.7486L1.29054 11.1476C1.6011 11.3077 1.8845 11.5099 2.13147 11.7476L0 12.9L0.883929 14.3287L3.0154 13.1801C3.11309 13.4988 3.1594 13.8293 3.15281 14.1607L3.13634 14.9857L4.9042 15.0165L4.92067 14.1915C4.93275 13.5588 4.81632 12.9297 4.57754 12.3375L8.11607 10.4291V14.2432C7.44748 14.3465 6.8059 14.567 6.22527 14.8931L5.4683 15.3188L6.38076 16.7321L7.13772 16.3065C7.442 16.1357 7.77169 16.008 8.11607 15.9274V18H9.88393V15.9274C10.2283 16.008 10.558 16.1357 10.8623 16.3065L11.6192 16.7321L12.5317 15.3188L11.7747 14.8931C11.1941 14.567 10.5525 14.3465 9.88393 14.2432V10.4291L13.4225 12.3375C13.1839 12.9296 13.0676 13.5586 13.0797 14.1911L13.0962 15.0161L14.8641 14.9854L14.8476 14.1604C14.8414 13.8284 14.8882 13.4974 14.9866 13.1783L17.1161 14.3269L18 12.9L15.8705 11.7491C16.1168 11.511 16.3995 11.3083 16.7095 11.1476Z" fill="url(#paint0_linear_498_37228)"/>
<defs>
<linearGradient id="paint0_linear_498_37228" x1="15.1364" y1="19.2273" x2="4.5" y2="0.81818" gradientUnits="userSpaceOnUse">
<stop stop-color="#383838"/>
<stop offset="1" stop-color="#8264F9"/>
</linearGradient>
</defs>
</svg>
