<svg width="18" height="12" viewBox="0 0 18 12" fill="none" xmlns="http://www.w3.org/2000/svg">
<path d="M2.25 6.64811H17.4375C17.5898 6.64811 17.7217 6.70292 17.833 6.81253C17.9443 6.92215 18 7.05195 18 7.20195V11.0789H15.75V8.86349H2.25V11.0789H0V0.555799C0 0.405799 0.0556641 0.275992 0.166992 0.166376C0.27832 0.0567608 0.410156 0.00195312 0.5625 0.00195312H1.6875C1.83984 0.00195312 1.97168 0.0567608 2.08301 0.166376C2.19434 0.275992 2.25 0.405799 2.25 0.555799V6.64811ZM7.3125 3.87888C7.3125 3.26734 7.09277 2.74522 6.65332 2.31253C6.21387 1.87984 5.68359 1.66349 5.0625 1.66349C4.44141 1.66349 3.91113 1.87984 3.47168 2.31253C3.03223 2.74522 2.8125 3.26734 2.8125 3.87888C2.8125 4.49042 3.03223 5.01253 3.47168 5.44522C3.91113 5.87792 4.44141 6.09426 5.0625 6.09426C5.68359 6.09426 6.21387 5.87792 6.65332 5.44522C7.09277 5.01253 7.3125 4.49042 7.3125 3.87888ZM18 6.09426V5.54042C18 4.62311 17.6704 3.83993 17.0112 3.1909C16.3521 2.54186 15.5566 2.21734 14.625 2.21734H8.4375C8.28516 2.21734 8.15332 2.27215 8.04199 2.38176C7.93066 2.49138 7.875 2.62118 7.875 2.77118V6.09426H18Z" fill="url(#paint0_linear_498_38175)"/>
<defs>
<linearGradient id="paint0_linear_498_38175" x1="17.0526" y1="11.0789" x2="1.70418" y2="-0.377372" gradientUnits="userSpaceOnUse">
<stop stop-color="#383838"/>
<stop offset="1" stop-color="#8264F9"/>
</linearGradient>
</defs>
</svg>
