<svg width="18" height="17" viewBox="0 0 18 17" fill="none" xmlns="http://www.w3.org/2000/svg">
<path d="M17.55 14.026H17.1C16.3676 14.026 15.8119 13.7184 15.5225 13.3722C15.2722 13.0723 14.9695 12.8571 14.6289 12.8571H14.1705C13.8299 12.8571 13.5273 13.0723 13.277 13.3722C12.9881 13.7184 12.4324 14.026 11.7 14.026C10.9676 14.026 10.4119 13.7184 10.1225 13.3722C9.87216 13.0723 9.56953 12.8571 9.22894 12.8571H8.7705C8.42991 12.8571 8.12728 13.0723 7.87697 13.3722C7.58813 13.7184 7.03237 14.026 6.3 14.026C5.56763 14.026 5.01188 13.7184 4.72247 13.3722C4.47216 13.0723 4.16953 12.8571 3.82894 12.8571H3.3705C3.02991 12.8571 2.72728 13.0723 2.47697 13.3722C2.18812 13.7184 1.63238 14.026 0.9 14.026H0.45C0.201375 14.026 0 14.2875 0 14.6104V15.7792C0 16.1021 0.201375 16.3636 0.45 16.3636H0.9C1.98619 16.3636 2.94525 15.9184 3.6 15.2006C4.25475 15.9187 5.21381 16.3636 6.3 16.3636C7.38619 16.3636 8.34525 15.9184 9 15.2006C9.65475 15.9187 10.6138 16.3636 11.7 16.3636C12.7862 16.3636 13.7452 15.9184 14.4 15.2006C15.0547 15.9187 16.0138 16.3636 17.1 16.3636H17.55C17.7986 16.3636 18 16.1021 18 15.7792V14.6104C18 14.2875 17.7986 14.026 17.55 14.026ZM6.3 12.8571V9.35065H11.7V12.8571C12.2378 12.8571 12.5679 12.6321 12.6672 12.5131C12.9251 12.2041 13.2072 11.9893 13.5 11.853V3.50649C13.5 2.86218 13.9039 2.33766 14.4 2.33766C14.8961 2.33766 15.3 2.86218 15.3 3.50649V4.09091C15.3 4.4138 15.5014 4.67532 15.75 4.67532H16.65C16.8986 4.67532 17.1 4.4138 17.1 4.09091V3.50649C17.1 1.57281 15.8889 0 14.4 0C12.9111 0 11.7 1.57281 11.7 3.50649V7.01299H6.3V3.50649C6.3 2.86218 6.70388 2.33766 7.2 2.33766C7.69612 2.33766 8.1 2.86218 8.1 3.50649V4.09091C8.1 4.4138 8.30137 4.67532 8.55 4.67532H9.45C9.69862 4.67532 9.9 4.4138 9.9 4.09091V3.50649C9.9 1.57281 8.68894 0 7.2 0C5.71106 0 4.5 1.57281 4.5 3.50649V11.8527C4.79278 11.9889 5.07487 12.2041 5.33278 12.5127C5.43206 12.6321 5.76225 12.8571 6.3 12.8571Z" fill="url(#paint0_linear_498_37218)"/>
<defs>
<linearGradient id="paint0_linear_498_37218" x1="16.776" y1="14.4468" x2="2.49519" y2="3.72716" gradientUnits="userSpaceOnUse">
<stop stop-color="#383838"/>
<stop offset="1" stop-color="#8264F9"/>
</linearGradient>
</defs>
</svg>
