<svg width="18" height="17" viewBox="0 0 18 17" fill="none" xmlns="http://www.w3.org/2000/svg">
<path d="M12.8068 7.08887C13.201 7.08985 13.5916 7.01973 13.9558 6.88257C14.32 6.7454 14.6507 6.54392 14.9286 6.28978L17.8163 3.66648C18.0446 3.45887 18.0657 3.12103 17.8481 2.90319C17.7935 2.84846 17.7273 2.80438 17.6534 2.77364C17.5795 2.74289 17.4994 2.72612 17.4182 2.72434C17.3369 2.72255 17.2561 2.73579 17.1807 2.76325C17.1052 2.79072 17.0367 2.83183 16.9792 2.8841L14.4055 5.22205C14.3191 5.30051 14.2019 5.34458 14.0798 5.34458C13.9577 5.34458 13.8405 5.30051 13.7541 5.22205C13.5745 5.0591 13.5842 4.78364 13.7635 4.62069L16.326 2.29126C16.3834 2.23904 16.4286 2.17676 16.4587 2.1082C16.4889 2.03964 16.5035 1.96622 16.5015 1.89239C16.4995 1.81857 16.4811 1.74588 16.4473 1.67872C16.4135 1.61157 16.3651 1.55135 16.305 1.50171C16.1964 1.41218 16.0548 1.36291 15.9082 1.36364C15.742 1.36375 15.5827 1.42383 15.4653 1.53069L12.9051 3.85773C12.8186 3.9362 12.7015 3.98027 12.5794 3.98027C12.4572 3.98027 12.3401 3.9362 12.2537 3.85773C12.0744 3.69478 12.0838 3.41932 12.263 3.25637L14.8255 0.927621C14.883 0.875402 14.9281 0.813124 14.9583 0.744563C14.9885 0.676001 15.003 0.602583 15.0011 0.528759C14.9991 0.454935 14.9807 0.382242 14.9469 0.315087C14.9131 0.247931 14.8647 0.187711 14.8045 0.138076C14.6959 0.0485404 14.5543 -0.000725304 14.4077 8.07158e-06C14.2416 0.000186856 14.0823 0.0602612 13.9649 0.167053L11.0791 2.79035C10.7995 3.04309 10.5779 3.34374 10.427 3.67489C10.2761 4.00604 10.199 4.36112 10.2001 4.71955V5.00012C10.2001 5.07185 10.1846 5.14289 10.1544 5.20917C10.1243 5.27545 10.08 5.33566 10.0242 5.38637L8.68875 6.60069C8.67482 6.61336 8.65828 6.62342 8.64007 6.63029C8.62186 6.63715 8.60234 6.64068 8.58262 6.64068C8.56291 6.64068 8.54339 6.63715 8.52518 6.63029C8.50697 6.62342 8.49043 6.61336 8.4765 6.60069L1.97822 0.693076C1.86607 0.591005 1.71399 0.533482 1.55529 0.533099C1.39659 0.532716 1.24419 0.589503 1.13144 0.69103C0.563287 1.20273 0.259899 1.92512 0.259899 2.77978C0.256149 4.19114 1.07218 5.81387 2.38961 7.00978L5.59412 9.92284C6.04958 10.336 6.66674 10.5681 7.3102 10.5682C7.51533 10.5683 7.71963 10.5444 7.9181 10.4973C7.96793 10.4854 8.01922 10.4793 8.07073 10.4792C8.22136 10.4792 8.36643 10.531 8.47687 10.6241L8.90401 10.9827C9.01418 11.085 9.07607 11.2224 9.07652 11.3656V11.5544C9.07542 11.9838 9.26104 12.3961 9.59292 12.7016L12.9699 15.8233L12.9733 15.8267C13.3481 16.1674 13.8565 16.3588 14.3865 16.3587C14.9165 16.3587 15.4249 16.1673 15.7996 15.8265C16.1744 15.4858 16.3849 15.0237 16.3849 14.5419C16.3848 14.06 16.1742 13.598 15.7994 13.2573L10.7375 8.65569C10.7235 8.64302 10.7125 8.62798 10.7049 8.61143C10.6974 8.59487 10.6935 8.57713 10.6935 8.55921C10.6935 8.54129 10.6974 8.52354 10.7049 8.50699C10.7125 8.49043 10.7235 8.4754 10.7375 8.46273L12.0729 7.24875C12.1286 7.19806 12.1948 7.15784 12.2677 7.13041C12.3405 7.10297 12.4186 7.08886 12.4974 7.08887H12.8068Z" fill="url(#paint0_linear_498_37212)"/>
<path d="M7.31018 11.6591C6.34952 11.6573 5.42838 11.3112 4.74657 10.696L4.2268 10.2235C4.17056 10.1725 4.09436 10.1439 4.01492 10.1439C3.93548 10.1439 3.85928 10.1725 3.80304 10.2235L0.6154 13.1062C0.0472515 13.6227 -0.155632 14.3829 0.12563 15.1275C0.141372 15.1694 0.160035 15.2104 0.181507 15.2502C0.559898 15.9545 1.29418 16.3636 2.09746 16.3636C2.37371 16.3642 2.64735 16.315 2.90253 16.2188C3.1577 16.1226 3.38934 15.9813 3.58403 15.8032L7.83521 11.9202C7.8531 11.9036 7.8668 11.8837 7.87535 11.8618C7.8839 11.8399 7.88709 11.8165 7.88471 11.7934V11.7845C7.88304 11.7633 7.87665 11.7426 7.86594 11.7236C7.85522 11.7046 7.84039 11.6879 7.82234 11.6743C7.80429 11.6607 7.7834 11.6505 7.76093 11.6445C7.73845 11.6384 7.71486 11.6365 7.69157 11.639C7.56492 11.6517 7.43761 11.6585 7.31018 11.6591Z" fill="url(#paint1_linear_498_37212)"/>
<defs>
<linearGradient id="paint0_linear_498_37212" x1="16.5613" y1="16.3904" x2="1.96896" y2="-1.61622" gradientUnits="userSpaceOnUse">
<stop offset="0.0245099" stop-color="#383838"/>
<stop offset="1" stop-color="#8264F9"/>
</linearGradient>
<linearGradient id="paint1_linear_498_37212" x1="3.94274" y1="10.1439" x2="3.94274" y2="16.3636" gradientUnits="userSpaceOnUse">
<stop stop-color="#383838"/>
<stop offset="1" stop-color="#8264F9"/>
</linearGradient>
</defs>
</svg>
