<svg width="18" height="17" viewBox="0 0 18 17" fill="none" xmlns="http://www.w3.org/2000/svg">
<path d="M17.7578 5.84427C16.8503 5.84902 13.5387 6.06926 11.0753 8.87589C10.0403 9.95814 9.40781 11.188 9 12.3407C8.59219 11.188 7.95969 9.95814 6.92469 8.87589C4.46126 6.06926 1.1497 5.84902 0.242198 5.84427C0.104386 5.84354 -0.00123902 5.96845 1.09799e-05 6.1299C0.00719847 7.14969 0.223136 10.7372 2.77407 13.4094C5.39969 16.398 8 16.3636 9 16.3636C10 16.3636 12.5997 16.3983 15.2259 13.4094C17.7772 10.7369 17.9928 7.14969 18 6.1299C18.0012 5.96845 17.8956 5.84354 17.7578 5.84427ZM8.99938 9.88399C9.4 9.19548 9.86187 8.57711 10.3772 8.03872C10.9737 7.35898 11.6141 6.82242 12.2603 6.3885C11.7466 3.81345 10.6441 1.52878 9.2375 0.098071C9.10906 -0.0326903 8.89313 -0.0326903 8.76438 0.098071C7.35844 1.52768 6.25594 3.81016 5.74125 6.38302C6.37782 6.81037 7.00688 7.3378 7.59188 8.00439C8.12437 8.56206 8.597 9.19321 8.99938 9.88399V9.88399Z" fill="url(#paint0_linear_498_37215)"/>
<defs>
<linearGradient id="paint0_linear_498_37215" x1="14.24" y1="16.4104" x2="5.27861" y2="1.0763" gradientUnits="userSpaceOnUse">
<stop stop-color="#383838"/>
<stop offset="1" stop-color="#8264F9"/>
</linearGradient>
</defs>
</svg>
