<svg width="18" height="13" viewBox="0 0 18 13" fill="none" xmlns="http://www.w3.org/2000/svg">
<path d="M17.8568 3.55474C12.8739 -1.18578 5.12407 -1.18405 0.143132 3.55474C-0.0441802 3.73294 -0.0478365 4.03467 0.133289 4.21952L1.09629 5.20223C1.26898 5.37869 1.54685 5.38245 1.72629 5.21322C5.83029 1.34605 12.1691 1.34518 16.274 5.21322C16.4534 5.38245 16.7313 5.3784 16.904 5.20223L17.867 4.21952C18.0478 4.03467 18.0441 3.73294 17.8568 3.55474ZM8.99998 9.25714C8.00576 9.25714 7.19998 10.0859 7.19998 11.1086C7.19998 12.1312 8.00576 12.96 8.99998 12.96C9.9942 12.96 10.8 12.1312 10.8 11.1086C10.8 10.0859 9.9942 9.25714 8.99998 9.25714ZM14.7001 6.839C11.4584 3.89031 6.53792 3.8935 3.29988 6.839C3.10582 7.01547 3.09963 7.32182 3.28385 7.5087L4.25248 8.49198C4.42123 8.66324 4.69292 8.67481 4.87263 8.51513C7.23373 6.41578 10.7716 6.42041 13.127 8.51513C13.3068 8.67481 13.5785 8.66353 13.7472 8.49198L14.7158 7.5087C14.9003 7.32182 14.8939 7.01518 14.7001 6.839Z" fill="url(#paint0_linear_498_37222)"/>
<defs>
<linearGradient id="paint0_linear_498_37222" x1="18" y1="12.96" x2="-1.36058" y2="10.4359" gradientUnits="userSpaceOnUse">
<stop stop-color="#383838"/>
<stop offset="1" stop-color="#8264F9"/>
</linearGradient>
</defs>
</svg>
