<svg width="936" height="155" viewBox="0 0 936 155" fill="none" xmlns="http://www.w3.org/2000/svg">
<g filter="url(#filter0_d_189_8431)">
<path d="M8 3H928V142H8V3Z" fill="white"/>
</g>
<path d="M38.552 47L44.696 30.2H48.152L54.296 47H51.032L49.688 43.112H43.136L41.768 47H38.552ZM43.976 40.712H48.848L46.4 33.728L43.976 40.712ZM56.3881 47V35.096H59.1001L59.3641 36.704C59.7481 36.128 60.2521 35.672 60.8761 35.336C61.5161 34.984 62.2521 34.808 63.0841 34.808C64.9241 34.808 66.2281 35.52 66.9961 36.944C67.4281 36.288 68.0041 35.768 68.7241 35.384C69.4601 35 70.2601 34.808 71.1241 34.808C72.6761 34.808 73.8681 35.272 74.7001 36.2C75.5321 37.128 75.9481 38.488 75.9481 40.28V47H72.8761V40.568C72.8761 39.544 72.6761 38.76 72.2761 38.216C71.8921 37.672 71.2921 37.4 70.4761 37.4C69.6441 37.4 68.9721 37.704 68.4601 38.312C67.9641 38.92 67.7161 39.768 67.7161 40.856V47H64.6441V40.568C64.6441 39.544 64.4441 38.76 64.0441 38.216C63.6441 37.672 63.0281 37.4 62.1961 37.4C61.3801 37.4 60.7161 37.704 60.2041 38.312C59.7081 38.92 59.4601 39.768 59.4601 40.856V47H56.3881ZM84.6487 47.288C83.4487 47.288 82.3847 47.032 81.4567 46.52C80.5287 46.008 79.8007 45.288 79.2727 44.36C78.7447 43.432 78.4807 42.36 78.4807 41.144C78.4807 39.912 78.7367 38.816 79.2487 37.856C79.7767 36.896 80.4967 36.152 81.4087 35.624C82.3367 35.08 83.4247 34.808 84.6727 34.808C85.8407 34.808 86.8727 35.064 87.7687 35.576C88.6647 36.088 89.3607 36.792 89.8567 37.688C90.3687 38.568 90.6247 39.552 90.6247 40.64C90.6247 40.816 90.6167 41 90.6007 41.192C90.6007 41.384 90.5927 41.584 90.5767 41.792H81.5287C81.5927 42.72 81.9127 43.448 82.4887 43.976C83.0807 44.504 83.7927 44.768 84.6247 44.768C85.2487 44.768 85.7687 44.632 86.1847 44.36C86.6167 44.072 86.9367 43.704 87.1447 43.256H90.2647C90.0407 44.008 89.6647 44.696 89.1367 45.32C88.6247 45.928 87.9847 46.408 87.2167 46.76C86.4647 47.112 85.6087 47.288 84.6487 47.288ZM84.6727 37.304C83.9207 37.304 83.2567 37.52 82.6807 37.952C82.1047 38.368 81.7367 39.008 81.5767 39.872H87.5047C87.4567 39.088 87.1687 38.464 86.6407 38C86.1127 37.536 85.4567 37.304 84.6727 37.304ZM93.2084 47V35.096H95.9204L96.1604 37.112C96.5284 36.408 97.0564 35.848 97.7444 35.432C98.4484 35.016 99.2724 34.808 100.216 34.808C101.688 34.808 102.832 35.272 103.648 36.2C104.464 37.128 104.872 38.488 104.872 40.28V47H101.8V40.568C101.8 39.544 101.592 38.76 101.176 38.216C100.76 37.672 100.112 37.4 99.2324 37.4C98.3684 37.4 97.6564 37.704 97.0964 38.312C96.5524 38.92 96.2804 39.768 96.2804 40.856V47H93.2084ZM109.466 33.248C108.906 33.248 108.442 33.08 108.074 32.744C107.722 32.408 107.546 31.984 107.546 31.472C107.546 30.96 107.722 30.544 108.074 30.224C108.442 29.888 108.906 29.72 109.466 29.72C110.026 29.72 110.482 29.888 110.834 30.224C111.202 30.544 111.386 30.96 111.386 31.472C111.386 31.984 111.202 32.408 110.834 32.744C110.482 33.08 110.026 33.248 109.466 33.248ZM107.93 47V35.096H111.002V47H107.93ZM119.512 47C118.264 47 117.264 46.696 116.512 46.088C115.76 45.48 115.384 44.4 115.384 42.848V37.664H113.344V35.096H115.384L115.744 31.904H118.456V35.096H121.672V37.664H118.456V42.872C118.456 43.448 118.576 43.848 118.816 44.072C119.072 44.28 119.504 44.384 120.112 44.384H121.6V47H119.512ZM125.966 33.248C125.406 33.248 124.942 33.08 124.574 32.744C124.222 32.408 124.046 31.984 124.046 31.472C124.046 30.96 124.222 30.544 124.574 30.224C124.942 29.888 125.406 29.72 125.966 29.72C126.526 29.72 126.982 29.888 127.334 30.224C127.702 30.544 127.886 30.96 127.886 31.472C127.886 31.984 127.702 32.408 127.334 32.744C126.982 33.08 126.526 33.248 125.966 33.248ZM124.43 47V35.096H127.502V47H124.43ZM136.492 47.288C135.292 47.288 134.228 47.032 133.3 46.52C132.372 46.008 131.644 45.288 131.116 44.36C130.588 43.432 130.324 42.36 130.324 41.144C130.324 39.912 130.58 38.816 131.092 37.856C131.62 36.896 132.34 36.152 133.252 35.624C134.18 35.08 135.268 34.808 136.516 34.808C137.684 34.808 138.716 35.064 139.612 35.576C140.508 36.088 141.204 36.792 141.7 37.688C142.212 38.568 142.468 39.552 142.468 40.64C142.468 40.816 142.46 41 142.444 41.192C142.444 41.384 142.436 41.584 142.42 41.792H133.372C133.436 42.72 133.756 43.448 134.332 43.976C134.924 44.504 135.636 44.768 136.468 44.768C137.092 44.768 137.612 44.632 138.028 44.36C138.46 44.072 138.78 43.704 138.988 43.256H142.108C141.884 44.008 141.508 44.696 140.98 45.32C140.468 45.928 139.828 46.408 139.06 46.76C138.308 47.112 137.452 47.288 136.492 47.288ZM136.516 37.304C135.764 37.304 135.1 37.52 134.524 37.952C133.948 38.368 133.58 39.008 133.42 39.872H139.348C139.3 39.088 139.012 38.464 138.484 38C137.956 37.536 137.3 37.304 136.516 37.304ZM149.972 47.288C148.916 47.288 147.988 47.12 147.188 46.784C146.388 46.432 145.748 45.952 145.268 45.344C144.788 44.736 144.5 44.032 144.404 43.232H147.5C147.596 43.696 147.852 44.096 148.268 44.432C148.7 44.752 149.252 44.912 149.924 44.912C150.596 44.912 151.084 44.776 151.388 44.504C151.708 44.232 151.868 43.92 151.868 43.568C151.868 43.056 151.644 42.712 151.196 42.536C150.748 42.344 150.124 42.16 149.324 41.984C148.812 41.872 148.292 41.736 147.764 41.576C147.236 41.416 146.748 41.216 146.3 40.976C145.868 40.72 145.516 40.4 145.244 40.016C144.972 39.616 144.836 39.128 144.836 38.552C144.836 37.496 145.252 36.608 146.084 35.888C146.932 35.168 148.116 34.808 149.636 34.808C151.044 34.808 152.164 35.136 152.996 35.792C153.844 36.448 154.348 37.352 154.508 38.504H151.604C151.428 37.624 150.764 37.184 149.612 37.184C149.036 37.184 148.588 37.296 148.268 37.52C147.964 37.744 147.812 38.024 147.812 38.36C147.812 38.712 148.044 38.992 148.508 39.2C148.972 39.408 149.588 39.6 150.356 39.776C151.188 39.968 151.948 40.184 152.636 40.424C153.34 40.648 153.9 40.992 154.316 41.456C154.732 41.904 154.94 42.552 154.94 43.4C154.956 44.136 154.764 44.8 154.364 45.392C153.964 45.984 153.388 46.448 152.636 46.784C151.884 47.12 150.996 47.288 149.972 47.288Z" fill="#292931"/>
<path d="M676.036 77V67.2H679.2C679.965 67.2 680.591 67.326 681.076 67.578C681.561 67.83 681.921 68.1753 682.154 68.614C682.387 69.0527 682.504 69.538 682.504 70.07C682.504 70.686 682.336 71.2413 682 71.736C681.673 72.2307 681.16 72.5807 680.46 72.786L682.602 77H681.216L679.228 72.954H679.144H677.212V77H676.036ZM677.212 72.03H679.116C679.872 72.03 680.423 71.848 680.768 71.484C681.113 71.12 681.286 70.6533 681.286 70.084C681.286 69.5053 681.113 69.048 680.768 68.712C680.432 68.3667 679.877 68.194 679.102 68.194H677.212V72.03ZM686.963 77.168C686.3 77.168 685.712 77.0187 685.199 76.72C684.686 76.412 684.28 75.9873 683.981 75.446C683.692 74.9047 683.547 74.2653 683.547 73.528C683.547 72.8 683.692 72.1653 683.981 71.624C684.27 71.0733 684.672 70.6487 685.185 70.35C685.708 70.042 686.31 69.888 686.991 69.888C687.663 69.888 688.242 70.042 688.727 70.35C689.222 70.6487 689.6 71.0453 689.861 71.54C690.122 72.0347 690.253 72.5667 690.253 73.136C690.253 73.2387 690.248 73.3413 690.239 73.444C690.239 73.5467 690.239 73.6633 690.239 73.794H684.709C684.737 74.326 684.858 74.7693 685.073 75.124C685.297 75.4693 685.572 75.7307 685.899 75.908C686.235 76.0853 686.59 76.174 686.963 76.174C687.448 76.174 687.854 76.062 688.181 75.838C688.508 75.614 688.746 75.3107 688.895 74.928H690.057C689.87 75.572 689.511 76.1087 688.979 76.538C688.456 76.958 687.784 77.168 686.963 77.168ZM686.963 70.882C686.403 70.882 685.904 71.0547 685.465 71.4C685.036 71.736 684.788 72.2307 684.723 72.884H689.091C689.063 72.2587 688.848 71.7687 688.447 71.414C688.046 71.0593 687.551 70.882 686.963 70.882ZM694.472 77.168C693.641 77.168 692.95 76.958 692.4 76.538C691.849 76.118 691.527 75.5487 691.434 74.83H692.638C692.712 75.194 692.904 75.5113 693.212 75.782C693.529 76.0433 693.954 76.174 694.486 76.174C694.98 76.174 695.344 76.0713 695.578 75.866C695.811 75.6513 695.928 75.3993 695.928 75.11C695.928 74.69 695.774 74.41 695.466 74.27C695.167 74.13 694.742 74.004 694.192 73.892C693.818 73.8173 693.445 73.71 693.072 73.57C692.698 73.43 692.386 73.234 692.134 72.982C691.882 72.7207 691.756 72.38 691.756 71.96C691.756 71.3533 691.98 70.8587 692.428 70.476C692.885 70.084 693.501 69.888 694.276 69.888C695.013 69.888 695.615 70.0747 696.082 70.448C696.558 70.812 696.833 71.3347 696.908 72.016H695.746C695.699 71.6613 695.545 71.386 695.284 71.19C695.032 70.9847 694.691 70.882 694.262 70.882C693.842 70.882 693.515 70.9707 693.282 71.148C693.058 71.3253 692.946 71.5587 692.946 71.848C692.946 72.128 693.09 72.3473 693.38 72.506C693.678 72.6647 694.08 72.8 694.584 72.912C695.013 73.0053 695.419 73.122 695.802 73.262C696.194 73.3927 696.511 73.5933 696.754 73.864C697.006 74.1253 697.132 74.508 697.132 75.012C697.141 75.6373 696.903 76.1553 696.418 76.566C695.942 76.9673 695.293 77.168 694.472 77.168ZM701.241 77C700.607 77 700.107 76.846 699.743 76.538C699.379 76.23 699.197 75.6747 699.197 74.872V71.05H697.993V70.056H699.197L699.351 68.39H700.373V70.056H702.417V71.05H700.373V74.872C700.373 75.3107 700.462 75.6093 700.639 75.768C700.817 75.9173 701.129 75.992 701.577 75.992H702.305V77H701.241ZM706.221 77.168C705.643 77.168 705.162 77.07 704.779 76.874C704.397 76.678 704.112 76.4167 703.925 76.09C703.739 75.7633 703.645 75.4087 703.645 75.026C703.645 74.3167 703.916 73.7707 704.457 73.388C704.999 73.0053 705.736 72.814 706.669 72.814H708.545V72.73C708.545 72.1233 708.387 71.666 708.069 71.358C707.752 71.0407 707.327 70.882 706.795 70.882C706.338 70.882 705.941 70.9987 705.605 71.232C705.279 71.456 705.073 71.7873 704.989 72.226H703.785C703.832 71.722 704 71.2973 704.289 70.952C704.588 70.6067 704.957 70.3453 705.395 70.168C705.834 69.9813 706.301 69.888 706.795 69.888C707.766 69.888 708.494 70.1493 708.979 70.672C709.474 71.1853 709.721 71.8713 709.721 72.73V77H708.671L708.601 75.754C708.405 76.146 708.116 76.482 707.733 76.762C707.36 77.0327 706.856 77.168 706.221 77.168ZM706.403 76.174C706.851 76.174 707.234 76.0573 707.551 75.824C707.878 75.5907 708.125 75.2873 708.293 74.914C708.461 74.5407 708.545 74.1487 708.545 73.738V73.724H706.767C706.077 73.724 705.587 73.8453 705.297 74.088C705.017 74.3213 704.877 74.6153 704.877 74.97C704.877 75.334 705.008 75.628 705.269 75.852C705.54 76.0667 705.918 76.174 706.403 76.174ZM714.02 77.168C713.198 77.168 712.545 76.9207 712.06 76.426C711.574 75.922 711.332 75.152 711.332 74.116V70.056H712.508V73.99C712.508 75.4367 713.1 76.16 714.286 76.16C714.892 76.16 715.392 75.9453 715.784 75.516C716.185 75.0773 716.386 74.4567 716.386 73.654V70.056H717.562V77H716.498L716.414 75.754C716.199 76.1927 715.877 76.538 715.448 76.79C715.028 77.042 714.552 77.168 714.02 77.168ZM719.497 77V70.056H720.561L720.659 71.386C720.874 70.9287 721.201 70.5647 721.639 70.294C722.078 70.0233 722.619 69.888 723.263 69.888V71.12H722.941C722.531 71.12 722.153 71.1947 721.807 71.344C721.462 71.484 721.187 71.7267 720.981 72.072C720.776 72.4173 720.673 72.8933 720.673 73.5V77H719.497ZM726.893 77.168C726.315 77.168 725.834 77.07 725.451 76.874C725.069 76.678 724.784 76.4167 724.597 76.09C724.411 75.7633 724.317 75.4087 724.317 75.026C724.317 74.3167 724.588 73.7707 725.129 73.388C725.671 73.0053 726.408 72.814 727.341 72.814H729.217V72.73C729.217 72.1233 729.059 71.666 728.741 71.358C728.424 71.0407 727.999 70.882 727.467 70.882C727.01 70.882 726.613 70.9987 726.277 71.232C725.951 71.456 725.745 71.7873 725.661 72.226H724.457C724.504 71.722 724.672 71.2973 724.961 70.952C725.26 70.6067 725.629 70.3453 726.067 70.168C726.506 69.9813 726.973 69.888 727.467 69.888C728.438 69.888 729.166 70.1493 729.651 70.672C730.146 71.1853 730.393 71.8713 730.393 72.73V77H729.343L729.273 75.754C729.077 76.146 728.788 76.482 728.405 76.762C728.032 77.0327 727.528 77.168 726.893 77.168ZM727.075 76.174C727.523 76.174 727.906 76.0573 728.223 75.824C728.55 75.5907 728.797 75.2873 728.965 74.914C729.133 74.5407 729.217 74.1487 729.217 73.738V73.724H727.439C726.749 73.724 726.259 73.8453 725.969 74.088C725.689 74.3213 725.549 74.6153 725.549 74.97C725.549 75.334 725.68 75.628 725.941 75.852C726.212 76.0667 726.59 76.174 727.075 76.174ZM732.157 77V70.056H733.221L733.291 71.302C733.515 70.8633 733.837 70.518 734.257 70.266C734.677 70.014 735.153 69.888 735.685 69.888C736.507 69.888 737.16 70.14 737.645 70.644C738.14 71.1387 738.387 71.904 738.387 72.94V77H737.211V73.066C737.211 71.6193 736.614 70.896 735.419 70.896C734.822 70.896 734.323 71.1153 733.921 71.554C733.529 71.9833 733.333 72.5993 733.333 73.402V77H732.157ZM742.913 77C742.278 77 741.779 76.846 741.415 76.538C741.051 76.23 740.869 75.6747 740.869 74.872V71.05H739.665V70.056H740.869L741.023 68.39H742.045V70.056H744.089V71.05H742.045V74.872C742.045 75.3107 742.134 75.6093 742.311 75.768C742.488 75.9173 742.801 75.992 743.249 75.992H743.977V77H742.913Z" fill="#292931"/>
<path d="M654.807 72.0889C655.201 72.0899 655.592 72.0197 655.956 71.8826C656.32 71.7454 656.651 71.5439 656.929 71.2898L659.816 68.6665C660.045 68.4589 660.066 68.121 659.848 67.9032C659.794 67.8485 659.727 67.8044 659.653 67.7736C659.579 67.7429 659.499 67.7261 659.418 67.7243C659.337 67.7226 659.256 67.7358 659.181 67.7633C659.105 67.7907 659.037 67.8318 658.979 67.8841L656.405 70.2221C656.319 70.3005 656.202 70.3446 656.08 70.3446C655.958 70.3446 655.841 70.3005 655.754 70.2221C655.574 70.0591 655.584 69.7836 655.763 69.6207L658.326 67.2913C658.383 67.239 658.429 67.1768 658.459 67.1082C658.489 67.0396 658.503 66.9662 658.502 66.8924C658.5 66.8186 658.481 66.7459 658.447 66.6787C658.414 66.6116 658.365 66.5513 658.305 66.5017C658.196 66.4122 658.055 66.3629 657.908 66.3636C657.742 66.3637 657.583 66.4238 657.465 66.5307L654.905 68.8577C654.819 68.9362 654.701 68.9803 654.579 68.9803C654.457 68.9803 654.34 68.9362 654.254 68.8577C654.074 68.6948 654.084 68.4193 654.263 68.2564L656.826 65.9276C656.883 65.8754 656.928 65.8131 656.958 65.7446C656.988 65.676 657.003 65.6026 657.001 65.5288C656.999 65.4549 656.981 65.3822 656.947 65.3151C656.913 65.2479 656.865 65.1877 656.805 65.1381C656.696 65.0485 656.554 64.9993 656.408 65C656.242 65.0002 656.082 65.0603 655.965 65.1671L653.079 67.7903C652.8 68.0431 652.578 68.3437 652.427 68.6749C652.276 69.006 652.199 69.3611 652.2 69.7196V70.0001C652.2 70.0719 652.185 70.1429 652.154 70.2092C652.124 70.2754 652.08 70.3357 652.024 70.3864L650.689 71.6007C650.675 71.6134 650.658 71.6234 650.64 71.6303C650.622 71.6371 650.602 71.6407 650.583 71.6407C650.563 71.6407 650.543 71.6371 650.525 71.6303C650.507 71.6234 650.49 71.6134 650.476 71.6007L643.978 65.6931C643.866 65.591 643.714 65.5335 643.555 65.5331C643.397 65.5327 643.244 65.5895 643.131 65.691C642.563 66.2027 642.26 66.9251 642.26 67.7798C642.256 69.1911 643.072 70.8139 644.39 72.0098L647.594 74.9228C648.05 75.336 648.667 75.5681 649.31 75.5682C649.515 75.5683 649.72 75.5444 649.918 75.4973C649.968 75.4854 650.019 75.4793 650.071 75.4792C650.221 75.4792 650.366 75.531 650.477 75.6241L650.904 75.9827C651.014 76.085 651.076 76.2224 651.077 76.3656V76.5544C651.075 76.9838 651.261 77.3961 651.593 77.7016L654.97 80.8233L654.973 80.8267C655.348 81.1674 655.856 81.3588 656.387 81.3587C656.917 81.3587 657.425 81.1673 657.8 80.8265C658.174 80.4858 658.385 80.0237 658.385 79.5419C658.385 79.06 658.174 78.598 657.799 78.2573L652.737 73.6557C652.724 73.643 652.712 73.628 652.705 73.6114C652.697 73.5949 652.693 73.5771 652.693 73.5592C652.693 73.5413 652.697 73.5235 652.705 73.507C652.712 73.4904 652.724 73.4754 652.737 73.4627L654.073 72.2488C654.129 72.1981 654.195 72.1578 654.268 72.1304C654.34 72.103 654.419 72.0889 654.497 72.0889H654.807Z" fill="url(#paint0_linear_189_8431)"/>
<path d="M649.31 76.6591C648.35 76.6573 647.428 76.3112 646.747 75.696L646.227 75.2235C646.171 75.1725 646.094 75.1439 646.015 75.1439C645.935 75.1439 645.859 75.1725 645.803 75.2235L642.615 78.1062C642.047 78.6227 641.844 79.3829 642.126 80.1275C642.141 80.1694 642.16 80.2104 642.182 80.2502C642.56 80.9545 643.294 81.3636 644.097 81.3636C644.374 81.3642 644.647 81.315 644.903 81.2188C645.158 81.1226 645.389 80.9813 645.584 80.8032L649.835 76.9202C649.853 76.9036 649.867 76.8837 649.875 76.8618C649.884 76.8399 649.887 76.8165 649.885 76.7934V76.7845C649.883 76.7633 649.877 76.7426 649.866 76.7236C649.855 76.7046 649.84 76.6879 649.822 76.6743C649.804 76.6607 649.783 76.6505 649.761 76.6445C649.738 76.6384 649.715 76.6365 649.692 76.639C649.565 76.6517 649.438 76.6585 649.31 76.6591Z" fill="url(#paint1_linear_189_8431)"/>
<path d="M468.158 77.168C467.439 77.168 466.814 77.0373 466.282 76.776C465.75 76.5147 465.339 76.1507 465.05 75.684C464.761 75.2173 464.616 74.676 464.616 74.06H465.848C465.848 74.4427 465.937 74.7973 466.114 75.124C466.291 75.4413 466.548 75.698 466.884 75.894C467.229 76.0807 467.654 76.174 468.158 76.174C468.821 76.174 469.334 76.0153 469.698 75.698C470.062 75.3807 470.244 74.984 470.244 74.508C470.244 74.116 470.16 73.8033 469.992 73.57C469.824 73.3273 469.595 73.1313 469.306 72.982C469.026 72.8327 468.699 72.702 468.326 72.59C467.962 72.478 467.579 72.352 467.178 72.212C466.422 71.9507 465.862 71.6287 465.498 71.246C465.134 70.854 464.952 70.3453 464.952 69.72C464.943 69.1973 465.064 68.7353 465.316 68.334C465.568 67.9233 465.923 67.606 466.38 67.382C466.847 67.1487 467.397 67.032 468.032 67.032C468.657 67.032 469.199 67.1487 469.656 67.382C470.123 67.6153 470.482 67.9373 470.734 68.348C470.995 68.7587 471.131 69.2253 471.14 69.748H469.908C469.908 69.4773 469.838 69.2113 469.698 68.95C469.558 68.6793 469.343 68.46 469.054 68.292C468.774 68.124 468.419 68.04 467.99 68.04C467.458 68.0307 467.019 68.166 466.674 68.446C466.338 68.726 466.17 69.1133 466.17 69.608C466.17 70.028 466.287 70.35 466.52 70.574C466.763 70.798 467.099 70.9847 467.528 71.134C467.957 71.274 468.452 71.4373 469.012 71.624C469.479 71.792 469.899 71.988 470.272 72.212C470.645 72.436 470.935 72.7253 471.14 73.08C471.355 73.4347 471.462 73.8873 471.462 74.438C471.462 74.9047 471.341 75.348 471.098 75.768C470.855 76.1787 470.487 76.5147 469.992 76.776C469.507 77.0373 468.895 77.168 468.158 77.168ZM473.06 80.08V70.056H474.124L474.236 71.204C474.46 70.868 474.777 70.5647 475.188 70.294C475.608 70.0233 476.14 69.888 476.784 69.888C477.474 69.888 478.076 70.0467 478.59 70.364C479.103 70.6813 479.5 71.1153 479.78 71.666C480.069 72.2167 480.214 72.842 480.214 73.542C480.214 74.242 480.069 74.8673 479.78 75.418C479.5 75.9593 479.098 76.3887 478.576 76.706C478.062 77.014 477.46 77.168 476.77 77.168C476.2 77.168 475.692 77.0513 475.244 76.818C474.805 76.5847 474.469 76.258 474.236 75.838V80.08H473.06ZM476.644 76.146C477.11 76.146 477.521 76.0387 477.876 75.824C478.23 75.6 478.51 75.292 478.716 74.9C478.921 74.508 479.024 74.0507 479.024 73.528C479.024 73.0053 478.921 72.548 478.716 72.156C478.51 71.764 478.23 71.4607 477.876 71.246C477.521 71.022 477.11 70.91 476.644 70.91C476.177 70.91 475.766 71.022 475.412 71.246C475.057 71.4607 474.777 71.764 474.572 72.156C474.366 72.548 474.264 73.0053 474.264 73.528C474.264 74.0507 474.366 74.508 474.572 74.9C474.777 75.292 475.057 75.6 475.412 75.824C475.766 76.0387 476.177 76.146 476.644 76.146ZM484.161 77.168C483.582 77.168 483.101 77.07 482.719 76.874C482.336 76.678 482.051 76.4167 481.865 76.09C481.678 75.7633 481.585 75.4087 481.585 75.026C481.585 74.3167 481.855 73.7707 482.397 73.388C482.938 73.0053 483.675 72.814 484.609 72.814H486.485V72.73C486.485 72.1233 486.326 71.666 486.009 71.358C485.691 71.0407 485.267 70.882 484.735 70.882C484.277 70.882 483.881 70.9987 483.545 71.232C483.218 71.456 483.013 71.7873 482.929 72.226H481.725C481.771 71.722 481.939 71.2973 482.229 70.952C482.527 70.6067 482.896 70.3453 483.335 70.168C483.773 69.9813 484.24 69.888 484.735 69.888C485.705 69.888 486.433 70.1493 486.919 70.672C487.413 71.1853 487.661 71.8713 487.661 72.73V77H486.611L486.541 75.754C486.345 76.146 486.055 76.482 485.673 76.762C485.299 77.0327 484.795 77.168 484.161 77.168ZM484.343 76.174C484.791 76.174 485.173 76.0573 485.491 75.824C485.817 75.5907 486.065 75.2873 486.233 74.914C486.401 74.5407 486.485 74.1487 486.485 73.738V73.724H484.707C484.016 73.724 483.526 73.8453 483.237 74.088C482.957 74.3213 482.817 74.6153 482.817 74.97C482.817 75.334 482.947 75.628 483.209 75.852C483.479 76.0667 483.857 76.174 484.343 76.174Z" fill="#292931"/>
<path d="M451.758 68.8443C450.85 68.849 447.539 69.0693 445.075 71.8759C444.04 72.9581 443.408 74.188 443 75.3407C442.592 74.188 441.96 72.9581 440.925 71.8759C438.461 69.0693 435.15 68.849 434.242 68.8443C434.104 68.8435 433.999 68.9685 434 69.1299C434.007 70.1497 434.223 73.7372 436.774 76.4094C439.4 79.398 442 79.3636 443 79.3636C444 79.3636 446.6 79.3983 449.226 76.4094C451.777 73.7369 451.993 70.1497 452 69.1299C452.001 68.9685 451.896 68.8435 451.758 68.8443ZM442.999 72.884C443.4 72.1955 443.862 71.5771 444.377 71.0387C444.974 70.359 445.614 69.8224 446.26 69.3885C445.747 66.8134 444.644 64.5288 443.238 63.0981C443.109 62.9673 442.893 62.9673 442.764 63.0981C441.358 64.5277 440.256 66.8102 439.741 69.383C440.378 69.8104 441.007 70.3378 441.592 71.0044C442.124 71.5621 442.597 72.1932 442.999 72.884Z" fill="url(#paint2_linear_189_8431)"/>
<path d="M69.036 77V67.2H72.256C73.0213 67.2 73.6513 67.326 74.146 67.578C74.6407 67.83 75.0047 68.1707 75.238 68.6C75.4807 69.0293 75.602 69.5147 75.602 70.056C75.602 70.588 75.4853 71.0687 75.252 71.498C75.0187 71.9273 74.6547 72.2727 74.16 72.534C73.6653 72.786 73.0307 72.912 72.256 72.912H70.212V77H69.036ZM70.212 71.918H72.228C73.012 71.918 73.5673 71.7547 73.894 71.428C74.23 71.092 74.398 70.6347 74.398 70.056C74.398 69.468 74.23 69.0107 73.894 68.684C73.5673 68.348 73.012 68.18 72.228 68.18H70.212V71.918ZM79.8273 77.168C79.1739 77.168 78.5859 77.0187 78.0633 76.72C77.5406 76.4213 77.1253 76.0013 76.8173 75.46C76.5186 74.9093 76.3693 74.2653 76.3693 73.528C76.3693 72.7907 76.5233 72.1513 76.8313 71.61C77.1393 71.0593 77.5546 70.6347 78.0773 70.336C78.6093 70.0373 79.2019 69.888 79.8553 69.888C80.5086 69.888 81.0966 70.0373 81.6193 70.336C82.1419 70.6347 82.5526 71.0593 82.8513 71.61C83.1593 72.1513 83.3133 72.7907 83.3133 73.528C83.3133 74.2653 83.1593 74.9093 82.8513 75.46C82.5433 76.0013 82.1233 76.4213 81.5913 76.72C81.0686 77.0187 80.4806 77.168 79.8273 77.168ZM79.8273 76.16C80.2286 76.16 80.6019 76.062 80.9473 75.866C81.2926 75.67 81.5726 75.376 81.7873 74.984C82.0019 74.592 82.1093 74.1067 82.1093 73.528C82.1093 72.9493 82.0019 72.464 81.7873 72.072C81.5819 71.68 81.3066 71.386 80.9613 71.19C80.6159 70.994 80.2473 70.896 79.8553 70.896C79.4539 70.896 79.0806 70.994 78.7353 71.19C78.3899 71.386 78.1099 71.68 77.8953 72.072C77.6806 72.464 77.5733 72.9493 77.5733 73.528C77.5733 74.1067 77.6806 74.592 77.8953 74.984C78.1099 75.376 78.3853 75.67 78.7213 75.866C79.0666 76.062 79.4353 76.16 79.8273 76.16ZM88.1124 77.168C87.4591 77.168 86.8711 77.0187 86.3484 76.72C85.8258 76.4213 85.4104 76.0013 85.1024 75.46C84.8038 74.9093 84.6544 74.2653 84.6544 73.528C84.6544 72.7907 84.8084 72.1513 85.1164 71.61C85.4244 71.0593 85.8398 70.6347 86.3624 70.336C86.8944 70.0373 87.4871 69.888 88.1404 69.888C88.7938 69.888 89.3818 70.0373 89.9044 70.336C90.4271 70.6347 90.8378 71.0593 91.1364 71.61C91.4444 72.1513 91.5984 72.7907 91.5984 73.528C91.5984 74.2653 91.4444 74.9093 91.1364 75.46C90.8284 76.0013 90.4084 76.4213 89.8764 76.72C89.3538 77.0187 88.7658 77.168 88.1124 77.168ZM88.1124 76.16C88.5138 76.16 88.8871 76.062 89.2324 75.866C89.5778 75.67 89.8578 75.376 90.0724 74.984C90.2871 74.592 90.3944 74.1067 90.3944 73.528C90.3944 72.9493 90.2871 72.464 90.0724 72.072C89.8671 71.68 89.5918 71.386 89.2464 71.19C88.9011 70.994 88.5324 70.896 88.1404 70.896C87.7391 70.896 87.3658 70.994 87.0204 71.19C86.6751 71.386 86.3951 71.68 86.1804 72.072C85.9658 72.464 85.8584 72.9493 85.8584 73.528C85.8584 74.1067 85.9658 74.592 86.1804 74.984C86.3951 75.376 86.6704 75.67 87.0064 75.866C87.3518 76.062 87.7204 76.16 88.1124 76.16ZM93.2336 77V66.92H94.4096V77H93.2336Z" fill="#292931"/>
<path d="M55.55 80.026H55.1C54.3676 80.026 53.8119 79.7184 53.5225 79.3722C53.2722 79.0723 52.9695 78.8571 52.6289 78.8571H52.1705C51.8299 78.8571 51.5273 79.0723 51.277 79.3722C50.9881 79.7184 50.4324 80.026 49.7 80.026C48.9676 80.026 48.4119 79.7184 48.1225 79.3722C47.8722 79.0723 47.5695 78.8571 47.2289 78.8571H46.7705C46.4299 78.8571 46.1273 79.0723 45.877 79.3722C45.5881 79.7184 45.0324 80.026 44.3 80.026C43.5676 80.026 43.0119 79.7184 42.7225 79.3722C42.4722 79.0723 42.1695 78.8571 41.8289 78.8571H41.3705C41.0299 78.8571 40.7273 79.0723 40.477 79.3722C40.1881 79.7184 39.6324 80.026 38.9 80.026H38.45C38.2014 80.026 38 80.2875 38 80.6104V81.7792C38 82.1021 38.2014 82.3636 38.45 82.3636H38.9C39.9862 82.3636 40.9452 81.9184 41.6 81.2006C42.2547 81.9187 43.2138 82.3636 44.3 82.3636C45.3862 82.3636 46.3453 81.9184 47 81.2006C47.6547 81.9187 48.6138 82.3636 49.7 82.3636C50.7862 82.3636 51.7452 81.9184 52.4 81.2006C53.0547 81.9187 54.0138 82.3636 55.1 82.3636H55.55C55.7986 82.3636 56 82.1021 56 81.7792V80.6104C56 80.2875 55.7986 80.026 55.55 80.026ZM44.3 78.8571V75.3506H49.7V78.8571C50.2378 78.8571 50.5679 78.6321 50.6672 78.5131C50.9251 78.2041 51.2072 77.9893 51.5 77.853V69.5065C51.5 68.8622 51.9039 68.3377 52.4 68.3377C52.8961 68.3377 53.3 68.8622 53.3 69.5065V70.0909C53.3 70.4138 53.5014 70.6753 53.75 70.6753H54.65C54.8986 70.6753 55.1 70.4138 55.1 70.0909V69.5065C55.1 67.5728 53.8889 66 52.4 66C50.9111 66 49.7 67.5728 49.7 69.5065V73.013H44.3V69.5065C44.3 68.8622 44.7039 68.3377 45.2 68.3377C45.6961 68.3377 46.1 68.8622 46.1 69.5065V70.0909C46.1 70.4138 46.3014 70.6753 46.55 70.6753H47.45C47.6986 70.6753 47.9 70.4138 47.9 70.0909V69.5065C47.9 67.5728 46.6889 66 45.2 66C43.7111 66 42.5 67.5728 42.5 69.5065V77.8527C42.7928 77.9889 43.0749 78.2041 43.3328 78.5127C43.4321 78.6321 43.7622 78.8571 44.3 78.8571Z" fill="url(#paint3_linear_189_8431)"/>
<path d="M42.228 118.168C41.5093 118.168 40.8793 118.042 40.338 117.79C39.7967 117.538 39.372 117.179 39.064 116.712C38.7653 116.245 38.6113 115.69 38.602 115.046H40.17C40.1793 115.569 40.3613 116.012 40.716 116.376C41.0707 116.74 41.57 116.922 42.214 116.922C42.7833 116.922 43.2267 116.787 43.544 116.516C43.8707 116.236 44.034 115.881 44.034 115.452C44.034 115.107 43.9547 114.827 43.796 114.612C43.6467 114.397 43.4367 114.22 43.166 114.08C42.9047 113.94 42.6013 113.814 42.256 113.702C41.9107 113.59 41.5467 113.469 41.164 113.338C40.408 113.086 39.8387 112.759 39.456 112.358C39.0827 111.957 38.896 111.429 38.896 110.776C38.8867 110.225 39.0127 109.745 39.274 109.334C39.5447 108.923 39.918 108.606 40.394 108.382C40.8793 108.149 41.444 108.032 42.088 108.032C42.7227 108.032 43.278 108.149 43.754 108.382C44.2393 108.615 44.6173 108.942 44.888 109.362C45.1587 109.773 45.2987 110.253 45.308 110.804H43.74C43.74 110.552 43.6747 110.314 43.544 110.09C43.4133 109.857 43.222 109.665 42.97 109.516C42.718 109.367 42.41 109.292 42.046 109.292C41.5793 109.283 41.192 109.399 40.884 109.642C40.5853 109.885 40.436 110.221 40.436 110.65C40.436 111.033 40.548 111.327 40.772 111.532C40.996 111.737 41.304 111.91 41.696 112.05C42.088 112.181 42.536 112.335 43.04 112.512C43.5253 112.671 43.9593 112.862 44.342 113.086C44.7247 113.31 45.028 113.604 45.252 113.968C45.4853 114.332 45.602 114.794 45.602 115.354C45.602 115.849 45.476 116.311 45.224 116.74C44.972 117.16 44.594 117.505 44.09 117.776C43.586 118.037 42.9653 118.168 42.228 118.168ZM50.4165 118.168C49.7351 118.168 49.1285 118.019 48.5965 117.72C48.0738 117.412 47.6631 116.987 47.3645 116.446C47.0658 115.905 46.9165 115.275 46.9165 114.556C46.9165 113.828 47.0611 113.189 47.3505 112.638C47.6491 112.087 48.0598 111.658 48.5825 111.35C49.1145 111.042 49.7305 110.888 50.4305 110.888C51.1118 110.888 51.7045 111.042 52.2085 111.35C52.7125 111.649 53.1045 112.05 53.3845 112.554C53.6645 113.058 53.8045 113.613 53.8045 114.22C53.8045 114.313 53.7998 114.416 53.7905 114.528C53.7905 114.631 53.7858 114.747 53.7765 114.878H48.3725C48.4191 115.55 48.6385 116.063 49.0305 116.418C49.4318 116.763 49.8938 116.936 50.4165 116.936C50.8365 116.936 51.1865 116.843 51.4665 116.656C51.7558 116.46 51.9705 116.199 52.1105 115.872H53.5945C53.4078 116.525 53.0345 117.071 52.4745 117.51C51.9238 117.949 51.2378 118.168 50.4165 118.168ZM50.4165 112.106C49.9218 112.106 49.4831 112.255 49.1005 112.554C48.7178 112.843 48.4845 113.282 48.4005 113.87H52.3205C52.2925 113.329 52.1011 112.899 51.7465 112.582C51.3918 112.265 50.9485 112.106 50.4165 112.106ZM58.5923 118.168C57.9109 118.168 57.3043 118.019 56.7723 117.72C56.2496 117.412 55.8389 116.987 55.5403 116.446C55.2416 115.905 55.0923 115.275 55.0923 114.556C55.0923 113.828 55.2369 113.189 55.5263 112.638C55.8249 112.087 56.2356 111.658 56.7583 111.35C57.2903 111.042 57.9063 110.888 58.6063 110.888C59.2876 110.888 59.8803 111.042 60.3843 111.35C60.8883 111.649 61.2803 112.05 61.5603 112.554C61.8403 113.058 61.9803 113.613 61.9803 114.22C61.9803 114.313 61.9756 114.416 61.9663 114.528C61.9663 114.631 61.9616 114.747 61.9523 114.878H56.5483C56.5949 115.55 56.8143 116.063 57.2063 116.418C57.6076 116.763 58.0696 116.936 58.5923 116.936C59.0123 116.936 59.3623 116.843 59.6423 116.656C59.9316 116.46 60.1463 116.199 60.2863 115.872H61.7703C61.5836 116.525 61.2103 117.071 60.6503 117.51C60.0996 117.949 59.4136 118.168 58.5923 118.168ZM58.5923 112.106C58.0976 112.106 57.6589 112.255 57.2763 112.554C56.8936 112.843 56.6603 113.282 56.5763 113.87H60.4963C60.4683 113.329 60.2769 112.899 59.9223 112.582C59.5676 112.265 59.1243 112.106 58.5923 112.106ZM69.3994 118.168C68.8114 118.168 68.326 118.07 67.9434 117.874C67.5607 117.678 67.276 117.421 67.0894 117.104C66.9027 116.777 66.8094 116.423 66.8094 116.04C66.8094 115.368 67.0707 114.836 67.5934 114.444C68.116 114.052 68.8627 113.856 69.8334 113.856H71.6534V113.73C71.6534 113.189 71.504 112.783 71.2054 112.512C70.916 112.241 70.538 112.106 70.0714 112.106C69.6607 112.106 69.3014 112.209 68.9934 112.414C68.6947 112.61 68.5127 112.904 68.4474 113.296H66.9634C67.01 112.792 67.178 112.363 67.4674 112.008C67.766 111.644 68.1394 111.369 68.5874 111.182C69.0447 110.986 69.544 110.888 70.0854 110.888C71.056 110.888 71.8074 111.145 72.3394 111.658C72.8714 112.162 73.1374 112.853 73.1374 113.73V118H71.8494L71.7234 116.81C71.5274 117.193 71.2427 117.515 70.8694 117.776C70.496 118.037 70.006 118.168 69.3994 118.168ZM69.6934 116.964C70.0947 116.964 70.4307 116.871 70.7014 116.684C70.9814 116.488 71.196 116.231 71.3454 115.914C71.504 115.597 71.602 115.247 71.6394 114.864H69.9874C69.3994 114.864 68.9794 114.967 68.7274 115.172C68.4847 115.377 68.3634 115.634 68.3634 115.942C68.3634 116.259 68.48 116.511 68.7134 116.698C68.956 116.875 69.2827 116.964 69.6934 116.964ZM74.8677 118V107.92H76.3517V118H74.8677ZM78.231 118V107.92H79.715V118H78.231ZM84.5476 118L88.1596 108.2H89.7836L93.3676 118H91.7996L90.9596 115.606H86.9556L86.1156 118H84.5476ZM87.3756 114.43H90.5396L88.9576 109.964L87.3756 114.43ZM94.6782 118V111.056H95.9942L96.1202 112.036C96.3442 111.681 96.6382 111.401 97.0022 111.196C97.3756 110.991 97.8049 110.888 98.2902 110.888C99.3916 110.888 100.157 111.322 100.586 112.19C100.838 111.789 101.174 111.471 101.594 111.238C102.024 111.005 102.486 110.888 102.98 110.888C103.848 110.888 104.53 111.149 105.024 111.672C105.519 112.195 105.766 112.974 105.766 114.01V118H104.282V114.164C104.282 112.82 103.769 112.148 102.742 112.148C102.22 112.148 101.79 112.344 101.454 112.736C101.128 113.128 100.964 113.688 100.964 114.416V118H99.4802V114.164C99.4802 112.82 98.9622 112.148 97.9262 112.148C97.4129 112.148 96.9882 112.344 96.6522 112.736C96.3256 113.128 96.1622 113.688 96.1622 114.416V118H94.6782ZM110.75 118.168C110.069 118.168 109.462 118.019 108.93 117.72C108.408 117.412 107.997 116.987 107.698 116.446C107.4 115.905 107.25 115.275 107.25 114.556C107.25 113.828 107.395 113.189 107.684 112.638C107.983 112.087 108.394 111.658 108.916 111.35C109.448 111.042 110.064 110.888 110.764 110.888C111.446 110.888 112.038 111.042 112.542 111.35C113.046 111.649 113.438 112.05 113.718 112.554C113.998 113.058 114.138 113.613 114.138 114.22C114.138 114.313 114.134 114.416 114.124 114.528C114.124 114.631 114.12 114.747 114.11 114.878H108.706C108.753 115.55 108.972 116.063 109.364 116.418C109.766 116.763 110.228 116.936 110.75 116.936C111.17 116.936 111.52 116.843 111.8 116.656C112.09 116.46 112.304 116.199 112.444 115.872H113.928C113.742 116.525 113.368 117.071 112.808 117.51C112.258 117.949 111.572 118.168 110.75 118.168ZM110.75 112.106C110.256 112.106 109.817 112.255 109.434 112.554C109.052 112.843 108.818 113.282 108.734 113.87H112.654C112.626 113.329 112.435 112.899 112.08 112.582C111.726 112.265 111.282 112.106 110.75 112.106ZM115.678 118V111.056H116.994L117.106 112.274C117.321 111.845 117.634 111.509 118.044 111.266C118.464 111.014 118.945 110.888 119.486 110.888C120.326 110.888 120.984 111.149 121.46 111.672C121.946 112.195 122.188 112.974 122.188 114.01V118H120.718V114.164C120.718 112.82 120.168 112.148 119.066 112.148C118.516 112.148 118.058 112.344 117.694 112.736C117.34 113.128 117.162 113.688 117.162 114.416V118H115.678ZM124.776 109.74C124.496 109.74 124.263 109.656 124.076 109.488C123.899 109.311 123.81 109.091 123.81 108.83C123.81 108.569 123.899 108.354 124.076 108.186C124.263 108.009 124.496 107.92 124.776 107.92C125.056 107.92 125.285 108.009 125.462 108.186C125.649 108.354 125.742 108.569 125.742 108.83C125.742 109.091 125.649 109.311 125.462 109.488C125.285 109.656 125.056 109.74 124.776 109.74ZM124.034 118V111.056H125.518V118H124.034ZM130.389 118C129.708 118 129.166 117.837 128.765 117.51C128.364 117.174 128.163 116.581 128.163 115.732V112.302H126.973V111.056H128.163L128.345 109.292H129.647V111.056H131.607V112.302H129.647V115.732C129.647 116.115 129.726 116.381 129.885 116.53C130.053 116.67 130.338 116.74 130.739 116.74H131.537V118H130.389ZM133.977 109.74C133.697 109.74 133.464 109.656 133.277 109.488C133.1 109.311 133.011 109.091 133.011 108.83C133.011 108.569 133.1 108.354 133.277 108.186C133.464 108.009 133.697 107.92 133.977 107.92C134.257 107.92 134.486 108.009 134.663 108.186C134.85 108.354 134.943 108.569 134.943 108.83C134.943 109.091 134.85 109.311 134.663 109.488C134.486 109.656 134.257 109.74 133.977 109.74ZM133.235 118V111.056H134.719V118H133.235ZM139.926 118.168C139.245 118.168 138.638 118.019 138.106 117.72C137.584 117.412 137.173 116.987 136.874 116.446C136.576 115.905 136.426 115.275 136.426 114.556C136.426 113.828 136.571 113.189 136.86 112.638C137.159 112.087 137.57 111.658 138.092 111.35C138.624 111.042 139.24 110.888 139.94 110.888C140.622 110.888 141.214 111.042 141.718 111.35C142.222 111.649 142.614 112.05 142.894 112.554C143.174 113.058 143.314 113.613 143.314 114.22C143.314 114.313 143.31 114.416 143.3 114.528C143.3 114.631 143.296 114.747 143.286 114.878H137.882C137.929 115.55 138.148 116.063 138.54 116.418C138.942 116.763 139.404 116.936 139.926 116.936C140.346 116.936 140.696 116.843 140.976 116.656C141.266 116.46 141.48 116.199 141.62 115.872H143.104C142.918 116.525 142.544 117.071 141.984 117.51C141.434 117.949 140.748 118.168 139.926 118.168ZM139.926 112.106C139.432 112.106 138.993 112.255 138.61 112.554C138.228 112.843 137.994 113.282 137.91 113.87H141.83C141.802 113.329 141.611 112.899 141.256 112.582C140.902 112.265 140.458 112.106 139.926 112.106ZM147.626 118.168C146.749 118.168 146.025 117.953 145.456 117.524C144.887 117.095 144.56 116.525 144.476 115.816H145.974C146.049 116.133 146.226 116.409 146.506 116.642C146.786 116.866 147.155 116.978 147.612 116.978C148.06 116.978 148.387 116.885 148.592 116.698C148.797 116.511 148.9 116.297 148.9 116.054C148.9 115.699 148.755 115.461 148.466 115.34C148.186 115.209 147.794 115.093 147.29 114.99C146.898 114.906 146.506 114.794 146.114 114.654C145.731 114.514 145.409 114.318 145.148 114.066C144.896 113.805 144.77 113.455 144.77 113.016C144.77 112.409 145.003 111.905 145.47 111.504C145.937 111.093 146.59 110.888 147.43 110.888C148.205 110.888 148.83 111.075 149.306 111.448C149.791 111.821 150.076 112.349 150.16 113.03H148.732C148.685 112.731 148.545 112.498 148.312 112.33C148.088 112.162 147.785 112.078 147.402 112.078C147.029 112.078 146.739 112.157 146.534 112.316C146.329 112.465 146.226 112.661 146.226 112.904C146.226 113.147 146.366 113.338 146.646 113.478C146.935 113.618 147.313 113.744 147.78 113.856C148.247 113.959 148.676 114.08 149.068 114.22C149.469 114.351 149.791 114.547 150.034 114.808C150.277 115.069 150.398 115.452 150.398 115.956C150.407 116.591 150.16 117.118 149.656 117.538C149.161 117.958 148.485 118.168 147.626 118.168Z" fill="#2F69FF"/>
<path d="M338.036 77V67.2H344V68.166H339.212V71.61H343.286V72.562H339.212V77H338.036ZM345.445 77V70.056H346.509L346.607 71.386C346.821 70.9287 347.148 70.5647 347.587 70.294C348.025 70.0233 348.567 69.888 349.211 69.888V71.12H348.889C348.478 71.12 348.1 71.1947 347.755 71.344C347.409 71.484 347.134 71.7267 346.929 72.072C346.723 72.4173 346.621 72.8933 346.621 73.5V77H345.445ZM353.393 77.168C352.73 77.168 352.142 77.0187 351.629 76.72C351.115 76.412 350.709 75.9873 350.411 75.446C350.121 74.9047 349.977 74.2653 349.977 73.528C349.977 72.8 350.121 72.1653 350.411 71.624C350.7 71.0733 351.101 70.6487 351.615 70.35C352.137 70.042 352.739 69.888 353.421 69.888C354.093 69.888 354.671 70.042 355.157 70.35C355.651 70.6487 356.029 71.0453 356.291 71.54C356.552 72.0347 356.683 72.5667 356.683 73.136C356.683 73.2387 356.678 73.3413 356.669 73.444C356.669 73.5467 356.669 73.6633 356.669 73.794H351.139C351.167 74.326 351.288 74.7693 351.503 75.124C351.727 75.4693 352.002 75.7307 352.329 75.908C352.665 76.0853 353.019 76.174 353.393 76.174C353.878 76.174 354.284 76.062 354.611 75.838C354.937 75.614 355.175 75.3107 355.325 74.928H356.487C356.3 75.572 355.941 76.1087 355.409 76.538C354.886 76.958 354.214 77.168 353.393 77.168ZM353.393 70.882C352.833 70.882 352.333 71.0547 351.895 71.4C351.465 71.736 351.218 72.2307 351.153 72.884H355.521C355.493 72.2587 355.278 71.7687 354.877 71.414C354.475 71.0593 353.981 70.882 353.393 70.882ZM361.363 77.168C360.701 77.168 360.113 77.0187 359.599 76.72C359.086 76.412 358.68 75.9873 358.381 75.446C358.092 74.9047 357.947 74.2653 357.947 73.528C357.947 72.8 358.092 72.1653 358.381 71.624C358.671 71.0733 359.072 70.6487 359.585 70.35C360.108 70.042 360.71 69.888 361.391 69.888C362.063 69.888 362.642 70.042 363.127 70.35C363.622 70.6487 364 71.0453 364.261 71.54C364.523 72.0347 364.653 72.5667 364.653 73.136C364.653 73.2387 364.649 73.3413 364.639 73.444C364.639 73.5467 364.639 73.6633 364.639 73.794H359.109C359.137 74.326 359.259 74.7693 359.473 75.124C359.697 75.4693 359.973 75.7307 360.299 75.908C360.635 76.0853 360.99 76.174 361.363 76.174C361.849 76.174 362.255 76.062 362.581 75.838C362.908 75.614 363.146 75.3107 363.295 74.928H364.457C364.271 75.572 363.911 76.1087 363.379 76.538C362.857 76.958 362.185 77.168 361.363 77.168ZM361.363 70.882C360.803 70.882 360.304 71.0547 359.865 71.4C359.436 71.736 359.189 72.2307 359.123 72.884H363.491C363.463 72.2587 363.249 71.7687 362.847 71.414C362.446 71.0593 361.951 70.882 361.363 70.882ZM372.003 77.014L369.315 67.2H370.575L372.689 75.614L375.097 67.2H376.399L378.737 75.614L380.879 67.2H382.139L379.395 77H378.051L375.713 68.908L373.319 77L372.003 77.014ZM384.166 68.516C383.933 68.516 383.737 68.4413 383.578 68.292C383.429 68.1333 383.354 67.9373 383.354 67.704C383.354 67.48 383.429 67.2933 383.578 67.144C383.737 66.9947 383.933 66.92 384.166 66.92C384.39 66.92 384.582 66.9947 384.74 67.144C384.899 67.2933 384.978 67.48 384.978 67.704C384.978 67.9373 384.899 68.1333 384.74 68.292C384.582 68.4413 384.39 68.516 384.166 68.516ZM383.578 77V70.056H384.754V77H383.578ZM387.18 77V71.05H386.13V70.056H387.18V68.852C387.18 68.18 387.348 67.69 387.684 67.382C388.02 67.074 388.51 66.92 389.154 66.92H389.854V67.928H389.336C388.981 67.928 388.729 68.0027 388.58 68.152C388.431 68.292 388.356 68.5347 388.356 68.88V70.056H392.668V77H391.492V71.05H388.356V77H387.18ZM392.094 68.726C391.87 68.726 391.679 68.6513 391.52 68.502C391.361 68.3433 391.282 68.1473 391.282 67.914C391.282 67.69 391.361 67.5033 391.52 67.354C391.679 67.2047 391.87 67.13 392.094 67.13C392.327 67.13 392.519 67.2047 392.668 67.354C392.827 67.5033 392.906 67.69 392.906 67.914C392.906 68.1473 392.827 68.3433 392.668 68.502C392.519 68.6513 392.327 68.726 392.094 68.726Z" fill="#292931"/>
<path d="M326.857 69.5547C321.874 64.8142 314.124 64.816 309.143 69.5547C308.956 69.7329 308.952 70.0347 309.133 70.2195L310.096 71.2022C310.269 71.3787 310.547 71.3825 310.726 71.2132C314.83 67.346 321.169 67.3452 325.274 71.2132C325.453 71.3825 325.731 71.3784 325.904 71.2022L326.867 70.2195C327.048 70.0347 327.044 69.7329 326.857 69.5547ZM318 75.2571C317.006 75.2571 316.2 76.0859 316.2 77.1086C316.2 78.1312 317.006 78.96 318 78.96C318.994 78.96 319.8 78.1312 319.8 77.1086C319.8 76.0859 318.994 75.2571 318 75.2571ZM323.7 72.839C320.458 69.8903 315.538 69.8935 312.3 72.839C312.106 73.0155 312.1 73.3218 312.284 73.5087L313.252 74.492C313.421 74.6632 313.693 74.6748 313.873 74.5151C316.234 72.4158 319.772 72.4204 322.127 74.5151C322.307 74.6748 322.578 74.6635 322.747 74.492L323.716 73.5087C323.9 73.3218 323.894 73.0152 323.7 72.839Z" fill="url(#paint4_linear_189_8431)"/>
<path d="M557.036 77V67.2H560.256C561.021 67.2 561.651 67.326 562.146 67.578C562.641 67.83 563.005 68.1707 563.238 68.6C563.481 69.0293 563.602 69.5147 563.602 70.056C563.602 70.588 563.485 71.0687 563.252 71.498C563.019 71.9273 562.655 72.2727 562.16 72.534C561.665 72.786 561.031 72.912 560.256 72.912H558.212V77H557.036ZM558.212 71.918H560.228C561.012 71.918 561.567 71.7547 561.894 71.428C562.23 71.092 562.398 70.6347 562.398 70.056C562.398 69.468 562.23 69.0107 561.894 68.684C561.567 68.348 561.012 68.18 560.228 68.18H558.212V71.918ZM567.055 77.168C566.477 77.168 565.996 77.07 565.613 76.874C565.231 76.678 564.946 76.4167 564.759 76.09C564.573 75.7633 564.479 75.4087 564.479 75.026C564.479 74.3167 564.75 73.7707 565.291 73.388C565.833 73.0053 566.57 72.814 567.503 72.814H569.379V72.73C569.379 72.1233 569.221 71.666 568.903 71.358C568.586 71.0407 568.161 70.882 567.629 70.882C567.172 70.882 566.775 70.9987 566.439 71.232C566.113 71.456 565.907 71.7873 565.823 72.226H564.619C564.666 71.722 564.834 71.2973 565.123 70.952C565.422 70.6067 565.791 70.3453 566.229 70.168C566.668 69.9813 567.135 69.888 567.629 69.888C568.6 69.888 569.328 70.1493 569.813 70.672C570.308 71.1853 570.555 71.8713 570.555 72.73V77H569.505L569.435 75.754C569.239 76.146 568.95 76.482 568.567 76.762C568.194 77.0327 567.69 77.168 567.055 77.168ZM567.237 76.174C567.685 76.174 568.068 76.0573 568.385 75.824C568.712 75.5907 568.959 75.2873 569.127 74.914C569.295 74.5407 569.379 74.1487 569.379 73.738V73.724H567.601C566.911 73.724 566.421 73.8453 566.131 74.088C565.851 74.3213 565.711 74.6153 565.711 74.97C565.711 75.334 565.842 75.628 566.103 75.852C566.374 76.0667 566.752 76.174 567.237 76.174ZM572.32 77V70.056H573.384L573.482 71.386C573.696 70.9287 574.023 70.5647 574.462 70.294C574.9 70.0233 575.442 69.888 576.086 69.888V71.12H575.764C575.353 71.12 574.975 71.1947 574.63 71.344C574.284 71.484 574.009 71.7267 573.804 72.072C573.598 72.4173 573.496 72.8933 573.496 73.5V77H572.32ZM577.405 77V66.92H578.581V72.982L581.423 70.056H582.865L579.785 73.192L583.257 77H581.759L578.581 73.402V77H577.405ZM585.174 68.516C584.941 68.516 584.745 68.4413 584.586 68.292C584.437 68.1333 584.362 67.9373 584.362 67.704C584.362 67.48 584.437 67.2933 584.586 67.144C584.745 66.9947 584.941 66.92 585.174 66.92C585.398 66.92 585.589 66.9947 585.748 67.144C585.907 67.2933 585.986 67.48 585.986 67.704C585.986 67.9373 585.907 68.1333 585.748 68.292C585.589 68.4413 585.398 68.516 585.174 68.516ZM584.586 77V70.056H585.762V77H584.586ZM587.81 77V70.056H588.874L588.944 71.302C589.168 70.8633 589.49 70.518 589.91 70.266C590.33 70.014 590.806 69.888 591.338 69.888C592.159 69.888 592.812 70.14 593.298 70.644C593.792 71.1387 594.04 71.904 594.04 72.94V77H592.864V73.066C592.864 71.6193 592.266 70.896 591.072 70.896C590.474 70.896 589.975 71.1153 589.574 71.554C589.182 71.9833 588.986 72.5993 588.986 73.402V77H587.81ZM598.565 74.816C598.173 74.816 597.814 74.7647 597.487 74.662L596.787 75.32C596.89 75.3947 597.016 75.46 597.165 75.516C597.324 75.5627 597.548 75.6093 597.837 75.656C598.127 75.6933 598.533 75.7353 599.055 75.782C599.989 75.8473 600.656 76.062 601.057 76.426C601.459 76.79 601.659 77.266 601.659 77.854C601.659 78.2553 601.547 78.638 601.323 79.002C601.109 79.366 600.773 79.6647 600.315 79.898C599.867 80.1313 599.289 80.248 598.579 80.248C597.954 80.248 597.399 80.164 596.913 79.996C596.428 79.8373 596.05 79.59 595.779 79.254C595.509 78.9273 595.373 78.512 595.373 78.008C595.373 77.7467 595.443 77.462 595.583 77.154C595.723 76.8553 595.985 76.5707 596.367 76.3C596.162 76.216 595.985 76.1273 595.835 76.034C595.695 75.9313 595.565 75.8193 595.443 75.698V75.376L596.633 74.2C596.083 73.7333 595.807 73.1173 595.807 72.352C595.807 71.8947 595.915 71.4793 596.129 71.106C596.344 70.7327 596.657 70.4387 597.067 70.224C597.478 70 597.977 69.888 598.565 69.888C598.967 69.888 599.331 69.944 599.657 70.056H602.219V70.938L600.917 70.994C601.188 71.386 601.323 71.8387 601.323 72.352C601.323 72.8093 601.211 73.2247 600.987 73.598C600.773 73.9713 600.46 74.27 600.049 74.494C599.648 74.7087 599.153 74.816 598.565 74.816ZM598.565 73.85C599.06 73.85 599.452 73.724 599.741 73.472C600.04 73.2107 600.189 72.8373 600.189 72.352C600.189 71.876 600.04 71.512 599.741 71.26C599.452 70.9987 599.06 70.868 598.565 70.868C598.061 70.868 597.66 70.9987 597.361 71.26C597.072 71.512 596.927 71.876 596.927 72.352C596.927 72.8373 597.072 73.2107 597.361 73.472C597.66 73.724 598.061 73.85 598.565 73.85ZM596.521 77.896C596.521 78.3627 596.717 78.708 597.109 78.932C597.501 79.1653 597.991 79.282 598.579 79.282C599.158 79.282 599.62 79.156 599.965 78.904C600.32 78.652 600.497 78.316 600.497 77.896C600.497 77.5973 600.376 77.336 600.133 77.112C599.891 76.8973 599.443 76.7713 598.789 76.734C598.276 76.6967 597.833 76.65 597.459 76.594C597.077 76.7993 596.825 77.0187 596.703 77.252C596.582 77.4947 596.521 77.7093 596.521 77.896Z" fill="#292931"/>
<path d="M545.071 63H530.929C529.864 63 529 63.7853 529 64.7532V77.6104C529 78.5783 529.864 79.3636 530.929 79.3636H545.071C546.136 79.3636 547 78.5783 547 77.6104V64.7532C547 63.7853 546.136 63 545.071 63ZM538.643 73.5195H536.714V75.2727C536.714 75.5942 536.425 75.8571 536.071 75.8571H534.786C534.432 75.8571 534.143 75.5942 534.143 75.2727V67.0909C534.143 66.7695 534.432 66.5065 534.786 66.5065H538.643C540.768 66.5065 542.5 68.0808 542.5 70.013C542.5 71.9452 540.768 73.5195 538.643 73.5195ZM538.643 68.8442H536.714V71.1818H538.643C539.35 71.1818 539.929 70.6558 539.929 70.013C539.929 69.3701 539.35 68.8442 538.643 68.8442Z" fill="url(#paint5_linear_189_8431)"/>
<path d="M165.42 77L169.032 67.2H170.278L173.876 77H172.63L171.734 74.48H167.562L166.652 77H165.42ZM167.912 73.528H171.384L169.648 68.684L167.912 73.528ZM175.977 68.516C175.744 68.516 175.548 68.4413 175.389 68.292C175.24 68.1333 175.165 67.9373 175.165 67.704C175.165 67.48 175.24 67.2933 175.389 67.144C175.548 66.9947 175.744 66.92 175.977 66.92C176.201 66.92 176.392 66.9947 176.551 67.144C176.71 67.2933 176.789 67.48 176.789 67.704C176.789 67.9373 176.71 68.1333 176.551 68.292C176.392 68.4413 176.201 68.516 175.977 68.516ZM175.389 77V70.056H176.565V77H175.389ZM178.612 77V70.056H179.676L179.774 71.386C179.989 70.9287 180.316 70.5647 180.754 70.294C181.193 70.0233 181.734 69.888 182.378 69.888V71.12H182.056C181.646 71.12 181.268 71.1947 180.922 71.344C180.577 71.484 180.302 71.7267 180.096 72.072C179.891 72.4173 179.788 72.8933 179.788 73.5V77H178.612ZM191.772 77.168C190.81 77.168 189.98 76.958 189.28 76.538C188.589 76.1087 188.052 75.516 187.67 74.76C187.287 73.9947 187.096 73.108 187.096 72.1C187.096 71.1013 187.287 70.224 187.67 69.468C188.052 68.7027 188.589 68.1053 189.28 67.676C189.98 67.2467 190.81 67.032 191.772 67.032C192.892 67.032 193.802 67.3027 194.502 67.844C195.211 68.376 195.664 69.1227 195.86 70.084H194.558C194.408 69.4773 194.1 68.992 193.633 68.628C193.176 68.2547 192.556 68.068 191.772 68.068C191.072 68.068 190.46 68.2313 189.938 68.558C189.415 68.8753 189.009 69.3373 188.72 69.944C188.44 70.5413 188.3 71.26 188.3 72.1C188.3 72.94 188.44 73.6633 188.72 74.27C189.009 74.8673 189.415 75.3293 189.938 75.656C190.46 75.9733 191.072 76.132 191.772 76.132C192.556 76.132 193.176 75.9547 193.633 75.6C194.1 75.236 194.408 74.7553 194.558 74.158H195.86C195.664 75.1007 195.211 75.838 194.502 76.37C193.802 76.902 192.892 77.168 191.772 77.168ZM200.644 77.168C199.99 77.168 199.402 77.0187 198.88 76.72C198.357 76.4213 197.942 76.0013 197.634 75.46C197.335 74.9093 197.186 74.2653 197.186 73.528C197.186 72.7907 197.34 72.1513 197.648 71.61C197.956 71.0593 198.371 70.6347 198.894 70.336C199.426 70.0373 200.018 69.888 200.672 69.888C201.325 69.888 201.913 70.0373 202.436 70.336C202.958 70.6347 203.369 71.0593 203.668 71.61C203.976 72.1513 204.13 72.7907 204.13 73.528C204.13 74.2653 203.976 74.9093 203.668 75.46C203.36 76.0013 202.94 76.4213 202.408 76.72C201.885 77.0187 201.297 77.168 200.644 77.168ZM200.644 76.16C201.045 76.16 201.418 76.062 201.764 75.866C202.109 75.67 202.389 75.376 202.604 74.984C202.818 74.592 202.926 74.1067 202.926 73.528C202.926 72.9493 202.818 72.464 202.604 72.072C202.398 71.68 202.123 71.386 201.778 71.19C201.432 70.994 201.064 70.896 200.672 70.896C200.27 70.896 199.897 70.994 199.552 71.19C199.206 71.386 198.926 71.68 198.712 72.072C198.497 72.464 198.39 72.9493 198.39 73.528C198.39 74.1067 198.497 74.592 198.712 74.984C198.926 75.376 199.202 75.67 199.538 75.866C199.883 76.062 200.252 76.16 200.644 76.16ZM205.765 77V70.056H206.829L206.899 71.302C207.123 70.8633 207.445 70.518 207.865 70.266C208.285 70.014 208.761 69.888 209.293 69.888C210.114 69.888 210.767 70.14 211.253 70.644C211.747 71.1387 211.995 71.904 211.995 72.94V77H210.819V73.066C210.819 71.6193 210.221 70.896 209.027 70.896C208.429 70.896 207.93 71.1153 207.529 71.554C207.137 71.9833 206.941 72.5993 206.941 73.402V77H205.765ZM216.927 77.168C216.236 77.168 215.629 77.0093 215.107 76.692C214.593 76.3747 214.192 75.9407 213.903 75.39C213.623 74.8393 213.483 74.214 213.483 73.514C213.483 72.814 213.627 72.1933 213.917 71.652C214.206 71.1013 214.607 70.672 215.121 70.364C215.634 70.0467 216.241 69.888 216.941 69.888C217.51 69.888 218.014 70.0047 218.453 70.238C218.891 70.4713 219.232 70.798 219.475 71.218V66.92H220.651V77H219.587L219.475 75.852C219.251 76.188 218.929 76.4913 218.509 76.762C218.089 77.0327 217.561 77.168 216.927 77.168ZM217.053 76.146C217.519 76.146 217.93 76.0387 218.285 75.824C218.649 75.6 218.929 75.292 219.125 74.9C219.33 74.508 219.433 74.0507 219.433 73.528C219.433 73.0053 219.33 72.548 219.125 72.156C218.929 71.764 218.649 71.4607 218.285 71.246C217.93 71.022 217.519 70.91 217.053 70.91C216.595 70.91 216.185 71.022 215.821 71.246C215.466 71.4607 215.186 71.764 214.981 72.156C214.785 72.548 214.687 73.0053 214.687 73.528C214.687 74.0507 214.785 74.508 214.981 74.9C215.186 75.292 215.466 75.6 215.821 75.824C216.185 76.0387 216.595 76.146 217.053 76.146ZM223.282 68.516C223.048 68.516 222.852 68.4413 222.694 68.292C222.544 68.1333 222.47 67.9373 222.47 67.704C222.47 67.48 222.544 67.2933 222.694 67.144C222.852 66.9947 223.048 66.92 223.282 66.92C223.506 66.92 223.697 66.9947 223.856 67.144C224.014 67.2933 224.094 67.48 224.094 67.704C224.094 67.9373 224.014 68.1333 223.856 68.292C223.697 68.4413 223.506 68.516 223.282 68.516ZM222.694 77V70.056H223.87V77H222.694ZM228.661 77C228.027 77 227.527 76.846 227.163 76.538C226.799 76.23 226.617 75.6747 226.617 74.872V71.05H225.413V70.056H226.617L226.771 68.39H227.793V70.056H229.837V71.05H227.793V74.872C227.793 75.3107 227.882 75.6093 228.059 75.768C228.237 75.9173 228.549 75.992 228.997 75.992H229.725V77H228.661ZM232.045 68.516C231.812 68.516 231.616 68.4413 231.457 68.292C231.308 68.1333 231.233 67.9373 231.233 67.704C231.233 67.48 231.308 67.2933 231.457 67.144C231.616 66.9947 231.812 66.92 232.045 66.92C232.269 66.92 232.461 66.9947 232.619 67.144C232.778 67.2933 232.857 67.48 232.857 67.704C232.857 67.9373 232.778 68.1333 232.619 68.292C232.461 68.4413 232.269 68.516 232.045 68.516ZM231.457 77V70.056H232.633V77H231.457ZM237.845 77.168C237.192 77.168 236.604 77.0187 236.081 76.72C235.558 76.4213 235.143 76.0013 234.835 75.46C234.536 74.9093 234.387 74.2653 234.387 73.528C234.387 72.7907 234.541 72.1513 234.849 71.61C235.157 71.0593 235.572 70.6347 236.095 70.336C236.627 70.0373 237.22 69.888 237.873 69.888C238.526 69.888 239.114 70.0373 239.637 70.336C240.16 70.6347 240.57 71.0593 240.869 71.61C241.177 72.1513 241.331 72.7907 241.331 73.528C241.331 74.2653 241.177 74.9093 240.869 75.46C240.561 76.0013 240.141 76.4213 239.609 76.72C239.086 77.0187 238.498 77.168 237.845 77.168ZM237.845 76.16C238.246 76.16 238.62 76.062 238.965 75.866C239.31 75.67 239.59 75.376 239.805 74.984C240.02 74.592 240.127 74.1067 240.127 73.528C240.127 72.9493 240.02 72.464 239.805 72.072C239.6 71.68 239.324 71.386 238.979 71.19C238.634 70.994 238.265 70.896 237.873 70.896C237.472 70.896 237.098 70.994 236.753 71.19C236.408 71.386 236.128 71.68 235.913 72.072C235.698 72.464 235.591 72.9493 235.591 73.528C235.591 74.1067 235.698 74.592 235.913 74.984C236.128 75.376 236.403 75.67 236.739 75.866C237.084 76.062 237.453 76.16 237.845 76.16ZM242.966 77V70.056H244.03L244.1 71.302C244.324 70.8633 244.646 70.518 245.066 70.266C245.486 70.014 245.962 69.888 246.494 69.888C247.315 69.888 247.969 70.14 248.454 70.644C248.949 71.1387 249.196 71.904 249.196 72.94V77H248.02V73.066C248.02 71.6193 247.423 70.896 246.228 70.896C245.631 70.896 245.131 71.1153 244.73 71.554C244.338 71.9833 244.142 72.5993 244.142 73.402V77H242.966ZM251.692 68.516C251.458 68.516 251.262 68.4413 251.104 68.292C250.954 68.1333 250.88 67.9373 250.88 67.704C250.88 67.48 250.954 67.2933 251.104 67.144C251.262 66.9947 251.458 66.92 251.692 66.92C251.916 66.92 252.107 66.9947 252.266 67.144C252.424 67.2933 252.504 67.48 252.504 67.704C252.504 67.9373 252.424 68.1333 252.266 68.292C252.107 68.4413 251.916 68.516 251.692 68.516ZM251.104 77V70.056H252.28V77H251.104ZM254.327 77V70.056H255.391L255.461 71.302C255.685 70.8633 256.007 70.518 256.427 70.266C256.847 70.014 257.323 69.888 257.855 69.888C258.677 69.888 259.33 70.14 259.815 70.644C260.31 71.1387 260.557 71.904 260.557 72.94V77H259.381V73.066C259.381 71.6193 258.784 70.896 257.589 70.896C256.992 70.896 256.493 71.1153 256.091 71.554C255.699 71.9833 255.503 72.5993 255.503 73.402V77H254.327ZM265.083 74.816C264.691 74.816 264.332 74.7647 264.005 74.662L263.305 75.32C263.408 75.3947 263.534 75.46 263.683 75.516C263.842 75.5627 264.066 75.6093 264.355 75.656C264.644 75.6933 265.05 75.7353 265.573 75.782C266.506 75.8473 267.174 76.062 267.575 76.426C267.976 76.79 268.177 77.266 268.177 77.854C268.177 78.2553 268.065 78.638 267.841 79.002C267.626 79.366 267.29 79.6647 266.833 79.898C266.385 80.1313 265.806 80.248 265.097 80.248C264.472 80.248 263.916 80.164 263.431 79.996C262.946 79.8373 262.568 79.59 262.297 79.254C262.026 78.9273 261.891 78.512 261.891 78.008C261.891 77.7467 261.961 77.462 262.101 77.154C262.241 76.8553 262.502 76.5707 262.885 76.3C262.68 76.216 262.502 76.1273 262.353 76.034C262.213 75.9313 262.082 75.8193 261.961 75.698V75.376L263.151 74.2C262.6 73.7333 262.325 73.1173 262.325 72.352C262.325 71.8947 262.432 71.4793 262.647 71.106C262.862 70.7327 263.174 70.4387 263.585 70.224C263.996 70 264.495 69.888 265.083 69.888C265.484 69.888 265.848 69.944 266.175 70.056H268.737V70.938L267.435 70.994C267.706 71.386 267.841 71.8387 267.841 72.352C267.841 72.8093 267.729 73.2247 267.505 73.598C267.29 73.9713 266.978 74.27 266.567 74.494C266.166 74.7087 265.671 74.816 265.083 74.816ZM265.083 73.85C265.578 73.85 265.97 73.724 266.259 73.472C266.558 73.2107 266.707 72.8373 266.707 72.352C266.707 71.876 266.558 71.512 266.259 71.26C265.97 70.9987 265.578 70.868 265.083 70.868C264.579 70.868 264.178 70.9987 263.879 71.26C263.59 71.512 263.445 71.876 263.445 72.352C263.445 72.8373 263.59 73.2107 263.879 73.472C264.178 73.724 264.579 73.85 265.083 73.85ZM263.039 77.896C263.039 78.3627 263.235 78.708 263.627 78.932C264.019 79.1653 264.509 79.282 265.097 79.282C265.676 79.282 266.138 79.156 266.483 78.904C266.838 78.652 267.015 78.316 267.015 77.896C267.015 77.5973 266.894 77.336 266.651 77.112C266.408 76.8973 265.96 76.7713 265.307 76.734C264.794 76.6967 264.35 76.65 263.977 76.594C263.594 76.7993 263.342 77.0187 263.221 77.252C263.1 77.4947 263.039 77.7093 263.039 77.896Z" fill="#292931"/>
<path d="M151.709 75.1476L152.483 74.7486L151.628 73.3045L150.854 73.7035C150.261 74.0098 149.736 74.4182 149.306 74.9072L145.768 73L149.306 71.0928C149.736 71.5818 150.262 71.9902 150.855 72.2965L151.628 72.6955L152.483 71.2514L151.71 70.8524C151.399 70.6923 151.116 70.4901 150.869 70.2524L153 69.1019L152.116 67.675L149.987 68.8218C149.889 68.503 149.843 68.1726 149.849 67.8411L149.866 67.0161L148.098 66.9854L148.081 67.8104C148.069 68.4423 148.185 69.0707 148.422 69.6625L144.884 71.5709V67.7567C145.553 67.6535 146.194 67.433 146.775 67.1069L147.532 66.6813L146.619 65.2679L145.862 65.6935C145.558 65.8643 145.228 65.992 144.884 66.0726V64H143.116V66.0726C142.772 65.992 142.442 65.8643 142.138 65.6935L141.381 65.2679L140.468 66.6813L141.225 67.1069C141.806 67.433 142.447 67.6535 143.116 67.7567V71.5709L139.578 69.6625C139.816 69.0704 139.932 68.4414 139.92 67.8089L139.904 66.9839L138.136 67.0146L138.152 67.8396C138.159 68.1711 138.113 68.5015 138.015 68.8203L135.884 67.675L135 69.1038L137.131 70.2528C136.884 70.4905 136.601 70.6927 136.291 70.8528L135.517 71.2514L136.372 72.6955L137.146 72.2965C137.739 71.9902 138.264 71.5818 138.694 71.0928L142.232 73L138.694 74.9072C138.264 74.4182 137.738 74.0098 137.145 73.7035L136.372 73.3045L135.517 74.7486L136.291 75.1476C136.601 75.3077 136.884 75.5099 137.131 75.7476L135 76.9L135.884 78.3287L138.015 77.1801C138.113 77.4988 138.159 77.8293 138.153 78.1607L138.136 78.9857L139.904 79.0165L139.921 78.1915C139.933 77.5588 139.816 76.9297 139.578 76.3375L143.116 74.4291V78.2432C142.447 78.3465 141.806 78.567 141.225 78.8931L140.468 79.3188L141.381 80.7321L142.138 80.3065C142.442 80.1357 142.772 80.008 143.116 79.9274V82H144.884V79.9274C145.228 80.008 145.558 80.1357 145.862 80.3065L146.619 80.7321L147.532 79.3188L146.775 78.8931C146.194 78.567 145.553 78.3465 144.884 78.2432V74.4291L148.422 76.3375C148.184 76.9296 148.068 77.5586 148.08 78.1911L148.096 79.0161L149.864 78.9854L149.848 78.1604C149.841 77.8284 149.888 77.4974 149.987 77.1783L152.116 78.3269L153 76.9L150.871 75.7491C151.117 75.511 151.4 75.3083 151.709 75.1476Z" fill="url(#paint6_linear_189_8431)"/>
<defs>
<filter id="filter0_d_189_8431" x="0" y="0" width="936" height="155" filterUnits="userSpaceOnUse" color-interpolation-filters="sRGB">
<feFlood flood-opacity="0" result="BackgroundImageFix"/>
<feColorMatrix in="SourceAlpha" type="matrix" values="0 0 0 0 0 0 0 0 0 0 0 0 0 0 0 0 0 0 127 0" result="hardAlpha"/>
<feOffset dy="5"/>
<feGaussianBlur stdDeviation="4"/>
<feComposite in2="hardAlpha" operator="out"/>
<feColorMatrix type="matrix" values="0 0 0 0 0.847059 0 0 0 0 0.890196 0 0 0 0 0.945098 0 0 0 0.65 0"/>
<feBlend mode="normal" in2="BackgroundImageFix" result="effect1_dropShadow_189_8431"/>
<feBlend mode="normal" in="SourceGraphic" in2="effect1_dropShadow_189_8431" result="shape"/>
</filter>
<linearGradient id="paint0_linear_189_8431" x1="658.561" y1="81.3904" x2="643.969" y2="63.3838" gradientUnits="userSpaceOnUse">
<stop offset="0.0245099" stop-color="#383838"/>
<stop offset="1" stop-color="#8264F9"/>
</linearGradient>
<linearGradient id="paint1_linear_189_8431" x1="645.943" y1="75.1439" x2="645.943" y2="81.3636" gradientUnits="userSpaceOnUse">
<stop stop-color="#383838"/>
<stop offset="1" stop-color="#8264F9"/>
</linearGradient>
<linearGradient id="paint2_linear_189_8431" x1="448.24" y1="79.4104" x2="439.279" y2="64.0763" gradientUnits="userSpaceOnUse">
<stop stop-color="#383838"/>
<stop offset="1" stop-color="#8264F9"/>
</linearGradient>
<linearGradient id="paint3_linear_189_8431" x1="54.776" y1="80.4468" x2="40.4952" y2="69.7272" gradientUnits="userSpaceOnUse">
<stop stop-color="#383838"/>
<stop offset="1" stop-color="#8264F9"/>
</linearGradient>
<linearGradient id="paint4_linear_189_8431" x1="327" y1="78.96" x2="307.639" y2="76.4359" gradientUnits="userSpaceOnUse">
<stop stop-color="#383838"/>
<stop offset="1" stop-color="#8264F9"/>
</linearGradient>
<linearGradient id="paint5_linear_189_8431" x1="547" y1="79.3636" x2="527.518" y2="77.352" gradientUnits="userSpaceOnUse">
<stop stop-color="#383838"/>
<stop offset="1" stop-color="#8264F9"/>
</linearGradient>
<linearGradient id="paint6_linear_189_8431" x1="150.136" y1="83.2273" x2="139.5" y2="64.8182" gradientUnits="userSpaceOnUse">
<stop stop-color="#383838"/>
<stop offset="1" stop-color="#8264F9"/>
</linearGradient>
</defs>
</svg>
