<svg width="151" height="17" viewBox="0 0 151 17" fill="none" xmlns="http://www.w3.org/2000/svg">
<path d="M22.494 14V4.2H26.19C27.2073 4.2 27.9773 4.438 28.5 4.914C29.0227 5.39 29.284 5.98733 29.284 6.706C29.284 7.33133 29.116 7.83067 28.78 8.204C28.444 8.568 28.038 8.81533 27.562 8.946C27.9353 9.02067 28.2667 9.17 28.556 9.394C28.8547 9.618 29.088 9.898 29.256 10.234C29.424 10.57 29.508 10.934 29.508 11.326C29.508 11.83 29.382 12.2873 29.13 12.698C28.8873 13.0993 28.528 13.4167 28.052 13.65C27.576 13.8833 26.9927 14 26.302 14H22.494ZM23.978 8.4H26.008C26.5773 8.4 27.0113 8.26933 27.31 8.008C27.6087 7.73733 27.758 7.36867 27.758 6.902C27.758 6.44467 27.6087 6.08067 27.31 5.81C27.0207 5.53933 26.5773 5.404 25.98 5.404H23.978V8.4ZM23.978 12.782H26.106C26.7033 12.782 27.1653 12.642 27.492 12.362C27.828 12.082 27.996 11.69 27.996 11.186C27.996 10.682 27.8233 10.2853 27.478 9.996C27.1327 9.69733 26.666 9.548 26.078 9.548H23.978V12.782ZM33.4306 14.168C32.8426 14.168 32.3573 14.07 31.9746 13.874C31.592 13.678 31.3073 13.4213 31.1206 13.104C30.934 12.7773 30.8406 12.4227 30.8406 12.04C30.8406 11.368 31.102 10.836 31.6246 10.444C32.1473 10.052 32.894 9.856 33.8646 9.856H35.6846V9.73C35.6846 9.18867 35.5353 8.78267 35.2366 8.512C34.9473 8.24133 34.5693 8.106 34.1026 8.106C33.692 8.106 33.3326 8.20867 33.0246 8.414C32.726 8.61 32.544 8.904 32.4786 9.296H30.9946C31.0413 8.792 31.2093 8.36267 31.4986 8.008C31.7973 7.644 32.1706 7.36867 32.6186 7.182C33.076 6.986 33.5753 6.888 34.1166 6.888C35.0873 6.888 35.8386 7.14467 36.3706 7.658C36.9026 8.162 37.1686 8.85267 37.1686 9.73V14H35.8806L35.7546 12.81C35.5586 13.1927 35.274 13.5147 34.9006 13.776C34.5273 14.0373 34.0373 14.168 33.4306 14.168ZM33.7246 12.964C34.126 12.964 34.462 12.8707 34.7326 12.684C35.0126 12.488 35.2273 12.2313 35.3766 11.914C35.5353 11.5967 35.6333 11.2467 35.6706 10.864H34.0186C33.4306 10.864 33.0106 10.9667 32.7586 11.172C32.516 11.3773 32.3946 11.634 32.3946 11.942C32.3946 12.2593 32.5113 12.5113 32.7446 12.698C32.9873 12.8753 33.314 12.964 33.7246 12.964ZM42.1889 14.168C41.5076 14.168 40.8963 14.014 40.3549 13.706C39.8229 13.398 39.4029 12.9733 39.0949 12.432C38.7963 11.8813 38.6469 11.2467 38.6469 10.528C38.6469 9.80933 38.7963 9.17933 39.0949 8.638C39.4029 8.08733 39.8229 7.658 40.3549 7.35C40.8963 7.042 41.5076 6.888 42.1889 6.888C43.0476 6.888 43.7663 7.112 44.3449 7.56C44.9329 8.008 45.3109 8.61467 45.4789 9.38H43.9249C43.8316 8.99733 43.6263 8.69867 43.3089 8.484C42.9916 8.26933 42.6183 8.162 42.1889 8.162C41.8249 8.162 41.4889 8.25533 41.1809 8.442C40.8729 8.61933 40.6256 8.88533 40.4389 9.24C40.2523 9.58533 40.1589 10.0147 40.1589 10.528C40.1589 11.0413 40.2523 11.4753 40.4389 11.83C40.6256 12.1753 40.8729 12.4413 41.1809 12.628C41.4889 12.8147 41.8249 12.908 42.1889 12.908C42.6183 12.908 42.9916 12.8007 43.3089 12.586C43.6263 12.3713 43.8316 12.068 43.9249 11.676H45.4789C45.3203 12.4227 44.9469 13.0247 44.3589 13.482C43.7709 13.9393 43.0476 14.168 42.1889 14.168ZM47.0884 14V3.92H48.5724V9.926L51.2324 7.056H53.0104L50.0564 10.206L53.4444 14H51.5684L48.5724 10.444V14H47.0884ZM61.0336 14C60.3523 14 59.8109 13.8367 59.4096 13.51C59.0083 13.174 58.8076 12.5813 58.8076 11.732V8.302H57.6176V7.056H58.8076L58.9896 5.292H60.2916V7.056H62.2516V8.302H60.2916V11.732C60.2916 12.1147 60.3709 12.3807 60.5296 12.53C60.6976 12.67 60.9823 12.74 61.3836 12.74H62.1816V14H61.0336ZM66.852 14.168C66.1893 14.168 65.592 14.0187 65.06 13.72C64.5373 13.412 64.122 12.9873 63.814 12.446C63.506 11.8953 63.352 11.256 63.352 10.528C63.352 9.8 63.506 9.16533 63.814 8.624C64.1313 8.07333 64.556 7.64867 65.088 7.35C65.62 7.042 66.2127 6.888 66.866 6.888C67.5287 6.888 68.1213 7.042 68.644 7.35C69.176 7.64867 69.596 8.07333 69.904 8.624C70.2213 9.16533 70.38 9.8 70.38 10.528C70.38 11.256 70.2213 11.8953 69.904 12.446C69.596 12.9873 69.176 13.412 68.644 13.72C68.112 14.0187 67.5147 14.168 66.852 14.168ZM66.852 12.894C67.2067 12.894 67.5333 12.8053 67.832 12.628C68.14 12.4507 68.3873 12.1893 68.574 11.844C68.7607 11.4893 68.854 11.0507 68.854 10.528C68.854 10.0053 68.7607 9.57133 68.574 9.226C68.3967 8.87133 68.154 8.60533 67.846 8.428C67.5473 8.25067 67.2207 8.162 66.866 8.162C66.5113 8.162 66.18 8.25067 65.872 8.428C65.5733 8.60533 65.3307 8.87133 65.144 9.226C64.9573 9.57133 64.864 10.0053 64.864 10.528C64.864 11.0507 64.9573 11.4893 65.144 11.844C65.3307 12.1893 65.5733 12.4507 65.872 12.628C66.1707 12.8053 66.4973 12.894 66.852 12.894ZM75.5122 14V3.92H76.9962V14H75.5122ZM79.7155 5.74C79.4355 5.74 79.2022 5.656 79.0155 5.488C78.8382 5.31067 78.7495 5.09133 78.7495 4.83C78.7495 4.56867 78.8382 4.354 79.0155 4.186C79.2022 4.00867 79.4355 3.92 79.7155 3.92C79.9955 3.92 80.2242 4.00867 80.4015 4.186C80.5882 4.354 80.6815 4.56867 80.6815 4.83C80.6815 5.09133 80.5882 5.31067 80.4015 5.488C80.2242 5.656 79.9955 5.74 79.7155 5.74ZM78.9735 14V7.056H80.4575V14H78.9735ZM85.1885 14.168C84.3112 14.168 83.5878 13.9533 83.0185 13.524C82.4492 13.0947 82.1225 12.5253 82.0385 11.816H83.5365C83.6112 12.1333 83.7885 12.4087 84.0685 12.642C84.3485 12.866 84.7172 12.978 85.1745 12.978C85.6225 12.978 85.9492 12.8847 86.1545 12.698C86.3598 12.5113 86.4625 12.2967 86.4625 12.054C86.4625 11.6993 86.3178 11.4613 86.0285 11.34C85.7485 11.2093 85.3565 11.0927 84.8525 10.99C84.4605 10.906 84.0685 10.794 83.6765 10.654C83.2938 10.514 82.9718 10.318 82.7105 10.066C82.4585 9.80467 82.3325 9.45467 82.3325 9.016C82.3325 8.40933 82.5658 7.90533 83.0325 7.504C83.4992 7.09333 84.1525 6.888 84.9925 6.888C85.7672 6.888 86.3925 7.07467 86.8685 7.448C87.3538 7.82133 87.6385 8.34867 87.7225 9.03H86.2945C86.2478 8.73133 86.1078 8.498 85.8745 8.33C85.6505 8.162 85.3472 8.078 84.9645 8.078C84.5912 8.078 84.3018 8.15733 84.0965 8.316C83.8912 8.46533 83.7885 8.66133 83.7885 8.904C83.7885 9.14667 83.9285 9.338 84.2085 9.478C84.4978 9.618 84.8758 9.744 85.3425 9.856C85.8092 9.95867 86.2385 10.08 86.6305 10.22C87.0318 10.3507 87.3538 10.5467 87.5965 10.808C87.8392 11.0693 87.9605 11.452 87.9605 11.956C87.9698 12.5907 87.7225 13.118 87.2185 13.538C86.7238 13.958 86.0472 14.168 85.1885 14.168ZM92.2328 14C91.5515 14 91.0101 13.8367 90.6088 13.51C90.2075 13.174 90.0068 12.5813 90.0068 11.732V8.302H88.8168V7.056H90.0068L90.1888 5.292H91.4908V7.056H93.4508V8.302H91.4908V11.732C91.4908 12.1147 91.5701 12.3807 91.7288 12.53C91.8968 12.67 92.1815 12.74 92.5828 12.74H93.3808V14H92.2328Z" fill="#2F69FF"/>
<path d="M0.646447 9.64644C0.451184 9.8417 0.451184 10.1583 0.646446 10.3535L3.82842 13.5355C4.02369 13.7308 4.34027 13.7308 4.53553 13.5355C4.73079 13.3403 4.73079 13.0237 4.53553 12.8284L1.70711 9.99999L4.53554 7.17157C4.7308 6.97631 4.7308 6.65972 4.53554 6.46446C4.34028 6.2692 4.02369 6.2692 3.82843 6.46446L0.646447 9.64644ZM11.5 9.5L1 9.49999L1 10.5L11.5 10.5L11.5 9.5Z" fill="#2F69FF"/>
</svg>
