<svg width="13" height="16" viewBox="0 0 13 16" fill="none" xmlns="http://www.w3.org/2000/svg">
<path d="M2.27483 0C1.02616 0 0 1.05257 0 2.33338C0 3.61418 1.02616 4.66676 2.27483 4.66676C2.37559 4.66676 2.53706 4.77145 2.63661 4.92457L6.31927 10.5912C6.43678 10.772 6.49957 10.9845 6.49957 11.2018V14.3335C6.49957 14.5175 6.35398 14.6667 6.17456 14.6667H3.89972C3.54076 14.6667 3.24982 14.9652 3.24982 15.3334C3.24982 15.7016 3.54076 16 3.89972 16H10.399C10.758 16 11.049 15.7016 11.049 15.3334C11.049 14.9652 10.758 14.6667 10.399 14.6667H8.12422C7.94479 14.6667 7.79932 14.5175 7.79932 14.3335V11.2018C7.79932 10.9845 7.8621 10.772 7.97961 10.5912L12.8898 3.03656C13.1776 2.59348 12.8681 2.00019 12.3491 2.00007H4.84167C4.66225 2.00007 4.49773 1.85119 4.4467 1.67484C4.16759 0.711785 3.2998 0 2.27483 0ZM2.27483 1.33338C2.82092 1.33338 3.24975 1.77323 3.24975 2.33338C3.24975 2.89352 2.82092 3.33338 2.27483 3.33338C1.72874 3.33338 1.29992 2.89352 1.29992 2.33338C1.29992 1.77323 1.72874 1.33338 2.27483 1.33338ZM4.44858 3.33338H10.8092C10.8734 3.33338 10.9323 3.36954 10.9626 3.42758C10.9929 3.48561 10.9895 3.55593 10.9539 3.61073L9.14867 6.38931C9.03605 6.56263 8.84661 6.66665 8.64358 6.66665H5.65533C5.4523 6.66665 5.26275 6.56263 5.15025 6.38931L3.76242 4.25293C3.72259 4.19166 3.73598 4.10483 3.78929 4.05549C3.97666 3.88228 4.13575 3.67926 4.25889 3.45169C4.29371 3.3873 4.37688 3.33338 4.44858 3.33338Z" fill="url(#paint0_linear_190_6986)"/>
<defs>
<linearGradient id="paint0_linear_190_6986" x1="13" y1="16" x2="-1.13807" y2="14.9217" gradientUnits="userSpaceOnUse">
<stop stop-color="#383838"/>
<stop offset="1" stop-color="#8264F9"/>
</linearGradient>
</defs>
</svg>
