<svg width="17" height="20" viewBox="0 0 17 20" fill="none" xmlns="http://www.w3.org/2000/svg">
<path d="M5.75948 16.5023V16.0288H2.20834C1.64348 16.028 1.10197 15.8033 0.70255 15.4039C0.303132 15.0045 0.0784088 14.463 0.0776572 13.8981V13.5364C0.075801 13.0859 0.200398 12.6439 0.437278 12.2607C0.674158 11.8775 1.01381 11.5685 1.41762 11.3688C1.59819 11.2785 1.75262 11.1434 1.86618 10.9765C1.97973 10.8095 2.04863 10.6163 2.06629 10.4152L2.48864 5.76554C2.62044 4.2994 3.29602 2.93562 4.38251 1.94241C5.46901 0.9492 6.8878 0.398437 8.35985 0.398438C9.83191 0.398437 11.2507 0.9492 12.3372 1.94241C13.4237 2.93562 14.0993 4.2994 14.2311 5.76554L14.6534 10.4152C14.6725 10.6157 14.7421 10.8082 14.8557 10.9746C14.9693 11.141 15.1232 11.276 15.303 11.3669C15.7072 11.5667 16.0472 11.8758 16.2845 12.2591C16.5219 12.6424 16.6471 13.0846 16.6458 13.5354V13.8972C16.6453 14.4621 16.4207 15.0038 16.0212 15.4032C15.6217 15.8027 15.0801 16.0274 14.5152 16.0279H10.9678V16.5023C10.9678 17.193 10.6934 17.8553 10.2051 18.3437C9.71669 18.8321 9.05431 19.1065 8.36364 19.1065C7.67297 19.1065 7.01059 18.8321 6.52222 18.3437C6.03384 17.8553 5.75948 17.193 5.75948 16.5023ZM7.17993 16.5023C7.17993 16.8162 7.30464 17.1173 7.52663 17.3393C7.74862 17.5613 8.0497 17.686 8.36364 17.686C8.67758 17.686 8.97866 17.5613 9.20065 17.3393C9.42264 17.1173 9.54735 16.8162 9.54735 16.5023V16.0288H7.17993V16.5023ZM3.90815 5.89622L3.48675 10.544C3.44765 10.9864 3.29554 11.4114 3.04498 11.7782C2.79443 12.145 2.45384 12.4413 2.05588 12.6386C1.88812 12.7212 1.74692 12.8492 1.64831 13.0081C1.54971 13.167 1.49767 13.3503 1.49811 13.5373V13.8991C1.49861 14.0872 1.57363 14.2674 1.70674 14.4004C1.83985 14.5333 2.02022 14.6081 2.20834 14.6083H14.5189C14.7072 14.6081 14.8877 14.5332 15.0209 14.4C15.154 14.2669 15.2289 14.0864 15.2292 13.8981V13.5364C15.2298 13.3498 15.1782 13.1668 15.0801 13.0082C14.982 12.8495 14.8414 12.7215 14.6742 12.6386C14.2758 12.4416 13.9347 12.1455 13.6836 11.7787C13.4326 11.4119 13.28 10.9867 13.2405 10.544L12.8201 5.89622C12.7188 4.78444 12.2055 3.75069 11.381 2.99796C10.5566 2.24522 9.48051 1.82788 8.36412 1.82788C7.24772 1.82788 6.17166 2.24522 5.3472 2.99796C4.52275 3.75069 4.00947 4.78444 3.90815 5.89622Z" fill="#292931"/>
</svg>
