<svg width="151" height="18" viewBox="0 0 151 18" fill="none" xmlns="http://www.w3.org/2000/svg">
<path d="M22.494 14V4.2H24.244L27.562 10.724L30.866 4.2H32.616V14H31.132V6.762L28.136 12.6H26.988L23.978 6.776V14H22.494ZM35.3633 17.08L37.0293 13.426H36.6233L33.8793 7.056H35.4893L37.6173 12.194L39.8433 7.056H41.4113L36.9313 17.08H35.3633ZM46.2147 14V4.2H49.9107C50.928 4.2 51.698 4.438 52.2207 4.914C52.7434 5.39 53.0047 5.98733 53.0047 6.706C53.0047 7.33133 52.8367 7.83067 52.5007 8.204C52.1647 8.568 51.7587 8.81533 51.2827 8.946C51.656 9.02067 51.9874 9.17 52.2767 9.394C52.5754 9.618 52.8087 9.898 52.9767 10.234C53.1447 10.57 53.2287 10.934 53.2287 11.326C53.2287 11.83 53.1027 12.2873 52.8507 12.698C52.608 13.0993 52.2487 13.4167 51.7727 13.65C51.2967 13.8833 50.7134 14 50.0227 14H46.2147ZM47.6987 8.4H49.7287C50.298 8.4 50.732 8.26933 51.0307 8.008C51.3294 7.73733 51.4787 7.36867 51.4787 6.902C51.4787 6.44467 51.3294 6.08067 51.0307 5.81C50.7414 5.53933 50.298 5.404 49.7007 5.404H47.6987V8.4ZM47.6987 12.782H49.8267C50.424 12.782 50.886 12.642 51.2127 12.362C51.5487 12.082 51.7167 11.69 51.7167 11.186C51.7167 10.682 51.544 10.2853 51.1987 9.996C50.8534 9.69733 50.3867 9.548 49.7987 9.548H47.6987V12.782ZM58.0473 14.168C57.3847 14.168 56.7873 14.0187 56.2553 13.72C55.7327 13.412 55.3173 12.9873 55.0093 12.446C54.7013 11.8953 54.5473 11.256 54.5473 10.528C54.5473 9.8 54.7013 9.16533 55.0093 8.624C55.3267 8.07333 55.7513 7.64867 56.2833 7.35C56.8153 7.042 57.408 6.888 58.0613 6.888C58.724 6.888 59.3167 7.042 59.8393 7.35C60.3713 7.64867 60.7913 8.07333 61.0993 8.624C61.4167 9.16533 61.5753 9.8 61.5753 10.528C61.5753 11.256 61.4167 11.8953 61.0993 12.446C60.7913 12.9873 60.3713 13.412 59.8393 13.72C59.3073 14.0187 58.71 14.168 58.0473 14.168ZM58.0473 12.894C58.402 12.894 58.7287 12.8053 59.0273 12.628C59.3353 12.4507 59.5827 12.1893 59.7693 11.844C59.956 11.4893 60.0493 11.0507 60.0493 10.528C60.0493 10.0053 59.956 9.57133 59.7693 9.226C59.592 8.87133 59.3493 8.60533 59.0413 8.428C58.7427 8.25067 58.416 8.162 58.0613 8.162C57.7067 8.162 57.3753 8.25067 57.0673 8.428C56.7687 8.60533 56.526 8.87133 56.3393 9.226C56.1527 9.57133 56.0593 10.0053 56.0593 10.528C56.0593 11.0507 56.1527 11.4893 56.3393 11.844C56.526 12.1893 56.7687 12.4507 57.0673 12.628C57.366 12.8053 57.6927 12.894 58.0473 12.894ZM66.4282 14.168C65.7655 14.168 65.1682 14.0187 64.6362 13.72C64.1135 13.412 63.6982 12.9873 63.3902 12.446C63.0822 11.8953 62.9282 11.256 62.9282 10.528C62.9282 9.8 63.0822 9.16533 63.3902 8.624C63.7075 8.07333 64.1322 7.64867 64.6642 7.35C65.1962 7.042 65.7889 6.888 66.4422 6.888C67.1049 6.888 67.6975 7.042 68.2202 7.35C68.7522 7.64867 69.1722 8.07333 69.4802 8.624C69.7975 9.16533 69.9562 9.8 69.9562 10.528C69.9562 11.256 69.7975 11.8953 69.4802 12.446C69.1722 12.9873 68.7522 13.412 68.2202 13.72C67.6882 14.0187 67.0909 14.168 66.4282 14.168ZM66.4282 12.894C66.7829 12.894 67.1095 12.8053 67.4082 12.628C67.7162 12.4507 67.9635 12.1893 68.1502 11.844C68.3369 11.4893 68.4302 11.0507 68.4302 10.528C68.4302 10.0053 68.3369 9.57133 68.1502 9.226C67.9729 8.87133 67.7302 8.60533 67.4222 8.428C67.1235 8.25067 66.7969 8.162 66.4422 8.162C66.0875 8.162 65.7562 8.25067 65.4482 8.428C65.1495 8.60533 64.9069 8.87133 64.7202 9.226C64.5335 9.57133 64.4402 10.0053 64.4402 10.528C64.4402 11.0507 64.5335 11.4893 64.7202 11.844C64.9069 12.1893 65.1495 12.4507 65.4482 12.628C65.7469 12.8053 66.0735 12.894 66.4282 12.894ZM71.561 14V3.92H73.045V9.926L75.705 7.056H77.483L74.529 10.206L77.917 14H76.041L73.045 10.444V14H71.561ZM79.9069 5.74C79.6269 5.74 79.3936 5.656 79.2069 5.488C79.0296 5.31067 78.9409 5.09133 78.9409 4.83C78.9409 4.56867 79.0296 4.354 79.2069 4.186C79.3936 4.00867 79.6269 3.92 79.9069 3.92C80.1869 3.92 80.4156 4.00867 80.5929 4.186C80.7796 4.354 80.8729 4.56867 80.8729 4.83C80.8729 5.09133 80.7796 5.31067 80.5929 5.488C80.4156 5.656 80.1869 5.74 79.9069 5.74ZM79.1649 14V7.056H80.6489V14H79.1649ZM82.6079 14V7.056H83.9239L84.0359 8.274C84.2506 7.84467 84.5633 7.50867 84.9739 7.266C85.3939 7.014 85.8746 6.888 86.4159 6.888C87.2559 6.888 87.9139 7.14933 88.3899 7.672C88.8753 8.19467 89.1179 8.974 89.1179 10.01V14H87.6479V10.164C87.6479 8.82 87.0973 8.148 85.9959 8.148C85.4453 8.148 84.9879 8.344 84.6239 8.736C84.2693 9.128 84.0919 9.688 84.0919 10.416V14H82.6079ZM93.7077 11.872C93.3437 11.872 93.0077 11.83 92.6997 11.746L92.0977 12.334C92.2004 12.3993 92.3264 12.4553 92.4757 12.502C92.6251 12.5487 92.8351 12.5907 93.1057 12.628C93.3764 12.6653 93.7451 12.7027 94.2117 12.74C95.1357 12.824 95.8031 13.048 96.2137 13.412C96.6244 13.7667 96.8297 14.2427 96.8297 14.84C96.8297 15.2507 96.7177 15.638 96.4937 16.002C96.2791 16.3753 95.9384 16.674 95.4717 16.898C95.0144 17.1313 94.4264 17.248 93.7077 17.248C92.7371 17.248 91.9484 17.0613 91.3417 16.688C90.7444 16.324 90.4457 15.7687 90.4457 15.022C90.4457 14.7327 90.5204 14.4433 90.6697 14.154C90.8284 13.874 91.0757 13.608 91.4117 13.356C91.2157 13.272 91.0431 13.1833 90.8937 13.09C90.7537 12.9873 90.6277 12.8847 90.5157 12.782V12.446L91.7197 11.214C91.1784 10.7473 90.9077 10.136 90.9077 9.38C90.9077 8.92267 91.0151 8.50733 91.2297 8.134C91.4537 7.75133 91.7757 7.448 92.1957 7.224C92.6157 7 93.1197 6.888 93.7077 6.888C94.0997 6.888 94.4637 6.944 94.7997 7.056H97.3897V8.036L96.1577 8.106C96.3817 8.48867 96.4937 8.91333 96.4937 9.38C96.4937 9.84667 96.3817 10.2667 96.1577 10.64C95.9431 11.0133 95.6257 11.312 95.2057 11.536C94.7951 11.76 94.2957 11.872 93.7077 11.872ZM93.7077 10.71C94.1371 10.71 94.4824 10.598 94.7437 10.374C95.0144 10.1407 95.1497 9.814 95.1497 9.394C95.1497 8.96467 95.0144 8.638 94.7437 8.414C94.4824 8.19 94.1371 8.078 93.7077 8.078C93.2691 8.078 92.9144 8.19 92.6437 8.414C92.3824 8.638 92.2517 8.96467 92.2517 9.394C92.2517 9.814 92.3824 10.1407 92.6437 10.374C92.9144 10.598 93.2691 10.71 93.7077 10.71ZM91.8457 14.882C91.8457 15.2833 92.0231 15.582 92.3777 15.778C92.7324 15.9833 93.1757 16.086 93.7077 16.086C94.2211 16.086 94.6364 15.974 94.9537 15.75C95.2711 15.5353 95.4297 15.246 95.4297 14.882C95.4297 14.6113 95.3224 14.378 95.1077 14.182C94.8931 13.9953 94.4871 13.8787 93.8897 13.832C93.4417 13.804 93.0451 13.762 92.6997 13.706C92.3731 13.8833 92.1491 14.0747 92.0277 14.28C91.9064 14.4853 91.8457 14.686 91.8457 14.882ZM101.485 14.168C100.608 14.168 99.8847 13.9533 99.3154 13.524C98.7461 13.0947 98.4194 12.5253 98.3354 11.816H99.8334C99.9081 12.1333 100.085 12.4087 100.365 12.642C100.645 12.866 101.014 12.978 101.471 12.978C101.919 12.978 102.246 12.8847 102.451 12.698C102.657 12.5113 102.759 12.2967 102.759 12.054C102.759 11.6993 102.615 11.4613 102.325 11.34C102.045 11.2093 101.653 11.0927 101.149 10.99C100.757 10.906 100.365 10.794 99.9734 10.654C99.5907 10.514 99.2687 10.318 99.0074 10.066C98.7554 9.80467 98.6294 9.45467 98.6294 9.016C98.6294 8.40933 98.8627 7.90533 99.3294 7.504C99.7961 7.09333 100.449 6.888 101.289 6.888C102.064 6.888 102.689 7.07467 103.165 7.448C103.651 7.82133 103.935 8.34867 104.019 9.03H102.591C102.545 8.73133 102.405 8.498 102.171 8.33C101.947 8.162 101.644 8.078 101.261 8.078C100.888 8.078 100.599 8.15733 100.393 8.316C100.188 8.46533 100.085 8.66133 100.085 8.904C100.085 9.14667 100.225 9.338 100.505 9.478C100.795 9.618 101.173 9.744 101.639 9.856C102.106 9.95867 102.535 10.08 102.927 10.22C103.329 10.3507 103.651 10.5467 103.893 10.808C104.136 11.0693 104.257 11.452 104.257 11.956C104.267 12.5907 104.019 13.118 103.515 13.538C103.021 13.958 102.344 14.168 101.485 14.168Z" fill="#2F69FF"/>
<path d="M0.646447 9.64644C0.451184 9.8417 0.451184 10.1583 0.646446 10.3535L3.82842 13.5355C4.02369 13.7308 4.34027 13.7308 4.53553 13.5355C4.73079 13.3403 4.73079 13.0237 4.53553 12.8284L1.70711 9.99999L4.53554 7.17157C4.7308 6.97631 4.7308 6.65972 4.53554 6.46446C4.34028 6.2692 4.02369 6.2692 3.82843 6.46446L0.646447 9.64644ZM11.5 9.5L1 9.49999L1 10.5L11.5 10.5L11.5 9.5Z" fill="#2F69FF"/>
</svg>
