<svg width="15" height="15" viewBox="0 0 15 15" fill="none" xmlns="http://www.w3.org/2000/svg">
<path d="M7.49982 5.97674e-05C5.51077 5.97674e-05 3.60324 0.790201 2.19673 2.19679C0.790141 3.60327 0 5.51092 0 7.49988C0 9.48905 0.790141 11.3968 2.19673 12.8033C3.60321 14.2097 5.51086 15 7.49982 15C9.48899 15 11.3967 14.2097 12.8032 12.8033C14.2097 11.3968 14.9999 9.48914 14.9999 7.49988C14.9977 5.51152 14.2068 3.60509 12.8008 2.19918C11.3948 0.793071 9.48842 0.00221261 7.49976 0L7.49982 5.97674e-05ZM7.49982 13.6046C5.88079 13.6046 4.32801 12.9614 3.18314 11.8166C2.03829 10.6718 1.3952 9.119 1.3952 7.49988C1.3952 5.88085 2.03829 4.32807 3.18314 3.1832C4.32798 2.03835 5.8807 1.39526 7.49982 1.39526C9.11885 1.39526 10.6716 2.03835 11.8165 3.1832C12.9613 4.32804 13.6046 5.88076 13.6046 7.49988C13.6028 9.11846 12.959 10.6702 11.8146 11.8145C10.6702 12.9588 9.11849 13.6026 7.50006 13.6044L7.49982 13.6046Z" fill="url(#paint0_linear_190_6995)"/>
<path d="M3.24119 5.2742C3.24972 5.26392 4.12148 4.29171 4.84599 4.57725L4.84611 4.57714C5.58999 4.82965 6.41165 4.67887 7.01737 4.17863C7.1636 4.05377 7.18123 3.83409 7.05661 3.68761C6.9321 3.54103 6.71252 3.52304 6.56571 3.64719C6.15611 3.98264 5.60457 4.0881 5.10012 3.92716C3.90854 3.46323 2.7622 4.76039 2.71454 4.81621V4.81633C2.58805 4.96174 2.60347 5.18212 2.749 5.30863C2.89441 5.43501 3.11479 5.41959 3.24118 5.27418L3.24119 5.2742Z" fill="url(#paint1_linear_190_6995)"/>
<path d="M5.19304 5.73444C5.93693 5.98719 6.75858 5.83628 7.36406 5.33593C7.50982 5.21095 7.52722 4.9916 7.40284 4.84527C7.27845 4.69904 7.05922 4.6807 6.91241 4.8045C6.50281 5.13959 5.95151 5.24493 5.44719 5.08447C4.25633 4.62042 3.1096 5.91841 3.06125 5.97364C2.93592 6.11893 2.95146 6.33827 3.09617 6.46442C3.24088 6.59056 3.46035 6.57619 3.58719 6.43218C3.59642 6.4219 4.47427 5.45717 5.19304 5.73443L5.19304 5.73444Z" fill="url(#paint2_linear_190_6995)"/>
<path d="M11.6114 4.59094C11.0082 3.88853 10.1487 3.45683 9.22509 3.39249C9.04008 3.37637 8.85636 3.43582 8.71574 3.55717C8.57511 3.67852 8.4895 3.85162 8.47841 4.03698C8.46497 4.22164 8.52536 4.40394 8.64636 4.544C8.76736 4.68404 8.93906 4.77023 9.1236 4.78378C9.67735 4.82408 10.1923 5.08278 10.5552 5.50303C10.9181 5.92315 11.0991 6.47024 11.0586 7.02396C11.0452 7.2085 11.1055 7.39083 11.2265 7.53085C11.3475 7.67088 11.5192 7.75721 11.7038 7.77064C11.7212 7.77204 11.7382 7.77262 11.7552 7.77262V7.77274C11.9313 7.77251 12.1008 7.7057 12.2297 7.58586C12.3587 7.46591 12.4375 7.3017 12.4505 7.12615C12.5207 6.20286 12.2185 5.28998 11.6114 4.59095L11.6114 4.59094Z" fill="url(#paint3_linear_190_6995)"/>
<path d="M6.9772 8.1106C6.53782 8.1106 6.11628 8.28521 5.80559 8.59588C5.49478 8.90669 5.32031 9.32807 5.32031 9.7676C5.32031 10.207 5.49481 10.6285 5.80559 10.9392C6.11628 11.25 6.53779 11.4245 6.9772 11.4245C7.4167 11.4245 7.83811 11.25 8.14893 10.9392C8.45962 10.6285 8.6342 10.207 8.6342 9.7676C8.63374 9.32822 8.45901 8.90705 8.14833 8.59647C7.83775 8.28578 7.41658 8.11107 6.9772 8.1106ZM6.9772 10.9012C6.67655 10.9012 6.3882 10.7819 6.17561 10.5692C5.96292 10.3566 5.84356 10.0682 5.84356 9.7676C5.84356 9.46684 5.96293 9.17848 6.17561 8.96592C6.38818 8.75335 6.67655 8.63388 6.9772 8.63388C7.27796 8.63388 7.56632 8.75336 7.77888 8.96592C7.99144 9.17848 8.11092 9.46687 8.11092 9.7676C8.11069 10.0681 7.99109 10.3564 7.77852 10.569C7.56595 10.7814 7.27781 10.901 6.97717 10.9012H6.9772Z" fill="url(#paint4_linear_190_6995)"/>
<path d="M9.25986 7.55372C8.84464 7.30506 8.37757 7.02568 7.86858 6.68638C7.59504 6.50172 7.27407 6.3994 6.94401 6.39181C6.61406 6.38422 6.28877 6.47159 6.00694 6.64351C4.79667 7.41413 3.99941 8.69051 3.83789 10.1161C3.83789 11.6552 5.55924 12.9068 7.67497 12.9068C9.79089 12.9069 11.5124 11.6553 11.5124 10.1161C11.5124 8.90142 10.5677 8.33589 9.25992 7.5537L9.25986 7.55372ZM7.67515 12.2092C5.94388 12.2092 4.53564 11.2704 4.53564 10.1162C4.6918 8.94725 5.34901 7.90424 6.33596 7.25873C6.51711 7.15454 6.72128 7.09696 6.9301 7.09112C7.12749 7.09287 7.31973 7.15407 7.48161 7.26702C8.00112 7.61308 8.47764 7.89854 8.90187 8.152C10.2283 8.94576 10.8147 9.33001 10.8147 10.1162C10.8147 11.2704 9.40631 12.2092 7.67515 12.2092V12.2092Z" fill="url(#paint5_linear_190_6995)"/>
<path d="M6.97747 8.89526C6.74633 8.8955 6.52463 8.98742 6.36114 9.15093C6.19765 9.31445 6.1057 9.53614 6.10547 9.76738C6.10547 9.86363 6.18349 9.94176 6.27985 9.94176C6.3762 9.94176 6.45422 9.86362 6.45422 9.76738C6.45446 9.62863 6.5097 9.49572 6.6077 9.39761C6.7058 9.2995 6.83884 9.24425 6.97747 9.24414C7.07383 9.24414 7.15196 9.166 7.15196 9.06964C7.15196 8.9734 7.07383 8.89527 6.97747 8.89527V8.89526Z" fill="url(#paint6_linear_190_6995)"/>
<defs>
<linearGradient id="paint0_linear_190_6995" x1="14.9999" y1="15" x2="-1.26473" y2="13.4732" gradientUnits="userSpaceOnUse">
<stop stop-color="#383838"/>
<stop offset="1" stop-color="#8264F9"/>
</linearGradient>
<linearGradient id="paint1_linear_190_6995" x1="7.13968" y1="5.39418" x2="2.45635" y2="4.31024" gradientUnits="userSpaceOnUse">
<stop stop-color="#383838"/>
<stop offset="1" stop-color="#8264F9"/>
</linearGradient>
<linearGradient id="paint2_linear_190_6995" x1="7.48585" y1="6.55036" x2="2.80431" y2="5.46628" gradientUnits="userSpaceOnUse">
<stop stop-color="#383838"/>
<stop offset="1" stop-color="#8264F9"/>
</linearGradient>
<linearGradient id="paint3_linear_190_6995" x1="12.4604" y1="7.77274" x2="8.13409" y2="7.40359" gradientUnits="userSpaceOnUse">
<stop stop-color="#383838"/>
<stop offset="1" stop-color="#8264F9"/>
</linearGradient>
<linearGradient id="paint4_linear_190_6995" x1="8.6342" y1="11.4245" x2="5.0409" y2="11.0872" gradientUnits="userSpaceOnUse">
<stop stop-color="#383838"/>
<stop offset="1" stop-color="#8264F9"/>
</linearGradient>
<linearGradient id="paint5_linear_190_6995" x1="11.5124" y1="12.9068" x2="3.21888" y2="11.9897" gradientUnits="userSpaceOnUse">
<stop stop-color="#383838"/>
<stop offset="1" stop-color="#8264F9"/>
</linearGradient>
<linearGradient id="paint6_linear_190_6995" x1="7.15196" y1="9.94176" x2="6.01723" y2="9.83524" gradientUnits="userSpaceOnUse">
<stop stop-color="#383838"/>
<stop offset="1" stop-color="#8264F9"/>
</linearGradient>
</defs>
</svg>
