<svg width="18" height="18" viewBox="0 0 18 18" fill="none" xmlns="http://www.w3.org/2000/svg">
<path d="M12.8943 0C12.7272 0 12.567 0.0663748 12.4488 0.184523C12.3307 0.302671 12.2643 0.462914 12.2643 0.63V1.8081H5.499V0.6381C5.499 0.471014 5.43263 0.310771 5.31448 0.192623C5.19633 0.0744748 5.03609 0.0081 4.869 0.0081C4.70191 0.0081 4.54167 0.0744748 4.42352 0.192623C4.30538 0.310771 4.239 0.471014 4.239 0.6381V1.8081H1.8C1.32277 1.8081 0.865067 1.99762 0.527527 2.33499C0.189987 2.67236 0.000238419 3.12997 0 3.6072V16.2009C0.000238419 16.6781 0.189987 17.1357 0.527527 17.4731C0.865067 17.8105 1.32277 18 1.8 18H16.2C16.6772 18 17.1349 17.8105 17.4725 17.4731C17.81 17.1357 17.9998 16.6781 18 16.2009V3.6072C17.9998 3.12997 17.81 2.67236 17.4725 2.33499C17.1349 1.99762 16.6772 1.8081 16.2 1.8081H13.5243V0.6291C13.5241 0.46217 13.4576 0.302158 13.3395 0.184204C13.2213 0.0662511 13.0612 -1.70337e-07 12.8943 0V0ZM16.74 6.9678V16.2009C16.74 16.2718 16.726 16.342 16.6989 16.4075C16.6718 16.4731 16.632 16.5326 16.5818 16.5827C16.5317 16.6329 16.4722 16.6727 16.4066 16.6998C16.3411 16.7269 16.2709 16.7409 16.2 16.7409H1.8C1.72909 16.7409 1.65887 16.7269 1.59335 16.6998C1.52784 16.6727 1.46831 16.6329 1.41816 16.5827C1.36802 16.5326 1.32824 16.4731 1.30111 16.4075C1.27397 16.342 1.26 16.2718 1.26 16.2009V6.9804L16.74 6.9678ZM11.9997 13.1571V14.6565H13.5V13.1571H11.9997ZM8.2503 13.1571V14.6565H9.7497V13.1571H8.2503ZM4.5 13.1571V14.6565H6.0003V13.1571H4.5ZM11.9997 9.5778V11.0772H13.5V9.5778H11.9997ZM8.2503 9.5778V11.0772H9.7497V9.5778H8.2503ZM4.5 9.5778V11.0772H6.0003V9.5778H4.5ZM13.5243 3.0672H16.2C16.2709 3.0672 16.3411 3.08117 16.4066 3.1083C16.4722 3.13544 16.5317 3.17522 16.5818 3.22536C16.632 3.27551 16.6718 3.33504 16.6989 3.40055C16.726 3.46607 16.74 3.53629 16.74 3.6072V5.7087L1.26 5.7213V3.6072C1.26 3.53629 1.27397 3.46607 1.30111 3.40055C1.32824 3.33504 1.36802 3.27551 1.41816 3.22536C1.46831 3.17522 1.52784 3.13544 1.59335 3.1083C1.65887 3.08117 1.72909 3.0672 1.8 3.0672H4.239V3.9033C4.239 4.07039 4.30538 4.23063 4.42352 4.34878C4.54167 4.46693 4.70191 4.5333 4.869 4.5333C5.03609 4.5333 5.19633 4.46693 5.31448 4.34878C5.43263 4.23063 5.499 4.07039 5.499 3.9033V3.0672H12.2643V3.8952C12.2643 4.06229 12.3307 4.22253 12.4488 4.34068C12.567 4.45883 12.7272 4.5252 12.8943 4.5252C13.0614 4.5252 13.2216 4.45883 13.3398 4.34068C13.4579 4.22253 13.5243 4.06229 13.5243 3.8952V3.0672Z" fill="#2F69FF"/>
</svg>
