<svg width="117" height="21" viewBox="0 0 117 21" fill="none" xmlns="http://www.w3.org/2000/svg">
<rect x="0.5" y="0.5" width="116" height="20" rx="10" stroke="#A179F5"/>
<path d="M31.979 14.156C31.0777 14.156 30.2977 13.961 29.639 13.571C28.989 13.1723 28.4863 12.622 28.131 11.92C27.7757 11.2093 27.598 10.3903 27.598 9.463C27.598 8.527 27.7757 7.708 28.131 7.006C28.4863 6.29533 28.989 5.74067 29.639 5.342C30.2977 4.94333 31.0777 4.744 31.979 4.744C33.045 4.744 33.916 5.004 34.592 5.524C35.268 6.044 35.697 6.772 35.879 7.708H34.345C34.2237 7.17933 33.9637 6.759 33.565 6.447C33.1663 6.135 32.6333 5.979 31.966 5.979C31.056 5.979 30.3367 6.291 29.808 6.915C29.2793 7.53033 29.015 8.37967 29.015 9.463C29.015 10.5377 29.2793 11.3827 29.808 11.998C30.3367 12.6133 31.056 12.921 31.966 12.921C32.6333 12.921 33.1663 12.7737 33.565 12.479C33.9637 12.1843 34.2237 11.7813 34.345 11.27H35.879C35.697 12.1713 35.268 12.8777 34.592 13.389C33.916 13.9003 33.045 14.156 31.979 14.156ZM39.5257 14.156C38.9797 14.156 38.529 14.065 38.1737 13.883C37.8184 13.701 37.554 13.4627 37.3807 13.168C37.2074 12.8647 37.1207 12.5353 37.1207 12.18C37.1207 11.556 37.3634 11.062 37.8487 10.698C38.334 10.334 39.0274 10.152 39.9287 10.152H41.6187V10.035C41.6187 9.53233 41.48 9.15533 41.2027 8.904C40.934 8.65267 40.583 8.527 40.1497 8.527C39.7684 8.527 39.4347 8.62233 39.1487 8.813C38.8714 8.995 38.7024 9.268 38.6417 9.632H37.2637C37.307 9.164 37.463 8.76533 37.7317 8.436C38.009 8.098 38.3557 7.84233 38.7717 7.669C39.1964 7.487 39.66 7.396 40.1627 7.396C41.064 7.396 41.7617 7.63433 42.2557 8.111C42.7497 8.579 42.9967 9.22033 42.9967 10.035V14H41.8007L41.6837 12.895C41.5017 13.2503 41.2374 13.5493 40.8907 13.792C40.544 14.0347 40.089 14.156 39.5257 14.156ZM39.7987 13.038C40.1714 13.038 40.4834 12.9513 40.7347 12.778C40.9947 12.596 41.194 12.3577 41.3327 12.063C41.48 11.7683 41.571 11.4433 41.6057 11.088H40.0717C39.5257 11.088 39.1357 11.1833 38.9017 11.374C38.6764 11.5647 38.5637 11.803 38.5637 12.089C38.5637 12.3837 38.672 12.6177 38.8887 12.791C39.114 12.9557 39.4174 13.038 39.7987 13.038ZM44.6034 14V7.552H45.8254L45.9294 8.683C46.1288 8.28433 46.4191 7.97233 46.8004 7.747C47.1904 7.513 47.6368 7.396 48.1394 7.396C48.9194 7.396 49.5304 7.63867 49.9724 8.124C50.4231 8.60933 50.6484 9.333 50.6484 10.295V14H49.2834V10.438C49.2834 9.19 48.7721 8.566 47.7494 8.566C47.2381 8.566 46.8134 8.748 46.4754 9.112C46.1461 9.476 45.9814 9.996 45.9814 10.672V14H44.6034ZM55.3264 14.156C54.6937 14.156 54.1261 14.013 53.6234 13.727C53.1294 13.441 52.7394 13.0467 52.4534 12.544C52.1761 12.0327 52.0374 11.4433 52.0374 10.776C52.0374 10.1087 52.1761 9.52367 52.4534 9.021C52.7394 8.50967 53.1294 8.111 53.6234 7.825C54.1261 7.539 54.6937 7.396 55.3264 7.396C56.1237 7.396 56.7911 7.604 57.3284 8.02C57.8744 8.436 58.2254 8.99933 58.3814 9.71H56.9384C56.8517 9.35467 56.6611 9.07733 56.3664 8.878C56.0717 8.67867 55.7251 8.579 55.3264 8.579C54.9884 8.579 54.6764 8.66567 54.3904 8.839C54.1044 9.00367 53.8747 9.25067 53.7014 9.58C53.5281 9.90067 53.4414 10.2993 53.4414 10.776C53.4414 11.2527 53.5281 11.6557 53.7014 11.985C53.8747 12.3057 54.1044 12.5527 54.3904 12.726C54.6764 12.8993 54.9884 12.986 55.3264 12.986C55.7251 12.986 56.0717 12.8863 56.3664 12.687C56.6611 12.4877 56.8517 12.206 56.9384 11.842H58.3814C58.2341 12.5353 57.8874 13.0943 57.3414 13.519C56.7954 13.9437 56.1237 14.156 55.3264 14.156ZM62.8919 14.156C62.2592 14.156 61.6959 14.0173 61.2019 13.74C60.7165 13.454 60.3352 13.0597 60.0579 12.557C59.7805 12.0543 59.6419 11.4693 59.6419 10.802C59.6419 10.126 59.7762 9.53233 60.0449 9.021C60.3222 8.50967 60.7035 8.111 61.1889 7.825C61.6829 7.539 62.2549 7.396 62.9049 7.396C63.5375 7.396 64.0879 7.539 64.5559 7.825C65.0239 8.10233 65.3879 8.475 65.6479 8.943C65.9079 9.411 66.0379 9.92667 66.0379 10.49C66.0379 10.5767 66.0335 10.672 66.0249 10.776C66.0249 10.8713 66.0205 10.9797 66.0119 11.101H60.9939C61.0372 11.725 61.2409 12.2017 61.6049 12.531C61.9775 12.8517 62.4065 13.012 62.8919 13.012C63.2819 13.012 63.6069 12.9253 63.8669 12.752C64.1355 12.57 64.3349 12.3273 64.4649 12.024H65.8429C65.6695 12.6307 65.3229 13.1377 64.8029 13.545C64.2915 13.9523 63.6545 14.156 62.8919 14.156ZM62.8919 8.527C62.4325 8.527 62.0252 8.66567 61.6699 8.943C61.3145 9.21167 61.0979 9.619 61.0199 10.165H64.6599C64.6339 9.66233 64.4562 9.26367 64.1269 8.969C63.7975 8.67433 63.3859 8.527 62.8919 8.527ZM67.4677 14V4.64H68.8457V14H67.4677ZM70.5907 14V4.64H71.9687V14H70.5907ZM75.8978 14.156C75.3518 14.156 74.9011 14.065 74.5458 13.883C74.1904 13.701 73.9261 13.4627 73.7528 13.168C73.5794 12.8647 73.4928 12.5353 73.4928 12.18C73.4928 11.556 73.7354 11.062 74.2208 10.698C74.7061 10.334 75.3994 10.152 76.3008 10.152H77.9908V10.035C77.9908 9.53233 77.8521 9.15533 77.5748 8.904C77.3061 8.65267 76.9551 8.527 76.5218 8.527C76.1404 8.527 75.8068 8.62233 75.5208 8.813C75.2434 8.995 75.0744 9.268 75.0138 9.632H73.6358C73.6791 9.164 73.8351 8.76533 74.1038 8.436C74.3811 8.098 74.7278 7.84233 75.1438 7.669C75.5684 7.487 76.0321 7.396 76.5348 7.396C77.4361 7.396 78.1338 7.63433 78.6278 8.111C79.1218 8.579 79.3688 9.22033 79.3688 10.035V14H78.1728L78.0558 12.895C77.8738 13.2503 77.6094 13.5493 77.2628 13.792C76.9161 14.0347 76.4611 14.156 75.8978 14.156ZM76.1708 13.038C76.5434 13.038 76.8554 12.9513 77.1068 12.778C77.3668 12.596 77.5661 12.3577 77.7048 12.063C77.8521 11.7683 77.9431 11.4433 77.9778 11.088H76.4438C75.8978 11.088 75.5078 11.1833 75.2738 11.374C75.0484 11.5647 74.9358 11.803 74.9358 12.089C74.9358 12.3837 75.0441 12.6177 75.2608 12.791C75.4861 12.9557 75.7894 13.038 76.1708 13.038ZM83.5525 14C82.9199 14 82.4172 13.8483 82.0445 13.545C81.6719 13.233 81.4855 12.6827 81.4855 11.894V8.709H80.3805V7.552H81.4855L81.6545 5.914H82.8635V7.552H84.6835V8.709H82.8635V11.894C82.8635 12.2493 82.9372 12.4963 83.0845 12.635C83.2405 12.765 83.5049 12.83 83.8775 12.83H84.6185V14H83.5525ZM86.8844 6.33C86.6244 6.33 86.4077 6.252 86.2344 6.096C86.0697 5.93133 85.9874 5.72767 85.9874 5.485C85.9874 5.24233 86.0697 5.043 86.2344 4.887C86.4077 4.72233 86.6244 4.64 86.8844 4.64C87.1444 4.64 87.3567 4.72233 87.5214 4.887C87.6947 5.043 87.7814 5.24233 87.7814 5.485C87.7814 5.72767 87.6947 5.93133 87.5214 6.096C87.3567 6.252 87.1444 6.33 86.8844 6.33ZM86.1954 14V7.552H87.5734V14H86.1954ZM92.4085 14.156C91.7932 14.156 91.2385 14.0173 90.7445 13.74C90.2592 13.454 89.8735 13.0597 89.5875 12.557C89.3015 12.0457 89.1585 11.452 89.1585 10.776C89.1585 10.1 89.3015 9.51067 89.5875 9.008C89.8822 8.49667 90.2765 8.10233 90.7705 7.825C91.2645 7.539 91.8148 7.396 92.4215 7.396C93.0368 7.396 93.5872 7.539 94.0725 7.825C94.5665 8.10233 94.9565 8.49667 95.2425 9.008C95.5372 9.51067 95.6845 10.1 95.6845 10.776C95.6845 11.452 95.5372 12.0457 95.2425 12.557C94.9565 13.0597 94.5665 13.454 94.0725 13.74C93.5785 14.0173 93.0238 14.156 92.4085 14.156ZM92.4085 12.973C92.7378 12.973 93.0412 12.8907 93.3185 12.726C93.6045 12.5613 93.8342 12.3187 94.0075 11.998C94.1808 11.6687 94.2675 11.2613 94.2675 10.776C94.2675 10.2907 94.1808 9.88767 94.0075 9.567C93.8428 9.23767 93.6175 8.99067 93.3315 8.826C93.0542 8.66133 92.7508 8.579 92.4215 8.579C92.0922 8.579 91.7845 8.66133 91.4985 8.826C91.2212 8.99067 90.9958 9.23767 90.8225 9.567C90.6492 9.88767 90.5625 10.2907 90.5625 10.776C90.5625 11.2613 90.6492 11.6687 90.8225 11.998C90.9958 12.3187 91.2212 12.5613 91.4985 12.726C91.7758 12.8907 92.0792 12.973 92.4085 12.973ZM97.1747 14V7.552H98.3967L98.5007 8.683C98.7 8.28433 98.9904 7.97233 99.3717 7.747C99.7617 7.513 100.208 7.396 100.711 7.396C101.491 7.396 102.102 7.63867 102.544 8.124C102.994 8.60933 103.22 9.333 103.22 10.295V14H101.855V10.438C101.855 9.19 101.343 8.566 100.321 8.566C99.8094 8.566 99.3847 8.748 99.0467 9.112C98.7174 9.476 98.5527 9.996 98.5527 10.672V14H97.1747Z" fill="#A179F5"/>
<path d="M13 10.5L16 13.5L22.5 7" stroke="#A179F5" stroke-width="2"/>
</svg>
