<svg width="18" height="18" viewBox="0 0 18 18" fill="none" xmlns="http://www.w3.org/2000/svg">
<path d="M2 0H0V2H2V0ZM4 0H6V2H4V0ZM10 0H8V2H10V0ZM12 0H14V2H12V0ZM16 0H18V2H16V0ZM0 4H2V6H0V4ZM2 8H0V10H2V8ZM0 12H2V14H0V12ZM2 16H0V18H2V16ZM4 16H6V18H4V16ZM10 16H8V18H10V16ZM16 8H18V10H16V8ZM18 4H16V6H18V4ZM12 14V12H18V14H16V16H14V18H12V14ZM16 16V18H18V16H16Z" fill="url(#paint0_linear_498_38234)"/>
<defs>
<linearGradient id="paint0_linear_498_38234" x1="-1.17347e-07" y1="2.25" x2="18.0055" y2="18.0414" gradientUnits="userSpaceOnUse">
<stop stop-color="#5C4E97"/>
<stop offset="1" stop-color="#383838"/>
</linearGradient>
</defs>
</svg>
