<svg width="36" height="36" viewBox="0 0 36 36" fill="none" xmlns="http://www.w3.org/2000/svg">
<path d="M4.52622 1.2254C3.61501 0.314189 2.13761 0.314189 1.2264 1.2254C0.31516 2.13662 0.31516 3.61401 1.2264 4.52523L14.7008 17.9996L1.22654 31.4739C0.3153 32.3851 0.3153 33.8625 1.22654 34.7737C2.13775 35.6849 3.61515 35.6849 4.52636 34.7737L18.0006 21.2994L31.4749 34.7737C32.3861 35.6849 33.8635 35.6849 34.7747 34.7737C35.6859 33.8625 35.6859 32.3851 34.7747 31.4739L21.3004 17.9996L34.7747 4.52523C35.6861 3.61401 35.6861 2.13662 34.7747 1.2254C33.8635 0.314189 32.3863 0.314189 31.4749 1.2254L18.0006 14.6998L4.52622 1.2254Z" fill="white"/>
</svg>
