<svg width="16" height="13" viewBox="0 0 16 13" fill="none" xmlns="http://www.w3.org/2000/svg">
<path d="M15.3642 11.3629L8.54531 6.5585V5.78541C9.93122 5.42806 10.91 4.05806 10.635 2.50883C10.4347 1.37802 9.53381 0.458118 8.40655 0.237856C6.58182 -0.117777 4.98481 1.26957 4.98481 3.03033C4.98481 3.15126 4.99452 3.26965 5.00921 3.38633H6.45972C6.35263 2.97472 6.36028 2.51586 7.04292 1.91979C7.25699 1.73304 7.5302 1.61028 7.81384 1.60615C8.71323 1.59437 9.42729 2.4204 9.22173 3.35196C9.11646 3.83217 8.74674 4.22753 8.28023 4.38162C8.2506 4.39097 8.22109 4.39971 8.19195 4.40736C7.5625 4.57322 7.12138 5.13407 7.12138 5.78466V6.55872L0.302464 11.3631C0.112316 11.4964 0 11.7134 0 11.9454V11.9461C0 12.5286 0.471359 13.0001 1.05394 13.0001H14.6122C15.1947 13.0001 15.6665 12.5285 15.6665 11.9461V11.9454C15.6664 11.7134 15.5537 11.4964 15.3642 11.363L15.3642 11.3629ZM2.75926 11.5757L7.83311 8.01594L12.907 11.5757H2.75926Z" fill="url(#paint0_linear_190_6991)"/>
<defs>
<linearGradient id="paint0_linear_190_6991" x1="15.6665" y1="13.0001" x2="-1.24798" y2="11.0595" gradientUnits="userSpaceOnUse">
<stop stop-color="#383838"/>
<stop offset="1" stop-color="#8264F9"/>
</linearGradient>
</defs>
</svg>
