<svg width="19" height="19" viewBox="0 0 19 19" fill="none" xmlns="http://www.w3.org/2000/svg">
<path d="M14.6667 17.113H1.22222V3.66857H9.30111L10.5233 2.44635H1.22222C0.898069 2.44635 0.587192 2.57512 0.357981 2.80433C0.128769 3.03354 0 3.34442 0 3.66857V17.113C0 17.4372 0.128769 17.748 0.357981 17.9773C0.587192 18.2065 0.898069 18.3352 1.22222 18.3352H14.6667C14.9908 18.3352 15.3017 18.2065 15.5309 17.9773C15.7601 17.748 15.8889 17.4372 15.8889 17.113V7.94635L14.6667 9.16857V17.113Z" fill="white"/>
<path d="M18.046 2.34857L15.9866 0.289128C15.8952 0.19748 15.7866 0.124766 15.6671 0.075152C15.5475 0.0255383 15.4194 0 15.2899 0C15.1605 0 15.0323 0.0255383 14.9128 0.075152C14.7932 0.124766 14.6847 0.19748 14.5933 0.289128L6.21493 8.71635L5.5366 11.6558C5.5077 11.7983 5.51074 11.9454 5.5455 12.0866C5.58025 12.2277 5.64586 12.3595 5.73761 12.4722C5.82936 12.585 5.94496 12.6761 6.0761 12.7388C6.20724 12.8016 6.35066 12.8345 6.49604 12.8352C6.57119 12.8435 6.64701 12.8435 6.72216 12.8352L9.68604 12.1814L18.046 3.74191C18.1377 3.65051 18.2104 3.54193 18.26 3.42238C18.3096 3.30283 18.3352 3.17467 18.3352 3.04524C18.3352 2.91581 18.3096 2.78764 18.26 2.6681C18.2104 2.54855 18.1377 2.43997 18.046 2.34857ZM9.05049 11.0508L6.81382 11.5458L7.33327 9.32746L13.6399 2.97802L15.3633 4.70135L9.05049 11.0508ZM16.0538 4.01079L14.3305 2.28746L15.2777 1.32191L17.0133 3.05746L16.0538 4.01079Z" fill="white"/>
</svg>
