<svg width="343" height="104" viewBox="0 0 343 104" fill="none" xmlns="http://www.w3.org/2000/svg">
<path opacity="0.4" d="M1.68435 99.5562C0.966048 98.4832 0.449883 97.2636 0.19034 95.9516L0.680835 95.8546C0.562252 95.2552 0.5 94.6351 0.5 94V92.0909H0V88.2727H0.5V84.4545H0V80.6364H0.5V76.8182H0V73H0.5V69.1818H0V65.3636H0.5V61.5454H0V57.7273H0.5V53.9091H0V50.0909H0.5V46.2727H0V42.4545H0.5V38.6364H0V34.8182H0.5V31H0V27.1818H0.5V23.3636H0V19.5455H0.5V15.7273H0V11.9091H0.5V10C0.5 9.3649 0.562251 8.74483 0.680834 8.14542L0.19034 8.04838C0.449883 6.73643 0.966046 5.51676 1.68435 4.44384L2.09983 4.722C2.79355 3.6858 3.6858 2.79355 4.722 2.09983L4.44384 1.68435C5.51676 0.966047 6.73643 0.449883 8.04838 0.190341L8.14541 0.680834C8.74483 0.562252 9.3649 0.5 10 0.5H12.0185V0H16.056V0.5H20.0935V0H24.131V0.5H28.1685V0H32.206V0.5H36.2435V0H40.281V0.5H44.3185V0H48.356V0.5H52.3935V0H56.4311V0.5H60.4686V0H64.5061V0.5H68.5436V0H72.5811V0.5H76.6186V0H80.6561V0.5H84.6936V0H88.7311V0.5H92.7686V0H96.8061V0.5H100.844V0H104.881V0.5H108.919V0H112.956V0.5H116.994V0H121.031V0.5H125.069V0H129.106V0.5H133.144V0H137.181V0.5H141.219V0H145.256V0.5H149.294V0H153.331V0.5H157.369V0H161.406V0.5H165.444V0H169.481V0.5H173.519V0H177.556V0.5H181.594V0H185.631V0.5H189.669V0H193.706V0.5H197.744V0H201.781V0.5H205.819V0H209.856V0.5H213.894V0H217.931V0.5H221.969V0H226.006V0.5H230.044V0H234.081V0.5H238.119V0H242.156V0.5H246.194V0H250.231V0.5H254.269V0H258.306V0.5H262.344V0H266.381V0.5H270.419V0H274.456V0.5H278.494V0H282.531V0.5H286.569V0H290.606V0.5H294.644V0H298.681V0.5H302.719V0H306.756V0.5H310.794V0H314.831V0.5H318.869V0H322.906V0.5H326.944V0H330.981V0.5H333C333.635 0.5 334.255 0.562252 334.855 0.680835L334.952 0.190341C336.264 0.449883 337.483 0.966048 338.556 1.68435L338.278 2.09983C339.314 2.79355 340.206 3.6858 340.9 4.72201L341.316 4.44385C342.034 5.51676 342.55 6.73643 342.81 8.04838L342.319 8.14542C342.438 8.74483 342.5 9.3649 342.5 10V11.9091H343V15.7273H342.5V19.5455H343V23.3636H342.5V27.1818H343V31H342.5V34.8182H343V38.6364H342.5V42.4546H343V46.2727H342.5V50.0909H343V53.9091H342.5V57.7273H343V61.5455H342.5V65.3636H343V69.1818H342.5V73H343V76.8182H342.5V80.6364H343V84.4545H342.5V88.2727H343V92.0909H342.5V94C342.5 94.6351 342.438 95.2552 342.319 95.8546L342.81 95.9516C342.55 97.2636 342.034 98.4832 341.316 99.5562L340.9 99.278C340.206 100.314 339.314 101.206 338.278 101.9L338.556 102.316C337.483 103.034 336.264 103.55 334.952 103.81L334.855 103.319C334.255 103.438 333.635 103.5 333 103.5H330.982V104H326.944V103.5H322.906V104H318.869V103.5H314.831V104H310.794V103.5H306.756V104H302.719V103.5H298.681V104H294.644V103.5H290.606V104H286.569V103.5H282.531V104H278.494V103.5H274.456V104H270.419V103.5H266.381V104H262.344V103.5H258.306V104H254.269V103.5H250.231V104H246.194V103.5H242.156V104H238.119V103.5H234.081V104H230.044V103.5H226.006V104H221.969V103.5H217.931V104H213.894V103.5H209.856V104H205.819V103.5H201.781V104H197.744V103.5H193.706V104H189.669V103.5H185.631V104H181.594V103.5H177.556V104H173.519V103.5H169.481V104H165.444V103.5H161.406V104H157.369V103.5H153.331V104H149.294V103.5H145.256V104H141.219V103.5H137.181V104H133.144V103.5H129.106V104H125.069V103.5H121.031V104H116.994V103.5H112.956V104H108.919V103.5H104.881V104H100.844V103.5H96.8062V104H92.7687V103.5H88.7312V104H84.6937V103.5H80.6562V104H76.6188V103.5H72.5812V104H68.5437V103.5H64.5062V104H60.4688V103.5H56.4313V104H52.3938V103.5H48.3563V104H44.3188V103.5H40.2813V104H36.2438V103.5H32.2063V104H28.1688V103.5H24.1313V104H20.0938V103.5H16.0563V104H12.0188V103.5H10C9.36491 103.5 8.74484 103.438 8.14542 103.319L8.04839 103.81C6.73644 103.55 5.51676 103.034 4.44385 102.316L4.72201 101.9C3.6858 101.206 2.79355 100.314 2.09983 99.278L1.68435 99.5562Z" stroke="#2F69FF" stroke-dasharray="4 4"/>
<path opacity="0.4" d="M136.924 68.144C136.348 68.144 135.824 68.032 135.352 67.808C134.888 67.576 134.516 67.22 134.236 66.74C133.956 66.26 133.816 65.648 133.816 64.904V59.6H134.824V64.916C134.824 65.732 135.02 66.324 135.412 66.692C135.804 67.06 136.316 67.244 136.948 67.244C137.58 67.244 138.088 67.06 138.472 66.692C138.856 66.324 139.048 65.732 139.048 64.916V59.6H140.056V64.904C140.056 65.648 139.916 66.26 139.636 66.74C139.356 67.22 138.98 67.576 138.508 67.808C138.036 68.032 137.508 68.144 136.924 68.144ZM141.703 70.64V62.048H142.615L142.711 63.032C142.903 62.744 143.175 62.484 143.527 62.252C143.887 62.02 144.343 61.904 144.895 61.904C145.487 61.904 146.003 62.04 146.443 62.312C146.883 62.584 147.223 62.956 147.463 63.428C147.711 63.9 147.835 64.436 147.835 65.036C147.835 65.636 147.711 66.172 147.463 66.644C147.223 67.108 146.879 67.476 146.431 67.748C145.991 68.012 145.475 68.144 144.883 68.144C144.395 68.144 143.959 68.044 143.575 67.844C143.199 67.644 142.911 67.364 142.711 67.004V70.64H141.703ZM144.775 67.268C145.175 67.268 145.527 67.176 145.831 66.992C146.135 66.8 146.375 66.536 146.551 66.2C146.727 65.864 146.815 65.472 146.815 65.024C146.815 64.576 146.727 64.184 146.551 63.848C146.375 63.512 146.135 63.252 145.831 63.068C145.527 62.876 145.175 62.78 144.775 62.78C144.375 62.78 144.023 62.876 143.719 63.068C143.415 63.252 143.175 63.512 142.999 63.848C142.823 64.184 142.735 64.576 142.735 65.024C142.735 65.472 142.823 65.864 142.999 66.2C143.175 66.536 143.415 66.8 143.719 66.992C144.023 67.176 144.375 67.268 144.775 67.268ZM149.238 68V59.36H150.246V68H149.238ZM154.61 68.144C154.05 68.144 153.546 68.016 153.098 67.76C152.65 67.504 152.294 67.144 152.03 66.68C151.774 66.208 151.646 65.656 151.646 65.024C151.646 64.392 151.778 63.844 152.042 63.38C152.306 62.908 152.662 62.544 153.11 62.288C153.566 62.032 154.074 61.904 154.634 61.904C155.194 61.904 155.698 62.032 156.146 62.288C156.594 62.544 156.946 62.908 157.202 63.38C157.466 63.844 157.598 64.392 157.598 65.024C157.598 65.656 157.466 66.208 157.202 66.68C156.938 67.144 156.578 67.504 156.122 67.76C155.674 68.016 155.17 68.144 154.61 68.144ZM154.61 67.28C154.954 67.28 155.274 67.196 155.57 67.028C155.866 66.86 156.106 66.608 156.29 66.272C156.474 65.936 156.566 65.52 156.566 65.024C156.566 64.528 156.474 64.112 156.29 63.776C156.114 63.44 155.878 63.188 155.582 63.02C155.286 62.852 154.97 62.768 154.634 62.768C154.29 62.768 153.97 62.852 153.674 63.02C153.378 63.188 153.138 63.44 152.954 63.776C152.77 64.112 152.678 64.528 152.678 65.024C152.678 65.52 152.77 65.936 152.954 66.272C153.138 66.608 153.374 66.86 153.662 67.028C153.958 67.196 154.274 67.28 154.61 67.28ZM160.98 68.144C160.484 68.144 160.072 68.06 159.744 67.892C159.416 67.724 159.172 67.5 159.012 67.22C158.852 66.94 158.772 66.636 158.772 66.308C158.772 65.7 159.004 65.232 159.468 64.904C159.932 64.576 160.564 64.412 161.364 64.412H162.972V64.34C162.972 63.82 162.836 63.428 162.564 63.164C162.292 62.892 161.928 62.756 161.472 62.756C161.08 62.756 160.74 62.856 160.452 63.056C160.172 63.248 159.996 63.532 159.924 63.908H158.892C158.932 63.476 159.076 63.112 159.324 62.816C159.58 62.52 159.896 62.296 160.272 62.144C160.648 61.984 161.048 61.904 161.472 61.904C162.304 61.904 162.928 62.128 163.344 62.576C163.768 63.016 163.98 63.604 163.98 64.34V68H163.08L163.02 66.932C162.852 67.268 162.604 67.556 162.276 67.796C161.956 68.028 161.524 68.144 160.98 68.144ZM161.136 67.292C161.52 67.292 161.848 67.192 162.12 66.992C162.4 66.792 162.612 66.532 162.756 66.212C162.9 65.892 162.972 65.556 162.972 65.204V65.192H161.448C160.856 65.192 160.436 65.296 160.188 65.504C159.948 65.704 159.828 65.956 159.828 66.26C159.828 66.572 159.94 66.824 160.164 67.016C160.396 67.2 160.72 67.292 161.136 67.292ZM168.192 68.144C167.6 68.144 167.08 68.008 166.632 67.736C166.192 67.464 165.848 67.092 165.6 66.62C165.36 66.148 165.24 65.612 165.24 65.012C165.24 64.412 165.364 63.88 165.612 63.416C165.86 62.944 166.204 62.576 166.644 62.312C167.084 62.04 167.604 61.904 168.204 61.904C168.692 61.904 169.124 62.004 169.5 62.204C169.876 62.404 170.168 62.684 170.376 63.044V59.36H171.384V68H170.472L170.376 67.016C170.184 67.304 169.908 67.564 169.548 67.796C169.188 68.028 168.736 68.144 168.192 68.144ZM168.3 67.268C168.7 67.268 169.052 67.176 169.356 66.992C169.668 66.8 169.908 66.536 170.076 66.2C170.252 65.864 170.34 65.472 170.34 65.024C170.34 64.576 170.252 64.184 170.076 63.848C169.908 63.512 169.668 63.252 169.356 63.068C169.052 62.876 168.7 62.78 168.3 62.78C167.908 62.78 167.556 62.876 167.244 63.068C166.94 63.252 166.7 63.512 166.524 63.848C166.356 64.184 166.272 64.576 166.272 65.024C166.272 65.472 166.356 65.864 166.524 66.2C166.7 66.536 166.94 66.8 167.244 66.992C167.556 67.176 167.908 67.268 168.3 67.268ZM178.183 68.144C177.687 68.144 177.275 68.06 176.947 67.892C176.619 67.724 176.375 67.5 176.215 67.22C176.055 66.94 175.975 66.636 175.975 66.308C175.975 65.7 176.207 65.232 176.671 64.904C177.135 64.576 177.767 64.412 178.567 64.412H180.175V64.34C180.175 63.82 180.039 63.428 179.767 63.164C179.495 62.892 179.131 62.756 178.675 62.756C178.283 62.756 177.943 62.856 177.655 63.056C177.375 63.248 177.199 63.532 177.127 63.908H176.095C176.135 63.476 176.279 63.112 176.527 62.816C176.783 62.52 177.099 62.296 177.475 62.144C177.851 61.984 178.251 61.904 178.675 61.904C179.507 61.904 180.131 62.128 180.547 62.576C180.971 63.016 181.183 63.604 181.183 64.34V68H180.283L180.223 66.932C180.055 67.268 179.807 67.556 179.479 67.796C179.159 68.028 178.727 68.144 178.183 68.144ZM178.339 67.292C178.723 67.292 179.051 67.192 179.323 66.992C179.603 66.792 179.815 66.532 179.959 66.212C180.103 65.892 180.175 65.556 180.175 65.204V65.192H178.651C178.059 65.192 177.639 65.296 177.391 65.504C177.151 65.704 177.031 65.956 177.031 66.26C177.031 66.572 177.143 66.824 177.367 67.016C177.599 67.2 177.923 67.292 178.339 67.292ZM185.871 70.64V62.048H186.783L186.879 63.032C187.071 62.744 187.343 62.484 187.695 62.252C188.055 62.02 188.511 61.904 189.063 61.904C189.655 61.904 190.171 62.04 190.611 62.312C191.051 62.584 191.391 62.956 191.631 63.428C191.879 63.9 192.003 64.436 192.003 65.036C192.003 65.636 191.879 66.172 191.631 66.644C191.391 67.108 191.047 67.476 190.599 67.748C190.159 68.012 189.643 68.144 189.051 68.144C188.563 68.144 188.127 68.044 187.743 67.844C187.367 67.644 187.079 67.364 186.879 67.004V70.64H185.871ZM188.943 67.268C189.343 67.268 189.695 67.176 189.999 66.992C190.303 66.8 190.543 66.536 190.719 66.2C190.895 65.864 190.983 65.472 190.983 65.024C190.983 64.576 190.895 64.184 190.719 63.848C190.543 63.512 190.303 63.252 189.999 63.068C189.695 62.876 189.343 62.78 188.943 62.78C188.543 62.78 188.191 62.876 187.887 63.068C187.583 63.252 187.343 63.512 187.167 63.848C186.991 64.184 186.903 64.576 186.903 65.024C186.903 65.472 186.991 65.864 187.167 66.2C187.343 66.536 187.583 66.8 187.887 66.992C188.191 67.176 188.543 67.268 188.943 67.268ZM193.406 68V59.36H194.414V63.068C194.614 62.7 194.898 62.416 195.266 62.216C195.634 62.008 196.034 61.904 196.466 61.904C197.154 61.904 197.706 62.12 198.122 62.552C198.538 62.976 198.746 63.632 198.746 64.52V68H197.75V64.628C197.75 63.388 197.25 62.768 196.25 62.768C195.73 62.768 195.294 62.956 194.942 63.332C194.59 63.7 194.414 64.228 194.414 64.916V68H193.406ZM202.985 68.144C202.425 68.144 201.921 68.016 201.473 67.76C201.025 67.504 200.669 67.144 200.405 66.68C200.149 66.208 200.021 65.656 200.021 65.024C200.021 64.392 200.153 63.844 200.417 63.38C200.681 62.908 201.037 62.544 201.485 62.288C201.941 62.032 202.449 61.904 203.009 61.904C203.569 61.904 204.073 62.032 204.521 62.288C204.969 62.544 205.321 62.908 205.577 63.38C205.841 63.844 205.973 64.392 205.973 65.024C205.973 65.656 205.841 66.208 205.577 66.68C205.313 67.144 204.953 67.504 204.497 67.76C204.049 68.016 203.545 68.144 202.985 68.144ZM202.985 67.28C203.329 67.28 203.649 67.196 203.945 67.028C204.241 66.86 204.481 66.608 204.665 66.272C204.849 65.936 204.941 65.52 204.941 65.024C204.941 64.528 204.849 64.112 204.665 63.776C204.489 63.44 204.253 63.188 203.957 63.02C203.661 62.852 203.345 62.768 203.009 62.768C202.665 62.768 202.345 62.852 202.049 63.02C201.753 63.188 201.513 63.44 201.329 63.776C201.145 64.112 201.053 64.528 201.053 65.024C201.053 65.52 201.145 65.936 201.329 66.272C201.513 66.608 201.749 66.86 202.037 67.028C202.333 67.196 202.649 67.28 202.985 67.28ZM209.493 68C208.949 68 208.521 67.868 208.209 67.604C207.897 67.34 207.741 66.864 207.741 66.176V62.9H206.708V62.048H207.741L207.873 60.62H208.749V62.048H210.501V62.9H208.749V66.176C208.749 66.552 208.825 66.808 208.977 66.944C209.129 67.072 209.397 67.136 209.781 67.136H210.405V68H209.493ZM214.329 68.144C213.769 68.144 213.265 68.016 212.817 67.76C212.369 67.504 212.013 67.144 211.749 66.68C211.493 66.208 211.365 65.656 211.365 65.024C211.365 64.392 211.497 63.844 211.761 63.38C212.025 62.908 212.381 62.544 212.829 62.288C213.285 62.032 213.793 61.904 214.353 61.904C214.913 61.904 215.417 62.032 215.865 62.288C216.313 62.544 216.665 62.908 216.921 63.38C217.185 63.844 217.317 64.392 217.317 65.024C217.317 65.656 217.185 66.208 216.921 66.68C216.657 67.144 216.297 67.504 215.841 67.76C215.393 68.016 214.889 68.144 214.329 68.144ZM214.329 67.28C214.673 67.28 214.993 67.196 215.289 67.028C215.585 66.86 215.825 66.608 216.009 66.272C216.193 65.936 216.285 65.52 216.285 65.024C216.285 64.528 216.193 64.112 216.009 63.776C215.833 63.44 215.597 63.188 215.301 63.02C215.005 62.852 214.689 62.768 214.353 62.768C214.009 62.768 213.689 62.852 213.393 63.02C213.097 63.188 212.857 63.44 212.673 63.776C212.489 64.112 212.397 64.528 212.397 65.024C212.397 65.52 212.489 65.936 212.673 66.272C212.857 66.608 213.093 66.86 213.381 67.028C213.677 67.196 213.993 67.28 214.329 67.28Z" fill="#2F69FF"/>
<path opacity="0.4" d="M175.238 49.0952H161.905V35.7619H170.476V33.8571H161.905C160.857 33.8571 160 34.7143 160 35.7619V49.0952C160 50.1429 160.857 51 161.905 51H175.238C176.286 51 177.143 50.1429 177.143 49.0952V40.5238H175.238V49.0952ZM167.819 46.0762L165.952 43.8286L163.333 47.1905H173.81L170.438 42.7048L167.819 46.0762ZM177.143 33.8571V31H175.238V33.8571H172.381C172.39 33.8667 172.381 35.7619 172.381 35.7619H175.238V38.6095C175.248 38.619 177.143 38.6095 177.143 38.6095V35.7619H180V33.8571H177.143Z" fill="#2F69FF"/>
</svg>
