<svg width="37" height="36" viewBox="0 0 37 36" fill="none" xmlns="http://www.w3.org/2000/svg">
<circle cx="18.0039" cy="18" r="18" fill="#636262"/>
<path fill-rule="evenodd" clip-rule="evenodd" d="M19.9805 9.22279C18.8542 9.27213 17.8815 9.63039 17.2067 10.2444C16.5529 10.8393 16.1462 11.6665 16.0273 12.6431C15.9856 12.9861 15.9842 13.0379 15.9821 14.4012C15.9798 15.8923 15.9857 15.7822 15.9079 15.8017C15.8848 15.8075 15.3826 15.8091 14.5943 15.8059C13.8342 15.8029 13.303 15.8045 13.2808 15.8099C13.2603 15.8148 13.2344 15.8301 13.2232 15.8437C13.2018 15.8698 13.2021 15.8216 13.2038 18.8476C13.2038 18.869 13.213 18.8885 13.2306 18.9045L13.2573 18.9287H14.5732C15.3832 18.9287 15.8997 18.9324 15.9165 18.9382C15.9315 18.9434 15.9521 18.9592 15.9623 18.9733C15.9796 18.9974 15.9807 19.2425 15.9784 22.8905L15.9761 26.7821H17.7027H19.4293L19.4229 22.9024C19.4182 19.9589 19.4197 19.0144 19.4293 18.9883C19.4364 18.9692 19.4541 18.9485 19.4692 18.9415C19.4906 18.9317 19.7625 18.929 20.7473 18.9289C21.9165 18.9287 22.0006 18.9276 22.0355 18.9114C22.1065 18.8785 22.1051 18.8852 22.2158 18.0616C22.272 17.6437 22.3598 16.999 22.411 16.6291C22.4622 16.2592 22.504 15.9373 22.504 15.9138C22.504 15.8639 22.4911 15.8382 22.4575 15.8209C22.4383 15.811 22.1247 15.8083 20.9516 15.8083L19.4698 15.8082L19.445 15.7856L19.4203 15.7631L19.4171 15.1526C19.4127 14.3217 19.4311 13.2779 19.4523 13.1475C19.5402 12.6073 19.8729 12.3015 20.4955 12.1886C20.7458 12.1432 20.8138 12.1406 21.8116 12.1384L22.7562 12.1363L22.7797 12.1149L22.8031 12.0936V10.739V9.38448L22.7738 9.35778C22.7448 9.33143 22.7409 9.33084 22.4855 9.31374C22.3431 9.3042 22.0994 9.28728 21.9438 9.27612C21.2864 9.22897 20.3933 9.20471 19.9805 9.22279Z" fill="white"/>
</svg>
