<svg width="105" height="18" viewBox="0 0 105 18" fill="none" xmlns="http://www.w3.org/2000/svg">
<path d="M14.2857 2H1.71429C0.767857 2 0 2.71987 0 3.60714V15.3929C0 16.2801 0.767857 17 1.71429 17H14.2857C15.2321 17 16 16.2801 16 15.3929V3.60714C16 2.71987 15.2321 2 14.2857 2ZM8.57143 11.6429H6.85714V13.25C6.85714 13.5446 6.6 13.7857 6.28571 13.7857H5.14286C4.82857 13.7857 4.57143 13.5446 4.57143 13.25V5.75C4.57143 5.45536 4.82857 5.21429 5.14286 5.21429H8.57143C10.4607 5.21429 12 6.65737 12 8.42857C12 10.1998 10.4607 11.6429 8.57143 11.6429ZM8.57143 7.35714H6.85714V9.5H8.57143C9.2 9.5 9.71429 9.01786 9.71429 8.42857C9.71429 7.83929 9.2 7.35714 8.57143 7.35714Z" fill="url(#paint0_linear_189_7860)"/>
<path d="M23.036 14V4.2H29V5.166H24.212V8.61H28.286V9.562H24.212V14H23.036ZM30.4445 14V7.056H31.5085L31.6065 8.386C31.8212 7.92867 32.1478 7.56467 32.5865 7.294C33.0252 7.02333 33.5665 6.888 34.2105 6.888V8.12H33.8885C33.4778 8.12 33.0998 8.19467 32.7545 8.344C32.4092 8.484 32.1338 8.72667 31.9285 9.072C31.7232 9.41733 31.6205 9.89333 31.6205 10.5V14H30.4445ZM38.3927 14.168C37.73 14.168 37.142 14.0187 36.6287 13.72C36.1154 13.412 35.7094 12.9873 35.4107 12.446C35.1214 11.9047 34.9767 11.2653 34.9767 10.528C34.9767 9.8 35.1214 9.16533 35.4107 8.624C35.7 8.07333 36.1014 7.64867 36.6147 7.35C37.1374 7.042 37.7394 6.888 38.4207 6.888C39.0927 6.888 39.6714 7.042 40.1567 7.35C40.6514 7.64867 41.0294 8.04533 41.2907 8.54C41.552 9.03467 41.6827 9.56667 41.6827 10.136C41.6827 10.2387 41.678 10.3413 41.6687 10.444C41.6687 10.5467 41.6687 10.6633 41.6687 10.794H36.1387C36.1667 11.326 36.288 11.7693 36.5027 12.124C36.7267 12.4693 37.002 12.7307 37.3287 12.908C37.6647 13.0853 38.0194 13.174 38.3927 13.174C38.878 13.174 39.284 13.062 39.6107 12.838C39.9374 12.614 40.1754 12.3107 40.3247 11.928H41.4867C41.3 12.572 40.9407 13.1087 40.4087 13.538C39.886 13.958 39.214 14.168 38.3927 14.168ZM38.3927 7.882C37.8327 7.882 37.3334 8.05467 36.8947 8.4C36.4654 8.736 36.218 9.23067 36.1527 9.884H40.5207C40.4927 9.25867 40.278 8.76867 39.8767 8.414C39.4754 8.05933 38.9807 7.882 38.3927 7.882ZM46.3634 14.168C45.7007 14.168 45.1127 14.0187 44.5994 13.72C44.0861 13.412 43.6801 12.9873 43.3814 12.446C43.0921 11.9047 42.9474 11.2653 42.9474 10.528C42.9474 9.8 43.0921 9.16533 43.3814 8.624C43.6707 8.07333 44.0721 7.64867 44.5854 7.35C45.1081 7.042 45.7101 6.888 46.3914 6.888C47.0634 6.888 47.6421 7.042 48.1274 7.35C48.6221 7.64867 49.0001 8.04533 49.2614 8.54C49.5227 9.03467 49.6534 9.56667 49.6534 10.136C49.6534 10.2387 49.6487 10.3413 49.6394 10.444C49.6394 10.5467 49.6394 10.6633 49.6394 10.794H44.1094C44.1374 11.326 44.2587 11.7693 44.4734 12.124C44.6974 12.4693 44.9727 12.7307 45.2994 12.908C45.6354 13.0853 45.9901 13.174 46.3634 13.174C46.8487 13.174 47.2547 13.062 47.5814 12.838C47.9081 12.614 48.1461 12.3107 48.2954 11.928H49.4574C49.2707 12.572 48.9114 13.1087 48.3794 13.538C47.8567 13.958 47.1847 14.168 46.3634 14.168ZM46.3634 7.882C45.8034 7.882 45.3041 8.05467 44.8654 8.4C44.4361 8.736 44.1887 9.23067 44.1234 9.884H48.4914C48.4634 9.25867 48.2487 8.76867 47.8474 8.414C47.4461 8.05933 46.9514 7.882 46.3634 7.882ZM51.0721 10.43V9.436H56.6161V10.43H51.0721ZM58.4598 14V4.2H61.6798C62.4452 4.2 63.0752 4.326 63.5698 4.578C64.0645 4.83 64.4285 5.17067 64.6618 5.6C64.9045 6.02933 65.0258 6.51467 65.0258 7.056C65.0258 7.588 64.9092 8.06867 64.6758 8.498C64.4425 8.92733 64.0785 9.27267 63.5838 9.534C63.0892 9.786 62.4545 9.912 61.6798 9.912H59.6358V14H58.4598ZM59.6358 8.918H61.6518C62.4358 8.918 62.9912 8.75467 63.3178 8.428C63.6538 8.092 63.8218 7.63467 63.8218 7.056C63.8218 6.468 63.6538 6.01067 63.3178 5.684C62.9912 5.348 62.4358 5.18 61.6518 5.18H59.6358V8.918ZM68.4791 14.168C67.9005 14.168 67.4198 14.07 67.0371 13.874C66.6545 13.678 66.3698 13.4167 66.1831 13.09C65.9965 12.7633 65.9031 12.4087 65.9031 12.026C65.9031 11.3167 66.1738 10.7707 66.7151 10.388C67.2565 10.0053 67.9938 9.814 68.9271 9.814H70.8031V9.73C70.8031 9.12333 70.6445 8.666 70.3271 8.358C70.0098 8.04067 69.5851 7.882 69.0531 7.882C68.5958 7.882 68.1991 7.99867 67.8631 8.232C67.5365 8.456 67.3311 8.78733 67.2471 9.226H66.0431C66.0898 8.722 66.2578 8.29733 66.5471 7.952C66.8458 7.60667 67.2145 7.34533 67.6531 7.168C68.0918 6.98133 68.5585 6.888 69.0531 6.888C70.0238 6.888 70.7518 7.14933 71.2371 7.672C71.7318 8.18533 71.9791 8.87133 71.9791 9.73V14H70.9291L70.8591 12.754C70.6631 13.146 70.3738 13.482 69.9911 13.762C69.6178 14.0327 69.1138 14.168 68.4791 14.168ZM68.6611 13.174C69.1091 13.174 69.4918 13.0573 69.8091 12.824C70.1358 12.5907 70.3831 12.2873 70.5511 11.914C70.7191 11.5407 70.8031 11.1487 70.8031 10.738V10.724H69.0251C68.3345 10.724 67.8445 10.8453 67.5551 11.088C67.2751 11.3213 67.1351 11.6153 67.1351 11.97C67.1351 12.334 67.2658 12.628 67.5271 12.852C67.7978 13.0667 68.1758 13.174 68.6611 13.174ZM73.7433 14V7.056H74.8073L74.9053 8.386C75.12 7.92867 75.4467 7.56467 75.8853 7.294C76.324 7.02333 76.8653 6.888 77.5093 6.888V8.12H77.1873C76.7767 8.12 76.3987 8.19467 76.0533 8.344C75.708 8.484 75.4327 8.72667 75.2273 9.072C75.022 9.41733 74.9193 9.89333 74.9193 10.5V14H73.7433ZM78.8293 14V3.92H80.0053V9.982L82.8473 7.056H84.2893L81.2093 10.192L84.6813 14H83.1833L80.0053 10.402V14H78.8293ZM86.598 5.516C86.3646 5.516 86.1686 5.44133 86.01 5.292C85.8606 5.13333 85.786 4.93733 85.786 4.704C85.786 4.48 85.8606 4.29333 86.01 4.144C86.1686 3.99467 86.3646 3.92 86.598 3.92C86.822 3.92 87.0133 3.99467 87.172 4.144C87.3306 4.29333 87.41 4.48 87.41 4.704C87.41 4.93733 87.3306 5.13333 87.172 5.292C87.0133 5.44133 86.822 5.516 86.598 5.516ZM86.01 14V7.056H87.186V14H86.01ZM89.2336 14V7.056H90.2976L90.3676 8.302C90.5916 7.86333 90.9136 7.518 91.3336 7.266C91.7536 7.014 92.2296 6.888 92.7616 6.888C93.5829 6.888 94.2362 7.14 94.7216 7.644C95.2162 8.13867 95.4636 8.904 95.4636 9.94V14H94.2876V10.066C94.2876 8.61933 93.6902 7.896 92.4956 7.896C91.8982 7.896 91.3989 8.11533 90.9976 8.554C90.6056 8.98333 90.4096 9.59933 90.4096 10.402V14H89.2336ZM99.9893 11.816C99.5973 11.816 99.238 11.7647 98.9113 11.662L98.2113 12.32C98.314 12.3947 98.44 12.46 98.5893 12.516C98.748 12.5627 98.972 12.6093 99.2613 12.656C99.5506 12.6933 99.9566 12.7353 100.479 12.782C101.413 12.8473 102.08 13.062 102.481 13.426C102.883 13.79 103.083 14.266 103.083 14.854C103.083 15.2553 102.971 15.638 102.747 16.002C102.533 16.366 102.197 16.6647 101.739 16.898C101.291 17.1313 100.713 17.248 100.003 17.248C99.378 17.248 98.8226 17.164 98.3373 16.996C97.852 16.8373 97.474 16.59 97.2033 16.254C96.9326 15.9273 96.7973 15.512 96.7973 15.008C96.7973 14.7467 96.8673 14.462 97.0073 14.154C97.1473 13.8553 97.4086 13.5707 97.7913 13.3C97.586 13.216 97.4086 13.1273 97.2593 13.034C97.1193 12.9313 96.9886 12.8193 96.8673 12.698V12.376L98.0573 11.2C97.5066 10.7333 97.2313 10.1173 97.2313 9.352C97.2313 8.89467 97.3386 8.47933 97.5533 8.106C97.768 7.73267 98.0806 7.43867 98.4913 7.224C98.902 7 99.4013 6.888 99.9893 6.888C100.391 6.888 100.755 6.944 101.081 7.056H103.643V7.938L102.341 7.994C102.612 8.386 102.747 8.83867 102.747 9.352C102.747 9.80933 102.635 10.2247 102.411 10.598C102.197 10.9713 101.884 11.27 101.473 11.494C101.072 11.7087 100.577 11.816 99.9893 11.816ZM99.9893 10.85C100.484 10.85 100.876 10.724 101.165 10.472C101.464 10.2107 101.613 9.83733 101.613 9.352C101.613 8.876 101.464 8.512 101.165 8.26C100.876 7.99867 100.484 7.868 99.9893 7.868C99.4853 7.868 99.084 7.99867 98.7853 8.26C98.496 8.512 98.3513 8.876 98.3513 9.352C98.3513 9.83733 98.496 10.2107 98.7853 10.472C99.084 10.724 99.4853 10.85 99.9893 10.85ZM97.9453 14.896C97.9453 15.3627 98.1413 15.708 98.5333 15.932C98.9253 16.1653 99.4153 16.282 100.003 16.282C100.582 16.282 101.044 16.156 101.389 15.904C101.744 15.652 101.921 15.316 101.921 14.896C101.921 14.5973 101.8 14.336 101.557 14.112C101.315 13.8973 100.867 13.7713 100.213 13.734C99.7 13.6967 99.2566 13.65 98.8833 13.594C98.5006 13.7993 98.2486 14.0187 98.1273 14.252C98.006 14.4947 97.9453 14.7093 97.9453 14.896Z" fill="#434354"/>
<defs>
<linearGradient id="paint0_linear_189_7860" x1="16" y1="17" x2="-1.3282" y2="15.265" gradientUnits="userSpaceOnUse">
<stop stop-color="#383838"/>
<stop offset="1" stop-color="#8264F9"/>
</linearGradient>
</defs>
</svg>
