<svg width="45" height="26" viewBox="0 0 45 26" fill="none" xmlns="http://www.w3.org/2000/svg">
<line x1="1" y1="-4.37114e-08" x2="1" y2="26" stroke="#E7E7E7" stroke-opacity="0.5" stroke-width="2"/>
<path d="M21.0517 1.29343L21.0518 1.29348L30.0822 10.3252L30.375 10.6181V11.0323V21.0938C30.375 21.1497 30.4023 21.2022 30.4482 21.2345L21.0517 1.29343ZM21.0517 1.29343C21.0153 1.25704 21.0057 1.22836 21.0021 1.20726C20.9975 1.18061 20.9999 1.14487 21.0157 1.10687C21.0315 1.06885 21.0552 1.04167 21.0775 1.02588C21.0953 1.01331 21.1224 1 21.1732 1H43.827C43.8784 1 43.9055 1.01347 43.923 1.02583C43.9451 1.04143 43.9686 1.06839 43.9844 1.10641C44.0001 1.14445 44.0025 1.18043 43.9979 1.20743C43.9942 1.22892 43.9844 1.25751 43.9485 1.29345L43.9485 1.29347L34.9178 10.3252L34.625 10.6181V11.0323V23.8271C34.625 23.8723 34.6137 23.8991 34.6019 23.9176C34.588 23.9394 34.5651 23.9618 34.5331 23.9783C34.5011 23.9948 34.4684 24.0011 34.4408 23.9998C34.4169 23.9987 34.3888 23.9919 34.3546 23.968L34.3544 23.9679L30.4484 21.2346L21.0517 1.29343Z" stroke="url(#paint0_linear_189_7313)" stroke-width="2"/>
<defs>
<linearGradient id="paint0_linear_189_7313" x1="43.6842" y1="25" x2="16.2736" y2="12.4095" gradientUnits="userSpaceOnUse">
<stop stop-color="#383838"/>
<stop offset="1" stop-color="#8264F9"/>
</linearGradient>
</defs>
</svg>
