<svg width="14" height="15" viewBox="0 0 14 15" fill="none" xmlns="http://www.w3.org/2000/svg">
<path d="M13 0.25H1C0.801088 0.25 0.610322 0.329018 0.46967 0.46967C0.329018 0.610322 0.25 0.801088 0.25 1V2.9425C0.25 3.33475 0.40975 3.72025 0.68725 3.99775L4.75 8.0605V13.75C4.75015 13.8778 4.78291 14.0034 4.84517 14.115C4.90744 14.2266 4.99716 14.3204 5.10583 14.3876C5.2145 14.4548 5.33853 14.4932 5.46618 14.4991C5.59382 14.505 5.72085 14.4782 5.83525 14.4213L8.83525 12.9213C9.0895 12.7938 9.25 12.5343 9.25 12.25V8.0605L13.3127 3.99775C13.5903 3.72025 13.75 3.33475 13.75 2.9425V1C13.75 0.801088 13.671 0.610322 13.5303 0.46967C13.3897 0.329018 13.1989 0.25 13 0.25ZM7.96975 7.21975C7.89997 7.28928 7.84463 7.37192 7.80691 7.46293C7.7692 7.55393 7.74986 7.65149 7.75 7.75V11.7865L6.25 12.5365V7.75C6.25014 7.65149 6.2308 7.55393 6.19309 7.46293C6.15537 7.37192 6.10003 7.28928 6.03025 7.21975L1.75 2.9425V1.75H12.2507L12.2523 2.93725L7.96975 7.21975Z" fill="url(#paint0_linear_189_7701)"/>
<defs>
<linearGradient id="paint0_linear_189_7701" x1="7" y1="0.25" x2="7" y2="14.4999" gradientUnits="userSpaceOnUse">
<stop stop-color="#7C61E9"/>
<stop offset="1" stop-color="#47415F"/>
</linearGradient>
</defs>
</svg>
