<svg width="1440" height="321" viewBox="0 0 1440 321" fill="none" xmlns="http://www.w3.org/2000/svg">
<path d="M699.874 115.34H735.161C735.665 119.301 733.296 125.432 737.682 126.694C747.764 129.217 745.016 136.483 745.067 142.614C745.268 163.43 745.419 184.245 745.067 205.061C744.89 214.724 748.848 216.212 757.468 214.345C765.332 212.63 768.382 209.299 768.129 200.948C767.777 188.333 766.189 175.717 772.566 163.102C776.321 155.81 784.614 156.794 785.168 158.939C787.689 168.753 802.005 172.361 798.376 185.431C796.662 191.613 799.182 198.879 797.872 205.288C794.696 221.006 804.576 233.041 808.634 246.59C809.92 250.905 814.179 250.981 816.952 249.568C827.034 244.522 840.796 244.37 843.569 229.711C844.552 224.665 848.811 225.27 852.542 225.245C856.852 225.245 857.734 228.021 858.843 231.528C860.431 236.574 861.036 241.797 862.221 246.969C864.414 237.961 860.734 227.364 869.102 221.208C873.084 218.307 876.411 216.869 876.285 211.394C876.285 204.455 881.603 205.161 886.191 205.187C890.778 205.212 896.273 204.43 896.096 211.368C895.769 220.098 901.138 220.224 907.565 220.199C938.189 220.199 968.839 220.199 999.463 220.199C1005.26 220.102 1010.98 221.529 1016.05 224.337C1050.33 242.73 1084.88 260.593 1119.39 278.406C1131.69 284.764 1132.77 284.008 1132.82 270.686C1132.82 241.973 1133.18 213.235 1132.65 184.523C1132.47 175.389 1136.23 168.552 1141.07 161.815C1143.46 158.434 1146.66 157.172 1149.08 161.007C1154.32 169.233 1161.18 176.298 1160.83 187.702C1159.97 215.456 1160.5 243.462 1160.6 271.367C1160.6 276.413 1158.84 283.125 1167.83 282.645C1175.67 282.242 1175.65 276.565 1175.65 270.963C1175.65 254.715 1175.65 238.474 1175.65 222.243C1175.65 195.145 1175.65 195.624 1202.74 195.145C1213.35 194.968 1216.43 198.349 1216.1 208.643C1215.4 230.266 1216.1 251.939 1215.75 273.562C1215.62 280.576 1220.44 286.177 1224.62 283.654C1230.12 280.399 1238.26 279.744 1241.11 275.252C1249.57 262.006 1261.27 268.213 1271.35 269.323C1276.02 269.853 1277.33 269.929 1280.73 266.8C1288.52 259.66 1307.95 259.054 1312.99 265.286C1315.36 268.238 1314.91 274.445 1321.06 271.972C1326.1 269.903 1323.78 264.731 1324.08 260.846C1324.48 255.8 1323.35 250.753 1331.21 250.375C1339.68 250.097 1339.36 255.421 1339.25 261.149C1339.14 262.829 1339.14 264.515 1339.25 266.195C1339.86 270.686 1337.06 276.943 1345.03 277.776C1351.71 278.457 1356.82 276.918 1356.92 268.844C1356.92 263.798 1360.45 262.789 1364.64 262.99C1368.82 263.192 1373.89 261.905 1374.24 268.037C1374.59 274.168 1377.97 275.606 1383.34 275.429C1388.71 275.253 1392.21 274.344 1394.91 268.39C1399.42 258.297 1406.15 250.173 1419.84 252.696C1426.31 253.882 1433.22 252.898 1440 252.898V320.34H0V145.466C12.0985 146.349 9.02344 164.893 22.3318 164.464C22.3318 164.464 22.3318 166.003 22.6595 166.811C26.4151 183.135 33.044 198.854 32.7416 216.011C32.7416 224.867 39.6982 222.167 44.5376 223.151C52.0992 224.69 49.9568 219.038 50.234 215.43C50.5113 211.822 50.234 208.769 50.234 205.338C50.234 200.822 49.4778 196.003 56.4849 195.246C63.4919 194.489 65.5084 198.021 66.0377 203.774C66.8443 213.034 71.8097 216.667 81.1609 215.304C88.2436 214.27 90.7892 217.827 90.6631 224.665C90.3607 240.888 91.5706 257.212 90.2599 273.335C89.1509 286.985 97.5695 291.224 107.475 292.132C114.583 292.788 118.162 295.689 121.414 303.738C122.226 301.355 122.833 298.907 123.228 296.421C123.228 280.198 123.228 263.949 123.354 247.726C123.354 243.184 122.649 238.037 129.656 237.835C141.326 237.457 151.534 243.563 162.75 245.405C164.338 245.657 164.716 250.274 168.068 249.391C171.95 248.356 170.866 244.849 171.143 242.099C171.597 237.381 169.278 232.587 179.008 235.615C192.669 239.829 195.542 236.195 196.349 221.915C196.525 219.114 195.416 215.657 198.567 213.992C202.6 211.898 204.238 215.783 206.809 217.726C214.37 223.378 221.932 219.417 229.494 217.499C237.055 215.582 233.753 209.375 233.955 204.884C234.358 195.75 233.955 186.591 233.955 177.433C234.207 154.725 245.927 145.693 268.31 150.411C270.83 150.966 273.981 151.647 273.754 154.448C272.847 164.54 281.517 172.765 279.375 183.135C278.82 185.86 278.341 189.947 281.064 191.284C288.625 195.019 286.684 201.629 286.76 207.558C286.936 220.376 286.76 233.193 286.76 246.01H290.566C293.086 238.189 291.599 229.989 291.725 221.99C292.003 205.414 291.725 205.389 307.832 205.389H412.307C436.832 205.389 437.21 205.388 437.512 230.064C437.664 238.567 440.94 240.661 448.779 240.484C467.229 240.081 485.68 240.308 504.231 240.484C512.17 240.484 519.354 240.207 526.462 234.707C536.191 227.264 540.677 229.509 544.105 241.544C546.001 249.155 547.491 256.861 548.567 264.63C549.096 267.835 548.214 271.695 552.751 272.578C554.769 273.166 556.926 273.063 558.88 272.286C560.834 271.51 562.473 270.103 563.539 268.289C569.916 258.499 575.889 249.013 574.024 236.246C572.789 227.693 573.797 218.786 573.847 210.056C573.847 206.398 574.881 203.168 579.267 203.219C584.913 203.219 593.306 200.292 595.6 204.505C599.179 211.065 602.96 218.332 601.8 227.213C600.414 237.835 601.472 248.811 601.624 259.635C601.624 262.158 602.329 264.832 605.782 264.428C608.303 264.151 608.858 261.905 608.883 259.735C608.592 253.083 608.693 246.419 609.185 239.778C610.798 228.122 608.278 213.942 625.241 210.233C629.551 209.299 629.022 205.338 629.148 202.033C630.005 179.678 631.668 157.299 631.416 134.919C631.29 123.439 634.542 119.427 646.212 120.285C656.294 121.017 666.225 119.251 664.46 134.591C660.806 166.584 669.501 198.021 669.501 229.862C669.501 233.798 669.804 237.432 675.173 237.76C681.071 238.088 682.129 234.555 682.079 229.837C681.725 223.6 681.776 217.346 682.23 211.116C683.415 201.023 676.256 187.677 693.093 183.614C693.9 183.413 694.48 180.688 694.53 179.123C695.412 157.677 692.715 136.13 699.874 115.34Z" fill="#E3F0F8" fill-opacity="0.6"/>
<g clip-path="url(#clip0_189_6906)">
<path d="M1061.35 131.428H942.637V318.992H1061.35V131.428Z" fill="white" stroke="#1C8FD0" stroke-width="0.91" stroke-miterlimit="10"/>
<path d="M1063.66 126.188H940.387V131.427H1063.66V126.188Z" fill="white" stroke="#1C8FD0" stroke-width="0.91" stroke-miterlimit="10"/>
<path d="M1063.66 153.059H940.387V158.298H1063.66V153.059Z" fill="white" stroke="#1C8FD0" stroke-width="0.91" stroke-miterlimit="10"/>
<path d="M962.496 143.878V142.788C962.496 141.108 963.162 139.496 964.347 138.307C965.531 137.119 967.138 136.451 968.814 136.451C970.49 136.451 972.097 137.119 973.281 138.307C974.466 139.496 975.132 141.108 975.132 142.788V143.878H962.496Z" fill="#ADDBF9" stroke="#1C8FD0" stroke-width="0.61" stroke-miterlimit="10"/>
<path d="M973.392 149.125H964.27V142.788C964.27 141.572 964.751 140.407 965.608 139.547C966.465 138.688 967.627 138.205 968.838 138.205C970.05 138.205 971.212 138.688 972.069 139.547C972.926 140.407 973.407 141.572 973.407 142.788L973.392 149.125Z" fill="white" stroke="#1C8FD0" stroke-width="0.61" stroke-miterlimit="10"/>
<path d="M984.625 143.878V142.788C984.595 141.938 984.737 141.09 985.041 140.296C985.345 139.501 985.805 138.777 986.394 138.165C986.983 137.552 987.69 137.066 988.47 136.733C989.251 136.401 990.091 136.229 990.939 136.229C991.787 136.229 992.627 136.401 993.408 136.733C994.188 137.066 994.894 137.552 995.484 138.165C996.073 138.777 996.533 139.501 996.837 140.296C997.141 141.09 997.283 141.938 997.253 142.788V143.878H984.625Z" fill="#ADDBF9" stroke="#1C8FD0" stroke-width="0.61" stroke-miterlimit="10"/>
<path d="M995.513 149.125H986.359V142.788C986.361 142.185 986.481 141.589 986.714 141.034C986.94 140.477 987.275 139.973 987.7 139.55C988.122 139.122 988.625 138.783 989.18 138.553C989.734 138.322 990.328 138.204 990.928 138.205C991.529 138.204 992.123 138.322 992.678 138.552C993.233 138.782 993.737 139.119 994.161 139.545C994.586 139.971 994.922 140.476 995.151 141.033C995.381 141.589 995.498 142.186 995.497 142.788L995.513 149.125Z" fill="white" stroke="#1C8FD0" stroke-width="0.61" stroke-miterlimit="10"/>
<path d="M1006.75 143.878V142.788C1006.72 141.938 1006.86 141.09 1007.16 140.296C1007.47 139.501 1007.93 138.777 1008.52 138.165C1009.1 137.552 1009.81 137.066 1010.59 136.733C1011.37 136.401 1012.21 136.229 1013.06 136.229C1013.91 136.229 1014.75 136.401 1015.53 136.733C1016.31 137.066 1017.02 137.552 1017.6 138.165C1018.19 138.777 1018.65 139.501 1018.96 140.296C1019.26 141.09 1019.4 141.938 1019.37 142.788V143.878H1006.75Z" fill="#ADDBF9" stroke="#1C8FD0" stroke-width="0.61" stroke-miterlimit="10"/>
<path d="M1017.63 149.125H1008.49V142.788C1008.49 141.572 1008.97 140.407 1009.83 139.547C1010.68 138.688 1011.85 138.205 1013.06 138.205C1014.27 138.205 1015.43 138.688 1016.29 139.547C1017.14 140.407 1017.63 141.572 1017.63 142.788L1017.63 149.125Z" fill="white" stroke="#1C8FD0" stroke-width="0.61" stroke-miterlimit="10"/>
<path d="M1028.87 143.878V142.788C1028.84 141.938 1028.98 141.09 1029.28 140.296C1029.59 139.501 1030.05 138.777 1030.64 138.165C1031.23 137.552 1031.93 137.066 1032.71 136.733C1033.49 136.401 1034.33 136.229 1035.18 136.229C1036.03 136.229 1036.87 136.401 1037.65 136.733C1038.43 137.066 1039.14 137.552 1039.73 138.165C1040.32 138.777 1040.78 139.501 1041.08 140.296C1041.38 141.09 1041.52 141.938 1041.5 142.788V143.878H1028.87Z" fill="#ADDBF9" stroke="#1C8FD0" stroke-width="0.61" stroke-miterlimit="10"/>
<path d="M1039.78 149.125H1030.61V142.788C1030.61 141.572 1031.09 140.407 1031.95 139.547C1032.8 138.688 1033.97 138.205 1035.18 138.205C1036.39 138.205 1037.55 138.688 1038.41 139.547C1039.27 140.407 1039.75 141.572 1039.75 142.788L1039.78 149.125Z" fill="white" stroke="#1C8FD0" stroke-width="0.61" stroke-miterlimit="10"/>
<path d="M1063.66 190.417H940.387V195.657H1063.66V190.417Z" fill="white" stroke="#1C8FD0" stroke-width="0.91" stroke-miterlimit="10"/>
<path d="M954.254 178.616V173.152C954.254 171.008 955.103 168.952 956.614 167.436C958.126 165.92 960.176 165.068 962.313 165.068C964.45 165.068 966.5 165.92 968.012 167.436C969.523 168.952 970.372 171.008 970.372 173.152V178.616H954.254Z" fill="#ADDBF9" stroke="#1C8FD0" stroke-width="0.61" stroke-miterlimit="10"/>
<path d="M955.965 178.616V173.153C955.965 171.472 956.63 169.86 957.815 168.672C959 167.483 960.607 166.815 962.283 166.815C963.958 166.815 965.565 167.483 966.75 168.672C967.935 169.86 968.601 171.472 968.601 173.153V178.616H955.965Z" fill="#D4EDF8" stroke="#1C8FD0" stroke-width="0.3" stroke-miterlimit="10"/>
<path d="M961.66 168.569H962.915C963.434 168.569 963.948 168.672 964.427 168.871C964.906 169.071 965.341 169.363 965.708 169.731C966.074 170.099 966.364 170.536 966.562 171.017C966.76 171.498 966.861 172.014 966.86 172.534V188.23H957.707V172.534C957.709 171.483 958.126 170.476 958.867 169.733C959.608 168.99 960.612 168.571 961.66 168.569Z" fill="white" stroke="#1C8FD0" stroke-width="0.61" stroke-miterlimit="10"/>
<path d="M962.281 168.569V188.23" stroke="#1C8FD0" stroke-width="0.61" stroke-miterlimit="10"/>
<path d="M957.707 175.339H966.86" stroke="#1C8FD0" stroke-width="0.61" stroke-miterlimit="10"/>
<path d="M957.707 181.939H966.86" stroke="#1C8FD0" stroke-width="0.61" stroke-miterlimit="10"/>
<path d="M980.703 178.616V173.152C980.768 171.053 981.645 169.061 983.149 167.598C984.652 166.136 986.664 165.318 988.758 165.318C990.853 165.318 992.865 166.136 994.368 167.598C995.872 169.061 996.749 171.053 996.814 173.152V178.616H980.703Z" fill="#ADDBF9" stroke="#1C8FD0" stroke-width="0.61" stroke-miterlimit="10"/>
<path d="M982.445 178.616V173.152C982.416 172.302 982.557 171.454 982.861 170.66C983.165 169.866 983.625 169.141 984.215 168.529C984.804 167.917 985.51 167.43 986.291 167.098C987.071 166.765 987.911 166.594 988.759 166.594C989.608 166.594 990.447 166.765 991.228 167.098C992.009 167.43 992.715 167.917 993.304 168.529C993.893 169.141 994.354 169.866 994.658 170.66C994.962 171.454 995.103 172.302 995.073 173.152V178.616H982.445Z" fill="#D4EDF8" stroke="#1C8FD0" stroke-width="0.3" stroke-miterlimit="10"/>
<path d="M988.156 168.569H989.404C989.923 168.568 990.438 168.67 990.918 168.869C991.398 169.068 991.834 169.36 992.201 169.728C992.568 170.097 992.859 170.534 993.058 171.016C993.256 171.497 993.357 172.013 993.356 172.534V188.23H984.203V172.534C984.202 172.013 984.304 171.497 984.502 171.016C984.7 170.534 984.991 170.097 985.359 169.728C985.726 169.36 986.162 169.068 986.642 168.869C987.122 168.67 987.636 168.568 988.156 168.569Z" fill="white" stroke="#1C8FD0" stroke-width="0.61" stroke-miterlimit="10"/>
<path d="M988.762 168.569V188.23" stroke="#1C8FD0" stroke-width="0.61" stroke-miterlimit="10"/>
<path d="M984.188 175.339H993.333" stroke="#1C8FD0" stroke-width="0.61" stroke-miterlimit="10"/>
<path d="M984.188 181.939H993.333" stroke="#1C8FD0" stroke-width="0.61" stroke-miterlimit="10"/>
<path d="M1007.18 178.616V173.152C1007.18 171.008 1008.02 168.952 1009.54 167.436C1011.05 165.92 1013.1 165.068 1015.23 165.068C1017.37 165.068 1019.42 165.92 1020.93 167.436C1022.45 168.952 1023.29 171.008 1023.29 173.152V178.616H1007.18Z" fill="#ADDBF9" stroke="#1C8FD0" stroke-width="0.61" stroke-miterlimit="10"/>
<path d="M1008.96 178.616V173.153C1008.96 171.472 1009.62 169.86 1010.81 168.672C1011.99 167.483 1013.6 166.815 1015.27 166.815C1016.95 166.815 1018.56 167.483 1019.74 168.672C1020.93 169.86 1021.59 171.472 1021.59 173.153V178.616H1008.96Z" fill="#D4EDF8" stroke="#1C8FD0" stroke-width="0.3" stroke-miterlimit="10"/>
<path d="M1014.61 168.569H1015.89C1016.94 168.571 1017.94 168.99 1018.68 169.733C1019.43 170.476 1019.84 171.483 1019.84 172.534V188.23H1010.69V172.534C1010.69 172.014 1010.79 171.498 1010.99 171.017C1011.19 170.536 1011.48 170.099 1011.84 169.731C1012.21 169.363 1012.65 169.071 1013.12 168.871C1013.6 168.672 1014.12 168.569 1014.64 168.569H1014.61Z" fill="white" stroke="#1C8FD0" stroke-width="0.61" stroke-miterlimit="10"/>
<path d="M1015.24 168.569V188.23" stroke="#1C8FD0" stroke-width="0.61" stroke-miterlimit="10"/>
<path d="M1010.67 175.339H1019.81" stroke="#1C8FD0" stroke-width="0.61" stroke-miterlimit="10"/>
<path d="M1010.67 181.939H1019.81" stroke="#1C8FD0" stroke-width="0.61" stroke-miterlimit="10"/>
<path d="M1033.66 178.616V173.152C1033.66 171.008 1034.51 168.952 1036.02 167.436C1037.53 165.92 1039.58 165.068 1041.72 165.068C1043.86 165.068 1045.91 165.92 1047.42 167.436C1048.93 168.952 1049.78 171.008 1049.78 173.152V178.616H1033.66Z" fill="#ADDBF9" stroke="#1C8FD0" stroke-width="0.61" stroke-miterlimit="10"/>
<path d="M1035.4 178.616V173.153C1035.4 171.472 1036.06 169.86 1037.25 168.672C1038.43 167.483 1040.04 166.815 1041.72 166.815C1043.39 166.815 1045 167.483 1046.18 168.672C1047.37 169.86 1048.03 171.472 1048.03 173.153V178.616H1035.4Z" fill="#D4EDF8" stroke="#1C8FD0" stroke-width="0.3" stroke-miterlimit="10"/>
<path d="M1041.09 168.569H1042.34C1042.86 168.568 1043.38 168.67 1043.86 168.869C1044.34 169.068 1044.77 169.36 1045.14 169.728C1045.51 170.097 1045.8 170.534 1046 171.016C1046.19 171.497 1046.29 172.013 1046.29 172.534V188.23H1037.14V172.534C1037.14 172.013 1037.24 171.497 1037.44 171.016C1037.64 170.534 1037.93 170.097 1038.3 169.728C1038.66 169.36 1039.1 169.068 1039.58 168.869C1040.06 168.67 1040.57 168.568 1041.09 168.569Z" fill="white" stroke="#1C8FD0" stroke-width="0.61" stroke-miterlimit="10"/>
<path d="M1041.72 168.569V188.23" stroke="#1C8FD0" stroke-width="0.61" stroke-miterlimit="10"/>
<path d="M1037.14 175.339H1046.29" stroke="#1C8FD0" stroke-width="0.61" stroke-miterlimit="10"/>
<path d="M1037.14 181.939H1046.29" stroke="#1C8FD0" stroke-width="0.61" stroke-miterlimit="10"/>
<path d="M945.834 160.238H941.211V164.419H945.834V160.238Z" fill="white" stroke="#1C8FD0" stroke-width="0.52" stroke-miterlimit="10"/>
<path d="M944.963 165.633H941.211V170.695H944.963V165.633Z" fill="white" stroke="#1C8FD0" stroke-width="0.52" stroke-miterlimit="10"/>
<path d="M946.704 171.908H941.211V177.836H946.704V171.908Z" fill="white" stroke="#1C8FD0" stroke-width="0.52" stroke-miterlimit="10"/>
<path d="M944.085 179.057H941.211V182.364H944.085V179.057Z" fill="white" stroke="#1C8FD0" stroke-width="0.52" stroke-miterlimit="10"/>
<path d="M944.963 183.585H941.211V188.222H944.963V183.585Z" fill="white" stroke="#1C8FD0" stroke-width="0.52" stroke-miterlimit="10"/>
<path d="M1058.17 188.184H1062.79V184.003H1058.17V188.184Z" fill="white" stroke="#1C8FD0" stroke-width="0.52" stroke-miterlimit="10"/>
<path d="M1059.04 182.774H1062.79V177.751H1059.04V182.774Z" fill="white" stroke="#1C8FD0" stroke-width="0.52" stroke-miterlimit="10"/>
<path d="M1057.3 176.529H1062.79V170.602H1057.3V176.529Z" fill="white" stroke="#1C8FD0" stroke-width="0.52" stroke-miterlimit="10"/>
<path d="M1059.91 169.381H1062.79V166.073H1059.91V169.381Z" fill="white" stroke="#1C8FD0" stroke-width="0.52" stroke-miterlimit="10"/>
<path d="M1059.04 164.852H1062.79V160.215H1059.04V164.852Z" fill="white" stroke="#1C8FD0" stroke-width="0.52" stroke-miterlimit="10"/>
<path d="M1063.66 227.775H940.387V233.007H1063.66V227.775Z" fill="white" stroke="#1C8FD0" stroke-width="0.91" stroke-miterlimit="10"/>
<path d="M954.254 216.006V210.542C954.254 208.398 955.103 206.342 956.614 204.826C958.126 203.31 960.176 202.458 962.313 202.458C964.45 202.458 966.5 203.31 968.012 204.826C969.523 206.342 970.372 208.398 970.372 210.542V216.006H954.254Z" fill="#ADDBF9" stroke="#1C8FD0" stroke-width="0.61" stroke-miterlimit="10"/>
<path d="M955.965 216.005V210.518C955.965 208.837 956.63 207.225 957.815 206.037C959 204.848 960.607 204.181 962.283 204.181C963.958 204.181 965.565 204.848 966.75 206.037C967.935 207.225 968.601 208.837 968.601 210.518V216.005H955.965Z" fill="#D4EDF8" stroke="#1C8FD0" stroke-width="0.3" stroke-miterlimit="10"/>
<path d="M961.66 205.959H962.915C963.434 205.959 963.948 206.061 964.427 206.261C964.906 206.46 965.341 206.752 965.708 207.12C966.074 207.489 966.364 207.926 966.562 208.407C966.76 208.888 966.861 209.403 966.86 209.923V225.588H957.707V209.892C957.709 208.841 958.126 207.834 958.867 207.091C959.608 206.348 960.612 205.93 961.66 205.928V205.959Z" fill="white" stroke="#1C8FD0" stroke-width="0.61" stroke-miterlimit="10"/>
<path d="M962.281 205.959V225.589" stroke="#1C8FD0" stroke-width="0.61" stroke-miterlimit="10"/>
<path d="M957.707 212.697H966.86" stroke="#1C8FD0" stroke-width="0.61" stroke-miterlimit="10"/>
<path d="M957.707 219.298H966.86" stroke="#1C8FD0" stroke-width="0.61" stroke-miterlimit="10"/>
<path d="M980.703 216.006V210.542C980.768 208.442 981.645 206.45 983.149 204.988C984.652 203.526 986.664 202.708 988.758 202.708C990.853 202.708 992.865 203.526 994.368 204.988C995.872 206.45 996.749 208.442 996.814 210.542V216.006H980.703Z" fill="#ADDBF9" stroke="#1C8FD0" stroke-width="0.61" stroke-miterlimit="10"/>
<path d="M982.445 216.005V210.518C982.416 209.668 982.557 208.82 982.861 208.026C983.165 207.232 983.625 206.507 984.215 205.895C984.804 205.283 985.51 204.796 986.291 204.464C987.071 204.131 987.911 203.96 988.759 203.96C989.608 203.96 990.447 204.131 991.228 204.464C992.009 204.796 992.715 205.283 993.304 205.895C993.893 206.507 994.354 207.232 994.658 208.026C994.962 208.82 995.103 209.668 995.073 210.518V216.005H982.445Z" fill="#D4EDF8" stroke="#1C8FD0" stroke-width="0.3" stroke-miterlimit="10"/>
<path d="M988.156 205.959H989.404C989.923 205.958 990.438 206.06 990.918 206.259C991.398 206.458 991.834 206.75 992.201 207.118C992.568 207.486 992.859 207.924 993.058 208.405C993.256 208.887 993.357 209.403 993.356 209.924V225.589H984.203V209.893C984.209 208.846 984.629 207.844 985.369 207.107C986.11 206.37 987.112 205.957 988.156 205.959Z" fill="white" stroke="#1C8FD0" stroke-width="0.61" stroke-miterlimit="10"/>
<path d="M988.762 205.959V225.589" stroke="#1C8FD0" stroke-width="0.61" stroke-miterlimit="10"/>
<path d="M984.188 212.697H993.333" stroke="#1C8FD0" stroke-width="0.61" stroke-miterlimit="10"/>
<path d="M984.188 219.298H993.333" stroke="#1C8FD0" stroke-width="0.61" stroke-miterlimit="10"/>
<path d="M1007.18 216.006V210.542C1007.18 208.398 1008.02 206.342 1009.54 204.826C1011.05 203.31 1013.1 202.458 1015.23 202.458C1017.37 202.458 1019.42 203.31 1020.93 204.826C1022.45 206.342 1023.29 208.398 1023.29 210.542V216.006H1007.18Z" fill="#ADDBF9" stroke="#1C8FD0" stroke-width="0.61" stroke-miterlimit="10"/>
<path d="M1008.96 216.005V210.518C1008.96 208.837 1009.62 207.225 1010.81 206.037C1011.99 204.848 1013.6 204.181 1015.27 204.181C1016.95 204.181 1018.56 204.848 1019.74 206.037C1020.93 207.225 1021.59 208.837 1021.59 210.518V216.005H1008.96Z" fill="#D4EDF8" stroke="#1C8FD0" stroke-width="0.3" stroke-miterlimit="10"/>
<path d="M1014.61 205.959H1015.89C1016.94 205.961 1017.94 206.379 1018.68 207.122C1019.43 207.865 1019.84 208.872 1019.84 209.923V225.588H1010.69V209.892C1010.69 209.372 1010.79 208.857 1010.99 208.376C1011.19 207.895 1011.48 207.458 1011.84 207.089C1012.21 206.721 1012.65 206.429 1013.12 206.23C1013.6 206.03 1014.12 205.928 1014.64 205.928L1014.61 205.959Z" fill="white" stroke="#1C8FD0" stroke-width="0.61" stroke-miterlimit="10"/>
<path d="M1015.24 205.959V225.589" stroke="#1C8FD0" stroke-width="0.61" stroke-miterlimit="10"/>
<path d="M1010.67 212.697H1019.81" stroke="#1C8FD0" stroke-width="0.61" stroke-miterlimit="10"/>
<path d="M1010.67 219.298H1019.81" stroke="#1C8FD0" stroke-width="0.61" stroke-miterlimit="10"/>
<path d="M1033.66 216.006V210.542C1033.66 208.398 1034.51 206.342 1036.02 204.826C1037.53 203.31 1039.58 202.458 1041.72 202.458C1043.86 202.458 1045.91 203.31 1047.42 204.826C1048.93 206.342 1049.78 208.398 1049.78 210.542V216.006H1033.66Z" fill="#ADDBF9" stroke="#1C8FD0" stroke-width="0.61" stroke-miterlimit="10"/>
<path d="M1035.4 216.005V210.518C1035.4 208.837 1036.06 207.225 1037.25 206.037C1038.43 204.848 1040.04 204.181 1041.72 204.181C1043.39 204.181 1045 204.848 1046.18 206.037C1047.37 207.225 1048.03 208.837 1048.03 210.518V216.005H1035.4Z" fill="#D4EDF8" stroke="#1C8FD0" stroke-width="0.3" stroke-miterlimit="10"/>
<path d="M1041.09 205.959H1042.34C1042.86 205.958 1043.38 206.059 1043.86 206.258C1044.34 206.457 1044.77 206.749 1045.14 207.118C1045.51 207.486 1045.8 207.923 1046 208.405C1046.19 208.886 1046.29 209.402 1046.29 209.923V225.588H1037.14V209.892C1037.14 209.371 1037.24 208.855 1037.44 208.374C1037.64 207.892 1037.93 207.455 1038.3 207.087C1038.66 206.718 1039.1 206.426 1039.58 206.227C1040.06 206.029 1040.57 205.927 1041.09 205.928V205.959Z" fill="white" stroke="#1C8FD0" stroke-width="0.61" stroke-miterlimit="10"/>
<path d="M1041.72 205.959V225.589" stroke="#1C8FD0" stroke-width="0.61" stroke-miterlimit="10"/>
<path d="M1037.14 212.697H1046.29" stroke="#1C8FD0" stroke-width="0.61" stroke-miterlimit="10"/>
<path d="M1037.14 219.298H1046.29" stroke="#1C8FD0" stroke-width="0.61" stroke-miterlimit="10"/>
<path d="M945.834 197.597H941.211V201.778H945.834V197.597Z" fill="white" stroke="#1C8FD0" stroke-width="0.52" stroke-miterlimit="10"/>
<path d="M944.963 202.999H941.211V208.053H944.963V202.999Z" fill="white" stroke="#1C8FD0" stroke-width="0.52" stroke-miterlimit="10"/>
<path d="M946.704 209.267H941.211V215.233H946.704V209.267Z" fill="white" stroke="#1C8FD0" stroke-width="0.52" stroke-miterlimit="10"/>
<path d="M944.085 216.415H941.211V219.723H944.085V216.415Z" fill="white" stroke="#1C8FD0" stroke-width="0.52" stroke-miterlimit="10"/>
<path d="M944.963 220.943H941.211V225.58H944.963V220.943Z" fill="white" stroke="#1C8FD0" stroke-width="0.52" stroke-miterlimit="10"/>
<path d="M1058.17 225.557H1062.79V221.415H1058.17V225.557Z" fill="white" stroke="#1C8FD0" stroke-width="0.52" stroke-miterlimit="10"/>
<path d="M1059.04 220.164H1062.79V215.109H1059.04V220.164Z" fill="white" stroke="#1C8FD0" stroke-width="0.52" stroke-miterlimit="10"/>
<path d="M1057.3 213.888H1062.79V207.96H1057.3V213.888Z" fill="white" stroke="#1C8FD0" stroke-width="0.52" stroke-miterlimit="10"/>
<path d="M1059.91 206.732H1062.79V203.424H1059.91V206.732Z" fill="white" stroke="#1C8FD0" stroke-width="0.52" stroke-miterlimit="10"/>
<path d="M1059.04 202.21H1062.79V197.573H1059.04V202.21Z" fill="white" stroke="#1C8FD0" stroke-width="0.52" stroke-miterlimit="10"/>
<path d="M1063.66 265.134H940.387V270.374H1063.66V265.134Z" fill="white" stroke="#1C8FD0" stroke-width="0.91" stroke-miterlimit="10"/>
<path d="M954.255 253.333V247.877C954.238 246.537 954.554 245.215 955.174 244.028C955.793 242.841 956.697 241.827 957.804 241.078C958.911 240.328 960.187 239.866 961.516 239.734C962.845 239.601 964.186 239.802 965.419 240.319C966.405 240.727 967.299 241.332 968.046 242.096C968.794 242.858 969.384 243.761 969.781 244.754C970.178 245.746 970.374 246.808 970.357 247.877V253.333H954.255Z" fill="#ADDBF9" stroke="#1C8FD0" stroke-width="0.61" stroke-miterlimit="10"/>
<path d="M955.965 253.332V247.876C955.965 246.196 956.63 244.584 957.815 243.395C959 242.207 960.607 241.539 962.283 241.539C963.958 241.539 965.565 242.207 966.75 243.395C967.935 244.584 968.601 246.196 968.601 247.876V253.332H955.965Z" fill="#D4EDF8" stroke="#1C8FD0" stroke-width="0.3" stroke-miterlimit="10"/>
<path d="M961.66 243.286H962.915C963.434 243.286 963.948 243.389 964.427 243.588C964.906 243.787 965.341 244.08 965.708 244.448C966.074 244.816 966.364 245.253 966.562 245.734C966.76 246.215 966.861 246.73 966.86 247.251V262.947H957.707V247.251C957.709 246.2 958.126 245.193 958.867 244.45C959.608 243.707 960.612 243.288 961.66 243.286Z" fill="white" stroke="#1C8FD0" stroke-width="0.61" stroke-miterlimit="10"/>
<path d="M962.281 243.286V262.947" stroke="#1C8FD0" stroke-width="0.61" stroke-miterlimit="10"/>
<path d="M957.707 250.056H966.86" stroke="#1C8FD0" stroke-width="0.61" stroke-miterlimit="10"/>
<path d="M957.707 256.656H966.86" stroke="#1C8FD0" stroke-width="0.61" stroke-miterlimit="10"/>
<path d="M980.704 253.333V247.876C980.686 246.807 980.88 245.744 981.277 244.752C981.674 243.759 982.265 242.856 983.016 242.096C983.766 241.335 984.659 240.73 985.644 240.318C986.629 239.906 987.685 239.693 988.752 239.693C989.819 239.693 990.875 239.906 991.86 240.318C992.845 240.73 993.738 241.335 994.488 242.096C995.239 242.856 995.83 243.759 996.227 244.752C996.624 245.744 996.818 246.807 996.8 247.876V253.333H980.704Z" fill="#ADDBF9" stroke="#1C8FD0" stroke-width="0.61" stroke-miterlimit="10"/>
<path d="M982.445 253.333V247.877C982.416 247.026 982.557 246.179 982.861 245.385C983.165 244.59 983.625 243.865 984.215 243.253C984.804 242.641 985.51 242.155 986.291 241.822C987.071 241.49 987.911 241.318 988.759 241.318C989.608 241.318 990.447 241.49 991.228 241.822C992.009 242.155 992.715 242.641 993.304 243.253C993.893 243.865 994.354 244.59 994.658 245.385C994.962 246.179 995.103 247.026 995.073 247.877V253.333H982.445Z" fill="#D4EDF8" stroke="#1C8FD0" stroke-width="0.3" stroke-miterlimit="10"/>
<path d="M988.156 243.286H989.404C989.923 243.285 990.438 243.387 990.918 243.586C991.398 243.785 991.834 244.077 992.201 244.445C992.568 244.813 992.859 245.251 993.058 245.732C993.256 246.214 993.357 246.73 993.356 247.251V262.947H984.203V247.251C984.202 246.73 984.304 246.214 984.502 245.732C984.7 245.251 984.991 244.813 985.359 244.445C985.726 244.077 986.162 243.785 986.642 243.586C987.122 243.387 987.636 243.285 988.156 243.286Z" fill="white" stroke="#1C8FD0" stroke-width="0.61" stroke-miterlimit="10"/>
<path d="M988.762 243.286V262.947" stroke="#1C8FD0" stroke-width="0.61" stroke-miterlimit="10"/>
<path d="M984.188 250.056H993.333" stroke="#1C8FD0" stroke-width="0.61" stroke-miterlimit="10"/>
<path d="M984.188 256.656H993.333" stroke="#1C8FD0" stroke-width="0.61" stroke-miterlimit="10"/>
<path d="M1007.18 253.333V247.876C1007.16 246.807 1007.36 245.745 1007.75 244.753C1008.15 243.761 1008.74 242.857 1009.49 242.096C1010.43 241.144 1011.59 240.442 1012.86 240.051C1014.14 239.66 1015.49 239.593 1016.8 239.856C1018.11 240.118 1019.33 240.703 1020.36 241.556C1021.39 242.41 1022.19 243.506 1022.69 244.746C1023.1 245.74 1023.29 246.804 1023.28 247.876V253.333H1007.18Z" fill="#ADDBF9" stroke="#1C8FD0" stroke-width="0.61" stroke-miterlimit="10"/>
<path d="M1008.96 253.332V247.876C1008.96 246.196 1009.62 244.584 1010.81 243.395C1011.99 242.207 1013.6 241.539 1015.27 241.539C1016.95 241.539 1018.56 242.207 1019.74 243.395C1020.93 244.584 1021.59 246.196 1021.59 247.876V253.332H1008.96Z" fill="#D4EDF8" stroke="#1C8FD0" stroke-width="0.3" stroke-miterlimit="10"/>
<path d="M1014.61 243.286H1015.89C1016.94 243.288 1017.94 243.707 1018.68 244.45C1019.43 245.193 1019.84 246.2 1019.84 247.251V262.947H1010.69V247.251C1010.69 246.73 1010.79 246.215 1010.99 245.734C1011.19 245.253 1011.48 244.816 1011.84 244.448C1012.21 244.08 1012.65 243.787 1013.12 243.588C1013.6 243.389 1014.12 243.286 1014.64 243.286H1014.61Z" fill="white" stroke="#1C8FD0" stroke-width="0.61" stroke-miterlimit="10"/>
<path d="M1015.24 243.286V262.947" stroke="#1C8FD0" stroke-width="0.61" stroke-miterlimit="10"/>
<path d="M1010.67 250.056H1019.81" stroke="#1C8FD0" stroke-width="0.61" stroke-miterlimit="10"/>
<path d="M1010.67 256.656H1019.81" stroke="#1C8FD0" stroke-width="0.61" stroke-miterlimit="10"/>
<path d="M1033.66 253.333V247.877C1033.64 246.537 1033.96 245.215 1034.58 244.028C1035.2 242.841 1036.1 241.827 1037.21 241.078C1038.32 240.328 1039.59 239.866 1040.92 239.734C1042.25 239.601 1043.59 239.802 1044.82 240.319C1045.81 240.727 1046.7 241.332 1047.45 242.096C1048.2 242.858 1048.79 243.761 1049.19 244.754C1049.58 245.746 1049.78 246.808 1049.76 247.877V253.333H1033.66Z" fill="#ADDBF9" stroke="#1C8FD0" stroke-width="0.61" stroke-miterlimit="10"/>
<path d="M1035.4 253.332V247.876C1035.4 246.196 1036.06 244.584 1037.25 243.395C1038.43 242.207 1040.04 241.539 1041.72 241.539C1043.39 241.539 1045 242.207 1046.18 243.395C1047.37 244.584 1048.03 246.196 1048.03 247.876V253.332H1035.4Z" fill="#D4EDF8" stroke="#1C8FD0" stroke-width="0.3" stroke-miterlimit="10"/>
<path d="M1041.09 243.286H1042.34C1042.86 243.285 1043.38 243.387 1043.86 243.586C1044.34 243.785 1044.77 244.077 1045.14 244.445C1045.51 244.813 1045.8 245.251 1046 245.732C1046.19 246.214 1046.29 246.73 1046.29 247.251V262.947H1037.14V247.251C1037.14 246.73 1037.24 246.214 1037.44 245.732C1037.64 245.251 1037.93 244.813 1038.3 244.445C1038.66 244.077 1039.1 243.785 1039.58 243.586C1040.06 243.387 1040.57 243.285 1041.09 243.286Z" fill="white" stroke="#1C8FD0" stroke-width="0.61" stroke-miterlimit="10"/>
<path d="M1041.72 243.286V262.947" stroke="#1C8FD0" stroke-width="0.61" stroke-miterlimit="10"/>
<path d="M1037.14 250.056H1046.29" stroke="#1C8FD0" stroke-width="0.61" stroke-miterlimit="10"/>
<path d="M1037.14 256.656H1046.29" stroke="#1C8FD0" stroke-width="0.61" stroke-miterlimit="10"/>
<path d="M945.834 234.955H941.211V239.136H945.834V234.955Z" fill="white" stroke="#1C8FD0" stroke-width="0.52" stroke-miterlimit="10"/>
<path d="M944.963 240.357H941.211V245.412H944.963V240.357Z" fill="white" stroke="#1C8FD0" stroke-width="0.52" stroke-miterlimit="10"/>
<path d="M946.704 246.625H941.211V252.56H946.704V246.625Z" fill="white" stroke="#1C8FD0" stroke-width="0.52" stroke-miterlimit="10"/>
<path d="M944.085 253.773H941.211V257.081H944.085V253.773Z" fill="white" stroke="#1C8FD0" stroke-width="0.52" stroke-miterlimit="10"/>
<path d="M944.963 258.302H941.211V262.939H944.963V258.302Z" fill="white" stroke="#1C8FD0" stroke-width="0.52" stroke-miterlimit="10"/>
<path d="M1058.17 262.916H1062.79V258.735H1058.17V262.916Z" fill="white" stroke="#1C8FD0" stroke-width="0.52" stroke-miterlimit="10"/>
<path d="M1059.04 257.521H1062.79V252.467H1059.04V257.521Z" fill="white" stroke="#1C8FD0" stroke-width="0.52" stroke-miterlimit="10"/>
<path d="M1057.3 251.246H1062.79V245.318H1057.3V251.246Z" fill="white" stroke="#1C8FD0" stroke-width="0.52" stroke-miterlimit="10"/>
<path d="M1059.91 244.098H1062.79V240.79H1059.91V244.098Z" fill="white" stroke="#1C8FD0" stroke-width="0.52" stroke-miterlimit="10"/>
<path d="M1059.04 239.569H1062.79V234.932H1059.04V239.569Z" fill="white" stroke="#1C8FD0" stroke-width="0.52" stroke-miterlimit="10"/>
<path d="M1023.07 289.71H974.895V318.992H1023.07V289.71Z" fill="#ADDBF9" stroke="#1C8FD0" stroke-width="0.61" stroke-miterlimit="10"/>
<path d="M1020.9 292.615H977.066V318.984H1020.9V292.615Z" fill="white" stroke="#1C8FD0" stroke-width="0.61" stroke-miterlimit="10"/>
<path d="M1023.3 279.053H974.895V287.407H1023.3V279.053Z" fill="#ADDBF9" stroke="#1C8FD0" stroke-width="0.61" stroke-miterlimit="10"/>
<path d="M999.094 292.615V318.984" stroke="#1C8FD0" stroke-width="0.61" stroke-miterlimit="10"/>
<path d="M1036.12 295.32V286.232C1036.12 284.551 1036.79 282.939 1037.98 281.751C1039.16 280.562 1040.77 279.895 1042.44 279.895C1044.12 279.895 1045.73 280.562 1046.91 281.751C1048.1 282.939 1048.76 284.551 1048.76 286.232V295.32H1036.12Z" fill="#D4EDF8" stroke="#1C8FD0" stroke-width="0.3" stroke-miterlimit="10"/>
<path d="M1047.02 312.199H1037.87V286.232C1037.87 285.629 1037.99 285.033 1038.22 284.477C1038.45 283.921 1038.78 283.417 1039.21 282.994C1039.63 282.568 1040.13 282.23 1040.69 281.997C1041.38 281.71 1042.14 281.599 1042.88 281.674C1043.63 281.749 1044.35 282.007 1044.97 282.425C1045.6 282.844 1046.11 283.41 1046.46 284.074C1046.82 284.737 1047 285.479 1047 286.232L1047.02 312.199Z" fill="white" stroke="#1C8FD0" stroke-width="0.61" stroke-miterlimit="10"/>
<path d="M1042.44 281.642V312.199" stroke="#1C8FD0" stroke-width="0.61" stroke-miterlimit="10"/>
<path d="M1037.87 292.052H1047.02" stroke="#1C8FD0" stroke-width="0.61" stroke-miterlimit="10"/>
<path d="M1037.87 302.275H1047.02" stroke="#1C8FD0" stroke-width="0.61" stroke-miterlimit="10"/>
<path d="M955.965 295.32V286.232C955.965 284.551 956.63 282.939 957.815 281.751C959 280.562 960.607 279.895 962.283 279.895C963.958 279.895 965.565 280.562 966.75 281.751C967.935 282.939 968.601 284.551 968.601 286.232V295.32H955.965Z" fill="#D4EDF8" stroke="#1C8FD0" stroke-width="0.3" stroke-miterlimit="10"/>
<path d="M961.66 281.642H962.915C963.434 281.642 963.948 281.744 964.427 281.944C964.906 282.143 965.341 282.435 965.708 282.803C966.074 283.172 966.364 283.609 966.562 284.09C966.76 284.571 966.861 285.086 966.86 285.606V312.199H957.707V285.606C957.709 284.555 958.126 283.548 958.867 282.805C959.608 282.062 960.612 281.644 961.66 281.642Z" fill="white" stroke="#1C8FD0" stroke-width="0.61" stroke-miterlimit="10"/>
<path d="M962.281 281.642V312.199" stroke="#1C8FD0" stroke-width="0.61" stroke-miterlimit="10"/>
<path d="M957.707 292.052H966.86" stroke="#1C8FD0" stroke-width="0.61" stroke-miterlimit="10"/>
<path d="M957.707 302.275H966.86" stroke="#1C8FD0" stroke-width="0.61" stroke-miterlimit="10"/>
<path d="M1046.29 104.719H957.684V121.164H1046.29V104.719Z" fill="white" stroke="#1C8FD0" stroke-width="0.91" stroke-miterlimit="10"/>
<path d="M990.921 116.953H992.007V108.869H990.959V112.447H986.853V108.869H985.805V116.953H986.853V113.29H990.959L990.921 116.953ZM1001.45 112.903C1001.44 112.104 1001.19 111.326 1000.74 110.668C1000.29 110.01 999.649 109.501 998.909 109.205C998.168 108.908 997.357 108.838 996.577 109.002C995.797 109.166 995.083 109.558 994.524 110.128C993.965 110.698 993.587 111.421 993.436 112.206C993.286 112.992 993.37 113.804 993.678 114.541C993.986 115.278 994.505 115.908 995.168 116.351C995.832 116.794 996.611 117.03 997.408 117.03C997.948 117.041 998.485 116.941 998.985 116.737C999.485 116.532 999.939 116.228 1000.32 115.841C1000.7 115.455 1000.99 114.995 1001.19 114.49C1001.38 113.985 1001.47 113.445 1001.45 112.903ZM994.434 112.903C994.398 112.49 994.447 112.073 994.58 111.68C994.713 111.287 994.926 110.926 995.205 110.62C995.484 110.314 995.824 110.07 996.203 109.903C996.581 109.736 996.991 109.649 997.404 109.649C997.818 109.649 998.227 109.736 998.606 109.903C998.984 110.07 999.324 110.314 999.603 110.62C999.883 110.926 1000.1 111.287 1000.23 111.68C1000.36 112.073 1000.41 112.49 1000.37 112.903C1000.41 113.317 1000.36 113.733 1000.23 114.126C1000.1 114.519 999.883 114.88 999.603 115.186C999.324 115.492 998.984 115.736 998.606 115.904C998.227 116.071 997.818 116.157 997.404 116.157C996.991 116.157 996.581 116.071 996.203 115.904C995.824 115.736 995.484 115.492 995.205 115.186C994.926 114.88 994.713 114.519 994.58 114.126C994.447 113.733 994.398 113.317 994.434 112.903ZM1002.34 109.727H1004.55V116.953H1005.6V109.727H1007.79V108.869H1002.34V109.727ZM1013.43 108.861H1009.09V116.953H1013.43V116.08H1010.14V113.297H1013.08V112.447H1010.14V109.742H1013.43V108.861ZM1015.01 108.861V116.953H1018.87V116.095H1016.05V108.869L1015.01 108.861Z" fill="white"/>
<path d="M990.921 116.953H990.721V117.146H990.921V116.953ZM991.969 116.953V117.146H992.162V116.953H991.969ZM991.969 108.869H992.162V108.676H992.008L991.969 108.869ZM990.921 108.869V108.676H990.721V108.869H990.921ZM990.921 112.416V112.617H991.114V112.447L990.921 112.416ZM986.815 112.416H986.614V112.617H986.807L986.815 112.416ZM986.815 108.869H987.007V108.676H986.815V108.869ZM985.767 108.869V108.676H985.566V108.869H985.767ZM985.767 116.953H985.566V117.146H985.767V116.953ZM986.815 116.953V117.146H987.007V116.953H986.815ZM986.815 113.289V113.096H986.614V113.289H986.815ZM990.921 113.289H991.114V113.096H990.921V113.289ZM990.921 117.154H992.008V116.767H990.96L990.921 117.154ZM992.162 116.96V108.869H991.776V116.953L992.162 116.96ZM992.008 108.676H990.96V109.07H992.008V108.676ZM990.759 108.869V112.447H991.152V108.869H990.759ZM990.96 112.223H986.853V112.617H990.96V112.223ZM987.046 112.416V108.869H986.661V112.447L987.046 112.416ZM986.853 108.676H985.805V109.07H986.853V108.676ZM985.605 108.869V116.953H985.998V108.869H985.605ZM985.805 117.146H986.853V116.759H985.805V117.146ZM987.046 116.953V113.289H986.661V116.953H987.046ZM986.853 113.483H990.96V113.096H986.853V113.483ZM990.759 113.289V116.953H991.152V113.289H990.759ZM1001.68 112.903C1001.71 112.332 1001.61 111.763 1001.4 111.231C1001.19 110.7 1000.88 110.216 1000.48 109.811C1000.08 109.406 999.595 109.088 999.066 108.877C998.537 108.666 997.97 108.566 997.401 108.583V108.977C997.915 108.965 998.427 109.059 998.904 109.253C999.381 109.447 999.813 109.736 1000.17 110.104C1000.53 110.472 1000.82 110.91 1001 111.392C1001.19 111.873 1001.27 112.387 1001.25 112.903H1001.68ZM997.401 108.583C996.835 108.573 996.274 108.679 995.75 108.893C995.227 109.108 994.752 109.427 994.355 109.831C993.958 110.235 993.647 110.715 993.441 111.243C993.235 111.771 993.138 112.336 993.156 112.903H993.549C993.529 112.388 993.616 111.874 993.802 111.393C993.988 110.912 994.27 110.474 994.631 110.107C994.991 109.739 995.423 109.449 995.899 109.255C996.376 109.061 996.887 108.966 997.401 108.977V108.583ZM993.156 112.903C993.137 113.471 993.233 114.036 993.439 114.565C993.645 115.094 993.955 115.576 994.353 115.981C994.75 116.385 995.225 116.705 995.749 116.92C996.273 117.135 996.835 117.241 997.401 117.231V116.837C996.886 116.847 996.375 116.751 995.899 116.556C995.423 116.361 994.991 116.07 994.63 115.702C994.27 115.334 993.988 114.896 993.802 114.414C993.616 113.933 993.53 113.419 993.549 112.903H993.156ZM997.401 117.231C997.967 117.242 998.529 117.137 999.053 116.922C999.578 116.707 1000.05 116.388 1000.45 115.983C1000.85 115.577 1001.16 115.095 1001.36 114.566C1001.56 114.036 1001.66 113.471 1001.64 112.903H1001.25C1001.27 113.419 1001.19 113.935 1001 114.417C1000.82 114.899 1000.54 115.338 1000.18 115.707C999.816 116.076 999.383 116.366 998.906 116.56C998.428 116.755 997.916 116.849 997.401 116.837V117.231ZM994.619 112.903C994.582 112.094 994.858 111.302 995.39 110.693C995.652 110.436 995.964 110.236 996.305 110.103C996.647 109.97 997.012 109.908 997.378 109.92V109.534C996.958 109.524 996.54 109.6 996.15 109.759C995.761 109.917 995.408 110.153 995.113 110.453C994.502 111.131 994.178 112.021 994.211 112.934L994.619 112.903ZM997.401 109.889C997.766 109.877 998.13 109.939 998.47 110.072C998.81 110.204 999.12 110.405 999.381 110.662C999.912 111.271 1000.19 112.063 1000.15 112.872H1000.54C1000.57 111.959 1000.25 111.069 999.635 110.391C999.341 110.092 998.989 109.856 998.601 109.698C998.213 109.54 997.797 109.463 997.378 109.472L997.401 109.889ZM1000.17 112.903C1000.21 113.712 999.936 114.504 999.404 115.113C999.144 115.371 998.834 115.573 998.494 115.706C998.153 115.838 997.789 115.9 997.424 115.886V116.311C997.843 116.319 998.26 116.241 998.648 116.081C999.036 115.922 999.388 115.684 999.681 115.384C1000.29 114.706 1000.62 113.816 1000.58 112.903H1000.17ZM997.401 115.925C997.035 115.939 996.669 115.877 996.327 115.744C995.986 115.612 995.674 115.41 995.413 115.152C994.882 114.543 994.605 113.751 994.643 112.942H994.257C994.224 113.855 994.548 114.745 995.159 115.422C995.454 115.714 995.804 115.943 996.19 116.096C996.575 116.249 996.987 116.322 997.401 116.311V115.925ZM1002.33 109.742H1002.14V109.943H1002.33V109.742ZM1004.54 109.742H1004.74V109.549H1004.54V109.742ZM1004.54 116.968H1004.34V117.161H1004.53L1004.54 116.968ZM1005.59 116.968V117.161H1005.79V116.968H1005.59ZM1005.59 109.742V109.549H1005.4V109.742H1005.59ZM1007.79 109.742V109.943H1007.99V109.742H1007.79ZM1007.79 108.884H1007.99V108.691H1007.79V108.884ZM1002.33 108.884V108.691H1002.14V108.884H1002.33ZM1002.33 109.943H1004.54V109.549H1002.33V109.943ZM1004.35 109.742V116.968H1004.74V109.727L1004.35 109.742ZM1004.54 117.161H1005.59V116.775H1004.54V117.161ZM1005.79 116.968V109.727H1005.4V116.953L1005.79 116.968ZM1005.59 109.943H1007.79V109.549H1005.59V109.943ZM1007.99 109.742V108.869H1007.59V109.727L1007.99 109.742ZM1007.79 108.691H1002.33V109.085H1007.79V108.691ZM1002.14 108.884V109.742H1002.53V108.869L1002.14 108.884ZM1013.42 108.884H1013.61V108.691H1013.42V108.884ZM1009.08 108.884V108.691H1008.89V108.884H1009.08ZM1009.08 116.976H1008.89V117.169H1009.08V116.976ZM1013.42 116.976V117.169H1013.61V116.976H1013.42ZM1013.42 116.103H1013.61V115.909H1013.42V116.103ZM1010.14 116.103H1009.94V116.311H1010.14V116.103ZM1010.14 113.32V113.127H1009.94V113.32H1010.14ZM1013.07 113.32V113.521H1013.26V113.297L1013.07 113.32ZM1013.07 112.455H1013.26V112.262H1013.07V112.455ZM1010.14 112.455H1009.94V112.648H1010.14V112.455ZM1010.14 109.75V109.557H1009.94V109.75H1010.14ZM1013.42 109.75V109.951H1013.61V109.75H1013.42ZM1013.42 108.691H1009.08V109.078H1013.42V108.691ZM1008.89 108.884V116.953H1009.28V108.861L1008.89 108.884ZM1009.08 117.169H1013.42V116.783H1009.08V117.169ZM1013.61 116.976V116.079H1013.23V116.953L1013.61 116.976ZM1013.42 115.909H1010.14V116.311H1013.42V115.909ZM1010.34 116.103V113.297H1009.95V116.079L1010.34 116.103ZM1010.14 113.521H1013.08V113.127H1010.14V113.521ZM1013.27 113.32V112.447H1012.89V113.297L1013.27 113.32ZM1013.08 112.262H1010.14V112.648H1013.08V112.262ZM1010.34 112.455V109.75H1009.95V112.447L1010.34 112.455ZM1010.14 109.951H1013.43V109.557H1010.14V109.951ZM1013.62 109.75V108.861H1013.23V109.727L1013.62 109.75ZM1015.01 108.892V108.699H1014.82V108.892H1015.01ZM1015.01 116.976H1014.82V117.169H1015.01V116.976ZM1018.87 116.976V117.169H1019.06V116.976H1018.87ZM1018.87 116.118H1019.06V115.925H1018.87V116.118ZM1016.05 116.118H1015.89V116.311H1016.08L1016.05 116.118ZM1016.05 108.892H1016.24V108.699H1016.05V108.892ZM1014.8 108.892V116.953H1015.19V108.869L1014.8 108.892ZM1014.99 117.169H1018.84V116.783H1014.99V117.169ZM1019.06 116.976V116.095H1018.67V116.953L1019.06 116.976ZM1018.87 115.925H1016.05V116.311H1018.87V115.925ZM1016.24 116.118V108.869H1015.85V116.095L1016.24 116.118ZM1016.05 108.699H1014.99V109.093H1016.05V108.699Z" fill="#1C8FD0"/>
<path d="M975.742 121.164V126.188" stroke="#1C8FD0" stroke-width="0.61" stroke-miterlimit="10"/>
<path d="M1002.02 121.164V126.187" stroke="#1C8FD0" stroke-width="0.61" stroke-miterlimit="10"/>
<path d="M1028.26 121.164V126.188" stroke="#1C8FD0" stroke-width="0.61" stroke-miterlimit="10"/>
<path d="M961.133 104.719V121.164" stroke="#1C8FD0" stroke-width="0.61" stroke-miterlimit="10"/>
<path d="M1042.86 104.719V121.164" stroke="#1C8FD0" stroke-width="0.61" stroke-miterlimit="10"/>
</g>
<g clip-path="url(#clip1_189_6906)">
<path d="M1291.28 211.39C1292.67 205.376 1292.86 199.147 1291.84 193.058C1290.82 186.97 1288.61 181.143 1285.34 175.908C1282.07 170.674 1277.8 166.135 1272.77 162.551C1267.75 158.967 1262.07 156.408 1256.05 155.02C1250.04 153.63 1243.81 153.439 1237.72 154.457C1231.63 155.476 1225.8 157.684 1220.56 160.955C1215.33 164.227 1210.79 168.498 1207.2 173.524C1203.62 178.551 1201.06 184.234 1199.67 190.25C1198.28 196.266 1198.09 202.497 1199.11 208.587C1200.13 214.677 1202.34 220.506 1205.61 225.742C1208.88 230.978 1213.15 235.517 1218.18 239.101C1223.21 242.686 1228.89 245.244 1234.91 246.63C1240.93 248.019 1247.16 248.209 1253.24 247.189C1259.33 246.169 1265.16 243.96 1270.4 240.688C1275.63 237.415 1280.17 233.143 1283.75 228.117C1287.34 223.09 1289.89 217.406 1291.28 211.39Z" fill="#9DE7FE" stroke="#1C8FD0" stroke-width="0.91" stroke-miterlimit="10"/>
<path d="M1287.87 210.62C1290.47 199.376 1288.49 187.562 1282.38 177.775C1276.26 167.988 1266.51 161.03 1255.27 158.43C1249.7 157.143 1243.94 156.966 1238.3 157.908C1232.66 158.85 1227.27 160.893 1222.42 163.92C1217.58 166.948 1213.37 170.9 1210.06 175.551C1206.74 180.203 1204.37 185.462 1203.08 191.03C1200.48 202.274 1202.46 214.088 1208.57 223.875C1214.69 233.662 1224.44 240.62 1235.68 243.22C1246.92 245.815 1258.74 243.839 1268.53 237.726C1278.31 231.613 1285.27 221.863 1287.87 210.62Z" fill="white" stroke="#1C8FD0" stroke-width="0.85" stroke-miterlimit="10"/>
<path d="M1285.36 210.04C1287.8 199.455 1285.93 188.335 1280.18 179.121C1274.43 169.908 1265.25 163.355 1254.67 160.9C1244.08 158.463 1232.96 160.325 1223.75 166.08C1214.54 171.834 1207.98 181.009 1205.53 191.59C1203.09 202.177 1204.96 213.299 1210.71 222.512C1216.47 231.726 1225.65 238.278 1236.23 240.73C1246.81 243.165 1257.93 241.301 1267.14 235.547C1276.35 229.793 1282.91 220.62 1285.36 210.04Z" fill="white" stroke="#1C8FD0" stroke-width="1.05" stroke-miterlimit="10"/>
<path d="M1272.11 187.189H1222.32V216.129H1272.11V187.189Z" fill="white" stroke="#1C8FD0" stroke-width="0.9" stroke-miterlimit="10"/>
<path d="M1268.64 182.979H1218.84V211.899H1268.64V182.979Z" fill="white" stroke="#1C8FD0" stroke-width="0.9" stroke-miterlimit="10"/>
<path d="M1268.64 189.03H1218.84V195.79H1268.64V189.03Z" fill="#D4EDF8" stroke="#1C8FD0" stroke-width="0.9" stroke-miterlimit="10"/>
<path d="M1222.32 202.22H1245.45" stroke="#1C8FD0" stroke-width="0.9" stroke-miterlimit="10"/>
<path d="M1222.32 205.24H1245.45" stroke="#1C8FD0" stroke-width="0.9" stroke-miterlimit="10"/>
<path d="M1256.03 203.66C1256.03 204.397 1255.81 205.118 1255.4 205.73C1255 206.353 1254.42 206.841 1253.74 207.13C1253.06 207.413 1252.32 207.486 1251.6 207.34C1250.88 207.208 1250.22 206.859 1249.7 206.34C1249.18 205.82 1248.84 205.158 1248.7 204.44C1248.55 203.718 1248.63 202.97 1248.91 202.29C1249.19 201.615 1249.67 201.038 1250.28 200.63C1250.89 200.22 1251.6 200.001 1252.34 200C1252.83 200.001 1253.31 200.099 1253.76 200.29C1254.21 200.473 1254.62 200.745 1254.96 201.09C1255.31 201.432 1255.58 201.84 1255.77 202.29C1255.94 202.726 1256.03 203.191 1256.03 203.66Z" fill="#D4EDF8" stroke="#1C8FD0" stroke-width="0.9" stroke-miterlimit="10"/>
<path d="M1263.45 203.66C1263.45 204.397 1263.23 205.118 1262.82 205.73C1262.42 206.355 1261.84 206.844 1261.16 207.13C1260.48 207.413 1259.74 207.486 1259.02 207.34C1258.3 207.208 1257.64 206.859 1257.12 206.34C1256.61 205.82 1256.26 205.158 1256.12 204.44C1255.98 203.717 1256.05 202.969 1256.34 202.29C1256.62 201.615 1257.09 201.038 1257.7 200.63C1258.31 200.219 1259.03 200 1259.76 200C1260.25 200.001 1260.73 200.099 1261.18 200.29C1261.63 200.469 1262.04 200.742 1262.38 201.09C1262.73 201.429 1263.01 201.838 1263.19 202.29C1263.36 202.726 1263.45 203.191 1263.45 203.66Z" fill="#4DC8E3" stroke="#1C8FD0" stroke-width="0.9" stroke-miterlimit="10"/>
</g>
<g clip-path="url(#clip2_189_6906)">
<path d="M916.885 98.2387H847.797C847.797 98.2387 851.371 86.9334 864.632 90.0414C870.226 74.1518 898.302 78.3864 901.63 92.7738C908.157 83.3462 922.208 91.9839 916.885 98.2387Z" fill="#EAF0FD"/>
<path d="M405.983 25.6798H336.895C336.895 25.6798 340.469 14.3745 353.652 17.4695C359.259 1.59283 387.322 5.81452 390.663 20.2149C397.216 10.7873 411.292 19.3861 405.983 25.6798Z" stroke="#EAF0FD" stroke-miterlimit="10"/>
<path d="M608.22 205.296H505.578C505.578 205.296 510.888 188.461 530.494 193.097C538.808 169.502 580.571 175.705 585.467 197.163C595.244 183.152 616.067 195.933 608.22 205.296Z" fill="#EAF0FD"/>
<path d="M746.746 80.8855H852.029C852.029 80.8855 843.871 63.5196 820.535 72.209C799.504 45.0141 771.714 62.8203 771.714 75.33C757.223 64.6851 746.746 80.8855 746.746 80.8855Z" stroke="#EAF0FD" stroke-miterlimit="10"/>
<path d="M588.397 80.7302H527.156C527.156 80.7302 531.896 70.6293 545.48 75.6797C557.705 59.8549 573.88 70.2278 573.88 77.5057C582.297 71.2638 588.397 80.7302 588.397 80.7302Z" fill="#EAF0FD"/>
<path d="M958.17 13.9988H896.93C896.93 13.9988 901.669 3.89781 915.254 8.9483C927.479 -6.87657 943.653 3.49636 943.653 10.7743C952.071 4.57121 958.17 13.9988 958.17 13.9988Z" stroke="#EAF0FD" stroke-miterlimit="10"/>
<path d="M445.234 270.317V304.751" stroke="#6284E8" stroke-width="0.5" stroke-linecap="round" stroke-linejoin="round"/>
<path d="M445.233 221.276C445.233 221.276 479.304 290.792 445.233 290.792C411.161 290.792 445.233 221.276 445.233 221.276Z" fill="white" stroke="#6284E8" stroke-width="0.5" stroke-linecap="round" stroke-linejoin="round"/>
<path d="M399.223 270.317V304.751" stroke="#6284E8" stroke-width="0.5" stroke-linecap="round" stroke-linejoin="round"/>
<path d="M399.221 221.276C399.221 221.276 433.292 290.792 399.221 290.792C365.15 290.792 399.221 221.276 399.221 221.276Z" fill="white" stroke="#6284E8" stroke-width="0.5" stroke-linecap="round" stroke-linejoin="round"/>
<path d="M491.23 270.317V304.751" stroke="#6284E8" stroke-width="0.5" stroke-linecap="round" stroke-linejoin="round"/>
<path d="M491.243 221.276C491.243 221.276 525.301 290.792 491.243 290.792C457.184 290.792 491.243 221.276 491.243 221.276Z" fill="white" stroke="#6284E8" stroke-width="0.5" stroke-linecap="round" stroke-linejoin="round"/>
<path d="M537.242 270.317V304.751" stroke="#6284E8" stroke-width="0.5" stroke-linecap="round" stroke-linejoin="round"/>
<path d="M537.254 221.276C537.254 221.276 571.313 290.792 537.254 290.792C503.196 290.792 537.254 221.276 537.254 221.276Z" fill="white" stroke="#6284E8" stroke-width="0.5" stroke-linecap="round" stroke-linejoin="round"/>
<path d="M866.391 270.317V304.751" stroke="#6284E8" stroke-width="0.5" stroke-linecap="round" stroke-linejoin="round"/>
<path d="M866.393 221.276C866.393 221.276 900.464 290.792 866.393 290.792C832.321 290.792 866.393 221.276 866.393 221.276Z" fill="white" stroke="#6284E8" stroke-width="0.5" stroke-linecap="round" stroke-linejoin="round"/>
<path d="M912.402 270.317V304.751" stroke="#6284E8" stroke-width="0.5" stroke-linecap="round" stroke-linejoin="round"/>
<path d="M912.405 221.276C912.405 221.276 946.476 290.792 912.405 290.792C878.333 290.792 912.405 221.276 912.405 221.276Z" fill="white" stroke="#6284E8" stroke-width="0.5" stroke-linecap="round" stroke-linejoin="round"/>
<path d="M950.582 304.752H372.016" stroke="#6284E8" stroke-width="0.5" stroke-linecap="round" stroke-linejoin="round"/>
<path d="M773.476 247.254H655.645V314.451H773.476V247.254Z" fill="white" stroke="#6284E8" stroke-width="0.5" stroke-linecap="round" stroke-linejoin="round"/>
<path d="M875.456 145.156L788.938 93.3818V222.817L875.456 249.066V145.156Z" fill="white" stroke="#6284E8" stroke-width="0.5" stroke-linecap="round" stroke-linejoin="round"/>
<path d="M850.438 248.692V314.452L777.465 317.236V232.841L850.438 248.692Z" fill="white" stroke="#6284E8" stroke-width="0.5" stroke-linecap="round" stroke-linejoin="round"/>
<path d="M830.74 303.949V259.855L799.129 254.985V303.949H830.74Z" fill="#EAF0FD" stroke="#6284E8" stroke-width="0.5" stroke-linecap="round" stroke-linejoin="round"/>
<path d="M769.473 253.043V317.236H777.463V251.476L769.473 253.043Z" fill="white" stroke="#6284E8" stroke-width="0.5" stroke-linecap="round" stroke-linejoin="round"/>
<path d="M769.473 264.672H714.578V314.439H769.473V264.672Z" fill="white" stroke="#6284E8" stroke-width="0.5" stroke-linecap="round" stroke-linejoin="round"/>
<path d="M766.251 267.404H743.316V311.24H766.251V267.404Z" fill="#EAF0FD" stroke="#6284E8" stroke-width="0.5" stroke-linecap="round" stroke-linejoin="round"/>
<path d="M740.751 267.404H717.816V311.24H740.751V267.404Z" fill="#EAF0FD" stroke="#6284E8" stroke-width="0.5" stroke-linecap="round" stroke-linejoin="round"/>
<path d="M846.022 137.788V167.521L832.191 161.344V130.135L846.022 137.788Z" fill="#EAF0FD" stroke="#6284E8" stroke-width="0.5" stroke-linecap="round" stroke-linejoin="round"/>
<path d="M871.338 152.408V179.318L858.699 173.672V145.415L871.338 152.408Z" fill="#EAF0FD" stroke="#6284E8" stroke-width="0.5" stroke-linecap="round" stroke-linejoin="round"/>
<path d="M798.043 111.24L816.846 121.639V154.48L798.043 146.089V111.24Z" fill="#EAF0FD" stroke="#6284E8" stroke-width="0.5" stroke-linecap="round" stroke-linejoin="round"/>
<path d="M846.022 199.468V229.202L832.191 224.773V193.563L846.022 199.468Z" fill="#EAF0FD" stroke="#6284E8" stroke-width="0.5" stroke-linecap="round" stroke-linejoin="round"/>
<path d="M871.338 210.748V237.658L858.699 233.617V205.348L871.338 210.748Z" fill="#EAF0FD" stroke="#6284E8" stroke-width="0.5" stroke-linecap="round" stroke-linejoin="round"/>
<path d="M798.043 178.981L816.846 187.01V219.852L798.043 213.83V178.981Z" fill="#EAF0FD" stroke="#6284E8" stroke-width="0.5" stroke-linecap="round" stroke-linejoin="round"/>
<path d="M788.94 93.3818H640.184V222.817H788.94V93.3818Z" fill="white" stroke="#6284E8" stroke-width="0.5" stroke-linecap="round" stroke-linejoin="round"/>
<path d="M553.664 145.156L640.183 93.3818V222.817L553.664 249.066V145.156Z" fill="white" stroke="#6284E8" stroke-width="0.5" stroke-linecap="round" stroke-linejoin="round"/>
<path d="M578.684 248.692V314.452L651.644 317.236V232.841L578.684 248.692Z" fill="white" stroke="#6284E8" stroke-width="0.5" stroke-linecap="round" stroke-linejoin="round"/>
<path d="M640.183 222.817H788.939L875.458 249.067L850.439 248.691L778.514 236.376H724.345H714.58H650.608L578.683 248.691L553.664 249.067L640.183 222.817Z" fill="white" stroke="#6284E8" stroke-width="0.5" stroke-linecap="round" stroke-linejoin="round"/>
<path d="M597.434 303.949V259.855L629.057 254.985V303.949H597.434Z" fill="#EAF0FD" stroke="#6284E8" stroke-width="0.5" stroke-linecap="round" stroke-linejoin="round"/>
<path d="M659.635 253.043V317.236H651.645V251.476L659.635 253.043Z" fill="white" stroke="#6284E8" stroke-width="0.5" stroke-linecap="round" stroke-linejoin="round"/>
<path d="M714.528 264.672H659.633V314.439H714.528V264.672Z" fill="white" stroke="#6284E8" stroke-width="0.5" stroke-linecap="round" stroke-linejoin="round"/>
<path d="M685.805 267.404H662.871V311.24H685.805V267.404Z" fill="#EAF0FD" stroke="#6284E8" stroke-width="0.5" stroke-linecap="round" stroke-linejoin="round"/>
<path d="M711.29 267.404H688.355V311.24H711.29V267.404Z" fill="#EAF0FD" stroke="#6284E8" stroke-width="0.5" stroke-linecap="round" stroke-linejoin="round"/>
<path d="M583.086 137.788V167.521L596.917 161.344V130.135L583.086 137.788Z" fill="#EAF0FD" stroke="#6284E8" stroke-width="0.5" stroke-linecap="round" stroke-linejoin="round"/>
<path d="M557.77 152.408V179.318L570.409 173.672V145.415L557.77 152.408Z" fill="#EAF0FD" stroke="#6284E8" stroke-width="0.5" stroke-linecap="round" stroke-linejoin="round"/>
<path d="M631.065 111.24L612.262 121.639V154.48L631.065 146.089V111.24Z" fill="#EAF0FD" stroke="#6284E8" stroke-width="0.5" stroke-linecap="round" stroke-linejoin="round"/>
<path d="M583.086 199.469V229.202L596.917 224.773V193.563L583.086 199.469Z" fill="#EAF0FD" stroke="#6284E8" stroke-width="0.5" stroke-linecap="round" stroke-linejoin="round"/>
<path d="M557.77 210.748V237.658L570.409 233.617V205.348L557.77 210.748Z" fill="#EAF0FD" stroke="#6284E8" stroke-width="0.5" stroke-linecap="round" stroke-linejoin="round"/>
<path d="M631.065 178.982L612.262 187.011V219.852L631.065 213.83V178.982Z" fill="#EAF0FD" stroke="#6284E8" stroke-width="0.5" stroke-linecap="round" stroke-linejoin="round"/>
<path d="M779.162 105.749H745V139.911H779.162V105.749Z" fill="#EAF0FD" stroke="#6284E8" stroke-width="0.5" stroke-linecap="round" stroke-linejoin="round"/>
<path d="M684.162 105.749H650V139.911H684.162V105.749Z" fill="#EAF0FD" stroke="#6284E8" stroke-width="0.5" stroke-linecap="round" stroke-linejoin="round"/>
<path d="M731.662 105.749H697.5V139.911H731.662V105.749Z" fill="#EAF0FD" stroke="#6284E8" stroke-width="0.5" stroke-linecap="round" stroke-linejoin="round"/>
<path d="M779.162 175.55H745V209.712H779.162V175.55Z" fill="#EAF0FD" stroke="#6284E8" stroke-width="0.5" stroke-linecap="round" stroke-linejoin="round"/>
<path d="M684.162 175.55H650V209.712H684.162V175.55Z" fill="#EAF0FD" stroke="#6284E8" stroke-width="0.5" stroke-linecap="round" stroke-linejoin="round"/>
<path d="M731.662 175.55H697.5V209.712H731.662V175.55Z" fill="#EAF0FD" stroke="#6284E8" stroke-width="0.5" stroke-linecap="round" stroke-linejoin="round"/>
<path d="M714.579 228.191H717.817H785.467V251.475L777.464 254.596H651.642L643.652 251.475V228.191H714.579Z" fill="#EAF0FD" stroke="#6284E8" stroke-width="0.5" stroke-linecap="round" stroke-linejoin="round"/>
<path d="M785.467 251.476H643.652L651.642 254.597H777.464L785.467 251.476Z" fill="white" stroke="#6284E8" stroke-width="0.5" stroke-linecap="round" stroke-linejoin="round"/>
<path d="M692.475 38.6166C692.475 63.0403 714.594 85.9617 714.594 85.9617C714.594 85.9617 736.699 63.0403 736.699 38.6166C736.771 35.6678 736.252 32.7345 735.172 29.9893C734.093 27.2441 732.476 24.7425 730.416 22.6316C728.355 20.5208 725.893 18.8434 723.175 17.6981C720.457 16.5529 717.537 15.9629 714.587 15.9629C711.638 15.9629 708.718 16.5529 706 17.6981C703.281 18.8434 700.819 20.5208 698.759 22.6316C696.699 24.7425 695.081 27.2441 694.002 29.9893C692.923 32.7345 692.404 35.6678 692.475 38.6166ZM699.844 38.6166C699.841 35.6988 700.704 32.8457 702.323 30.4184C703.943 27.9911 706.245 26.0985 708.94 24.9801C711.635 23.8618 714.601 23.5678 717.463 24.1355C720.325 24.7031 722.955 26.1069 725.019 28.1692C727.083 30.2315 728.489 32.8597 729.059 35.7213C729.63 38.5829 729.338 41.5493 728.222 44.2452C727.106 46.9412 725.216 49.2456 722.79 50.867C720.364 52.4883 717.512 53.3537 714.594 53.3537C712.656 53.3571 710.736 52.9785 708.944 52.2396C707.153 51.5007 705.524 50.4159 704.152 49.0473C702.779 47.6786 701.69 46.053 700.947 44.2632C700.203 42.4735 699.82 40.5547 699.818 38.6166H699.844Z" fill="#CA4439"/>
<path d="M644.196 48.4332H713.997C715.287 48.4349 716.565 48.1822 717.757 47.6897C718.949 47.1971 720.033 46.4744 720.946 45.5627C721.859 44.651 722.583 43.5683 723.077 42.3765C723.571 41.1848 723.826 39.9073 723.826 38.6171C723.826 36.0103 722.79 33.5102 720.947 31.6669C719.103 29.8236 716.603 28.7881 713.997 28.7881H644.196C641.589 28.7881 639.089 29.8236 637.246 31.6669C635.403 33.5102 634.367 36.0103 634.367 38.6171C634.367 39.9073 634.622 41.1848 635.116 42.3765C635.61 43.5683 636.334 44.651 637.247 45.5627C638.16 46.4744 639.243 47.1971 640.436 47.6897C641.628 48.1822 642.906 48.4349 644.196 48.4332Z" fill="white" stroke="#6284E8" stroke-width="0.5" stroke-linecap="round" stroke-linejoin="round"/>
<path d="M711.29 33.3848L709.71 36.5705L706.188 37.0755L708.739 39.5619L708.143 43.0713L711.29 41.4137L714.437 43.0713L713.828 39.5619L716.379 37.0755L712.857 36.5705L711.29 33.3848Z" fill="#EBBB2C"/>
<path d="M695.192 33.3848L693.612 36.5705L690.09 37.0755L692.641 39.5619L692.045 43.0713L695.192 41.4137L698.339 43.0713L697.73 39.5619L700.281 37.0755L696.759 36.5705L695.192 33.3848Z" fill="#EBBB2C"/>
<path d="M662.999 33.3848L661.42 36.5705L657.91 37.0755L660.448 39.5619L659.853 43.0713L662.999 41.4137L666.146 43.0713L665.551 39.5619L668.089 37.0755L664.566 36.5705L662.999 33.3848Z" fill="#EBBB2C"/>
<path d="M679.097 33.3848L677.517 36.5705L674.008 37.0755L676.546 39.5619L675.95 43.0713L679.097 41.4137L682.244 43.0713L681.635 39.5619L684.186 37.0755L680.664 36.5705L679.097 33.3848Z" fill="#EBBB2C"/>
<path d="M646.902 33.3848L645.335 36.5705L641.812 37.0755L644.351 39.5619L643.755 43.0713L646.902 41.4137L650.049 43.0713L649.453 39.5619L651.991 37.0755L648.482 36.5705L646.902 33.3848Z" fill="#EBBB2C"/>
<path d="M505.529 134.227H469.398C469.398 134.227 470.499 123.465 486.065 128.917C494.068 122.093 505.529 123.957 505.529 134.227Z" fill="#EAF0FD"/>
<path d="M922.49 191.699H886.359C886.359 191.699 887.46 180.924 903.026 186.376C911.029 179.513 922.49 181.339 922.49 191.699Z" fill="#EAF0FD"/>
</g>
<g clip-path="url(#clip3_189_6906)">
<path d="M224.069 233.419C228.352 229.147 231.75 224.071 234.068 218.483C236.387 212.895 237.58 206.904 237.58 200.854C237.58 194.805 236.387 188.814 234.068 183.226C231.75 177.638 228.352 172.562 224.069 168.289C219.796 164.008 214.721 160.611 209.134 158.294C203.547 155.976 197.557 154.783 191.509 154.783C185.46 154.783 179.471 155.976 173.884 158.294C168.297 160.611 163.221 164.008 158.949 168.289C154.666 172.562 151.268 177.638 148.949 183.226C146.631 188.814 145.438 194.805 145.438 200.854C145.438 206.904 146.631 212.895 148.949 218.483C151.268 224.071 154.666 229.147 158.949 233.419C167.585 242.054 179.297 246.905 191.509 246.905C203.721 246.905 215.433 242.054 224.069 233.419Z" fill="#9DE7FE" stroke="#1C8FD0" stroke-width="0.91" stroke-miterlimit="10"/>
<path d="M221.649 230.989C229.639 222.994 234.127 212.153 234.127 200.849C234.127 189.546 229.639 178.705 221.649 170.709C213.653 162.72 202.812 158.231 191.509 158.231C180.206 158.231 169.365 162.72 161.369 170.709C157.41 174.667 154.27 179.366 152.128 184.537C149.986 189.709 148.883 195.252 148.883 200.849C148.883 206.447 149.986 211.99 152.128 217.161C154.27 222.333 157.41 227.032 161.369 230.989C165.327 234.948 170.026 238.088 175.197 240.23C180.368 242.373 185.911 243.476 191.509 243.476C197.107 243.476 202.65 242.373 207.821 240.23C212.993 238.088 217.691 234.948 221.649 230.989Z" fill="white" stroke="#1C8FD0" stroke-width="0.85" stroke-miterlimit="10"/>
<path d="M219.902 229.24C223.629 225.513 226.587 221.088 228.604 216.217C230.622 211.347 231.66 206.127 231.66 200.855C231.66 195.584 230.622 190.364 228.604 185.493C226.587 180.623 223.629 176.198 219.902 172.47C212.372 164.941 202.16 160.711 191.512 160.711C180.863 160.711 170.651 164.941 163.122 172.47C155.595 179.999 151.367 190.209 151.367 200.855C151.367 211.501 155.595 221.711 163.122 229.24C170.651 236.77 180.863 241 191.512 241C202.16 241 212.372 236.77 219.902 229.24Z" fill="white" stroke="#1C8FD0" stroke-width="1.05" stroke-miterlimit="10"/>
<path d="M204.539 191.719C204.539 198.919 191.539 218.379 191.539 218.379C191.539 218.379 178.539 198.919 178.539 191.719C178.538 190.008 178.875 188.314 179.531 186.734C180.186 185.153 181.148 183.718 182.359 182.509C183.567 181.298 185.003 180.337 186.583 179.681C188.164 179.026 189.858 178.689 191.569 178.689C193.28 178.689 194.974 179.026 196.555 179.681C198.135 180.337 199.571 181.298 200.779 182.509C201.991 183.718 202.952 185.153 203.607 186.734C204.263 188.314 204.6 190.008 204.599 191.719H204.539Z" fill="white" stroke="#1C8FD0" stroke-width="0.91" stroke-miterlimit="10"/>
<path d="M180.34 218.38H202.68" stroke="#1C8FD0" stroke-width="0.91" stroke-miterlimit="10"/>
<path d="M197.492 198.24C198.283 197.454 198.911 196.519 199.339 195.489C199.767 194.459 199.988 193.355 199.988 192.24C199.988 191.125 199.767 190.02 199.339 188.991C198.911 187.961 198.283 187.026 197.492 186.24C196.706 185.449 195.771 184.821 194.741 184.393C193.711 183.965 192.607 183.744 191.492 183.744C190.377 183.744 189.272 183.965 188.243 184.393C187.213 184.821 186.278 185.449 185.492 186.24C184.701 187.026 184.073 187.961 183.645 188.991C183.217 190.02 182.996 191.125 182.996 192.24C182.996 193.355 183.217 194.459 183.645 195.489C184.073 196.519 184.701 197.454 185.492 198.24C186.278 199.031 187.213 199.659 188.243 200.087C189.272 200.515 190.377 200.736 191.492 200.736C192.607 200.736 193.711 200.515 194.741 200.087C195.771 199.659 196.706 199.031 197.492 198.24Z" fill="#D4EDF8" stroke="#1C8FD0" stroke-width="0.9" stroke-miterlimit="10"/>
</g>
<defs>
<clipPath id="clip0_189_6906">
<rect width="124" height="215" fill="white" transform="translate(940 104.34)"/>
</clipPath>
<clipPath id="clip1_189_6906">
<rect width="94.96" height="94.96" fill="white" transform="translate(1198 153.34)"/>
</clipPath>
<clipPath id="clip2_189_6906">
<rect width="623.36" height="317.559" fill="white" transform="translate(336)"/>
</clipPath>
<clipPath id="clip3_189_6906">
<rect width="93.02" height="93.02" fill="white" transform="translate(145 154.34)"/>
</clipPath>
</defs>
</svg>
