<svg width="14" height="15" viewBox="0 0 14 15" fill="none" xmlns="http://www.w3.org/2000/svg">
<path d="M7 0.392578C3.13437 0.392578 0 3.58208 0 7.51569C0 11.4493 3.13437 14.6388 7 14.6388C10.8656 14.6388 14 11.4493 14 7.51569C14 3.58208 10.8656 0.392578 7 0.392578ZM7 13.4304C3.79062 13.4304 1.1875 10.7815 1.1875 7.51569C1.1875 4.24987 3.79062 1.60096 7 1.60096C10.2094 1.60096 12.8125 4.24987 12.8125 7.51569C12.8125 10.7815 10.2094 13.4304 7 13.4304Z" fill="#646465"/>
<path d="M6.25 4.71733C6.25 4.91974 6.32902 5.11386 6.46967 5.25699C6.61032 5.40011 6.80109 5.48052 7 5.48052C7.19891 5.48052 7.38968 5.40011 7.53033 5.25699C7.67098 5.11386 7.75 4.91974 7.75 4.71733C7.75 4.51492 7.67098 4.3208 7.53033 4.17767C7.38968 4.03454 7.19891 3.95414 7 3.95414C6.80109 3.95414 6.61032 4.03454 6.46967 4.17767C6.32902 4.3208 6.25 4.51492 6.25 4.71733ZM7.375 6.49811H6.625C6.55625 6.49811 6.5 6.55535 6.5 6.62531V10.9501C6.5 11.02 6.55625 11.0773 6.625 11.0773H7.375C7.44375 11.0773 7.5 11.02 7.5 10.9501V6.62531C7.5 6.55535 7.44375 6.49811 7.375 6.49811Z" fill="#646465"/>
</svg>
