<svg width="36" height="36" viewBox="0 0 36 36" fill="none" xmlns="http://www.w3.org/2000/svg">
<circle cx="18" cy="18" r="18" fill="#636262"/>
<path d="M11.0019 17.9193C11.0019 16.5947 10.9976 15.2702 11.0019 13.9454C11.0098 12.4637 12.0736 11.1656 13.4837 10.9151C13.6501 10.884 13.8188 10.8674 13.9881 10.8655C16.5388 10.8625 19.0897 10.8625 21.6406 10.8655C23.0831 10.8691 24.3253 11.9672 24.572 13.441C24.6023 13.6141 24.6183 13.7893 24.62 13.965C24.6229 16.6078 24.6229 19.2506 24.62 21.8932C24.6171 23.3753 23.5512 24.6713 22.1404 24.9237C21.9777 24.9546 21.8126 24.9711 21.6471 24.973C19.088 24.976 16.5288 24.976 13.9694 24.973C12.5415 24.9692 11.2923 23.8628 11.0512 22.4044C11.0198 22.2118 11.0037 22.0171 11.0031 21.8219C10.999 20.5212 11.001 19.2203 11.001 17.9195L11.0019 17.9193ZM22.9371 17.9157H22.9496C22.9496 17.4944 22.956 17.0729 22.9479 16.6517C22.9392 16.2178 22.927 15.7834 22.8967 15.3507C22.8702 14.9284 22.7574 14.5159 22.5653 14.1381C22.1329 13.2974 21.4386 12.8385 20.5477 12.6745C20.1459 12.6004 19.7388 12.5904 19.3327 12.5861C18.4692 12.5775 17.6055 12.5783 16.7418 12.5802C16.2374 12.5802 15.7316 12.5847 15.2287 12.6492C14.811 12.7028 14.412 12.8221 14.0484 13.0464C13.3053 13.5053 12.8986 14.2 12.7497 15.0706C12.6818 15.4679 12.6673 15.8701 12.6661 16.2711C12.6628 17.4763 12.6685 18.6816 12.677 19.8866C12.6796 20.2624 12.7123 20.6365 12.8002 21.0032C12.9861 21.7779 13.3956 22.3844 14.0647 22.7893C14.5427 23.0779 15.0706 23.1905 15.6165 23.2136C16.0645 23.2325 16.5134 23.2406 16.9616 23.241C17.8651 23.241 18.7685 23.2367 19.6718 23.2282C20.0301 23.2248 20.3883 23.1994 20.7384 23.1115C21.7647 22.8538 22.4514 22.2139 22.7687 21.1635C22.8967 20.7386 22.9308 20.2988 22.9354 19.8575C22.9421 19.21 22.9371 18.5627 22.9371 17.9157Z" fill="white"/>
<path d="M22.0419 17.9157C22.0347 18.5236 22.0309 19.1316 22.0194 19.7394C22.0126 20.0909 22.0006 20.4431 21.9151 20.7872C21.7174 21.583 21.2186 22.0493 20.4459 22.1958C20.1699 22.2449 19.8902 22.2709 19.6098 22.2734C18.8115 22.2879 18.0129 22.2918 17.2143 22.291C16.7241 22.291 16.2336 22.277 15.7434 22.2632C15.422 22.2541 15.1043 22.2117 14.8007 22.0931C14.2216 21.8667 13.8676 21.4316 13.7086 20.8181C13.6197 20.4754 13.6005 20.1237 13.5976 19.7722C13.5889 18.6649 13.5829 17.5575 13.5875 16.4499C13.5887 16.0766 13.6094 15.7035 13.6495 15.3323C13.7086 14.7889 13.9197 14.319 14.3539 13.9797C14.6181 13.7734 14.9212 13.6653 15.2426 13.6127C15.7078 13.5367 16.1793 13.5377 16.6474 13.5353C17.4794 13.5308 18.3117 13.5282 19.1436 13.5379C19.5265 13.5424 19.911 13.5617 20.2915 13.6029C20.8144 13.6608 21.2666 13.8782 21.5959 14.3228C21.7986 14.5967 21.9053 14.9125 21.9562 15.2485C22.0316 15.7412 22.0268 16.2394 22.0326 16.7364C22.0371 17.1293 22.0326 17.5223 22.0326 17.9154L22.0419 17.9157ZM20.4498 17.9133C20.4498 16.3992 19.2712 15.1761 17.8097 15.1747C16.3482 15.1732 15.1665 16.3961 15.1648 17.9083C15.1648 19.426 16.3448 20.651 17.808 20.6502C19.2712 20.6495 20.4505 19.4267 20.4505 17.9133H20.4498ZM20.5521 14.4295C20.2115 14.4295 19.9355 14.7153 19.9348 15.0661C19.9341 15.4169 20.2153 15.7091 20.5559 15.7074C20.8965 15.7057 21.1686 15.419 21.1681 15.0656C21.1677 14.7122 20.8941 14.4295 20.5521 14.4295Z" fill="white"/>
<path d="M19.5265 17.9128C19.522 18.9073 18.7481 19.7017 17.7893 19.6963C16.8394 19.6922 16.0761 18.8825 16.0821 17.8885C16.0881 16.9121 16.8687 16.1234 17.8222 16.1279C18.7589 16.1322 19.5306 16.9407 19.5265 17.9128Z" fill="white"/>
</svg>
