<svg width="21" height="20" viewBox="0 0 21 20" fill="none" xmlns="http://www.w3.org/2000/svg">
<path fill-rule="evenodd" clip-rule="evenodd" d="M10.4736 0C4.95091 0 0.473633 4.47727 0.473633 10C0.473633 15.5227 4.95091 20 10.4736 20C15.9964 20 20.4736 15.5227 20.4736 10C20.4736 4.47727 15.9964 0 10.4736 0ZM1.84909 9.54545H6.16272C6.25363 6.78455 7.16272 4.55455 8.06545 2.99636C8.42 2.38545 8.77454 1.87545 9.08272 1.47545C5.11909 2.11727 2.06091 5.45455 1.84909 9.54545ZM6.18545 10.9091H1.88454C2.0844 12.7917 2.89703 14.5566 4.1975 15.9325C5.49798 17.3083 7.21433 18.219 9.08272 18.5245C8.71145 18.0399 8.37166 17.5318 8.06545 17.0036C7.21272 15.5318 6.35545 13.4609 6.18545 10.9091ZM7.55272 10.9091H13.3945C13.2282 13.1636 12.4673 15 11.7018 16.3191C11.2691 17.0645 10.8382 17.6418 10.5164 18.0282L10.4736 18.0818L10.4309 18.03C9.98942 17.4939 9.59292 16.9222 9.24545 16.3209C8.48 15 7.71818 13.1618 7.55272 10.9091ZM13.42 9.54545H7.52727C7.61818 7.08364 8.42909 5.08727 9.24545 3.68091C9.67818 2.93545 10.1091 2.35818 10.4309 1.97182L10.4736 1.91818L10.5164 1.97C10.8373 2.35727 11.2691 2.93364 11.7018 3.67909C12.5182 5.08636 13.3291 7.08364 13.42 9.54545ZM14.7618 10.9091C14.5927 13.4609 13.7345 15.5318 12.8818 17.0036C12.5273 17.6145 12.1727 18.1245 11.8655 18.5245C13.7335 18.2187 15.4495 17.3078 16.7496 15.932C18.0497 14.5562 18.862 12.7915 19.0618 10.9091H14.7618ZM19.0982 9.54545H14.7845C14.6936 6.78455 13.7845 4.55455 12.8818 2.99636C12.5273 2.38545 12.1727 1.87545 11.8645 1.47545C15.8282 2.11727 18.8864 5.45455 19.0982 9.54545Z" fill="#2F69FF"/>
</svg>
