<svg width="37" height="36" viewBox="0 0 37 36" fill="none" xmlns="http://www.w3.org/2000/svg">
<circle cx="18.0039" cy="18" r="18" fill="#636262"/>
<path fill-rule="evenodd" clip-rule="evenodd" d="M12.825 10.0906C13.1632 10.1907 13.4703 10.3755 13.7421 10.6424C14.0264 10.9217 14.1743 11.1546 14.2999 11.5204C14.739 12.8 13.8215 14.2175 12.4591 14.3643C11.735 14.4423 11.0775 14.1969 10.5778 13.6619C10.1826 13.2388 10.0062 12.7904 10.0039 12.2038C10.0016 11.5771 10.1972 11.1024 10.6405 10.6596C10.9945 10.306 11.3956 10.0976 11.8598 10.0261C12.0526 9.9964 12.6393 10.0356 12.825 10.0906ZM22.686 15.1414C23.7694 15.2644 24.605 15.7372 25.1539 16.5378C25.4438 16.9605 25.7044 17.6056 25.8123 18.1679C25.9831 19.0576 25.9758 18.8838 25.9903 22.3535L26.0039 25.6215L25.92 25.7471C25.7619 25.984 25.762 25.984 24.2552 25.984C22.7537 25.984 22.7517 25.9837 22.5937 25.7532L22.5111 25.6327L22.5102 22.9298C22.5097 21.4432 22.4946 20.0771 22.4766 19.894C22.4152 19.2674 22.1694 18.678 21.8603 18.4157C21.5833 18.1807 21.1375 18.03 20.7154 18.0286C20.4676 18.0279 20.0653 18.1403 19.84 18.2732C19.4735 18.4896 19.1768 18.9197 19.0133 19.4715C18.9669 19.6285 18.9165 19.7946 18.9014 19.8408C18.8863 19.887 18.8655 21.2114 18.8552 22.7841C18.8367 25.605 18.8355 25.6447 18.7666 25.7361C18.7282 25.7871 18.6547 25.8599 18.6033 25.898C18.5131 25.9648 18.4625 25.9676 17.1735 25.9767C15.6652 25.9875 15.6734 25.9886 15.506 25.7378L15.4158 25.6029V20.6321V15.6614L15.4937 15.5372C15.5366 15.4689 15.6222 15.382 15.684 15.3442C15.7923 15.2779 15.8446 15.2754 17.123 15.2754C18.361 15.2754 18.4581 15.2796 18.5753 15.3393C18.7929 15.45 18.8341 15.562 18.8534 16.0956L18.8703 16.5634L18.9679 16.4169C19.1037 16.2132 19.4971 15.8359 19.7232 15.6925C20.1618 15.4144 20.7596 15.2103 21.326 15.1453C21.6852 15.1041 22.3411 15.1022 22.686 15.1414ZM13.6587 15.3614C13.7101 15.3994 13.7836 15.4723 13.822 15.5233C13.8918 15.6159 13.8918 15.6183 13.8918 20.6264V25.6368L13.7942 25.7636C13.6255 25.9828 13.6164 25.9841 12.1911 25.9835C10.9295 25.9829 10.9096 25.9819 10.7792 25.9079C10.7064 25.8667 10.615 25.7903 10.576 25.7382L10.5051 25.6434L10.4953 20.7196C10.49 18.0114 10.4944 15.747 10.5052 15.6876C10.5294 15.5532 10.6716 15.3817 10.8082 15.322C10.89 15.2862 11.1868 15.2784 12.2383 15.2845C13.5193 15.2919 13.5684 15.2945 13.6587 15.3614Z" fill="white"/>
</svg>
