<svg width="18" height="22" viewBox="0 0 18 22" fill="none" xmlns="http://www.w3.org/2000/svg">
<path d="M9.19844 12.225C10.8139 12.225 12.1234 10.9154 12.1234 9.3C12.1234 7.68457 10.8139 6.375 9.19844 6.375C7.583 6.375 6.27344 7.68457 6.27344 9.3C6.27344 10.9154 7.583 12.225 9.19844 12.225Z" stroke="#2F69FF" stroke-width="1.2" stroke-linecap="round" stroke-linejoin="round"/>
<path d="M9.19844 1.5C7.12975 1.5 5.14579 2.32178 3.683 3.78457C2.22022 5.24735 1.39844 7.23131 1.39844 9.3C1.39844 11.1447 1.79039 12.3518 2.86094 13.6875L9.19844 21L15.5359 13.6875C16.6065 12.3518 16.9984 11.1447 16.9984 9.3C16.9984 7.23131 16.1767 5.24735 14.7139 3.78457C13.2511 2.32178 11.2671 1.5 9.19844 1.5V1.5Z" stroke="#2F69FF" stroke-width="1.2" stroke-linecap="round" stroke-linejoin="round"/>
</svg>
