<svg width="12" height="14" viewBox="0 0 12 14" fill="none" xmlns="http://www.w3.org/2000/svg">
<path d="M5.8 7.6C6.79411 7.6 7.6 6.79411 7.6 5.8C7.6 4.80589 6.79411 4 5.8 4C4.80589 4 4 4.80589 4 5.8C4 6.79411 4.80589 7.6 5.8 7.6Z" stroke="#646465" stroke-linecap="round" stroke-linejoin="round"/>
<path d="M5.8 1C4.52696 1 3.30606 1.50571 2.40589 2.40589C1.50571 3.30606 1 4.52696 1 5.8C1 6.9352 1.2412 7.678 1.9 8.5L5.8 13L9.7 8.5C10.3588 7.678 10.6 6.9352 10.6 5.8C10.6 4.52696 10.0943 3.30606 9.19411 2.40589C8.29394 1.50571 7.07304 1 5.8 1V1Z" stroke="#646465" stroke-linecap="round" stroke-linejoin="round"/>
</svg>
