<svg width="130" height="44" viewBox="0 0 130 44" fill="none" xmlns="http://www.w3.org/2000/svg">
<path d="M43.6493 32.9349V6.64469C43.6486 4.89979 42.9582 3.22658 41.7298 1.99299C40.5014 0.759392 38.8356 0.0664061 37.0987 0.0664063H10.9141L43.6493 32.9349Z" fill="url(#paint0_linear_189_6760)"/>
<path d="M43.6493 11.0225V37.3127C43.6486 39.0576 42.9582 40.7308 41.7298 41.9644C40.5014 43.198 38.8356 43.891 37.0987 43.891H10.9141L43.6493 11.0225Z" fill="url(#paint1_linear_189_6760)"/>
<path d="M0 11.0222V37.3125C0.000332073 38.1767 0.170096 39.0324 0.4996 39.8307C0.829105 40.6289 1.3119 41.3542 1.92041 41.9651C2.52892 42.5759 3.25124 43.0604 4.04612 43.3908C4.841 43.7212 5.69288 43.8911 6.55311 43.8908H32.7428L0 11.0222Z" fill="url(#paint2_linear_189_6760)"/>
<path d="M0 32.9349V6.64469C0.000332073 5.78048 0.170096 4.9248 0.4996 4.12651C0.829105 3.32821 1.3119 2.60294 1.92041 1.99209C2.52892 1.38124 3.25124 0.896778 4.04612 0.56637C4.841 0.235961 5.69288 0.066073 6.55311 0.0664067H10.9134L21.8243 11.0226L0 32.9349Z" fill="url(#paint3_linear_189_6760)"/>
<path d="M69.9224 8.13074C71.3052 8.10807 72.676 8.39236 73.9369 8.96334C75.1978 9.53432 76.3176 10.3779 77.2165 11.4339C79.1741 13.6359 80.1529 16.3818 80.1529 19.6713C80.1529 22.9609 79.1741 25.7076 77.2165 27.9113C76.3191 28.9703 75.2 29.817 73.939 30.3911C72.6781 30.9651 71.3066 31.2524 69.9224 31.2322C67.2785 31.2322 65.2164 30.3573 63.736 28.6075V30.6224H56.5V0H63.7183V10.7555C65.2232 9.00988 67.2667 8.13074 69.9224 8.13074ZM65.0006 23.1218C65.8981 23.9642 67.0805 24.4327 68.3088 24.4327C69.537 24.4327 70.7194 23.9642 71.6169 23.1218C72.047 22.66 72.3805 22.1163 72.5977 21.5227C72.815 20.9292 72.9114 20.2979 72.8815 19.6662C72.9103 19.0355 72.8133 18.4052 72.5961 17.8127C72.379 17.2201 72.046 16.6772 71.6169 16.2158C70.7194 15.3734 69.537 14.9048 68.3088 14.9048C67.0805 14.9048 65.8981 15.3734 65.0006 16.2158C64.5716 16.6772 64.2387 17.2202 64.0216 17.8128C63.8044 18.4053 63.7073 19.0355 63.736 19.6662C63.7079 20.2977 63.8053 20.9285 64.0224 21.5218C64.2395 22.1151 64.572 22.659 65.0006 23.1218Z" fill="#292931"/>
<path d="M97.0779 8.75586H104.319V30.6072H97.0779V28.4221C95.7728 30.2972 93.7554 31.2357 91.0256 31.2374C89.9469 31.271 88.8736 31.0716 87.8783 30.6525C86.883 30.2334 85.9889 29.6045 85.2565 28.8083C83.7626 27.1889 83.0156 24.8649 83.0156 21.8362V8.75586H90.244V20.9062C90.2086 21.3758 90.2695 21.8477 90.4231 22.2927C90.5767 22.7376 90.8196 23.1461 91.1368 23.4928C91.4559 23.7884 91.8297 24.0181 92.237 24.1687C92.6415 24.3173 93.0714 24.3838 93.5016 24.3643C93.9876 24.3933 94.4742 24.3177 94.9287 24.1424C95.3832 23.9671 95.7952 23.6962 96.137 23.348C96.8076 22.5173 97.1409 21.4627 97.0703 20.3955L97.0779 8.75586Z" fill="#292931"/>
<path d="M129.998 30.6072H121.904L115.703 21.2975V30.6072H108.484V0H115.713V17.8826L121.328 8.73547H129.692L122.377 19.6612L129.998 30.6072Z" fill="#292931"/>
<g opacity="0.75">
<path opacity="0.75" d="M56.6937 38.0068H60.3256V38.6471H57.3817V40.4664H60.1309V41.1067H57.3817V43.1699H60.4774V43.8203H56.6836L56.6937 38.0068Z" fill="#292931"/>
<path opacity="0.75" d="M64.1549 38.0068H64.7973L67.2557 43.8254H66.4564L65.8747 42.4H62.9788L62.3819 43.8203H61.6055L64.1549 38.0068ZM64.466 38.8936L63.2646 41.7444H65.6218L64.466 38.8936Z" fill="#292931"/>
<path opacity="0.75" d="M71.4972 39.0303C71.3917 38.8497 71.2312 38.7081 71.0394 38.6263C70.8521 38.5402 70.6485 38.496 70.4425 38.4967C70.2923 38.4971 70.1427 38.5167 69.9974 38.5551C69.8565 38.5904 69.7223 38.6488 69.6003 38.7279C69.4839 38.8045 69.3876 38.9082 69.3196 39.0303C69.2466 39.1659 69.21 39.3182 69.2133 39.4724C69.2107 39.5913 69.2313 39.7096 69.274 39.8205C69.3178 39.9274 69.3863 40.0224 69.4738 40.0974C69.5874 40.1915 69.7145 40.2677 69.8507 40.3236C70.0385 40.4076 70.2311 40.4806 70.4274 40.5421C70.6525 40.6107 70.87 40.6869 71.0799 40.7682C71.2782 40.8441 71.4641 40.9494 71.6312 41.0807C71.7947 41.2063 71.9271 41.368 72.0182 41.5533C72.1167 41.7852 72.165 42.0355 72.1598 42.2876C72.1536 42.5393 72.095 42.7868 71.9879 43.0143C71.8746 43.2133 71.7213 43.3864 71.5377 43.5225C71.341 43.6658 71.1198 43.7717 70.8851 43.835C70.4729 43.9474 70.041 43.9665 69.6205 43.8909C69.4476 43.863 69.2781 43.817 69.1147 43.7537C68.9593 43.6883 68.8131 43.6029 68.6797 43.4996C68.5432 43.396 68.4245 43.2707 68.3281 43.1287L68.9149 42.6205C69.029 42.837 69.2052 43.014 69.4207 43.1287C69.6419 43.2346 69.8839 43.2893 70.1289 43.2887C70.2805 43.2883 70.4313 43.2661 70.5766 43.2227C70.7203 43.1843 70.8557 43.1197 70.9762 43.0321C71.0965 42.9489 71.1974 42.8406 71.2721 42.7145C71.3507 42.5844 71.391 42.4347 71.3884 42.2826C71.3952 42.1307 71.3639 41.9795 71.2974 41.843C71.2291 41.7239 71.1326 41.6236 71.0166 41.5508C70.8698 41.4573 70.7118 41.383 70.5462 41.3297L69.8785 41.1036C69.6822 41.0428 69.4911 40.9664 69.3069 40.8749C69.1387 40.7959 68.9842 40.6904 68.8491 40.5624C68.7214 40.4359 68.6192 40.2858 68.5482 40.1203C68.4717 39.9228 68.4348 39.7121 68.4394 39.5003C68.4327 39.2489 68.4892 38.9998 68.6038 38.7762C68.713 38.5766 68.864 38.4032 69.0464 38.268C69.2364 38.1289 69.4485 38.0233 69.6737 37.9555C70.2083 37.8014 70.7772 37.8174 71.3024 38.0012C71.5849 38.113 71.834 38.2959 72.0258 38.5322L71.4972 39.0303Z" fill="#292931"/>
<path opacity="0.75" d="M75.3973 41.307L73.25 38.0039H74.1226L75.7589 40.6286L77.4358 38.0039H78.2679L76.0903 41.307V43.8199H75.4074L75.3973 41.307Z" fill="#292931"/>
<path opacity="0.75" d="M82.625 38.0068H84.3954C84.6315 38.0077 84.867 38.0316 85.0985 38.078C85.3145 38.1238 85.5213 38.2054 85.7106 38.3194C85.8881 38.4316 86.037 38.5838 86.1456 38.764C86.265 38.9658 86.3247 39.1976 86.3176 39.4323C86.3273 39.7365 86.2297 40.0344 86.0419 40.2733C85.8497 40.5025 85.5918 40.6666 85.3034 40.7433C85.4793 40.7571 85.651 40.8045 85.8092 40.8831C85.9659 40.9591 86.1073 41.0633 86.2266 41.1905C86.3463 41.3174 86.44 41.4668 86.5022 41.6301C86.5684 41.8018 86.601 41.9847 86.5983 42.1688C86.6122 42.4304 86.5516 42.6905 86.4234 42.9187C86.2953 43.1469 86.1051 43.3336 85.875 43.457C85.6487 43.5815 85.4034 43.6674 85.1491 43.7111C84.8838 43.7597 84.6146 43.7844 84.3448 43.7847H82.625V38.0068ZM83.2876 40.4664H84.2336C84.3936 40.4674 84.5534 40.4555 84.7116 40.4308C84.8591 40.4125 85.0021 40.3677 85.134 40.2987C85.2567 40.23 85.3603 40.1312 85.4349 40.0116C85.5223 39.8573 85.562 39.6804 85.5487 39.5034C85.5595 39.3606 85.5287 39.2178 85.46 39.0923C85.3912 38.9669 85.2876 38.8643 85.1618 38.797C85.0372 38.7296 84.902 38.6841 84.7622 38.6624C84.6125 38.6378 84.4611 38.6259 84.3094 38.6268H83.2978L83.2876 40.4664ZM83.2876 43.1699H84.446C84.616 43.1702 84.7856 43.1523 84.9519 43.1165C85.1092 43.0831 85.2604 43.0248 85.3995 42.9437C85.5321 42.8697 85.6429 42.7619 85.7207 42.6312C85.809 42.4919 85.8523 42.3286 85.8447 42.1637C85.8511 41.9866 85.81 41.8111 85.7258 41.6555C85.6509 41.5219 85.544 41.4092 85.4147 41.3277C85.2799 41.2414 85.1295 41.1827 84.9721 41.155C84.8057 41.1208 84.6361 41.1046 84.4662 41.1067H83.2876V43.1699Z" fill="#292931"/>
<path opacity="0.75" d="M91.1841 43.9575C90.7684 43.9618 90.356 43.8842 89.9701 43.7288C89.6146 43.5816 89.2909 43.3668 89.0166 43.0961C88.7414 42.8189 88.5261 42.4876 88.3843 42.123C88.2343 41.736 88.1596 41.3237 88.1643 40.9085C88.1613 40.4917 88.2359 40.0781 88.3843 39.6888C88.5282 39.3275 88.7433 38.9991 89.0166 38.7233C89.2883 38.4488 89.6127 38.2327 89.9701 38.0881C90.7497 37.7857 91.6134 37.7857 92.3931 38.0881C92.752 38.2327 93.078 38.4488 93.3516 38.7233C93.6221 39.0004 93.8353 39.3286 93.9789 39.6888C94.1315 40.077 94.2079 40.4911 94.2039 40.9085C94.2081 41.3241 94.1317 41.7367 93.9789 42.123C93.8363 42.4861 93.6231 42.8169 93.3516 43.0961C93.075 43.3663 92.7497 43.581 92.3931 43.7288C92.009 43.8843 91.5982 43.962 91.1841 43.9575ZM91.1841 43.3172C91.5015 43.322 91.8162 43.2588 92.1073 43.1317C92.3803 43.0136 92.6265 42.8407 92.8306 42.6235C93.0363 42.4034 93.1962 42.1442 93.301 41.8613C93.5211 41.2558 93.5211 40.5916 93.301 39.9861C93.1942 39.7042 93.0345 39.4454 92.8306 39.2239C92.6166 38.9978 92.3582 38.8187 92.0719 38.6979C91.7823 38.5784 91.4719 38.518 91.1588 38.5201C90.8457 38.5223 90.5362 38.5871 90.2483 38.7106C89.9751 38.8285 89.7289 39.0015 89.525 39.2188C89.3238 39.4424 89.1645 39.7006 89.0545 39.981C88.8345 40.5865 88.8345 41.2507 89.0545 41.8562C89.1634 42.1371 89.3229 42.3955 89.525 42.6184C89.7291 42.8356 89.9752 43.0085 90.2483 43.1266C90.54 43.2591 90.8564 43.3275 91.1765 43.3273L91.1841 43.3172Z" fill="#292931"/>
<path opacity="0.75" d="M98.727 43.9575C98.313 43.9618 97.9022 43.8841 97.5181 43.7288C97.1614 43.581 96.8361 43.3663 96.5595 43.0961C96.2889 42.8162 96.0758 42.4856 95.9323 42.123C95.7795 41.7367 95.703 41.3241 95.7072 40.9085C95.7045 40.4912 95.7808 40.0773 95.9323 39.6888C96.0759 39.3286 96.2891 39.0004 96.5595 38.7233C96.8331 38.4488 97.1592 38.2327 97.5181 38.0881C98.2977 37.7857 99.1614 37.7857 99.941 38.0881C100.299 38.2336 100.624 38.4505 100.897 38.7256C101.169 39.0007 101.384 39.3283 101.527 39.6888C101.679 40.0771 101.754 40.4913 101.749 40.9085C101.754 41.324 101.679 41.7365 101.527 42.123C101.385 42.4876 101.17 42.8189 100.895 43.0961C100.62 43.3668 100.297 43.5816 99.941 43.7288C99.5553 43.8846 99.1428 43.9623 98.727 43.9575ZM98.727 43.3172C99.046 43.3223 99.3625 43.2591 99.6552 43.1317C99.9283 43.0136 100.174 42.8407 100.379 42.6235C100.582 42.4013 100.741 42.1427 100.849 41.8613C101.071 41.2562 101.071 40.5912 100.849 39.9861C100.739 39.7057 100.58 39.4475 100.379 39.2239C100.175 39.0065 99.9284 38.8336 99.6552 38.7157C99.3631 38.5883 99.048 38.5225 98.7296 38.5225C98.4111 38.5225 98.096 38.5883 97.8039 38.7157C97.5318 38.8343 97.2866 39.0071 97.0831 39.2239C96.8776 39.4446 96.7169 39.7036 96.6101 39.9861C96.3901 40.5916 96.3901 41.2558 96.6101 41.8613C96.7149 42.1449 96.8758 42.4042 97.0831 42.6235C97.2858 42.8412 97.5312 43.0142 97.8039 43.1317C98.095 43.2592 98.4095 43.3241 98.727 43.3223V43.3172Z" fill="#292931"/>
<path opacity="0.75" d="M103.589 38.0063H104.27V40.5166H104.371L106.998 37.9961H108.01L105.152 40.6411L108.154 43.8197H107.143L104.348 40.8673H104.247V43.8197H103.566L103.589 38.0063Z" fill="#292931"/>
<path opacity="0.75" d="M109.465 38.0068H110.15V43.8203H109.465V38.0068Z" fill="#292931"/>
<path opacity="0.75" d="M112.32 38.0068H113.185L116.531 42.8192V38.0068H117.214V43.8203H116.397L113.051 38.9927V43.8203H112.368L112.32 38.0068Z" fill="#292931"/>
<path opacity="0.75" d="M124.324 43.4186C123.998 43.5993 123.649 43.7343 123.287 43.8201C122.922 43.9085 122.547 43.9529 122.172 43.9522C121.747 43.9579 121.325 43.8829 120.927 43.7311C120.566 43.5917 120.235 43.3809 119.956 43.1112C119.677 42.8373 119.458 42.5075 119.314 42.1431C119.159 41.7484 119.082 41.3274 119.086 40.9031C119.081 40.4755 119.162 40.0512 119.324 39.6556C119.478 39.2927 119.705 38.9651 119.989 38.6926C120.285 38.4247 120.628 38.2145 121.001 38.0726C121.388 37.9252 121.8 37.852 122.215 37.8567C122.588 37.8548 122.959 37.9122 123.315 38.0269C123.672 38.1445 123.995 38.3467 124.258 38.6164L123.752 39.155C123.555 38.9339 123.31 38.7602 123.037 38.6469C122.764 38.5319 122.472 38.4723 122.177 38.4715C121.86 38.469 121.546 38.5303 121.254 38.6519C120.976 38.7714 120.724 38.944 120.513 39.1601C120.301 39.3792 120.135 39.6383 120.024 39.9224C119.792 40.5422 119.792 41.226 120.024 41.8458C120.138 42.1326 120.31 42.3923 120.53 42.6081C120.743 42.8312 121.002 43.0047 121.289 43.1162C121.599 43.2393 121.93 43.3006 122.263 43.2966C122.51 43.2972 122.756 43.2682 122.996 43.2103C123.24 43.1563 123.475 43.0709 123.697 42.9562V41.1776H122.369V40.5678H124.375L124.324 43.4186Z" fill="#292931"/>
<path opacity="0.75" d="M129.235 39.0305C129.132 38.8496 128.972 38.7077 128.78 38.6265C128.593 38.5407 128.389 38.4965 128.183 38.4969C128.032 38.4971 127.882 38.5168 127.736 38.5553C127.592 38.5933 127.456 38.6551 127.334 38.7383C127.211 38.8181 127.11 38.9288 127.043 39.0593C126.976 39.1899 126.943 39.3358 126.949 39.4828C126.947 39.6014 126.967 39.7195 127.007 39.8309C127.053 39.9374 127.122 40.0322 127.21 40.1078C127.323 40.2018 127.45 40.2781 127.586 40.3339C127.774 40.4184 127.967 40.4914 128.163 40.5525C128.388 40.6211 128.603 40.6973 128.816 40.7786C129.014 40.855 129.199 40.9603 129.367 41.0911C129.53 41.2175 129.662 41.379 129.754 41.5637C129.851 41.7958 129.898 42.0458 129.893 42.2975C129.888 42.5491 129.83 42.7969 129.724 43.0247C129.61 43.2243 129.456 43.3975 129.271 43.5329C129.074 43.6661 128.854 43.7633 128.623 43.82C128.211 43.9324 127.779 43.9515 127.359 43.8759C127.186 43.8482 127.016 43.8022 126.853 43.7387C126.698 43.6717 126.551 43.5865 126.415 43.4846C126.279 43.3815 126.161 43.2561 126.066 43.1136L126.653 42.6055C126.773 42.8249 126.956 43.0022 127.179 43.1136C127.401 43.2186 127.643 43.2733 127.887 43.2737C128.038 43.2733 128.188 43.2511 128.333 43.2077C128.477 43.1699 128.614 43.1052 128.735 43.0171C128.854 42.9326 128.955 42.8245 129.031 42.6995C129.109 42.5685 129.149 42.4179 129.147 42.265C129.152 42.1141 129.121 41.9641 129.056 41.828C128.987 41.7114 128.892 41.6116 128.78 41.5358C128.621 41.4418 128.451 41.3675 128.274 41.3147L127.609 41.0886C127.412 41.0278 127.22 40.9514 127.035 40.8599C126.868 40.7829 126.716 40.6771 126.585 40.5474C126.453 40.4229 126.349 40.2724 126.279 40.1053C126.202 39.9079 126.164 39.6973 126.168 39.4853C126.175 39.2334 126.246 38.9876 126.375 38.7713C126.482 38.5708 126.632 38.3971 126.815 38.2631C127.005 38.1241 127.217 38.0184 127.442 37.9506C127.978 37.7965 128.548 37.8125 129.074 37.9964C129.354 38.1088 129.602 38.2906 129.794 38.5249L129.235 39.0305Z" fill="#292931"/>
</g>
<defs>
<linearGradient id="paint0_linear_189_6760" x1="27.2804" y1="32.9349" x2="27.2804" y2="0.0664062" gradientUnits="userSpaceOnUse">
<stop stop-color="#A736E7"/>
<stop offset="1" stop-color="#5500E7"/>
</linearGradient>
<linearGradient id="paint1_linear_189_6760" x1="44.4966" y1="11.5128" x2="21.999" y2="50.3186" gradientUnits="userSpaceOnUse">
<stop stop-color="#A4DC66"/>
<stop offset="1" stop-color="#43DC66"/>
</linearGradient>
<linearGradient id="paint2_linear_189_6760" x1="19.3609" y1="22.2477" x2="6.30397" y2="44.7661" gradientUnits="userSpaceOnUse">
<stop stop-color="#05F3FF"/>
<stop offset="1" stop-color="#0068FF"/>
</linearGradient>
<linearGradient id="paint3_linear_189_6760" x1="14.3101" y1="2.03557" x2="-2.6942" y2="31.3731" gradientUnits="userSpaceOnUse">
<stop stop-color="#A4DC66"/>
<stop offset="1" stop-color="#43DC66"/>
</linearGradient>
</defs>
</svg>
