<svg width="4" height="19" viewBox="0 0 4 19" fill="none" xmlns="http://www.w3.org/2000/svg">
<path d="M2 3.8C3.10457 3.8 4 2.94934 4 1.9C4 0.850659 3.10457 0 2 0C0.89543 0 0 0.850659 0 1.9C0 2.94934 0.89543 3.8 2 3.8Z" fill="#292931"/>
<path d="M2 11.4C3.10457 11.4 4 10.5493 4 9.5C4 8.45066 3.10457 7.6 2 7.6C0.89543 7.6 0 8.45066 0 9.5C0 10.5493 0.89543 11.4 2 11.4Z" fill="#292931"/>
<path d="M2 19C3.10457 19 4 18.1493 4 17.1C4 16.0507 3.10457 15.2 2 15.2C0.89543 15.2 0 16.0507 0 17.1C0 18.1493 0.89543 19 2 19Z" fill="#292931"/>
</svg>
