<svg width="23" height="21" viewBox="0 0 23 21" fill="none" xmlns="http://www.w3.org/2000/svg">
<path d="M20.4813 0.370117H3.2587C1.96211 0.370117 0.910156 1.35632 0.910156 2.57188V18.7181C0.910156 19.9337 1.96211 20.9199 3.2587 20.9199H20.4813C21.7779 20.9199 22.8299 19.9337 22.8299 18.7181V2.57188C22.8299 1.35632 21.7779 0.370117 20.4813 0.370117ZM12.6529 13.5807H10.3043V15.7824C10.3043 16.1861 9.95204 16.5163 9.52148 16.5163H7.95578C7.52522 16.5163 7.17294 16.1861 7.17294 15.7824V5.50755C7.17294 5.1039 7.52522 4.77363 7.95578 4.77363H12.6529C15.2412 4.77363 17.35 6.75063 17.35 9.17715C17.35 11.6037 15.2412 13.5807 12.6529 13.5807ZM12.6529 7.70931H10.3043V10.645H12.6529C13.514 10.645 14.2186 9.98446 14.2186 9.17715C14.2186 8.36984 13.514 7.70931 12.6529 7.70931Z" fill="url(#paint0_linear_747_37464)"/>
<defs>
<linearGradient id="paint0_linear_747_37464" x1="22.8299" y1="20.9199" x2="-0.909456" y2="18.5429" gradientUnits="userSpaceOnUse">
<stop stop-color="#383838"/>
<stop offset="1" stop-color="#8264F9"/>
</linearGradient>
</defs>
</svg>
