<svg width="17" height="13" viewBox="0 0 17 13" fill="none" xmlns="http://www.w3.org/2000/svg">
<path d="M13.4864 6.68415C13.904 6.05685 14.155 5.27626 14.155 4.42807C14.155 2.37073 12.695 0.697266 10.9003 0.697266C9.98661 0.697266 9.16101 1.13251 8.56935 1.83013C7.9629 1.28872 7.2033 0.962706 6.37749 0.962706C4.40301 0.962706 2.79639 2.80702 2.79639 5.0742C2.79639 6.07311 3.10881 6.9894 3.62679 7.70271C2.01897 8.4711 0.939453 9.85674 0.939453 11.4404C0.939453 11.5249 0.946485 11.6081 0.954102 11.6914L0.989727 12.1037H12.0306L12.066 11.6938C12.0736 11.6096 12.0807 11.526 12.0807 11.4404C12.0807 11.2145 12.052 10.9942 12.0098 10.7774H16.0112L16.0461 10.3721C16.0531 10.2958 16.0596 10.2192 16.0596 10.1415C16.0595 8.65859 15.02 7.36544 13.4864 6.68399L13.4864 6.68415ZM10.9005 1.49296C12.2565 1.49296 13.3593 2.80957 13.3593 4.42804C13.3593 6.04618 12.2564 7.36288 10.9005 7.36288C10.4148 7.36288 9.96288 7.19166 9.58119 6.90033C9.82061 6.34932 9.95865 5.73034 9.95865 5.07397C9.95865 4.06393 9.63849 3.13933 9.1101 2.42272C9.55881 1.85203 10.1945 1.49296 10.9005 1.49296ZM9.23328 7.62585C9.21945 7.61976 9.20656 7.61261 9.19285 7.60652C9.19414 7.60453 9.19555 7.6023 9.19684 7.60043C9.20879 7.6091 9.22098 7.61742 9.23328 7.62585H9.23328ZM3.59208 5.074C3.59208 3.24586 4.84152 1.7584 6.3774 1.7584C7.91325 1.7584 9.16272 3.24586 9.16272 5.074C9.16272 6.90234 7.91328 8.38989 6.3774 8.38989C4.84143 8.38989 3.59208 6.90243 3.59208 5.074ZM1.73853 11.3077C1.80123 10.0221 2.77353 8.91015 4.18413 8.31696C4.79094 8.85907 5.55078 9.18555 6.37752 9.18555C7.24188 9.18555 8.03571 8.83188 8.6553 8.2443C10.1633 8.81607 11.2163 9.96801 11.2816 11.3079L1.73853 11.3077ZM11.7552 9.98137C11.3937 9.18157 10.7464 8.48935 9.90717 7.97968C10.2205 8.09511 10.5538 8.15862 10.9001 8.15862C11.6785 8.15862 12.3933 7.84314 12.9539 7.31874C14.2639 7.82277 15.1806 8.82039 15.2581 9.98136L11.7552 9.98137Z" fill="#2F69FF"/>
</svg>
