<svg width="165" height="104" viewBox="0 0 165 104" fill="none" xmlns="http://www.w3.org/2000/svg">
<path opacity="0.4" d="M1.68435 99.2627C0.966047 98.1898 0.449883 96.9701 0.19034 95.6581L0.680835 95.5611C0.562252 94.9617 0.5 94.3416 0.5 93.7065V91.6139H0V87.4285H0.5V83.2432H0V79.0579H0.5V74.8726H0V70.6872H0.5V66.5019H0V62.3166H0.5V58.1312H0V53.9459H0.5V49.7606H0V45.5753H0.5V41.3899H0V37.2046H0.5V33.0193H0V28.834H0.5V24.6486H0V20.4633H0.5V16.278H0V12.0927H0.5V10C0.5 9.3649 0.562251 8.74483 0.680834 8.14541L0.19034 8.04838C0.449883 6.73643 0.966046 5.51676 1.68435 4.44384L2.09983 4.722C2.79355 3.6858 3.6858 2.79355 4.722 2.09983L4.44384 1.68435C5.51676 0.966046 6.73643 0.449883 8.04838 0.190341L8.14541 0.680834C8.74483 0.562252 9.3649 0.5 10 0.5H12.007V0H16.0209V0.5H20.0348V0H24.0487V0.5H28.0625V0H32.0764V0.5H36.0903V0H40.1042V0.5H44.1181V0H48.132V0.5H52.1459V0H56.1597V0.5H60.1736V0H64.1875V0.5H68.2014V0H72.2153V0.5H76.2292V0H80.2431V0.5H84.2569V0H88.2708V0.5H92.2847V0H96.2986V0.5H100.312V0H104.326V0.5H108.34V0H112.354V0.5H116.368V0H120.382V0.5H124.396V0H128.41V0.5H132.424V0H136.438V0.5H140.451V0H144.465V0.5H148.479V0H152.493V0.5H154.5C155.135 0.5 155.755 0.562252 156.355 0.680835L156.452 0.190341C157.764 0.449884 158.983 0.966048 160.056 1.68435L159.778 2.09983C160.814 2.79355 161.706 3.6858 162.4 4.722L162.816 4.44384C163.534 5.51676 164.05 6.73643 164.31 8.04838L163.819 8.14541C163.938 8.74483 164 9.3649 164 10V12.0927H164.5V16.278H164V20.4633H164.5V24.6486H164V28.834H164.5V33.0193H164V37.2046H164.5V41.3899H164V45.5753H164.5V49.7606H164V53.9459H164.5V58.1312H164V62.3166H164.5V66.5019H164V70.6872H164.5V74.8726H164V79.0579H164.5V83.2432H164V87.4285H164.5V91.6139H164V93.7065C164 94.3416 163.938 94.9617 163.819 95.5611L164.31 95.6581C164.05 96.9701 163.534 98.1898 162.816 99.2627L162.4 98.9845C161.706 100.021 160.814 100.913 159.778 101.607L160.056 102.022C158.983 102.74 157.764 103.257 156.452 103.516L156.355 103.026C155.755 103.144 155.135 103.207 154.5 103.207H152.493V103.707H148.479V103.207H144.465V103.707H140.451V103.207H136.437V103.707H132.424V103.207H128.41V103.707H124.396V103.207H120.382V103.707H116.368V103.207H112.354V103.707H108.34V103.207H104.326V103.707H100.312V103.207H96.2986V103.707H92.2847V103.207H88.2708V103.707H84.257V103.207H80.2431V103.707H76.2292V103.207H72.2153V103.707H68.2014V103.207H64.1875V103.707H60.1736V103.207H56.1597V103.707H52.1458V103.207H48.132V103.707H44.1181V103.207H40.1042V103.707H36.0903V103.207H32.0764V103.707H28.0625V103.207H24.0486V103.707H20.0347V103.207H16.0208V103.707H12.0069V103.207H10C9.3649 103.207 8.74484 103.144 8.14542 103.026L8.04839 103.516C6.73644 103.257 5.51676 102.74 4.44385 102.022L4.72201 101.607C3.6858 100.913 2.79355 100.021 2.09983 98.9845L1.68435 99.2627Z" stroke="#292931" stroke-dasharray="4 4"/>
<g opacity="0.4">
<path d="M50.564 69.144C49.948 69.144 49.412 69.032 48.956 68.808C48.5 68.584 48.148 68.272 47.9 67.872C47.652 67.472 47.528 67.008 47.528 66.48H48.584C48.584 66.808 48.66 67.112 48.812 67.392C48.964 67.664 49.184 67.884 49.472 68.052C49.768 68.212 50.132 68.292 50.564 68.292C51.132 68.292 51.572 68.156 51.884 67.884C52.196 67.612 52.352 67.272 52.352 66.864C52.352 66.528 52.28 66.26 52.136 66.06C51.992 65.852 51.796 65.684 51.548 65.556C51.308 65.428 51.028 65.316 50.708 65.22C50.396 65.124 50.068 65.016 49.724 64.896C49.076 64.672 48.596 64.396 48.284 64.068C47.972 63.732 47.816 63.296 47.816 62.76C47.808 62.312 47.912 61.916 48.128 61.572C48.344 61.22 48.648 60.948 49.04 60.756C49.44 60.556 49.912 60.456 50.456 60.456C50.992 60.456 51.456 60.556 51.848 60.756C52.248 60.956 52.556 61.232 52.772 61.584C52.996 61.936 53.112 62.336 53.12 62.784H52.064C52.064 62.552 52.004 62.324 51.884 62.1C51.764 61.868 51.58 61.68 51.332 61.536C51.092 61.392 50.788 61.32 50.42 61.32C49.964 61.312 49.588 61.428 49.292 61.668C49.004 61.908 48.86 62.24 48.86 62.664C48.86 63.024 48.96 63.3 49.16 63.492C49.368 63.684 49.656 63.844 50.024 63.972C50.392 64.092 50.816 64.232 51.296 64.392C51.696 64.536 52.056 64.704 52.376 64.896C52.696 65.088 52.944 65.336 53.12 65.64C53.304 65.944 53.396 66.332 53.396 66.804C53.396 67.204 53.292 67.584 53.084 67.944C52.876 68.296 52.56 68.584 52.136 68.808C51.72 69.032 51.196 69.144 50.564 69.144ZM57.5015 69.144C56.9335 69.144 56.4215 69.016 55.9655 68.76C55.5175 68.496 55.1615 68.132 54.8975 67.668C54.6415 67.196 54.5135 66.648 54.5135 66.024C54.5135 65.4 54.6415 64.856 54.8975 64.392C55.1615 63.92 55.5175 63.556 55.9655 63.3C56.4215 63.036 56.9335 62.904 57.5015 62.904C58.2055 62.904 58.7975 63.088 59.2775 63.456C59.7655 63.824 60.0735 64.316 60.2015 64.932H59.1695C59.0895 64.564 58.8935 64.28 58.5815 64.08C58.2695 63.872 57.9055 63.768 57.4895 63.768C57.1535 63.768 56.8375 63.852 56.5415 64.02C56.2455 64.188 56.0055 64.44 55.8215 64.776C55.6375 65.112 55.5455 65.528 55.5455 66.024C55.5455 66.52 55.6375 66.936 55.8215 67.272C56.0055 67.608 56.2455 67.864 56.5415 68.04C56.8375 68.208 57.1535 68.292 57.4895 68.292C57.9055 68.292 58.2695 68.192 58.5815 67.992C58.8935 67.784 59.0895 67.492 59.1695 67.116H60.2015C60.0815 67.716 59.7775 68.204 59.2895 68.58C58.8015 68.956 58.2055 69.144 57.5015 69.144ZM63.5893 69.144C63.0933 69.144 62.6813 69.06 62.3533 68.892C62.0253 68.724 61.7813 68.5 61.6213 68.22C61.4613 67.94 61.3813 67.636 61.3813 67.308C61.3813 66.7 61.6133 66.232 62.0773 65.904C62.5413 65.576 63.1733 65.412 63.9733 65.412H65.5813V65.34C65.5813 64.82 65.4453 64.428 65.1733 64.164C64.9013 63.892 64.5373 63.756 64.0813 63.756C63.6893 63.756 63.3493 63.856 63.0613 64.056C62.7813 64.248 62.6053 64.532 62.5333 64.908H61.5013C61.5413 64.476 61.6853 64.112 61.9333 63.816C62.1893 63.52 62.5053 63.296 62.8813 63.144C63.2573 62.984 63.6573 62.904 64.0813 62.904C64.9133 62.904 65.5373 63.128 65.9533 63.576C66.3773 64.016 66.5893 64.604 66.5893 65.34V69H65.6893L65.6293 67.932C65.4613 68.268 65.2133 68.556 64.8853 68.796C64.5653 69.028 64.1333 69.144 63.5893 69.144ZM63.7453 68.292C64.1293 68.292 64.4573 68.192 64.7293 67.992C65.0093 67.792 65.2213 67.532 65.3653 67.212C65.5093 66.892 65.5813 66.556 65.5813 66.204V66.192H64.0573C63.4653 66.192 63.0453 66.296 62.7973 66.504C62.5573 66.704 62.4373 66.956 62.4373 67.26C62.4373 67.572 62.5493 67.824 62.7733 68.016C63.0053 68.2 63.3293 68.292 63.7453 68.292ZM68.1014 69V63.048H69.0134L69.0734 64.116C69.2654 63.74 69.5414 63.444 69.9014 63.228C70.2614 63.012 70.6694 62.904 71.1254 62.904C71.8294 62.904 72.3894 63.12 72.8054 63.552C73.2294 63.976 73.4414 64.632 73.4414 65.52V69H72.4334V65.628C72.4334 64.388 71.9214 63.768 70.8974 63.768C70.3854 63.768 69.9574 63.956 69.6134 64.332C69.2774 64.7 69.1094 65.228 69.1094 65.916V69H68.1014ZM78.7924 71.64L80.2684 68.424H79.9204L77.5564 63.048H78.6484L80.6164 67.68L82.7044 63.048H83.7484L79.8484 71.64H78.7924ZM86.9619 69.144C86.4019 69.144 85.8979 69.016 85.4499 68.76C85.0019 68.504 84.6459 68.144 84.3819 67.68C84.1259 67.208 83.9979 66.656 83.9979 66.024C83.9979 65.392 84.1299 64.844 84.3939 64.38C84.6579 63.908 85.0139 63.544 85.4619 63.288C85.9179 63.032 86.4259 62.904 86.9859 62.904C87.5459 62.904 88.0499 63.032 88.4979 63.288C88.9459 63.544 89.2979 63.908 89.5539 64.38C89.8179 64.844 89.9499 65.392 89.9499 66.024C89.9499 66.656 89.8179 67.208 89.5539 67.68C89.2899 68.144 88.9299 68.504 88.4739 68.76C88.0259 69.016 87.5219 69.144 86.9619 69.144ZM86.9619 68.28C87.3059 68.28 87.6259 68.196 87.9219 68.028C88.2179 67.86 88.4579 67.608 88.6419 67.272C88.8259 66.936 88.9179 66.52 88.9179 66.024C88.9179 65.528 88.8259 65.112 88.6419 64.776C88.4659 64.44 88.2299 64.188 87.9339 64.02C87.6379 63.852 87.3219 63.768 86.9859 63.768C86.6419 63.768 86.3219 63.852 86.0259 64.02C85.7299 64.188 85.4899 64.44 85.3059 64.776C85.1219 65.112 85.0299 65.528 85.0299 66.024C85.0299 66.52 85.1219 66.936 85.3059 67.272C85.4899 67.608 85.7259 67.86 86.0139 68.028C86.3099 68.196 86.6259 68.28 86.9619 68.28ZM93.5234 69.144C92.8194 69.144 92.2594 68.932 91.8434 68.508C91.4274 68.076 91.2194 67.416 91.2194 66.528V63.048H92.2274V66.42C92.2274 67.66 92.7354 68.28 93.7514 68.28C94.2714 68.28 94.6994 68.096 95.0354 67.728C95.3794 67.352 95.5514 66.82 95.5514 66.132V63.048H96.5594V69H95.6474L95.5754 67.932C95.3914 68.308 95.1154 68.604 94.7474 68.82C94.3874 69.036 93.9794 69.144 93.5234 69.144ZM98.2186 69V63.048H99.1306L99.2146 64.188C99.3986 63.796 99.6786 63.484 100.055 63.252C100.431 63.02 100.895 62.904 101.447 62.904V63.96H101.171C100.819 63.96 100.495 64.024 100.199 64.152C99.9026 64.272 99.6666 64.48 99.4906 64.776C99.3146 65.072 99.2266 65.48 99.2266 66V69H98.2186ZM105.814 69V60.6H106.822V69H105.814ZM108.603 69V60.6H111.183C112.663 60.6 113.751 60.976 114.447 61.728C115.151 62.48 115.503 63.512 115.503 64.824C115.503 66.112 115.151 67.132 114.447 67.884C113.751 68.628 112.663 69 111.183 69H108.603ZM109.611 68.16H111.159C111.975 68.16 112.623 68.028 113.103 67.764C113.591 67.492 113.939 67.108 114.147 66.612C114.355 66.108 114.459 65.512 114.459 64.824C114.459 64.12 114.355 63.516 114.147 63.012C113.939 62.508 113.591 62.12 113.103 61.848C112.623 61.576 111.975 61.44 111.159 61.44H109.611V68.16Z" fill="#292931"/>
<path d="M72.6 37.4H74C74.11 37.4 74.2 37.31 74.2 37.2V32.8H78.6C78.71 32.8 78.8 32.71 78.8 32.6V31.2C78.8 31.09 78.71 31 78.6 31H74.1C73.16 31 72.4 31.76 72.4 32.7V37.2C72.4 37.31 72.49 37.4 72.6 37.4ZM85.4 32.8H89.8V37.2C89.8 37.31 89.89 37.4 90 37.4H91.4C91.51 37.4 91.6 37.31 91.6 37.2V32.7C91.6 31.76 90.84 31 89.9 31H85.4C85.29 31 85.2 31.09 85.2 31.2V32.6C85.2 32.71 85.29 32.8 85.4 32.8ZM78.6 48.4H74.2V44C74.2 43.89 74.11 43.8 74 43.8H72.6C72.49 43.8 72.4 43.89 72.4 44V48.5C72.4 49.44 73.16 50.2 74.1 50.2H78.6C78.71 50.2 78.8 50.11 78.8 50V48.6C78.8 48.49 78.71 48.4 78.6 48.4ZM91.4 43.8H90C89.89 43.8 89.8 43.89 89.8 44V48.4H85.4C85.29 48.4 85.2 48.49 85.2 48.6V50C85.2 50.11 85.29 50.2 85.4 50.2H89.9C90.84 50.2 91.6 49.44 91.6 48.5V44C91.6 43.89 91.51 43.8 91.4 43.8ZM91.8 39.7H72.2C72.09 39.7 72 39.79 72 39.9V41.3C72 41.41 72.09 41.5 72.2 41.5H91.8C91.91 41.5 92 41.41 92 41.3V39.9C92 39.79 91.91 39.7 91.8 39.7Z" fill="#292931"/>
</g>
</svg>
