<svg width="16" height="19" viewBox="0 0 16 19" fill="none" xmlns="http://www.w3.org/2000/svg">
<path d="M11.1742 11.3989C12.1466 10.4544 12.75 9.13794 12.75 7.68184C12.75 4.80785 10.3995 2.47801 7.5 2.47801C4.60051 2.47801 2.25 4.80785 2.25 7.68184C2.25 9.09974 2.82211 10.3852 3.75 11.3238M1 13.3813C1.33333 13.7943 2.25 14.3725 3.25 13.3813C4.5 12.1423 5.5 12.6379 6.25 13.3813C7 14.1247 8.5 14.3725 9.5 13.3813C10.5 12.3901 11.5 12.6379 12.25 13.3813C13 14.1247 14 14.3725 15 13.3813M1 15.3638C1.33333 15.7768 2.25 16.355 3.25 15.3638C4.5 14.1248 5.5 14.6204 6.25 15.3638C7 16.1072 8.5 16.355 9.5 15.3638C10.5 14.3726 11.5 14.6204 12.25 15.3638C13 16.1072 14 16.355 15 15.3638M1 17.3462C1.33333 17.7592 2.25 18.3374 3.25 17.3462C4.5 16.1072 5.5 16.6028 6.25 17.3462C7 18.0896 8.5 18.3374 9.5 17.3462C10.5 16.355 11.5 16.6028 12.25 17.3462C13 18.0896 14 18.3374 15 17.3462M1.75 10.4077H0M13.25 10.4077H15M7.5 1.48681V0M1.75 4.95603L0.5 4.46042M13.25 4.95603L14.5 4.46042" stroke="#A179F5"/>
</svg>
