<svg width="71" height="20" viewBox="0 0 71 20" fill="none" xmlns="http://www.w3.org/2000/svg">
<rect x="0.5" y="0.5" width="70" height="19" rx="9.5" stroke="#7E7E7E"/>
<path d="M10.4547 14.12C9.96135 14.12 9.53469 14.0333 9.17469 13.86C8.81469 13.68 8.52802 13.4367 8.31469 13.13C8.10802 12.8167 7.98135 12.4633 7.93469 12.07H8.97469C9.04135 12.4033 9.20802 12.68 9.47469 12.9C9.74135 13.1133 10.0714 13.22 10.4647 13.22C10.758 13.22 11.0114 13.15 11.2247 13.01C11.438 12.8633 11.6047 12.67 11.7247 12.43C11.8447 12.19 11.9047 11.92 11.9047 11.62C11.9047 11.1467 11.7714 10.77 11.5047 10.49C11.238 10.2033 10.9014 10.06 10.4947 10.06C10.148 10.06 9.85135 10.1433 9.60469 10.31C9.35802 10.47 9.17802 10.6733 9.06469 10.92H8.05469L8.65469 7H12.4347V7.93H9.45469L9.09469 9.8C9.24802 9.62667 9.45802 9.48333 9.72469 9.37C9.99802 9.25 10.3047 9.19 10.6447 9.19C11.118 9.19 11.5247 9.3 11.8647 9.52C12.2047 9.73333 12.4647 10.0233 12.6447 10.39C12.8314 10.7567 12.9247 11.1633 12.9247 11.61C12.9247 12.0767 12.8247 12.5 12.6247 12.88C12.4247 13.26 12.138 13.5633 11.7647 13.79C11.398 14.01 10.9614 14.12 10.4547 14.12ZM19.0063 14.12C18.493 14.12 18.043 14.03 17.6563 13.85C17.2697 13.67 16.9663 13.4133 16.7463 13.08C16.533 12.7467 16.423 12.35 16.4163 11.89H17.5363C17.543 12.2633 17.673 12.58 17.9263 12.84C18.1797 13.1 18.5363 13.23 18.9963 13.23C19.403 13.23 19.7197 13.1333 19.9463 12.94C20.1797 12.74 20.2963 12.4867 20.2963 12.18C20.2963 11.9333 20.2397 11.7333 20.1263 11.58C20.0197 11.4267 19.8697 11.3 19.6763 11.2C19.4897 11.1 19.273 11.01 19.0263 10.93C18.7797 10.85 18.5197 10.7633 18.2463 10.67C17.7063 10.49 17.2997 10.2567 17.0263 9.97C16.7597 9.68333 16.6263 9.30667 16.6263 8.84C16.6197 8.44667 16.7097 8.10333 16.8963 7.81C17.0897 7.51667 17.3563 7.29 17.6963 7.13C18.043 6.96333 18.4463 6.88 18.9063 6.88C19.3597 6.88 19.7563 6.96333 20.0963 7.13C20.443 7.29667 20.713 7.53 20.9063 7.83C21.0997 8.12333 21.1997 8.46667 21.2063 8.86H20.0863C20.0863 8.68 20.0397 8.51 19.9463 8.35C19.853 8.18333 19.7163 8.04667 19.5363 7.94C19.3563 7.83333 19.1363 7.78 18.8763 7.78C18.543 7.77333 18.2663 7.85667 18.0463 8.03C17.833 8.20333 17.7263 8.44333 17.7263 8.75C17.7263 9.02333 17.8063 9.23333 17.9663 9.38C18.1263 9.52667 18.3463 9.65 18.6263 9.75C18.9063 9.84333 19.2263 9.95333 19.5863 10.08C19.933 10.1933 20.243 10.33 20.5163 10.49C20.7897 10.65 21.0063 10.86 21.1663 11.12C21.333 11.38 21.4163 11.71 21.4163 12.11C21.4163 12.4633 21.3263 12.7933 21.1463 13.1C20.9663 13.4 20.6963 13.6467 20.3363 13.84C19.9763 14.0267 19.533 14.12 19.0063 14.12ZM24.6152 14C24.1286 14 23.7419 13.8833 23.4552 13.65C23.1686 13.41 23.0252 12.9867 23.0252 12.38V9.93H22.1752V9.04H23.0252L23.1552 7.78H24.0852V9.04H25.4852V9.93H24.0852V12.38C24.0852 12.6533 24.1419 12.8433 24.2552 12.95C24.3752 13.05 24.5786 13.1 24.8652 13.1H25.4352V14H24.6152ZM28.2582 14.12C27.8382 14.12 27.4915 14.05 27.2182 13.91C26.9449 13.77 26.7415 13.5867 26.6082 13.36C26.4749 13.1267 26.4082 12.8733 26.4082 12.6C26.4082 12.12 26.5949 11.74 26.9682 11.46C27.3415 11.18 27.8749 11.04 28.5682 11.04H29.8682V10.95C29.8682 10.5633 29.7615 10.2733 29.5482 10.08C29.3415 9.88667 29.0715 9.79 28.7382 9.79C28.4449 9.79 28.1882 9.86333 27.9682 10.01C27.7549 10.15 27.6249 10.36 27.5782 10.64H26.5182C26.5515 10.28 26.6715 9.97333 26.8782 9.72C27.0915 9.46 27.3582 9.26333 27.6782 9.13C28.0049 8.99 28.3615 8.92 28.7482 8.92C29.4415 8.92 29.9782 9.10333 30.3582 9.47C30.7382 9.83 30.9282 10.3233 30.9282 10.95V14H30.0082L29.9182 13.15C29.7782 13.4233 29.5749 13.6533 29.3082 13.84C29.0415 14.0267 28.6915 14.12 28.2582 14.12ZM28.4682 13.26C28.7549 13.26 28.9949 13.1933 29.1882 13.06C29.3882 12.92 29.5415 12.7367 29.6482 12.51C29.7615 12.2833 29.8315 12.0333 29.8582 11.76H28.6782C28.2582 11.76 27.9582 11.8333 27.7782 11.98C27.6049 12.1267 27.5182 12.31 27.5182 12.53C27.5182 12.7567 27.6015 12.9367 27.7682 13.07C27.9415 13.1967 28.1749 13.26 28.4682 13.26ZM32.1641 14V9.04H33.1141L33.2041 9.98C33.3775 9.65333 33.6175 9.39667 33.9241 9.21C34.2375 9.01667 34.6141 8.92 35.0541 8.92V10.03H34.7641C34.4708 10.03 34.2075 10.08 33.9741 10.18C33.7475 10.2733 33.5641 10.4367 33.4241 10.67C33.2908 10.8967 33.2241 11.2133 33.2241 11.62V14H32.1641ZM38.5225 14V7H39.5825V10H42.9725V7H44.0325V14H42.9725V10.87H39.5825V14H38.5225ZM47.7361 14.12C47.2628 14.12 46.8361 14.0133 46.4561 13.8C46.0828 13.58 45.7861 13.2767 45.5661 12.89C45.3461 12.4967 45.2361 12.04 45.2361 11.52C45.2361 11 45.3461 10.5467 45.5661 10.16C45.7928 9.76667 46.0961 9.46333 46.4761 9.25C46.8561 9.03 47.2794 8.92 47.7461 8.92C48.2194 8.92 48.6428 9.03 49.0161 9.25C49.3961 9.46333 49.6961 9.76667 49.9161 10.16C50.1428 10.5467 50.2561 11 50.2561 11.52C50.2561 12.04 50.1428 12.4967 49.9161 12.89C49.6961 13.2767 49.3961 13.58 49.0161 13.8C48.6361 14.0133 48.2094 14.12 47.7361 14.12ZM47.7361 13.21C47.9894 13.21 48.2228 13.1467 48.4361 13.02C48.6561 12.8933 48.8328 12.7067 48.9661 12.46C49.0994 12.2067 49.1661 11.8933 49.1661 11.52C49.1661 11.1467 49.0994 10.8367 48.9661 10.59C48.8394 10.3367 48.6661 10.1467 48.4461 10.02C48.2328 9.89333 47.9994 9.83 47.7461 9.83C47.4928 9.83 47.2561 9.89333 47.0361 10.02C46.8228 10.1467 46.6494 10.3367 46.5161 10.59C46.3828 10.8367 46.3161 11.1467 46.3161 11.52C46.3161 11.8933 46.3828 12.2067 46.5161 12.46C46.6494 12.7067 46.8228 12.8933 47.0361 13.02C47.2494 13.1467 47.4828 13.21 47.7361 13.21ZM53.2871 14C52.8004 14 52.4138 13.8833 52.1271 13.65C51.8404 13.41 51.6971 12.9867 51.6971 12.38V9.93H50.8471V9.04H51.6971L51.8271 7.78H52.7571V9.04H54.1571V9.93H52.7571V12.38C52.7571 12.6533 52.8138 12.8433 52.9271 12.95C53.0471 13.05 53.2504 13.1 53.5371 13.1H54.1071V14H53.2871ZM57.4431 14.12C56.9565 14.12 56.5231 14.0133 56.1431 13.8C55.7698 13.58 55.4765 13.2767 55.2631 12.89C55.0498 12.5033 54.9431 12.0533 54.9431 11.54C54.9431 11.02 55.0465 10.5633 55.2531 10.17C55.4665 9.77667 55.7598 9.47 56.1331 9.25C56.5131 9.03 56.9531 8.92 57.4531 8.92C57.9398 8.92 58.3631 9.03 58.7231 9.25C59.0831 9.46333 59.3631 9.75 59.5631 10.11C59.7631 10.47 59.8631 10.8667 59.8631 11.3C59.8631 11.3667 59.8598 11.44 59.8531 11.52C59.8531 11.5933 59.8498 11.6767 59.8431 11.77H55.9831C56.0165 12.25 56.1731 12.6167 56.4531 12.87C56.7398 13.1167 57.0698 13.24 57.4431 13.24C57.7431 13.24 57.9931 13.1733 58.1931 13.04C58.3998 12.9 58.5531 12.7133 58.6531 12.48H59.7131C59.5798 12.9467 59.3131 13.3367 58.9131 13.65C58.5198 13.9633 58.0298 14.12 57.4431 14.12ZM57.4431 9.79C57.0898 9.79 56.7765 9.89667 56.5031 10.11C56.2298 10.3167 56.0631 10.63 56.0031 11.05H58.8031C58.7831 10.6633 58.6465 10.3567 58.3931 10.13C58.1398 9.90333 57.8231 9.79 57.4431 9.79ZM60.963 14V6.8H62.023V14H60.963Z" fill="#7E7E7E"/>
</svg>
