<svg width="349" height="104" viewBox="0 0 349 104" fill="none" xmlns="http://www.w3.org/2000/svg">
<path opacity="0.4" d="M1.68435 99.5562C0.966048 98.4832 0.449883 97.2636 0.19034 95.9516L0.680835 95.8546C0.562252 95.2552 0.5 94.6351 0.5 94V92.0909H0V88.2727H0.5V84.4545H0V80.6364H0.5V76.8182H0V73H0.5V69.1818H0V65.3636H0.5V61.5454H0V57.7273H0.5V53.9091H0V50.0909H0.5V46.2727H0V42.4545H0.5V38.6364H0V34.8182H0.5V31H0V27.1818H0.5V23.3636H0V19.5455H0.5V15.7273H0V11.9091H0.5V10C0.5 9.3649 0.562251 8.74483 0.680834 8.14542L0.19034 8.04838C0.449883 6.73643 0.966046 5.51676 1.68435 4.44384L2.09983 4.722C2.79355 3.6858 3.6858 2.79355 4.722 2.09983L4.44384 1.68435C5.51676 0.966047 6.73643 0.449883 8.04838 0.190341L8.14541 0.680834C8.74483 0.562252 9.3649 0.5 10 0.5H12.006V0H16.0182V0.5H20.0305V0H24.0427V0.5H28.0549V0H32.0671V0.5H36.0793V0H40.0915V0.5H44.1037V0H48.1159V0.5H52.1281V0H56.1403V0.5H60.1525V0H64.1647V0.5H68.1769V0H72.1891V0.5H76.2014V0H80.2136V0.5H84.2258V0H88.2379V0.5H92.2501V0H96.2623V0.5H100.275V0H104.287V0.5H108.299V0H112.311V0.5H116.323V0H120.335V0.5H124.348V0H128.36V0.5H132.372V0H136.384V0.5H140.396V0H144.409V0.5H148.421V0H152.433V0.5H156.445V0H160.457V0.5H164.47V0H168.482V0.5H172.494V0H176.506V0.5H180.518V0H184.531V0.5H188.543V0H192.555V0.5H196.567V0H200.579V0.5H204.592V0H208.604V0.5H212.616V0H216.628V0.5H220.64V0H224.652V0.5H228.665V0H232.677V0.5H236.689V0H240.701V0.5H244.713V0H248.726V0.5H252.738V0H256.75V0.5H260.762V0H264.774V0.5H268.787V0H272.799V0.5H276.811V0H280.823V0.5H284.835V0H288.848V0.5H292.86V0H296.872V0.5H300.884V0H304.896V0.5H308.909V0H312.921V0.5H316.933V0H320.945V0.5H324.957V0H328.97V0.5H332.982V0H336.994V0.5H339C339.635 0.5 340.255 0.562252 340.855 0.680835L340.952 0.190341C342.264 0.449883 343.483 0.966048 344.556 1.68435L344.278 2.09983C345.314 2.79355 346.206 3.6858 346.9 4.72201L347.316 4.44385C348.034 5.51676 348.55 6.73643 348.81 8.04838L348.319 8.14542C348.438 8.74483 348.5 9.3649 348.5 10V11.9091H349V15.7273H348.5V19.5455H349V23.3636H348.5V27.1818H349V31H348.5V34.8182H349V38.6364H348.5V42.4546H349V46.2727H348.5V50.0909H349V53.9091H348.5V57.7273H349V61.5455H348.5V65.3636H349V69.1818H348.5V73H349V76.8182H348.5V80.6364H349V84.4545H348.5V88.2727H349V92.0909H348.5V94C348.5 94.6351 348.438 95.2552 348.319 95.8546L348.81 95.9516C348.55 97.2636 348.034 98.4832 347.316 99.5562L346.9 99.278C346.206 100.314 345.314 101.206 344.278 101.9L344.556 102.316C343.483 103.034 342.264 103.55 340.952 103.81L340.855 103.319C340.255 103.438 339.635 103.5 339 103.5H336.994V104H332.982V103.5H328.97V104H324.957V103.5H320.945V104H316.933V103.5H312.921V104H308.909V103.5H304.896V104H300.884V103.5H296.872V104H292.86V103.5H288.847V104H284.835V103.5H280.823V104H276.811V103.5H272.799V104H268.786V103.5H264.774V104H260.762V103.5H256.75V104H252.738V103.5H248.725V104H244.713V103.5H240.701V104H236.689V103.5H232.677V104H228.665V103.5H224.652V104H220.64V103.5H216.628V104H212.616V103.5H208.604V104H204.591V103.5H200.579V104H196.567V103.5H192.555V104H188.543V103.5H184.53V104H180.518V103.5H176.506V104H172.494V103.5H168.482V104H164.469V103.5H160.457V104H156.445V103.5H152.433V104H148.421V103.5H144.409V104H140.396V103.5H136.384V104H132.372V103.5H128.36V104H124.348V103.5H120.335V104H116.323V103.5H112.311V104H108.299V103.5H104.287V104H100.274V103.5H96.2622V104H92.25V103.5H88.2378V104H84.2256V103.5H80.2134V104H76.2012V103.5H72.189V104H68.1768V103.5H64.1646V104H60.1525V103.5H56.1403V104H52.1281V103.5H48.1159V104H44.1037V103.5H40.0915V104H36.0793V103.5H32.0671V104H28.0549V103.5H24.0427V104H20.0305V103.5H16.0183V104H12.0061V103.5H10C9.36491 103.5 8.74484 103.438 8.14542 103.319L8.04839 103.81C6.73644 103.55 5.51677 103.034 4.44385 102.316L4.72201 101.9C3.6858 101.206 2.79356 100.314 2.09983 99.278L1.68435 99.5562Z" stroke="#2F69FF" stroke-dasharray="4 4"/>
<path opacity="0.4" d="M141.856 68V60.428H139.348V59.6H145.372V60.428H142.864V68H141.856ZM147.632 68.144C147.136 68.144 146.724 68.06 146.396 67.892C146.068 67.724 145.824 67.5 145.664 67.22C145.504 66.94 145.424 66.636 145.424 66.308C145.424 65.7 145.656 65.232 146.12 64.904C146.584 64.576 147.216 64.412 148.016 64.412H149.624V64.34C149.624 63.82 149.488 63.428 149.216 63.164C148.944 62.892 148.58 62.756 148.124 62.756C147.732 62.756 147.392 62.856 147.104 63.056C146.824 63.248 146.648 63.532 146.576 63.908H145.544C145.584 63.476 145.728 63.112 145.976 62.816C146.232 62.52 146.548 62.296 146.924 62.144C147.3 61.984 147.7 61.904 148.124 61.904C148.956 61.904 149.58 62.128 149.996 62.576C150.42 63.016 150.632 63.604 150.632 64.34V68H149.732L149.672 66.932C149.504 67.268 149.256 67.556 148.928 67.796C148.608 68.028 148.176 68.144 147.632 68.144ZM147.788 67.292C148.172 67.292 148.5 67.192 148.772 66.992C149.052 66.792 149.264 66.532 149.408 66.212C149.552 65.892 149.624 65.556 149.624 65.204V65.192H148.1C147.508 65.192 147.088 65.296 146.84 65.504C146.6 65.704 146.48 65.956 146.48 66.26C146.48 66.572 146.592 66.824 146.816 67.016C147.048 67.2 147.372 67.292 147.788 67.292ZM152.144 68V59.36H153.152V64.556L155.588 62.048H156.824L154.184 64.736L157.16 68H155.876L153.152 64.916V68H152.144ZM160.434 68.144C159.866 68.144 159.362 68.016 158.922 67.76C158.482 67.496 158.134 67.132 157.878 66.668C157.63 66.204 157.506 65.656 157.506 65.024C157.506 64.4 157.63 63.856 157.878 63.392C158.126 62.92 158.47 62.556 158.91 62.3C159.358 62.036 159.874 61.904 160.458 61.904C161.034 61.904 161.53 62.036 161.946 62.3C162.37 62.556 162.694 62.896 162.918 63.32C163.142 63.744 163.254 64.2 163.254 64.688C163.254 64.776 163.25 64.864 163.242 64.952C163.242 65.04 163.242 65.14 163.242 65.252H158.502C158.526 65.708 158.63 66.088 158.814 66.392C159.006 66.688 159.242 66.912 159.522 67.064C159.81 67.216 160.114 67.292 160.434 67.292C160.85 67.292 161.198 67.196 161.478 67.004C161.758 66.812 161.962 66.552 162.09 66.224H163.086C162.926 66.776 162.618 67.236 162.162 67.604C161.714 67.964 161.138 68.144 160.434 68.144ZM160.434 62.756C159.954 62.756 159.526 62.904 159.15 63.2C158.782 63.488 158.57 63.912 158.514 64.472H162.258C162.234 63.936 162.05 63.516 161.706 63.212C161.362 62.908 160.938 62.756 160.434 62.756ZM169.746 68.144C169.25 68.144 168.838 68.06 168.51 67.892C168.182 67.724 167.938 67.5 167.778 67.22C167.618 66.94 167.538 66.636 167.538 66.308C167.538 65.7 167.77 65.232 168.234 64.904C168.698 64.576 169.33 64.412 170.13 64.412H171.738V64.34C171.738 63.82 171.602 63.428 171.33 63.164C171.058 62.892 170.694 62.756 170.238 62.756C169.846 62.756 169.506 62.856 169.218 63.056C168.938 63.248 168.762 63.532 168.69 63.908H167.658C167.698 63.476 167.842 63.112 168.09 62.816C168.346 62.52 168.662 62.296 169.038 62.144C169.414 61.984 169.814 61.904 170.238 61.904C171.07 61.904 171.694 62.128 172.11 62.576C172.534 63.016 172.746 63.604 172.746 64.34V68H171.846L171.786 66.932C171.618 67.268 171.37 67.556 171.042 67.796C170.722 68.028 170.29 68.144 169.746 68.144ZM169.902 67.292C170.286 67.292 170.614 67.192 170.886 66.992C171.166 66.792 171.378 66.532 171.522 66.212C171.666 65.892 171.738 65.556 171.738 65.204V65.192H170.214C169.622 65.192 169.202 65.296 168.954 65.504C168.714 65.704 168.594 65.956 168.594 66.26C168.594 66.572 168.706 66.824 168.93 67.016C169.162 67.2 169.486 67.292 169.902 67.292ZM177.433 70.64V62.048H178.345L178.441 63.032C178.633 62.744 178.905 62.484 179.257 62.252C179.617 62.02 180.073 61.904 180.625 61.904C181.217 61.904 181.733 62.04 182.173 62.312C182.613 62.584 182.953 62.956 183.193 63.428C183.441 63.9 183.565 64.436 183.565 65.036C183.565 65.636 183.441 66.172 183.193 66.644C182.953 67.108 182.609 67.476 182.161 67.748C181.721 68.012 181.205 68.144 180.613 68.144C180.125 68.144 179.689 68.044 179.305 67.844C178.929 67.644 178.641 67.364 178.441 67.004V70.64H177.433ZM180.505 67.268C180.905 67.268 181.257 67.176 181.561 66.992C181.865 66.8 182.105 66.536 182.281 66.2C182.457 65.864 182.545 65.472 182.545 65.024C182.545 64.576 182.457 64.184 182.281 63.848C182.105 63.512 181.865 63.252 181.561 63.068C181.257 62.876 180.905 62.78 180.505 62.78C180.105 62.78 179.753 62.876 179.449 63.068C179.145 63.252 178.905 63.512 178.729 63.848C178.553 64.184 178.465 64.576 178.465 65.024C178.465 65.472 178.553 65.864 178.729 66.2C178.905 66.536 179.145 66.8 179.449 66.992C179.753 67.176 180.105 67.268 180.505 67.268ZM184.969 68V59.36H185.977V63.068C186.177 62.7 186.461 62.416 186.829 62.216C187.197 62.008 187.597 61.904 188.029 61.904C188.717 61.904 189.269 62.12 189.685 62.552C190.101 62.976 190.309 63.632 190.309 64.52V68H189.313V64.628C189.313 63.388 188.813 62.768 187.813 62.768C187.293 62.768 186.857 62.956 186.505 63.332C186.153 63.7 185.977 64.228 185.977 64.916V68H184.969ZM194.548 68.144C193.988 68.144 193.484 68.016 193.036 67.76C192.588 67.504 192.232 67.144 191.968 66.68C191.712 66.208 191.584 65.656 191.584 65.024C191.584 64.392 191.716 63.844 191.98 63.38C192.244 62.908 192.6 62.544 193.048 62.288C193.504 62.032 194.012 61.904 194.572 61.904C195.132 61.904 195.636 62.032 196.084 62.288C196.532 62.544 196.884 62.908 197.14 63.38C197.404 63.844 197.536 64.392 197.536 65.024C197.536 65.656 197.404 66.208 197.14 66.68C196.876 67.144 196.516 67.504 196.06 67.76C195.612 68.016 195.108 68.144 194.548 68.144ZM194.548 67.28C194.892 67.28 195.212 67.196 195.508 67.028C195.804 66.86 196.044 66.608 196.228 66.272C196.412 65.936 196.504 65.52 196.504 65.024C196.504 64.528 196.412 64.112 196.228 63.776C196.052 63.44 195.816 63.188 195.52 63.02C195.224 62.852 194.908 62.768 194.572 62.768C194.228 62.768 193.908 62.852 193.612 63.02C193.316 63.188 193.076 63.44 192.892 63.776C192.708 64.112 192.616 64.528 192.616 65.024C192.616 65.52 192.708 65.936 192.892 66.272C193.076 66.608 193.312 66.86 193.6 67.028C193.896 67.196 194.212 67.28 194.548 67.28ZM201.055 68C200.511 68 200.083 67.868 199.771 67.604C199.459 67.34 199.303 66.864 199.303 66.176V62.9H198.271V62.048H199.303L199.435 60.62H200.311V62.048H202.063V62.9H200.311V66.176C200.311 66.552 200.387 66.808 200.539 66.944C200.691 67.072 200.959 67.136 201.343 67.136H201.967V68H201.055ZM205.892 68.144C205.332 68.144 204.828 68.016 204.38 67.76C203.932 67.504 203.576 67.144 203.312 66.68C203.056 66.208 202.928 65.656 202.928 65.024C202.928 64.392 203.06 63.844 203.324 63.38C203.588 62.908 203.944 62.544 204.392 62.288C204.848 62.032 205.356 61.904 205.916 61.904C206.476 61.904 206.98 62.032 207.428 62.288C207.876 62.544 208.228 62.908 208.484 63.38C208.748 63.844 208.88 64.392 208.88 65.024C208.88 65.656 208.748 66.208 208.484 66.68C208.22 67.144 207.86 67.504 207.404 67.76C206.956 68.016 206.452 68.144 205.892 68.144ZM205.892 67.28C206.236 67.28 206.556 67.196 206.852 67.028C207.148 66.86 207.388 66.608 207.572 66.272C207.756 65.936 207.848 65.52 207.848 65.024C207.848 64.528 207.756 64.112 207.572 63.776C207.396 63.44 207.16 63.188 206.864 63.02C206.568 62.852 206.252 62.768 205.916 62.768C205.572 62.768 205.252 62.852 204.956 63.02C204.66 63.188 204.42 63.44 204.236 63.776C204.052 64.112 203.96 64.528 203.96 65.024C203.96 65.52 204.052 65.936 204.236 66.272C204.42 66.608 204.656 66.86 204.944 67.028C205.24 67.196 205.556 67.28 205.892 67.28Z" fill="#2F69FF"/>
<path opacity="0.4" d="M181.238 49.0952H167.905V35.7619H176.476V33.8571H167.905C166.857 33.8571 166 34.7143 166 35.7619V49.0952C166 50.1429 166.857 51 167.905 51H181.238C182.286 51 183.143 50.1429 183.143 49.0952V40.5238H181.238V49.0952ZM173.819 46.0762L171.952 43.8286L169.333 47.1905H179.81L176.438 42.7048L173.819 46.0762ZM183.143 33.8571V31H181.238V33.8571H178.381C178.39 33.8667 178.381 35.7619 178.381 35.7619H181.238V38.6095C181.248 38.619 183.143 38.6095 183.143 38.6095V35.7619H186V33.8571H183.143Z" fill="#2F69FF"/>
</svg>
