<svg width="253" height="58" viewBox="0 0 253 58" fill="none" xmlns="http://www.w3.org/2000/svg">
<g filter="url(#filter0_i_189_7841)">
<rect x="8" y="2" width="245" height="44" rx="6" fill="#EAEEF4"/>
</g>
<rect x="8.5" y="2.5" width="244" height="43" rx="5.5" stroke="white"/>
<g filter="url(#filter1_d_189_7841)">
<rect x="8" y="3" width="124" height="42" rx="6" fill="white"/>
</g>
<path d="M48.5 19C48.2033 19 47.9133 19.0744 47.6666 19.2139C47.42 19.3534 47.2277 19.5516 47.1142 19.7835C47.0006 20.0154 46.9709 20.2706 47.0288 20.5168C47.0867 20.7631 47.2296 20.9892 47.4393 21.1667C47.6491 21.3442 47.9164 21.4651 48.2074 21.5141C48.4983 21.563 48.7999 21.5379 49.074 21.4418C49.3481 21.3458 49.5824 21.1831 49.7472 20.9744C49.912 20.7657 50 20.5203 50 20.2692C50 19.9326 49.842 19.6098 49.5607 19.3717C49.2794 19.1337 48.8978 19 48.5 19ZM48.5 23.2308C48.2033 23.2308 47.9133 23.3052 47.6666 23.4447C47.42 23.5841 47.2277 23.7824 47.1142 24.0143C47.0006 24.2462 46.9709 24.5014 47.0288 24.7476C47.0867 24.9938 47.2296 25.22 47.4393 25.3975C47.6491 25.575 47.9164 25.6959 48.2074 25.7448C48.4983 25.7938 48.7999 25.7687 49.074 25.6726C49.3481 25.5766 49.5824 25.4139 49.7472 25.2051C49.912 24.9964 50 24.751 50 24.5C50 24.1634 49.842 23.8405 49.5607 23.6025C49.2794 23.3645 48.8978 23.2308 48.5 23.2308ZM48.5 27.4615C48.2033 27.4615 47.9133 27.536 47.6666 27.6754C47.42 27.8149 47.2277 28.0131 47.1142 28.2451C47.0006 28.477 46.9709 28.7322 47.0288 28.9784C47.0867 29.2246 47.2296 29.4507 47.4393 29.6283C47.6491 29.8058 47.9164 29.9266 48.2074 29.9756C48.4983 30.0246 48.7999 29.9994 49.074 29.9034C49.3481 29.8073 49.5824 29.6446 49.7472 29.4359C49.912 29.2272 50 28.9818 50 28.7308C50 28.3941 49.842 28.0713 49.5607 27.8333C49.2794 27.5953 48.8978 27.4615 48.5 27.4615ZM62.5 27.8846H52.5C52.3674 27.8846 52.2402 27.9292 52.1464 28.0085C52.0527 28.0879 52 28.1955 52 28.3077V29.1538C52 29.2661 52.0527 29.3737 52.1464 29.453C52.2402 29.5323 52.3674 29.5769 52.5 29.5769H62.5C62.6326 29.5769 62.7598 29.5323 62.8536 29.453C62.9473 29.3737 63 29.2661 63 29.1538V28.3077C63 28.1955 62.9473 28.0879 62.8536 28.0085C62.7598 27.9292 62.6326 27.8846 62.5 27.8846ZM62.5 19.4231H52.5C52.3674 19.4231 52.2402 19.4677 52.1464 19.547C52.0527 19.6263 52 19.7339 52 19.8462V20.6923C52 20.8045 52.0527 20.9121 52.1464 20.9915C52.2402 21.0708 52.3674 21.1154 52.5 21.1154H62.5C62.6326 21.1154 62.7598 21.0708 62.8536 20.9915C62.9473 20.9121 63 20.8045 63 20.6923V19.8462C63 19.7339 62.9473 19.6263 62.8536 19.547C62.7598 19.4677 62.6326 19.4231 62.5 19.4231ZM62.5 23.6538H52.5C52.3674 23.6538 52.2402 23.6984 52.1464 23.7778C52.0527 23.8571 52 23.9647 52 24.0769V24.9231C52 25.0353 52.0527 25.1429 52.1464 25.2222C52.2402 25.3016 52.3674 25.3462 52.5 25.3462H62.5C62.6326 25.3462 62.7598 25.3016 62.8536 25.2222C62.9473 25.1429 63 25.0353 63 24.9231V24.0769C63 23.9647 62.9473 23.8571 62.8536 23.7778C62.7598 23.6984 62.6326 23.6538 62.5 23.6538Z" fill="#640AE7"/>
<path d="M70.994 30V20.2H72.478V28.824H76.93V30H70.994ZM79.3112 21.74C79.0312 21.74 78.7979 21.656 78.6112 21.488C78.4339 21.3107 78.3452 21.0913 78.3452 20.83C78.3452 20.5687 78.4339 20.354 78.6112 20.186C78.7979 20.0087 79.0312 19.92 79.3112 19.92C79.5912 19.92 79.8199 20.0087 79.9972 20.186C80.1839 20.354 80.2772 20.5687 80.2772 20.83C80.2772 21.0913 80.1839 21.3107 79.9972 21.488C79.8199 21.656 79.5912 21.74 79.3112 21.74ZM78.5692 30V23.056H80.0532V30H78.5692ZM84.7842 30.168C83.9069 30.168 83.1836 29.9533 82.6142 29.524C82.0449 29.0947 81.7182 28.5253 81.6342 27.816H83.1322C83.2069 28.1333 83.3842 28.4087 83.6642 28.642C83.9442 28.866 84.3129 28.978 84.7702 28.978C85.2182 28.978 85.5449 28.8847 85.7502 28.698C85.9556 28.5113 86.0582 28.2967 86.0582 28.054C86.0582 27.6993 85.9136 27.4613 85.6242 27.34C85.3442 27.2093 84.9522 27.0927 84.4482 26.99C84.0562 26.906 83.6642 26.794 83.2722 26.654C82.8896 26.514 82.5676 26.318 82.3062 26.066C82.0542 25.8047 81.9282 25.4547 81.9282 25.016C81.9282 24.4093 82.1616 23.9053 82.6282 23.504C83.0949 23.0933 83.7482 22.888 84.5882 22.888C85.3629 22.888 85.9882 23.0747 86.4642 23.448C86.9496 23.8213 87.2342 24.3487 87.3182 25.03H85.8902C85.8436 24.7313 85.7036 24.498 85.4702 24.33C85.2462 24.162 84.9429 24.078 84.5602 24.078C84.1869 24.078 83.8976 24.1573 83.6922 24.316C83.4869 24.4653 83.3842 24.6613 83.3842 24.904C83.3842 25.1467 83.5242 25.338 83.8042 25.478C84.0936 25.618 84.4716 25.744 84.9382 25.856C85.4049 25.9587 85.8342 26.08 86.2262 26.22C86.6276 26.3507 86.9496 26.5467 87.1922 26.808C87.4349 27.0693 87.5562 27.452 87.5562 27.956C87.5656 28.5907 87.3182 29.118 86.8142 29.538C86.3196 29.958 85.6429 30.168 84.7842 30.168ZM91.8285 30C91.1472 30 90.6058 29.8367 90.2045 29.51C89.8032 29.174 89.6025 28.5813 89.6025 27.732V24.302H88.4125V23.056H89.6025L89.7845 21.292H91.0865V23.056H93.0465V24.302H91.0865V27.732C91.0865 28.1147 91.1658 28.3807 91.3245 28.53C91.4925 28.67 91.7772 28.74 92.1785 28.74H92.9765V30H91.8285Z" fill="#640AE7"/>
<path d="M185.994 30V20.2H187.744L191.062 26.724L194.366 20.2H196.116V30H194.632V22.762L191.636 28.6H190.488L187.478 22.776V30H185.994ZM200.403 30.168C199.815 30.168 199.33 30.07 198.947 29.874C198.565 29.678 198.28 29.4213 198.093 29.104C197.907 28.7773 197.813 28.4227 197.813 28.04C197.813 27.368 198.075 26.836 198.597 26.444C199.12 26.052 199.867 25.856 200.837 25.856H202.657V25.73C202.657 25.1887 202.508 24.7827 202.209 24.512C201.92 24.2413 201.542 24.106 201.075 24.106C200.665 24.106 200.305 24.2087 199.997 24.414C199.699 24.61 199.517 24.904 199.451 25.296H197.967C198.014 24.792 198.182 24.3627 198.471 24.008C198.77 23.644 199.143 23.3687 199.591 23.182C200.049 22.986 200.548 22.888 201.089 22.888C202.06 22.888 202.811 23.1447 203.343 23.658C203.875 24.162 204.141 24.8527 204.141 25.73V30H202.853L202.727 28.81C202.531 29.1927 202.247 29.5147 201.873 29.776C201.5 30.0373 201.01 30.168 200.403 30.168ZM200.697 28.964C201.099 28.964 201.435 28.8707 201.705 28.684C201.985 28.488 202.2 28.2313 202.349 27.914C202.508 27.5967 202.606 27.2467 202.643 26.864H200.991C200.403 26.864 199.983 26.9667 199.731 27.172C199.489 27.3773 199.367 27.634 199.367 27.942C199.367 28.2593 199.484 28.5113 199.717 28.698C199.96 28.8753 200.287 28.964 200.697 28.964ZM205.872 33.08V23.056H207.202L207.356 24.134C207.58 23.8073 207.888 23.518 208.28 23.266C208.672 23.014 209.176 22.888 209.792 22.888C210.464 22.888 211.056 23.0467 211.57 23.364C212.083 23.6813 212.484 24.1153 212.774 24.666C213.072 25.2167 213.222 25.842 213.222 26.542C213.222 27.242 213.072 27.8673 212.774 28.418C212.484 28.9593 212.083 29.3887 211.57 29.706C211.056 30.014 210.459 30.168 209.778 30.168C209.236 30.168 208.756 30.0607 208.336 29.846C207.925 29.6313 207.598 29.328 207.356 28.936V33.08H205.872ZM209.526 28.88C210.16 28.88 210.683 28.6653 211.094 28.236C211.504 27.7973 211.71 27.228 211.71 26.528C211.71 26.0707 211.616 25.6647 211.43 25.31C211.243 24.9553 210.986 24.68 210.66 24.484C210.333 24.2787 209.955 24.176 209.526 24.176C208.891 24.176 208.368 24.3953 207.958 24.834C207.556 25.2727 207.356 25.8373 207.356 26.528C207.356 27.228 207.556 27.7973 207.958 28.236C208.368 28.6653 208.891 28.88 209.526 28.88Z" fill="#292931"/>
<path d="M173.795 32.3933C172.973 31.2013 172.275 30.2076 171.683 29.3643C170.629 27.8621 169.909 26.8373 169.417 26.0197C169.04 25.3918 168.815 24.9154 168.682 24.465C168.55 24.0185 168.5 23.5735 168.5 23C168.5 19.9624 170.962 17.5 174 17.5C177.038 17.5 179.5 19.9624 179.5 23C179.5 23.5735 179.45 24.0185 179.318 24.465C179.185 24.9154 178.96 25.3918 178.583 26.0197C178.091 26.8373 177.371 27.8621 176.317 29.3643C175.725 30.2075 175.027 31.2011 174.205 32.3928C174.106 32.5358 173.894 32.5357 173.794 32.3926L173.383 32.6772L173.795 32.3933ZM174 26C175.657 26 177 24.6569 177 23C177 21.3431 175.657 20 174 20C172.343 20 171 21.3431 171 23C171 24.6569 172.343 26 174 26Z" stroke="#292931"/>
<defs>
<filter id="filter0_i_189_7841" x="8" y="2" width="245" height="46" filterUnits="userSpaceOnUse" color-interpolation-filters="sRGB">
<feFlood flood-opacity="0" result="BackgroundImageFix"/>
<feBlend mode="normal" in="SourceGraphic" in2="BackgroundImageFix" result="shape"/>
<feColorMatrix in="SourceAlpha" type="matrix" values="0 0 0 0 0 0 0 0 0 0 0 0 0 0 0 0 0 0 127 0" result="hardAlpha"/>
<feOffset dy="2"/>
<feGaussianBlur stdDeviation="1"/>
<feComposite in2="hardAlpha" operator="arithmetic" k2="-1" k3="1"/>
<feColorMatrix type="matrix" values="0 0 0 0 0.0745098 0 0 0 0 0.0392157 0 0 0 0 0.266667 0 0 0 0.15 0"/>
<feBlend mode="normal" in2="shape" result="effect1_innerShadow_189_7841"/>
</filter>
<filter id="filter1_d_189_7841" x="0" y="0" width="140" height="58" filterUnits="userSpaceOnUse" color-interpolation-filters="sRGB">
<feFlood flood-opacity="0" result="BackgroundImageFix"/>
<feColorMatrix in="SourceAlpha" type="matrix" values="0 0 0 0 0 0 0 0 0 0 0 0 0 0 0 0 0 0 127 0" result="hardAlpha"/>
<feOffset dy="5"/>
<feGaussianBlur stdDeviation="4"/>
<feComposite in2="hardAlpha" operator="out"/>
<feColorMatrix type="matrix" values="0 0 0 0 0.847309 0 0 0 0 0.892093 0 0 0 0 0.945833 0 0 0 0.65 0"/>
<feBlend mode="normal" in2="BackgroundImageFix" result="effect1_dropShadow_189_7841"/>
<feBlend mode="normal" in="SourceGraphic" in2="effect1_dropShadow_189_7841" result="shape"/>
</filter>
</defs>
</svg>
