<svg width="253" height="51" viewBox="0 0 253 51" fill="none" xmlns="http://www.w3.org/2000/svg">
<g filter="url(#filter0_i_747_34437)">
<rect y="3" width="245" height="34.8679" rx="6" fill="#EAEEF4"/>
</g>
<rect x="0.5" y="3.5" width="244" height="33.8679" rx="5.5" stroke="black" stroke-opacity="0.1"/>
<g filter="url(#filter1_d_747_34437)">
<rect x="121" y="3.79199" width="124" height="33.283" rx="6" fill="white"/>
</g>
<path d="M40.5 16.4727C40.2033 16.4727 39.9133 16.5316 39.6666 16.6422C39.42 16.7527 39.2277 16.9098 39.1142 17.0936C39.0006 17.2773 38.9709 17.4796 39.0288 17.6747C39.0867 17.8698 39.2296 18.049 39.4393 18.1897C39.6491 18.3303 39.9164 18.4261 40.2074 18.4649C40.4983 18.5038 40.7999 18.4838 41.074 18.4077C41.3481 18.3316 41.5824 18.2027 41.7472 18.0373C41.912 17.8719 42 17.6774 42 17.4785C42 17.2117 41.842 16.9559 41.5607 16.7672C41.2794 16.5786 40.8978 16.4727 40.5 16.4727ZM40.5 19.8253C40.2033 19.8253 39.9133 19.8843 39.6666 19.9948C39.42 20.1054 39.2277 20.2625 39.1142 20.4462C39.0006 20.63 38.9709 20.8323 39.0288 21.0274C39.0867 21.2225 39.2296 21.4017 39.4393 21.5424C39.6491 21.683 39.9164 21.7788 40.2074 21.8176C40.4983 21.8564 40.7999 21.8365 41.074 21.7604C41.3481 21.6843 41.5824 21.5553 41.7472 21.3899C41.912 21.2245 42 21.0301 42 20.8311C42 20.5644 41.842 20.3086 41.5607 20.1199C41.2794 19.9313 40.8978 19.8253 40.5 19.8253ZM40.5 23.178C40.2033 23.178 39.9133 23.237 39.6666 23.3475C39.42 23.4581 39.2277 23.6151 39.1142 23.7989C39.0006 23.9827 38.9709 24.1849 39.0288 24.3801C39.0867 24.5752 39.2296 24.7544 39.4393 24.895C39.6491 25.0357 39.9164 25.1315 40.2074 25.1703C40.4983 25.2091 40.7999 25.1892 41.074 25.1131C41.3481 25.0369 41.5824 24.908 41.7472 24.7426C41.912 24.5772 42 24.3828 42 24.1838C42 23.9171 41.842 23.6612 41.5607 23.4726C41.2794 23.284 40.8978 23.178 40.5 23.178ZM54.5 23.5133H44.5C44.3674 23.5133 44.2402 23.5486 44.1464 23.6115C44.0527 23.6744 44 23.7596 44 23.8486V24.5191C44 24.608 44.0527 24.6933 44.1464 24.7562C44.2402 24.819 44.3674 24.8544 44.5 24.8544H54.5C54.6326 24.8544 54.7598 24.819 54.8536 24.7562C54.9473 24.6933 55 24.608 55 24.5191V23.8486C55 23.7596 54.9473 23.6744 54.8536 23.6115C54.7598 23.5486 54.6326 23.5133 54.5 23.5133ZM54.5 16.8079H44.5C44.3674 16.8079 44.2402 16.8432 44.1464 16.9061C44.0527 16.969 44 17.0543 44 17.1432V17.8137C44 17.9026 44.0527 17.9879 44.1464 18.0508C44.2402 18.1137 44.3674 18.149 44.5 18.149H54.5C54.6326 18.149 54.7598 18.1137 54.8536 18.0508C54.9473 17.9879 55 17.9026 55 17.8137V17.1432C55 17.0543 54.9473 16.969 54.8536 16.9061C54.7598 16.8432 54.6326 16.8079 54.5 16.8079ZM54.5 20.1606H44.5C44.3674 20.1606 44.2402 20.1959 44.1464 20.2588C44.0527 20.3217 44 20.407 44 20.4959V21.1664C44 21.2553 44.0527 21.3406 44.1464 21.4035C44.2402 21.4664 44.3674 21.5017 44.5 21.5017H54.5C54.6326 21.5017 54.7598 21.4664 54.8536 21.4035C54.9473 21.3406 55 21.2553 55 21.1664V20.4959C55 20.407 54.9473 20.3217 54.8536 20.2588C54.7598 20.1959 54.6326 20.1606 54.5 20.1606Z" fill="#292931"/>
<path d="M62.994 25.0947V15.2947H64.478V23.9187H68.93V25.0947H62.994ZM71.3112 16.8347C71.0312 16.8347 70.7979 16.7507 70.6112 16.5827C70.4339 16.4054 70.3452 16.1861 70.3452 15.9247C70.3452 15.6634 70.4339 15.4487 70.6112 15.2807C70.7979 15.1034 71.0312 15.0147 71.3112 15.0147C71.5912 15.0147 71.8199 15.1034 71.9972 15.2807C72.1839 15.4487 72.2772 15.6634 72.2772 15.9247C72.2772 16.1861 72.1839 16.4054 71.9972 16.5827C71.8199 16.7507 71.5912 16.8347 71.3112 16.8347ZM70.5692 25.0947V18.1507H72.0532V25.0947H70.5692ZM76.7842 25.2627C75.9069 25.2627 75.1836 25.0481 74.6142 24.6187C74.0449 24.1894 73.7182 23.6201 73.6342 22.9107H75.1322C75.2069 23.2281 75.3842 23.5034 75.6642 23.7367C75.9442 23.9607 76.3129 24.0727 76.7702 24.0727C77.2182 24.0727 77.5449 23.9794 77.7502 23.7927C77.9556 23.6061 78.0582 23.3914 78.0582 23.1487C78.0582 22.7941 77.9136 22.5561 77.6242 22.4347C77.3442 22.3041 76.9522 22.1874 76.4482 22.0847C76.0562 22.0007 75.6642 21.8887 75.2722 21.7487C74.8896 21.6087 74.5676 21.4127 74.3062 21.1607C74.0542 20.8994 73.9282 20.5494 73.9282 20.1107C73.9282 19.5041 74.1616 19.0001 74.6282 18.5987C75.0949 18.1881 75.7482 17.9827 76.5882 17.9827C77.3629 17.9827 77.9882 18.1694 78.4642 18.5427C78.9496 18.9161 79.2342 19.4434 79.3182 20.1247H77.8902C77.8436 19.8261 77.7036 19.5927 77.4702 19.4247C77.2462 19.2567 76.9429 19.1727 76.5602 19.1727C76.1869 19.1727 75.8976 19.2521 75.6922 19.4107C75.4869 19.5601 75.3842 19.7561 75.3842 19.9987C75.3842 20.2414 75.5242 20.4327 75.8042 20.5727C76.0936 20.7127 76.4716 20.8387 76.9382 20.9507C77.4049 21.0534 77.8342 21.1747 78.2262 21.3147C78.6276 21.4454 78.9496 21.6414 79.1922 21.9027C79.4349 22.1641 79.5562 22.5467 79.5562 23.0507C79.5656 23.6854 79.3182 24.2127 78.8142 24.6327C78.3196 25.0527 77.6429 25.2627 76.7842 25.2627ZM83.8285 25.0947C83.1472 25.0947 82.6058 24.9314 82.2045 24.6047C81.8032 24.2687 81.6025 23.6761 81.6025 22.8267V19.3967H80.4125V18.1507H81.6025L81.7845 16.3867H83.0865V18.1507H85.0465V19.3967H83.0865V22.8267C83.0865 23.2094 83.1658 23.4754 83.3245 23.6247C83.4925 23.7647 83.7772 23.8347 84.1785 23.8347H84.9765V25.0947H83.8285Z" fill="#292931"/>
<path d="M177.994 26.0947V16.2947H179.744L183.062 22.8187L186.366 16.2947H188.116V26.0947H186.632V18.8567L183.636 24.6947H182.488L179.478 18.8707V26.0947H177.994ZM192.403 26.2627C191.815 26.2627 191.33 26.1647 190.947 25.9687C190.565 25.7727 190.28 25.5161 190.093 25.1987C189.907 24.8721 189.813 24.5174 189.813 24.1347C189.813 23.4627 190.075 22.9307 190.597 22.5387C191.12 22.1467 191.867 21.9507 192.837 21.9507H194.657V21.8247C194.657 21.2834 194.508 20.8774 194.209 20.6067C193.92 20.3361 193.542 20.2007 193.075 20.2007C192.665 20.2007 192.305 20.3034 191.997 20.5087C191.699 20.7047 191.517 20.9987 191.451 21.3907H189.967C190.014 20.8867 190.182 20.4574 190.471 20.1027C190.77 19.7387 191.143 19.4634 191.591 19.2767C192.049 19.0807 192.548 18.9827 193.089 18.9827C194.06 18.9827 194.811 19.2394 195.343 19.7527C195.875 20.2567 196.141 20.9474 196.141 21.8247V26.0947H194.853L194.727 24.9047C194.531 25.2874 194.247 25.6094 193.873 25.8707C193.5 26.1321 193.01 26.2627 192.403 26.2627ZM192.697 25.0587C193.099 25.0587 193.435 24.9654 193.705 24.7787C193.985 24.5827 194.2 24.3261 194.349 24.0087C194.508 23.6914 194.606 23.3414 194.643 22.9587H192.991C192.403 22.9587 191.983 23.0614 191.731 23.2667C191.489 23.4721 191.367 23.7287 191.367 24.0367C191.367 24.3541 191.484 24.6061 191.717 24.7927C191.96 24.9701 192.287 25.0587 192.697 25.0587ZM197.872 29.1747V19.1507H199.202L199.356 20.2287C199.58 19.9021 199.888 19.6127 200.28 19.3607C200.672 19.1087 201.176 18.9827 201.792 18.9827C202.464 18.9827 203.056 19.1414 203.57 19.4587C204.083 19.7761 204.484 20.2101 204.774 20.7607C205.072 21.3114 205.222 21.9367 205.222 22.6367C205.222 23.3367 205.072 23.9621 204.774 24.5127C204.484 25.0541 204.083 25.4834 203.57 25.8007C203.056 26.1087 202.459 26.2627 201.778 26.2627C201.236 26.2627 200.756 26.1554 200.336 25.9407C199.925 25.7261 199.598 25.4227 199.356 25.0307V29.1747H197.872ZM201.526 24.9747C202.16 24.9747 202.683 24.7601 203.094 24.3307C203.504 23.8921 203.71 23.3227 203.71 22.6227C203.71 22.1654 203.616 21.7594 203.43 21.4047C203.243 21.0501 202.986 20.7747 202.66 20.5787C202.333 20.3734 201.955 20.2707 201.526 20.2707C200.891 20.2707 200.368 20.4901 199.958 20.9287C199.556 21.3674 199.356 21.9321 199.356 22.6227C199.356 23.3227 199.556 23.8921 199.958 24.3307C200.368 24.7601 200.891 24.9747 201.526 24.9747Z" fill="#5500E7"/>
<path d="M165.761 26.9819C164.935 26.0338 164.236 25.2448 163.644 24.5762C162.592 23.3889 161.877 22.5812 161.387 21.9363C161.012 21.4418 160.797 21.0764 160.671 20.7399C160.548 20.4103 160.5 20.0804 160.5 19.6414C160.5 17.3938 162.848 15.3867 166 15.3867C169.152 15.3867 171.5 17.3938 171.5 19.6414C171.5 20.0804 171.452 20.4103 171.329 20.7399C171.203 21.0764 170.988 21.4418 170.613 21.9363C170.123 22.5812 169.408 23.3889 168.356 24.5762C167.764 25.2447 167.065 26.0335 166.24 26.9814C166.206 27.0196 166.124 27.066 166 27.066C165.876 27.066 165.793 27.0195 165.76 26.9812L165.383 27.3101L165.761 26.9819ZM166 22.1226C167.542 22.1226 169 21.1139 169 19.6414C169 18.169 167.542 17.1603 166 17.1603C164.458 17.1603 163 18.169 163 19.6414C163 21.1139 164.458 22.1226 166 22.1226Z" stroke="#5500E7"/>
<defs>
<filter id="filter0_i_747_34437" x="0" y="3" width="245" height="36.8682" filterUnits="userSpaceOnUse" color-interpolation-filters="sRGB">
<feFlood flood-opacity="0" result="BackgroundImageFix"/>
<feBlend mode="normal" in="SourceGraphic" in2="BackgroundImageFix" result="shape"/>
<feColorMatrix in="SourceAlpha" type="matrix" values="0 0 0 0 0 0 0 0 0 0 0 0 0 0 0 0 0 0 127 0" result="hardAlpha"/>
<feOffset dy="2"/>
<feGaussianBlur stdDeviation="1"/>
<feComposite in2="hardAlpha" operator="arithmetic" k2="-1" k3="1"/>
<feColorMatrix type="matrix" values="0 0 0 0 0.0745098 0 0 0 0 0.0392157 0 0 0 0 0.266667 0 0 0 0.15 0"/>
<feBlend mode="normal" in2="shape" result="effect1_innerShadow_747_34437"/>
</filter>
<filter id="filter1_d_747_34437" x="113" y="0.791992" width="140" height="49.2832" filterUnits="userSpaceOnUse" color-interpolation-filters="sRGB">
<feFlood flood-opacity="0" result="BackgroundImageFix"/>
<feColorMatrix in="SourceAlpha" type="matrix" values="0 0 0 0 0 0 0 0 0 0 0 0 0 0 0 0 0 0 127 0" result="hardAlpha"/>
<feOffset dy="5"/>
<feGaussianBlur stdDeviation="4"/>
<feComposite in2="hardAlpha" operator="out"/>
<feColorMatrix type="matrix" values="0 0 0 0 0 0 0 0 0 0 0 0 0 0 0 0 0 0 0.15 0"/>
<feBlend mode="normal" in2="BackgroundImageFix" result="effect1_dropShadow_747_34437"/>
<feBlend mode="normal" in="SourceGraphic" in2="effect1_dropShadow_747_34437" result="shape"/>
</filter>
</defs>
</svg>
