<svg width="36" height="36" viewBox="0 0 36 36" fill="none" xmlns="http://www.w3.org/2000/svg">
<circle cx="18" cy="18" r="18" fill="#636262"/>
<path d="M10 23.5668C11.7817 23.7424 13.3695 23.2669 14.821 22.0648C14.3547 22.0438 13.8984 21.9208 13.4837 21.7042C13.0689 21.4877 12.7054 21.1826 12.4184 20.8102C12.1118 20.4315 11.8369 19.8898 11.776 19.5419C12.2491 19.6272 12.7349 19.6066 13.1993 19.4815C11.4019 18.9808 10.5646 17.2575 10.6074 15.9014C10.8407 15.9984 11.0661 16.1124 11.3016 16.1843C11.5376 16.2496 11.7797 16.2901 12.0239 16.3052C11.6382 15.991 11.3182 15.6024 11.0823 15.1618C10.8465 14.7212 10.6996 14.2376 10.6502 13.739C10.5554 12.9618 10.7061 12.1741 11.0807 11.4888C12.8612 13.7926 15.1049 15.0666 17.8625 15.2696C17.7825 14.8078 17.7707 14.3366 17.8276 13.8713C17.9921 12.5312 18.9883 11.2835 20.1795 10.9493C21.4003 10.6072 22.4716 10.9113 23.3934 11.8617C23.4204 11.8861 23.4524 11.9041 23.4871 11.9144C23.5218 11.9247 23.5583 11.9269 23.594 11.921C24.2343 11.7766 24.8463 11.5253 25.405 11.1774C25.4456 11.1523 25.4872 11.1318 25.5582 11.093C25.3319 11.8776 24.8567 12.5649 24.2059 13.049C24.8157 12.9739 25.4097 12.8003 25.9651 12.5346L26 12.5791C25.734 12.9213 25.4827 13.276 25.1999 13.6056C24.9745 13.8611 24.7119 14.0732 24.4741 14.3138C24.4153 14.3755 24.3802 14.4564 24.375 14.5419C24.375 18.2783 23.0351 21.2801 20.2741 23.4687C19.11 24.3857 17.7791 24.8818 16.3547 25.0871C15.0246 25.2874 13.667 25.1806 12.3834 24.7746C11.5582 24.5125 10.7759 24.1281 10.062 23.6341C10.04 23.6129 10.0193 23.5905 10 23.5668Z" fill="white"/>
</svg>
