<svg width="112" height="18" viewBox="0 0 112 18" fill="none" xmlns="http://www.w3.org/2000/svg">
<path d="M3.892 14L0.266 4.2H1.848L4.788 12.46L7.742 4.2H9.31L5.684 14H3.892ZM11.3483 5.74C11.0683 5.74 10.835 5.656 10.6483 5.488C10.471 5.31067 10.3823 5.09133 10.3823 4.83C10.3823 4.56867 10.471 4.354 10.6483 4.186C10.835 4.00867 11.0683 3.92 11.3483 3.92C11.6283 3.92 11.857 4.00867 12.0343 4.186C12.221 4.354 12.3143 4.56867 12.3143 4.83C12.3143 5.09133 12.221 5.31067 12.0343 5.488C11.857 5.656 11.6283 5.74 11.3483 5.74ZM10.6063 14V7.056H12.0903V14H10.6063ZM17.2973 14.168C16.616 14.168 16.0093 14.0187 15.4773 13.72C14.9547 13.412 14.544 12.9873 14.2453 12.446C13.9467 11.9047 13.7973 11.2747 13.7973 10.556C13.7973 9.828 13.942 9.18867 14.2313 8.638C14.53 8.08733 14.9407 7.658 15.4633 7.35C15.9953 7.042 16.6113 6.888 17.3113 6.888C17.9927 6.888 18.5853 7.042 19.0893 7.35C19.5933 7.64867 19.9853 8.05 20.2653 8.554C20.5453 9.058 20.6853 9.61333 20.6853 10.22C20.6853 10.3133 20.6807 10.416 20.6713 10.528C20.6713 10.6307 20.6667 10.7473 20.6573 10.878H15.2533C15.3 11.55 15.5193 12.0633 15.9113 12.418C16.3127 12.7633 16.7747 12.936 17.2973 12.936C17.7173 12.936 18.0673 12.8427 18.3473 12.656C18.6367 12.46 18.8513 12.1987 18.9913 11.872H20.4753C20.2887 12.5253 19.9153 13.0713 19.3553 13.51C18.8047 13.9487 18.1187 14.168 17.2973 14.168ZM17.2973 8.106C16.8027 8.106 16.364 8.25533 15.9813 8.554C15.5987 8.84333 15.3653 9.282 15.2813 9.87H19.2013C19.1733 9.32867 18.982 8.89933 18.6273 8.582C18.2727 8.26467 17.8293 8.106 17.2973 8.106ZM23.3377 14L21.2937 7.056H22.7777L24.1217 12.292L25.6337 7.056H27.2857L28.7977 12.292L30.1417 7.056H31.6257L29.5817 14H28.0557L26.4597 8.54L24.8637 14H23.3377ZM37.2155 5.74C36.9355 5.74 36.7022 5.656 36.5155 5.488C36.3382 5.31067 36.2495 5.09133 36.2495 4.83C36.2495 4.56867 36.3382 4.354 36.5155 4.186C36.7022 4.00867 36.9355 3.92 37.2155 3.92C37.4955 3.92 37.7242 4.00867 37.9015 4.186C38.0882 4.354 38.1815 4.56867 38.1815 4.83C38.1815 5.09133 38.0882 5.31067 37.9015 5.488C37.7242 5.656 37.4955 5.74 37.2155 5.74ZM36.4735 14V7.056H37.9575V14H36.4735ZM39.9165 14V7.056H41.2325L41.3445 8.274C41.5592 7.84467 41.8718 7.50867 42.2825 7.266C42.7025 7.014 43.1832 6.888 43.7245 6.888C44.5645 6.888 45.2225 7.14933 45.6985 7.672C46.1838 8.19467 46.4265 8.974 46.4265 10.01V14H44.9565V10.164C44.9565 8.82 44.4058 8.148 43.3045 8.148C42.7538 8.148 42.2965 8.344 41.9325 8.736C41.5778 9.128 41.4005 9.688 41.4005 10.416V14H39.9165ZM54.0537 14.168C53.4657 14.168 52.9803 14.07 52.5977 13.874C52.215 13.678 51.9303 13.4213 51.7437 13.104C51.557 12.7773 51.4637 12.4227 51.4637 12.04C51.4637 11.368 51.725 10.836 52.2477 10.444C52.7703 10.052 53.517 9.856 54.4877 9.856H56.3077V9.73C56.3077 9.18867 56.1583 8.78267 55.8597 8.512C55.5703 8.24133 55.1923 8.106 54.7257 8.106C54.315 8.106 53.9557 8.20867 53.6477 8.414C53.349 8.61 53.167 8.904 53.1017 9.296H51.6177C51.6643 8.792 51.8323 8.36267 52.1217 8.008C52.4203 7.644 52.7937 7.36867 53.2417 7.182C53.699 6.986 54.1983 6.888 54.7397 6.888C55.7103 6.888 56.4617 7.14467 56.9937 7.658C57.5257 8.162 57.7917 8.85267 57.7917 9.73V14H56.5037L56.3777 12.81C56.1817 13.1927 55.897 13.5147 55.5237 13.776C55.1503 14.0373 54.6603 14.168 54.0537 14.168ZM54.3477 12.964C54.749 12.964 55.085 12.8707 55.3557 12.684C55.6357 12.488 55.8503 12.2313 55.9997 11.914C56.1583 11.5967 56.2563 11.2467 56.2937 10.864H54.6417C54.0537 10.864 53.6337 10.9667 53.3817 11.172C53.139 11.3773 53.0177 11.634 53.0177 11.942C53.0177 12.2593 53.1343 12.5113 53.3677 12.698C53.6103 12.8753 53.937 12.964 54.3477 12.964ZM63.0493 14V7.056H64.3653L64.4913 8.036C64.7153 7.68133 65.0093 7.40133 65.3733 7.196C65.7467 6.99067 66.176 6.888 66.6613 6.888C67.7627 6.888 68.528 7.322 68.9573 8.19C69.2093 7.78867 69.5453 7.47133 69.9653 7.238C70.3947 7.00467 70.8567 6.888 71.3513 6.888C72.2193 6.888 72.9007 7.14933 73.3953 7.672C73.89 8.19467 74.1373 8.974 74.1373 10.01V14H72.6533V10.164C72.6533 8.82 72.14 8.148 71.1133 8.148C70.5907 8.148 70.1613 8.344 69.8253 8.736C69.4987 9.128 69.3353 9.688 69.3353 10.416V14H67.8513V10.164C67.8513 8.82 67.3333 8.148 66.2973 8.148C65.784 8.148 65.3593 8.344 65.0233 8.736C64.6967 9.128 64.5333 9.688 64.5333 10.416V14H63.0493ZM78.2255 14.168C77.6375 14.168 77.1522 14.07 76.7695 13.874C76.3869 13.678 76.1022 13.4213 75.9155 13.104C75.7289 12.7773 75.6355 12.4227 75.6355 12.04C75.6355 11.368 75.8969 10.836 76.4195 10.444C76.9422 10.052 77.6889 9.856 78.6595 9.856H80.4795V9.73C80.4795 9.18867 80.3302 8.78267 80.0315 8.512C79.7422 8.24133 79.3642 8.106 78.8975 8.106C78.4869 8.106 78.1275 8.20867 77.8195 8.414C77.5209 8.61 77.3389 8.904 77.2735 9.296H75.7895C75.8362 8.792 76.0042 8.36267 76.2935 8.008C76.5922 7.644 76.9655 7.36867 77.4135 7.182C77.8709 6.986 78.3702 6.888 78.9115 6.888C79.8822 6.888 80.6335 7.14467 81.1655 7.658C81.6975 8.162 81.9635 8.85267 81.9635 9.73V14H80.6755L80.5495 12.81C80.3535 13.1927 80.0689 13.5147 79.6955 13.776C79.3222 14.0373 78.8322 14.168 78.2255 14.168ZM78.5195 12.964C78.9209 12.964 79.2569 12.8707 79.5275 12.684C79.8075 12.488 80.0222 12.2313 80.1715 11.914C80.3302 11.5967 80.4282 11.2467 80.4655 10.864H78.8135C78.2255 10.864 77.8055 10.9667 77.5535 11.172C77.3109 11.3773 77.1895 11.634 77.1895 11.942C77.1895 12.2593 77.3062 12.5113 77.5395 12.698C77.7822 12.8753 78.1089 12.964 78.5195 12.964ZM83.6939 17.08V7.056H85.0239L85.1779 8.134C85.4019 7.80733 85.7099 7.518 86.1019 7.266C86.4939 7.014 86.9979 6.888 87.6139 6.888C88.2859 6.888 88.8785 7.04667 89.3919 7.364C89.9052 7.68133 90.3065 8.11533 90.5959 8.666C90.8945 9.21667 91.0439 9.842 91.0439 10.542C91.0439 11.242 90.8945 11.8673 90.5959 12.418C90.3065 12.9593 89.9052 13.3887 89.3919 13.706C88.8785 14.014 88.2812 14.168 87.5999 14.168C87.0585 14.168 86.5779 14.0607 86.1579 13.846C85.7472 13.6313 85.4205 13.328 85.1779 12.936V17.08H83.6939ZM87.3479 12.88C87.9825 12.88 88.5052 12.6653 88.9159 12.236C89.3265 11.7973 89.5319 11.228 89.5319 10.528C89.5319 10.0707 89.4385 9.66467 89.2519 9.31C89.0652 8.95533 88.8085 8.68 88.4819 8.484C88.1552 8.27867 87.7772 8.176 87.3479 8.176C86.7132 8.176 86.1905 8.39533 85.7799 8.834C85.3785 9.27267 85.1779 9.83733 85.1779 10.528C85.1779 11.228 85.3785 11.7973 85.7799 12.236C86.1905 12.6653 86.7132 12.88 87.3479 12.88Z" fill="#2F69FF"/>
<path d="M111.854 11.3536C112.049 11.1583 112.049 10.8417 111.854 10.6465L108.672 7.46447C108.476 7.26921 108.16 7.26921 107.964 7.46447C107.769 7.65973 107.769 7.97632 107.964 8.17158L110.793 11L107.964 13.8284C107.769 14.0237 107.769 14.3403 107.964 14.5355C108.16 14.7308 108.476 14.7308 108.672 14.5355L111.854 11.3536ZM101 11.5L111.5 11.5V10.5L101 10.5L101 11.5Z" fill="#2F69FF"/>
</svg>
