<svg width="23" height="21" viewBox="0 0 23 21" fill="none" xmlns="http://www.w3.org/2000/svg">
<path d="M20.0828 4.7909H3.76285C3.38439 4.7909 3.07786 4.46119 3.07786 4.0541C3.07786 3.64702 3.38439 3.31731 3.76285 3.31731H20.2026C20.5811 3.31731 20.8876 2.98759 20.8876 2.58051C20.8876 1.35973 19.9676 0.370117 18.8327 0.370117H3.07786C1.56445 0.370117 0.337891 1.68945 0.337891 3.31731V18.0533C0.337891 19.6811 1.56445 21.0004 3.07786 21.0004H20.0828C21.2824 21.0004 22.2576 20.009 22.2576 18.7901V7.00129C22.2576 5.78236 21.2824 4.7909 20.0828 4.7909ZM18.1477 14.3693C17.3912 14.3693 16.7777 13.7094 16.7777 12.8957C16.7777 12.082 17.3912 11.4221 18.1477 11.4221C18.9042 11.4221 19.5177 12.082 19.5177 12.8957C19.5177 13.7094 18.9042 14.3693 18.1477 14.3693Z" fill="url(#paint0_linear_747_37466)"/>
<defs>
<linearGradient id="paint0_linear_747_37466" x1="22.2576" y1="21.0004" x2="-1.48356" y2="18.6326" gradientUnits="userSpaceOnUse">
<stop stop-color="#383838"/>
<stop offset="1" stop-color="#8264F9"/>
</linearGradient>
</defs>
</svg>
