<svg width="123" height="18" viewBox="0 0 123 18" fill="none" xmlns="http://www.w3.org/2000/svg">
<path d="M15.3133 4.42857H2.65625C2.36273 4.42857 2.125 4.17286 2.125 3.85714C2.125 3.54143 2.36273 3.28571 2.65625 3.28571H15.4062C15.6998 3.28571 15.9375 3.03 15.9375 2.71429C15.9375 1.7675 15.224 1 14.3438 1H2.125C0.95127 1 0 2.02321 0 3.28571V14.7143C0 15.9768 0.95127 17 2.125 17H15.3133C16.2436 17 17 16.2311 17 15.2857V6.14286C17 5.1975 16.2436 4.42857 15.3133 4.42857ZM13.8125 11.8571C13.2258 11.8571 12.75 11.3454 12.75 10.7143C12.75 10.0832 13.2258 9.57143 13.8125 9.57143C14.3992 9.57143 14.875 10.0832 14.875 10.7143C14.875 11.3454 14.3992 11.8571 13.8125 11.8571Z" fill="url(#paint0_linear_189_7863)"/>
<path d="M27.052 14.014L24.364 4.2H25.624L27.738 12.614L30.146 4.2H31.448L33.786 12.614L35.928 4.2H37.188L34.444 14H33.1L30.762 5.908L28.368 14L27.052 14.014ZM40.1276 14.168C39.5489 14.168 39.0682 14.07 38.6856 13.874C38.3029 13.678 38.0182 13.4167 37.8316 13.09C37.6449 12.7633 37.5516 12.4087 37.5516 12.026C37.5516 11.3167 37.8222 10.7707 38.3636 10.388C38.9049 10.0053 39.6422 9.814 40.5756 9.814H42.4516V9.73C42.4516 9.12333 42.2929 8.666 41.9756 8.358C41.6582 8.04067 41.2336 7.882 40.7016 7.882C40.2442 7.882 39.8476 7.99867 39.5116 8.232C39.1849 8.456 38.9796 8.78733 38.8956 9.226H37.6916C37.7382 8.722 37.9062 8.29733 38.1956 7.952C38.4942 7.60667 38.8629 7.34533 39.3016 7.168C39.7402 6.98133 40.2069 6.888 40.7016 6.888C41.6722 6.888 42.4002 7.14933 42.8856 7.672C43.3802 8.18533 43.6276 8.87133 43.6276 9.73V14H42.5776L42.5076 12.754C42.3116 13.146 42.0222 13.482 41.6396 13.762C41.2662 14.0327 40.7622 14.168 40.1276 14.168ZM40.3096 13.174C40.7576 13.174 41.1402 13.0573 41.4576 12.824C41.7842 12.5907 42.0316 12.2873 42.1996 11.914C42.3676 11.5407 42.4516 11.1487 42.4516 10.738V10.724H40.6736C39.9829 10.724 39.4929 10.8453 39.2036 11.088C38.9236 11.3213 38.7836 11.6153 38.7836 11.97C38.7836 12.334 38.9142 12.628 39.1756 12.852C39.4462 13.0667 39.8242 13.174 40.3096 13.174ZM45.3918 14V3.92H46.5678V14H45.3918ZM48.4953 14V3.92H49.6713V14H48.4953ZM54.7208 14.168C54.0581 14.168 53.4701 14.0187 52.9568 13.72C52.4435 13.412 52.0375 12.9873 51.7388 12.446C51.4495 11.9047 51.3048 11.2653 51.3048 10.528C51.3048 9.8 51.4495 9.16533 51.7388 8.624C52.0281 8.07333 52.4295 7.64867 52.9428 7.35C53.4655 7.042 54.0675 6.888 54.7488 6.888C55.4208 6.888 55.9995 7.042 56.4848 7.35C56.9795 7.64867 57.3575 8.04533 57.6188 8.54C57.8801 9.03467 58.0108 9.56667 58.0108 10.136C58.0108 10.2387 58.0061 10.3413 57.9968 10.444C57.9968 10.5467 57.9968 10.6633 57.9968 10.794H52.4668C52.4948 11.326 52.6161 11.7693 52.8308 12.124C53.0548 12.4693 53.3301 12.7307 53.6568 12.908C53.9928 13.0853 54.3475 13.174 54.7208 13.174C55.2061 13.174 55.6121 13.062 55.9388 12.838C56.2655 12.614 56.5035 12.3107 56.6528 11.928H57.8148C57.6281 12.572 57.2688 13.1087 56.7368 13.538C56.2141 13.958 55.5421 14.168 54.7208 14.168ZM54.7208 7.882C54.1608 7.882 53.6615 8.05467 53.2228 8.4C52.7935 8.736 52.5461 9.23067 52.4808 9.884H56.8488C56.8208 9.25867 56.6061 8.76867 56.2048 8.414C55.8035 8.05933 55.3088 7.882 54.7208 7.882ZM62.0811 14C61.4464 14 60.9471 13.846 60.5831 13.538C60.2191 13.23 60.0371 12.6747 60.0371 11.872V8.05H58.8331V7.056H60.0371L60.1911 5.39H61.2131V7.056H63.2571V8.05H61.2131V11.872C61.2131 12.3107 61.3018 12.6093 61.4791 12.768C61.6564 12.9173 61.9691 12.992 62.4171 12.992H63.1451V14H62.0811ZM64.6112 10.43V9.436H70.1552V10.43H64.6112ZM71.9989 14V4.2H77.9629V5.166H73.1749V8.61H77.2489V9.562H73.1749V14H71.9989ZM79.4074 14V7.056H80.4714L80.5694 8.386C80.7841 7.92867 81.1107 7.56467 81.5494 7.294C81.9881 7.02333 82.5294 6.888 83.1734 6.888V8.12H82.8514C82.4407 8.12 82.0627 8.19467 81.7174 8.344C81.3721 8.484 81.0967 8.72667 80.8914 9.072C80.6861 9.41733 80.5834 9.89333 80.5834 10.5V14H79.4074ZM85.2073 5.516C84.974 5.516 84.778 5.44133 84.6193 5.292C84.47 5.13333 84.3953 4.93733 84.3953 4.704C84.3953 4.48 84.47 4.29333 84.6193 4.144C84.778 3.99467 84.974 3.92 85.2073 3.92C85.4313 3.92 85.6227 3.99467 85.7813 4.144C85.94 4.29333 86.0193 4.48 86.0193 4.704C86.0193 4.93733 85.94 5.13333 85.7813 5.292C85.6227 5.44133 85.4313 5.516 85.2073 5.516ZM84.6193 14V7.056H85.7953V14H84.6193ZM90.965 14.168C90.3023 14.168 89.7143 14.0187 89.201 13.72C88.6876 13.412 88.2816 12.9873 87.983 12.446C87.6936 11.9047 87.549 11.2653 87.549 10.528C87.549 9.8 87.6936 9.16533 87.983 8.624C88.2723 8.07333 88.6736 7.64867 89.187 7.35C89.7096 7.042 90.3116 6.888 90.993 6.888C91.665 6.888 92.2436 7.042 92.729 7.35C93.2236 7.64867 93.6016 8.04533 93.863 8.54C94.1243 9.03467 94.255 9.56667 94.255 10.136C94.255 10.2387 94.2503 10.3413 94.241 10.444C94.241 10.5467 94.241 10.6633 94.241 10.794H88.711C88.739 11.326 88.8603 11.7693 89.075 12.124C89.299 12.4693 89.5743 12.7307 89.901 12.908C90.237 13.0853 90.5916 13.174 90.965 13.174C91.4503 13.174 91.8563 13.062 92.183 12.838C92.5096 12.614 92.7476 12.3107 92.897 11.928H94.059C93.8723 12.572 93.513 13.1087 92.981 13.538C92.4583 13.958 91.7863 14.168 90.965 14.168ZM90.965 7.882C90.405 7.882 89.9056 8.05467 89.467 8.4C89.0376 8.736 88.7903 9.23067 88.725 9.884H93.093C93.065 9.25867 92.8503 8.76867 92.449 8.414C92.0476 8.05933 91.553 7.882 90.965 7.882ZM95.8137 14V7.056H96.8777L96.9477 8.302C97.1717 7.86333 97.4937 7.518 97.9137 7.266C98.3337 7.014 98.8097 6.888 99.3417 6.888C100.163 6.888 100.816 7.14 101.302 7.644C101.796 8.13867 102.044 8.904 102.044 9.94V14H100.868V10.066C100.868 8.61933 100.27 7.896 99.0757 7.896C98.4783 7.896 97.979 8.11533 97.5777 8.554C97.1857 8.98333 96.9897 9.59933 96.9897 10.402V14H95.8137ZM106.975 14.168C106.285 14.168 105.678 14.0093 105.155 13.692C104.642 13.3747 104.241 12.9407 103.951 12.39C103.671 11.8393 103.531 11.214 103.531 10.514C103.531 9.814 103.676 9.19333 103.965 8.652C104.255 8.10133 104.656 7.672 105.169 7.364C105.683 7.04667 106.289 6.888 106.989 6.888C107.559 6.888 108.063 7.00467 108.501 7.238C108.94 7.47133 109.281 7.798 109.523 8.218V3.92H110.699V14H109.635L109.523 12.852C109.299 13.188 108.977 13.4913 108.557 13.762C108.137 14.0327 107.61 14.168 106.975 14.168ZM107.101 13.146C107.568 13.146 107.979 13.0387 108.333 12.824C108.697 12.6 108.977 12.292 109.173 11.9C109.379 11.508 109.481 11.0507 109.481 10.528C109.481 10.0053 109.379 9.548 109.173 9.156C108.977 8.764 108.697 8.46067 108.333 8.246C107.979 8.022 107.568 7.91 107.101 7.91C106.644 7.91 106.233 8.022 105.869 8.246C105.515 8.46067 105.235 8.764 105.029 9.156C104.833 9.548 104.735 10.0053 104.735 10.528C104.735 11.0507 104.833 11.508 105.029 11.9C105.235 12.292 105.515 12.6 105.869 12.824C106.233 13.0387 106.644 13.146 107.101 13.146ZM112.616 14V3.92H113.792V14H112.616ZM116.476 17.08L118.198 13.328H117.792L115.034 7.056H116.308L118.604 12.46L121.04 7.056H122.258L117.708 17.08H116.476Z" fill="#434354"/>
<defs>
<linearGradient id="paint0_linear_189_7863" x1="17" y1="17" x2="-1.41264" y2="15.1636" gradientUnits="userSpaceOnUse">
<stop stop-color="#383838"/>
<stop offset="1" stop-color="#8264F9"/>
</linearGradient>
</defs>
</svg>
