<svg width="25" height="18" viewBox="0 0 25 18" fill="none" xmlns="http://www.w3.org/2000/svg">
<path d="M24.4636 4.88497C17.6371 -1.62952 7.01989 -1.62713 0.196089 4.88497C-0.0605261 5.12985 -0.0655352 5.54449 0.182603 5.79851L1.5019 7.14896C1.73848 7.39146 2.11916 7.39662 2.36499 7.16406C7.9874 1.84975 16.6715 1.84856 22.295 7.16406C22.5409 7.39662 22.9216 7.39106 23.1581 7.14896L24.4774 5.79851C24.7252 5.54449 24.7202 5.12985 24.4636 4.88497ZM12.3298 12.7213C10.9678 12.7213 9.86385 13.8602 9.86385 15.2655C9.86385 16.6708 10.9678 17.8098 12.3298 17.8098C13.6919 17.8098 14.7958 16.6708 14.7958 15.2655C14.7958 13.8602 13.6919 12.7213 12.3298 12.7213ZM20.1389 9.39824C15.6978 5.34611 8.95683 5.35049 4.52079 9.39824C4.25492 9.64074 4.24645 10.0617 4.49882 10.3185L5.82582 11.6698C6.05701 11.9051 6.42922 11.921 6.67543 11.7016C9.91009 8.81664 14.7569 8.823 17.9838 11.7016C18.23 11.921 18.6022 11.9055 18.8334 11.6698L20.1604 10.3185C20.4132 10.0617 20.4043 9.64034 20.1389 9.39824Z" fill="url(#paint0_linear_747_37462)"/>
<defs>
<linearGradient id="paint0_linear_747_37462" x1="24.6597" y1="17.8098" x2="-1.8667" y2="14.362" gradientUnits="userSpaceOnUse">
<stop stop-color="#383838"/>
<stop offset="1" stop-color="#8264F9"/>
</linearGradient>
</defs>
</svg>
