<svg width="46" height="18" viewBox="0 0 46 18" fill="none" xmlns="http://www.w3.org/2000/svg">
<path d="M17.8568 5.56571C12.8739 0.810558 5.12407 0.812299 0.143132 5.56571C-0.0441802 5.74446 -0.0478365 6.04712 0.133289 6.23254L1.09629 7.21828C1.26898 7.39529 1.54685 7.39906 1.72629 7.22931C5.83029 3.3502 12.1691 3.34933 16.274 7.22931C16.4534 7.39906 16.7313 7.395 16.904 7.21828L17.867 6.23254C18.0478 6.04712 18.0441 5.74446 17.8568 5.56571ZM8.99998 11.2857C8.00576 11.2857 7.19998 12.1171 7.19998 13.1429C7.19998 14.1686 8.00576 15 8.99998 15C9.9942 15 10.8 14.1686 10.8 13.1429C10.8 12.1171 9.9942 11.2857 8.99998 11.2857ZM14.7001 8.86011C11.4584 5.90232 6.53792 5.90551 3.29988 8.86011C3.10582 9.03712 3.09963 9.34442 3.28385 9.53187L4.25248 10.5182C4.42123 10.69 4.69292 10.7016 4.87263 10.5414C7.23373 8.43558 10.7716 8.44022 13.127 10.5414C13.3068 10.7016 13.5785 10.6903 13.7472 10.5182L14.7158 9.53187C14.9003 9.34442 14.8939 9.03683 14.7001 8.86011Z" fill="url(#paint0_linear_189_7857)"/>
<path d="M24.052 14.014L21.364 4.2H22.624L24.738 12.614L27.146 4.2H28.448L30.786 12.614L32.928 4.2H34.188L31.444 14H30.1L27.762 5.908L25.368 14L24.052 14.014ZM36.2152 5.516C35.9818 5.516 35.7858 5.44133 35.6272 5.292C35.4778 5.13333 35.4032 4.93733 35.4032 4.704C35.4032 4.48 35.4778 4.29333 35.6272 4.144C35.7858 3.99467 35.9818 3.92 36.2152 3.92C36.4392 3.92 36.6305 3.99467 36.7892 4.144C36.9478 4.29333 37.0272 4.48 37.0272 4.704C37.0272 4.93733 36.9478 5.13333 36.7892 5.292C36.6305 5.44133 36.4392 5.516 36.2152 5.516ZM35.6272 14V7.056H36.8032V14H35.6272ZM39.2288 14V8.05H38.1788V7.056H39.2288V5.852C39.2288 5.18 39.3968 4.69 39.7328 4.382C40.0688 4.074 40.5588 3.92 41.2028 3.92H41.9028V4.928H41.3848C41.0301 4.928 40.7781 5.00267 40.6288 5.152C40.4794 5.292 40.4048 5.53467 40.4048 5.88V7.056H44.7168V14H43.5408V8.05H40.4048V14H39.2288ZM44.1428 5.726C43.9188 5.726 43.7274 5.65133 43.5688 5.502C43.4101 5.34333 43.3308 5.14733 43.3308 4.914C43.3308 4.69 43.4101 4.50333 43.5688 4.354C43.7274 4.20467 43.9188 4.13 44.1428 4.13C44.3761 4.13 44.5674 4.20467 44.7168 4.354C44.8754 4.50333 44.9548 4.69 44.9548 4.914C44.9548 5.14733 44.8754 5.34333 44.7168 5.502C44.5674 5.65133 44.3761 5.726 44.1428 5.726Z" fill="#434354"/>
<defs>
<linearGradient id="paint0_linear_189_7857" x1="18" y1="15" x2="-1.36257" y2="12.4834" gradientUnits="userSpaceOnUse">
<stop stop-color="#383838"/>
<stop offset="1" stop-color="#8264F9"/>
</linearGradient>
</defs>
</svg>
